<svg xmlns="http://www.w3.org/2000/svg" height="215" width="215"><defs><clipPath id="P" clipPathUnits="userSpaceOnUse"><rect rx="3" height="215" width="215" fill="#046c00" stroke="#fff" stroke-width="2.84" stroke-opacity=".2"/></clipPath><clipPath id="O" clipPathUnits="userSpaceOnUse"><rect rx="3" height="215" width="215" fill="#046c00" stroke="#fff" stroke-width="2.84" stroke-opacity=".2"/></clipPath><clipPath id="N" clipPathUnits="userSpaceOnUse"><rect rx="3" height="215" width="215" fill="#046c00" stroke="#fff" stroke-width="2.84" stroke-opacity=".2"/></clipPath><clipPath id="M" clipPathUnits="userSpaceOnUse"><rect rx="3" height="215" width="215" fill="#046c00" stroke="#fff" stroke-width="2.84" stroke-opacity=".2"/></clipPath><clipPath id="L" clipPathUnits="userSpaceOnUse"><rect rx="3" height="215" width="215" fill="#046c00" stroke="#fff" stroke-width="2.84" stroke-opacity=".2"/></clipPath><clipPath id="K" clipPathUnits="userSpaceOnUse"><rect rx="3" height="215" width="215" fill="#046c00" stroke="#fff" stroke-width="2.84" stroke-opacity=".2"/></clipPath><clipPath id="J" clipPathUnits="userSpaceOnUse"><rect rx="3" height="215" width="215" fill="#046c00" stroke="#fff" stroke-width="2.84" stroke-opacity=".2"/></clipPath><clipPath id="I" clipPathUnits="userSpaceOnUse"><rect rx="3" height="215" width="215" fill="#046c00" stroke="#fff" stroke-width="2.84" stroke-opacity=".2"/></clipPath><clipPath id="H" clipPathUnits="userSpaceOnUse"><rect rx="3" height="215" width="215" fill="#046c00" stroke="#fff" stroke-width="2.84" stroke-opacity=".2"/></clipPath><clipPath id="G" clipPathUnits="userSpaceOnUse"><rect rx="3" height="215" width="215" fill="#046c00" stroke="#fff" stroke-width="2.84" stroke-opacity=".2"/></clipPath><clipPath id="F" clipPathUnits="userSpaceOnUse"><rect rx="3" height="215" width="215" fill="#046c00" stroke="#fff" stroke-width="2.84" stroke-opacity=".2"/></clipPath><clipPath id="E" clipPathUnits="userSpaceOnUse"><rect rx="3" height="215" width="215" fill="#046c00" stroke="#fff" stroke-width="2.84" stroke-opacity=".2"/></clipPath><clipPath id="D" clipPathUnits="userSpaceOnUse"><rect rx="3" height="215" width="215" fill="#046c00" stroke="#fff" stroke-width="2.84" stroke-opacity=".2"/></clipPath><clipPath id="C" clipPathUnits="userSpaceOnUse"><rect rx="3" height="215" width="215" fill="#046c00" stroke="#fff" stroke-width="2.84" stroke-opacity=".2"/></clipPath><clipPath id="B" clipPathUnits="userSpaceOnUse"><rect rx="3" height="215" width="215" fill="#046c00" stroke="#fff" stroke-width="2.84" stroke-opacity=".2"/></clipPath><clipPath id="A" clipPathUnits="userSpaceOnUse"><rect rx="3" height="215" width="215" fill="#046c00" stroke="#fff" stroke-width="2.84" stroke-opacity=".2"/></clipPath><clipPath id="z" clipPathUnits="userSpaceOnUse"><rect rx="3" height="215" width="215" fill="#046c00" stroke="#fff" stroke-width="2.84" stroke-opacity=".2"/></clipPath><clipPath id="y" clipPathUnits="userSpaceOnUse"><rect rx="3" height="215" width="215" fill="#046c00" stroke="#fff" stroke-width="2.84" stroke-opacity=".2"/></clipPath><clipPath id="x" clipPathUnits="userSpaceOnUse"><rect rx="3" height="215" width="215" fill="#046c00" stroke="#fff" stroke-width="2.84" stroke-opacity=".2"/></clipPath><clipPath id="w" clipPathUnits="userSpaceOnUse"><rect rx="3" height="215" width="215" fill="#046c00" stroke="#fff" stroke-width="2.84" stroke-opacity=".2"/></clipPath><clipPath id="v" clipPathUnits="userSpaceOnUse"><rect rx="3" height="215" width="215" fill="#046c00" stroke="#fff" stroke-width="2.84" stroke-opacity=".2"/></clipPath><clipPath id="u" clipPathUnits="userSpaceOnUse"><rect rx="3" height="215" width="215" fill="#046c00" stroke="#fff" stroke-width="2.84" stroke-opacity=".2"/></clipPath><clipPath id="t" clipPathUnits="userSpaceOnUse"><rect rx="3" height="215" width="215" fill="#046c00" stroke="#fff" stroke-width="2.84" stroke-opacity=".2"/></clipPath><clipPath id="s" clipPathUnits="userSpaceOnUse"><rect rx="3" height="215" width="215" fill="#046c00" stroke="#fff" stroke-width="2.84" stroke-opacity=".2"/></clipPath><clipPath id="r" clipPathUnits="userSpaceOnUse"><rect rx="3" height="215" width="215" fill="#046c00" stroke="#fff" stroke-width="2.84" stroke-opacity=".2"/></clipPath><clipPath id="q" clipPathUnits="userSpaceOnUse"><rect rx="3" height="215" width="215" fill="#046c00" stroke="#fff" stroke-width="2.84" stroke-opacity=".2"/></clipPath><clipPath id="p" clipPathUnits="userSpaceOnUse"><rect rx="3" height="215" width="215" fill="#046c00" stroke="#fff" stroke-width="2.84" stroke-opacity=".2"/></clipPath><clipPath id="o" clipPathUnits="userSpaceOnUse"><rect transform="scale(-1 1)" rx="3" height="215" width="215" fill="#046c00" stroke="#fff" stroke-width="2.84" stroke-opacity=".2"/></clipPath><clipPath id="n" clipPathUnits="userSpaceOnUse"><rect transform="scale(-1 1)" rx="3" height="215" width="215" fill="#046c00" stroke="#fff" stroke-width="2.84" stroke-opacity=".2"/></clipPath><clipPath id="m" clipPathUnits="userSpaceOnUse"><rect transform="scale(-1 1)" rx="3" height="215" width="215" fill="#046c00" stroke="#fff" stroke-width="2.84" stroke-opacity=".2"/></clipPath><clipPath id="l" clipPathUnits="userSpaceOnUse"><rect rx="3" height="215" width="215" fill="#046c00" stroke="#fff" stroke-width="2.84" stroke-opacity=".2"/></clipPath><clipPath id="k" clipPathUnits="userSpaceOnUse"><rect rx="3" height="215" width="215" fill="#046c00" stroke="#fff" stroke-width="2.84" stroke-opacity=".2"/></clipPath><clipPath id="j" clipPathUnits="userSpaceOnUse"><rect rx="3" height="215" width="215" fill="#046c00" stroke="#fff" stroke-width="2.84" stroke-opacity=".2"/></clipPath><clipPath id="i" clipPathUnits="userSpaceOnUse"><rect rx="3" height="215" width="215" fill="#046c00" stroke="#fff" stroke-width="2.84" stroke-opacity=".2"/></clipPath><clipPath id="h" clipPathUnits="userSpaceOnUse"><rect rx="3" height="215" width="215" fill="#046c00" stroke="#fff" stroke-width="2.84" stroke-opacity=".2"/></clipPath><clipPath id="g" clipPathUnits="userSpaceOnUse"><rect rx="3" height="215" width="215" fill="#046c00" stroke="#fff" stroke-width="2.84" stroke-opacity=".2"/></clipPath><clipPath id="f" clipPathUnits="userSpaceOnUse"><rect rx="3" height="215" width="215" fill="#046c00" stroke="#fff" stroke-width="2.84" stroke-opacity=".2"/></clipPath><clipPath id="e" clipPathUnits="userSpaceOnUse"><rect rx="3" height="215" width="215" fill="#046c00" stroke="#fff" stroke-width="2.84" stroke-opacity=".2"/></clipPath><clipPath id="d" clipPathUnits="userSpaceOnUse"><rect rx="3" height="215" width="215" fill="#046c00" stroke="#fff" stroke-width="2.84" stroke-opacity=".2"/></clipPath><clipPath id="c" clipPathUnits="userSpaceOnUse"><rect rx="3" height="215" width="215" fill="#046c00" stroke="#fff" stroke-width="2.84" stroke-opacity=".2"/></clipPath><clipPath id="b" clipPathUnits="userSpaceOnUse"><rect rx="3" height="215" width="215" fill="#046c00" stroke="#fff" stroke-width="2.84" stroke-opacity=".2"/></clipPath><clipPath id="a" clipPathUnits="userSpaceOnUse"><rect rx="3" height="215" width="215" fill="#046c00" stroke="#fff" stroke-width="2.84" stroke-opacity=".2"/></clipPath></defs><path clip-path="url(#a)" d="m 53.586989,215.14456 c 9.199338,-15.85675 21.127213,-38.93823 26.091696,-47.33262 4.964482,-8.39438 6.349144,-10.16317 7.952921,-11.43409 1.603777,-1.27092 3.754235,-2.46239 6.857113,-6.84094 3.102878,-4.37854 7.157751,-11.94361 5.433268,-17.1839 -1.72446,-5.24029 -8.73722,-7.9649 -8.495648,-15.53487 0.241572,-7.56997 7.677858,-18.126413 9.038891,-23.629643 1.36102,-5.50324 -3.937862,-5.21098 -6.571066,-4.85405 -2.633195,0.35692 -2.633195,0.7806 -3.5256,0.508 -0.892395,-0.27259 -2.674741,-1.24037 -4.262252,-3.32817 -1.587502,-2.087807 -2.979744,-5.29602 -2.088115,-8.775707 0.891639,-3.479686 4.067351,-7.232388 7.242772,-10.98475 -2.782114,-0.584258 -5.56453,-1.168585 -8.652181,0.276558 -3.087651,1.445142 -6.481867,4.920374 -9.169836,9.548439 -2.687968,4.628075 -5.160752,11.84064 -6.024907,18.25474 -0.864164,6.414093 -0.37872,12.570743 -1.577632,20.072383 -1.198902,7.50163 -4.078599,16.22889 -8.993082,24.96374 -4.914474,8.73484 -11.793966,17.35303 -20.815454,28.82797 C 27.006389,179.17259 11.138941,200.6982 0,214.99912 Z" fill="#7a4537"/><path clip-path="url(#b)" d="m 106.06452,55.041438 c -7.141733,2.057789 -14.283334,4.115538 -18.519762,6.052174 -4.236419,1.936635 -5.567937,3.752343 -9.364447,7.718783 -6.235316,7.761051 -10.786112,19.032152 -12.129626,25.104212 -1.509213,6.828803 1.237004,19.794153 0.77423,29.193513 -0.462773,9.39937 -1.673185,15.33038 -10.449152,28.82721 -8.775966,13.49683 -25.116351,34.55777 -41.457308,55.61944" fill="none" stroke="#7a4537" stroke-width="12.13" stroke-linecap="round" stroke-linejoin="bevel"/><path clip-path="url(#c)" d="m 110.94321,65.569128 c -6.56077,4.734692 -13.121543,9.469374 -18.599185,12.903933 -5.477643,3.434559 -9.871978,5.568916 -12.63214,7.768816 -2.760172,2.1999 -3.886036,4.46525 -5.749213,7.65142 -1.863177,3.18617 -4.463239,7.292433 -5.651311,12.894023 -1.188062,5.6016 -0.963444,12.69573 -1.456332,19.20894 -0.492887,6.51323 -1.703241,12.44391 -2.568357,15.74466 -0.865125,3.30074 -1.384817,3.97056 -9.555504,14.50166 -8.170688,10.53111 -23.991429,30.9223 -39.812713,51.31419" fill="none" stroke="#7a4537" stroke-width="13.3" stroke-linecap="round" stroke-linejoin="bevel"/><path clip-path="url(#d)" d="m 48.028099,211.78981 c 9.286662,-16.26236 18.573286,-32.52465 27.85986,-48.78685 m 4.750298,-6.16255 c 3.252458,-3.59482 6.504926,-7.18965 11.084001,-10.01413 4.579076,-2.82449 10.484782,-4.87865 16.390712,-6.93288" fill="none" stroke="#4d1d17" stroke-width="4.85" stroke-linecap="round"/><path clip-path="url(#e)" d="m 100.82038,55.691637 c -5.389868,1.804317 -10.649532,3.56505 -14.379961,5.487814 -3.730429,1.922764 -5.099544,4.366143 -6.936858,6.286384 M 75.234593,72.9444 c -2.919506,4.370738 -4.108703,5.994538 -5.501012,9.323598 -1.436661,3.435099 -1.968299,6.495829 -2.863073,10.797139 m -0.913872,8.730283 c 0.547613,6.76232 1.095178,13.52411 0.598942,19.51083 -0.496236,5.98671 -2.036233,11.19685 -3.576453,16.40776 m -4.112148,8.75765 c -3.970119,5.33478 -7.94015,10.66945 -15.983229,21.37516 -8.043079,10.70571 -20.15874,26.78184 -32.274595,42.85824" fill="none" stroke="#915a4f" stroke-width="4.85" stroke-linecap="round"/><rect clip-path="url(#f)" ry="1.68" rx="1.68" y="88.68" x="93.44" height="40.93" width="40.93" fill="#fff"/><path clip-path="url(#g)" d="m 90.933296,31.191902 c -3.101446,0 -5.597664,2.49621 -5.597656,5.597656 l 2.98e-4,108.869422 c -10e-7,3.10145 2.49621,5.59766 5.597656,5.59766 h 45.943356 c 3.10144,0 5.59767,-2.49621 5.59766,-5.59766 l -3e-4,-108.869422 c -1e-5,-3.101446 -2.49622,-5.597656 -5.59766,-5.597656 z" fill="#eee" stroke="#1f1f1f" stroke-width="2" stroke-linecap="round" stroke-linejoin="bevel"/><rect clip-path="url(#h)" ry="2.27" rx="2.27" y="39.04" x="93.44" height="40.93" width="40.93" fill="#ccc"/><path clip-path="url(#i)" d="m 96.433594,91.678513 v 1.664064 1.66406 1.66406 1.66407 1.66406 1.664063 1.66406 h 1.664062 1.664063 1.664061 1.66211 1.66406 1.66407 1.66406 v -1.66406 -1.664063 -1.66406 -1.66407 -1.66406 -1.66406 -1.664064 h -1.66406 -1.66407 -1.66406 -1.66211 -1.664061 -1.664063 z m 13.310546,0 v 1.664064 h 1.66406 v 1.66406 h -1.66406 v 1.66406 1.66407 1.66406 h 1.66406 v 1.664063 h 1.66407 v 1.66406 h 1.66406 v -1.66406 -1.664063 h 1.66406 1.66406 v -1.66406 h -1.66406 v -1.66407 h -1.66406 v -1.66406 h -1.66406 v -1.66406 h 1.66406 v -1.664064 h -1.66406 -1.66407 z m 6.65625,4.992184 h 1.66406 v -1.66406 h -1.66406 z m -1.66406,6.656253 v 1.66407 h -1.66406 v 1.66406 h 1.66406 1.66406 1.66406 v 1.66406 1.66211 h 1.66407 v -1.66211 h 1.66406 1.66406 1.66406 v 1.66211 1.66406 h -1.66406 v 1.66407 1.66406 1.66406 h -1.66406 v 1.66406 h 1.66406 v 1.66406 h 1.66406 v -1.66406 h 1.66407 v 1.66406 h 1.66406 v -1.66406 h 1.66406 v -1.66406 h -1.66406 -1.66406 -1.66407 v -1.66406 -1.66406 h 1.66407 v -1.66407 -1.66406 -1.66211 h 1.66406 v 1.66211 1.66406 h 1.66406 v -1.66406 h 1.66406 v -1.66211 -1.66406 -1.66406 h -1.66406 v 1.66406 h -1.66406 v -1.66406 h -1.66406 -1.66407 -1.66406 v 1.66406 h -1.66406 -1.66406 v -1.66406 h -1.66407 v -1.66407 -1.66406 h -1.66406 v 1.66406 z m 14.97656,8.31836 v 1.66407 h 1.66406 v -1.66407 z m 0,6.65625 v 1.66406 h 1.66406 v -1.66406 z m -6.65625,1.66406 h -1.66406 v 1.66407 1.66406 h -1.66406 v -1.66406 -1.66407 h -1.66407 -1.66406 v 1.66407 h -1.66406 v 1.66406 h 1.66406 1.66406 v 1.66406 h -1.66406 v 1.66407 h 1.66406 1.66407 1.66406 v -1.66407 h 1.66406 v 1.66407 h 1.66406 1.66407 1.66406 v -1.66407 h -1.66406 -1.66407 v -1.66406 h -1.66406 v -1.66406 z m -8.32031,1.66407 v -1.66407 -1.66406 -1.66406 h 1.66406 v -1.66406 h 1.66406 v -1.66406 -1.66407 h -1.66406 v 1.66407 h -1.66406 v 1.66406 h -1.66406 v 1.66406 1.66406 1.66406 1.66407 z m -1.66406,0 h -1.66407 v -1.66407 h -1.66406 v 1.66407 1.66406 1.66406 1.66407 h 1.66406 1.66407 v -1.66407 h -1.66407 v -1.66406 h 1.66407 z m 1.66406,-8.32031 v -1.66407 h 1.66406 v -1.66406 h -1.66406 v -1.66211 h -1.66406 -1.66407 v -1.66406 -1.66406 h -1.66406 v 1.66406 1.66406 h -1.66406 -1.66406 -1.66407 v -1.66406 h -1.66406 v -1.66406 h -1.66211 -1.664061 -1.664063 -1.664062 v 1.66406 1.66406 1.66211 h 1.664062 1.664063 v -1.66211 h -1.664063 v -1.66406 h 1.664063 1.664061 v 1.66406 h 1.66211 v 1.66211 h 1.66406 1.66407 1.66406 v 1.66406 h 1.66406 1.66406 v 1.66407 h 1.66407 z m -3.32813,0 h -1.66406 v 1.66406 h 1.66406 z m -3.32812,-1.66407 h -1.66406 -1.66407 v 1.66407 h 1.66407 1.66406 z m -8.318361,-1.66406 v 1.66406 1.66407 h 1.664061 1.66211 v -1.66407 h -1.66211 v -1.66406 z m 16.638671,6.65625 v 1.66406 h 1.66406 1.66407 v -1.66406 h -1.66407 z m 3.32813,0 h 1.66406 v -1.66406 h -1.66406 z m 3.32812,-4.99219 v -1.66406 h -1.66406 v 1.66406 z m -1.66406,0 h -1.66406 v 1.66407 h 1.66406 z m -9.98438,-9.98242 h -1.66406 v 1.66406 h 1.66406 z m 8.32032,-9.984377 v 1.664064 1.66406 1.66406 1.66407 1.66406 1.664063 1.66406 h 1.66406 1.66406 1.66406 1.66407 1.66406 1.66406 1.66406 v -1.66406 -1.664063 -1.66406 -1.66407 -1.66406 -1.66406 -1.664064 h -1.66406 -1.66406 -1.66406 -1.66407 -1.66406 -1.66406 z m -21.630864,1.664064 h 1.664063 1.664061 1.66211 1.66406 1.66407 v 1.66406 1.66406 1.66407 1.66406 1.664063 h -1.66407 -1.66406 -1.66211 -1.664061 -1.664063 v -1.664063 -1.66406 -1.66407 -1.66406 z m 23.294924,0 h 1.66406 1.66406 1.66407 1.66406 1.66406 v 1.66406 1.66406 1.66407 1.66406 1.664063 h -1.66406 -1.66406 -1.66407 -1.66406 -1.66406 v -1.664063 -1.66406 -1.66407 -1.66406 z m -21.630861,1.66406 v 1.66406 1.66407 1.66406 h 1.664061 1.66211 1.66406 v -1.66406 -1.66407 -1.66406 h -1.66406 -1.66211 z m 23.294921,0 v 1.66406 1.66407 1.66406 h 1.66406 1.66407 1.66406 v -1.66406 -1.66407 -1.66406 h -1.66406 -1.66407 z m -16.64062,9.984383 v 1.66406 h 1.66406 v -1.66406 z m -9.982426,9.98242 v 1.66406 1.66406 1.66406 1.66407 1.66406 1.66406 1.66407 h 1.664062 1.664063 1.664061 1.66211 1.66406 1.66407 1.66406 v -1.66407 -1.66406 -1.66406 -1.66407 -1.66406 -1.66406 -1.66406 h -1.66406 -1.66407 -1.66406 -1.66211 -1.664061 -1.664063 z m 1.664062,1.66406 h 1.664063 1.664061 1.66211 1.66406 1.66407 v 1.66406 1.66406 1.66407 1.66406 1.66406 h -1.66407 -1.66406 -1.66211 -1.664061 -1.664063 v -1.66406 -1.66406 -1.66407 -1.66406 z m 1.664063,1.66406 v 1.66406 1.66407 1.66406 h 1.664061 1.66211 1.66406 v -1.66406 -1.66407 -1.66406 h -1.66406 -1.66211 z m 26.623051,3.32813 v 1.66406 h 1.66406 v -1.66406 z m 3.32812,1.66406 v 1.66406 h 1.66406 v -1.66406 z"/><path clip-path="url(#j)" d="m 100.89059,36.181312 h -4.998042 c -2.94414,0 -5.31446,2.370307 -5.31446,5.314453 v 4.998047 m 46.652352,0 v -4.998047 c 0,-2.944146 -2.3703,-5.314453 -5.31445,-5.314453 h -4.99805 M 90.578088,72.521151 v 5 c 0,2.94415 2.37032,5.3125 5.31446,5.3125 h 4.998042 m 26.02735,0 h 4.99805 c 2.94415,0 5.31445,-2.36835 5.31445,-5.3125 v -5" fill="none" stroke="#c83737" stroke-width="2" stroke-linecap="round" stroke-linejoin="bevel"/><rect clip-path="url(#k)" ry="1.75" rx="1.75" y="134.61" x="93.44" height="9" width="40.93" fill="#4bac4f"/><path clip-path="url(#l)" d="m 111.44091,112.07744 c 3.23467,0 6.4696,0 9.7048,0" fill="none" stroke="#fff" stroke-width="1.94" stroke-linecap="round" stroke-linejoin="round"/><rect clip-path="url(#m)" transform="scale(-1 1)" ry="6.02" rx="6.02" y="108.5" x="-147.86" height="12.06" width="12.04" fill="#dba277"/><rect clip-path="url(#n)" transform="scale(-1 1)" ry="6.02" rx="6.02" y="120.14" x="-147.86" height="12.06" width="12.04" fill="#dba277"/><rect clip-path="url(#o)" transform="scale(-1 1)" ry="6.02" rx="6.02" y="117.79" x="-147.86" height="12.06" width="12.04" fill="#dba277"/><path clip-path="url(#p)" d="M 89.55776,84.956317 C 86.522474,104.45682 87.482943,101.67746 84.057143,116.45343" fill="none" stroke="#915a4f" stroke-width="14.65" stroke-linecap="round"/><path clip-path="url(#q)" d="m 89.931808,112.88546 c -1.68493,8.1636 -1.896135,11.55467 -5.764421,15.98413 -3.868286,4.42945 -12.518032,14.02276 -13.36531,14.08325 -0.847278,0.0605 2.107941,-3.41183 3.857873,-7.65971 2.241358,-7.67773 2.916663,-13.7801 5.474928,-23.44261" fill="#915a4f" stroke="#915a4f" stroke-width="4.85" stroke-linecap="round" stroke-linejoin="round"/><path clip-path="url(#r)" d="m 193.08521,257.6422 c -9.47916,-16.33908 -18.95836,-32.67823 -24.07385,-41.32795 -5.11549,-8.64972 -6.54227,-10.47231 -8.19483,-11.78189 -1.65256,-1.30958 -3.86843,-2.53729 -7.06569,-7.04902 -3.19726,-4.51173 -7.37547,-12.30691 -5.59854,-17.7066 1.77692,-5.39968 9.00299,-8.20717 8.75407,-16.0074 -0.24892,-7.80023 -7.9114,-18.67777 -9.31383,-24.3484 -1.40242,-5.67063 4.05764,-5.36948 6.77094,-5.0017 2.71329,0.36778 2.71329,0.80435 3.63284,0.52346 0.91954,-0.28089 2.7561,-1.2781 4.3919,-3.42941 1.63579,-2.15131 3.07038,-5.45711 2.15163,-9.04264 -0.91876,-3.58553 -4.19107,-7.45238 -7.46308,-11.31888 2.86674,-0.60203 5.73379,-1.20413 8.91536,0.28497 3.18157,1.4891 6.67903,5.07004 9.44876,9.83888 2.76973,4.76885 5.31773,12.2008 6.20817,18.81 0.89045,6.6092 0.39024,12.95312 1.62562,20.68294 1.23537,7.72981 4.20266,16.72253 9.26663,25.72307 5.06396,9.00054 12.15271,17.88087 21.44861,29.70485 9.2959,11.82398 20.77367,26.55993 32.25143,41.29585 0,0 -53.15614,0.14987 -53.15614,0.14987 z" fill="#dba277"/><path clip-path="url(#s)" d="m 141.82293,100.11354 c 7.35897,2.12039 14.7178,4.24073 19.08309,6.23627 4.36528,1.99554 5.7373,3.86648 9.64929,7.95357 6.42498,7.99712 11.1142,19.61106 12.49858,25.86782 1.55512,7.03652 -1.27463,20.39624 -0.79778,30.08151 0.47685,9.68527 1.72408,15.79669 10.76699,29.70406 9.04291,13.90737 25.88033,35.60893 42.71834,57.31125" fill="none" stroke="#dba277" stroke-width="12.5" stroke-linecap="round" stroke-linejoin="bevel"/><path clip-path="url(#t)" d="m 136.79585,110.96146 c 6.76033,4.87871 14.91524,7.20169 20.5595,10.74072 5.64426,3.53903 8.77768,8.29403 11.6218,10.56084 2.84413,2.26682 4.00424,4.60108 5.92409,7.88416 1.91985,3.28309 4.599,7.51425 5.82321,13.28623 1.2242,5.77198 0.99275,13.0819 1.50063,19.79323 0.50788,6.71134 1.75505,12.82242 2.64648,16.22357 0.89144,3.40114 1.42694,4.09133 9.84616,14.94277 8.41922,10.85144 24.72119,31.86288 41.02372,52.87504" fill="none" stroke="#dba277" stroke-width="13.7" stroke-linecap="round" stroke-linejoin="bevel"/><path clip-path="url(#u)" d="m 201.62468,261.62982 c -9.56914,-16.75702 -19.13824,-33.51397 -28.70729,-50.27083 m -4.89479,-6.35 c -3.35139,-3.70417 -6.70279,-7.40834 -11.42115,-10.31874 -4.71836,-2.9104 -10.8037,-5.02704 -16.88927,-7.14376" fill="none" stroke="#d59362" stroke-width="5" stroke-linecap="round"/><path clip-path="url(#v)" d="m 147.22659,100.78352 c 5.55381,1.8592 10.97346,3.67349 14.81736,5.65474 3.8439,1.98125 5.25466,4.49895 7.14786,6.4776 m 4.39882,5.64521 c 3.00831,4.50369 4.23368,6.17688 5.66834,9.6072 1.48036,3.53959 2.02817,6.69341 2.95016,11.12556 m 0.94167,8.99583 c -0.56427,6.96802 -1.12849,13.93549 -0.61716,20.10431 0.51133,6.16881 2.09817,11.53743 3.68524,16.90684 m 4.23723,9.02404 c 4.09088,5.49705 8.18167,10.99399 16.4694,22.02534 8.28773,11.03135 20.77192,27.59648 33.25631,44.16188" fill="none" stroke="#dfad87" stroke-width="5" stroke-linecap="round"/><path clip-path="url(#w)" d="m 136.28301,125.91108 c -3.33306,0 -6.66639,0 -10,0" fill="none" stroke="#fff" stroke-width="2" stroke-linecap="round" stroke-linejoin="round"/><rect clip-path="url(#x)" ry="6.2" rx="6.2" y="122.22" x="98.75" height="12.43" width="12.4" fill="#dba277"/><rect clip-path="url(#y)" ry="6.2" rx="6.2" y="134.22" x="98.75" height="12.43" width="12.4" fill="#dba277"/><rect clip-path="url(#z)" ry="6.2" rx="6.2" y="146.22" x="98.75" height="12.43" width="12.4" fill="#dba277"/><path clip-path="url(#A)" d="m 109.90385,76.216301 h 45.94281 c 3.10144,0 5.59827,2.496832 5.59827,5.598278 V 189.60236 c 0,3.10145 -2.49683,5.59828 -5.59827,5.59828 h -45.94281 c -3.10145,0 -5.59828,-2.49683 -5.59828,-5.59828 V 81.814579 c 0,-3.101446 2.49683,-5.598278 5.59828,-5.598278 z" fill="#383838" stroke="#1f1f1f" stroke-width="2" stroke-linecap="round" stroke-linejoin="bevel"/><rect clip-path="url(#B)" ry="1.68" rx="1.68" y="84.63" x="112.41" height="40.93" width="40.93" fill="#fff"/><path clip-path="url(#C)" d="m 115.4043,87.619919 v 1.664062 1.664063 1.664063 1.66406 1.66406 1.66407 1.66406 h 1.66406 1.66211 1.66406 1.66406 1.66407 1.66406 1.66406 v -1.66406 -1.66407 -1.66406 -1.66406 -1.664063 -1.664063 -1.664062 h -1.66406 -1.66406 -1.66407 -1.66406 -1.66406 -1.66211 z m 13.31054,0 v 1.664062 h 1.66407 v 1.664063 h -1.66407 v 1.664063 1.66406 1.66406 h 1.66407 v 1.66407 h 1.66406 v 1.66406 h 1.66406 v -1.66406 -1.66407 h 1.66406 1.66407 v -1.66406 h -1.66407 v -1.66406 h -1.66406 v -1.664063 h -1.66406 v -1.664063 h 1.66406 v -1.664062 h -1.66406 -1.66406 z m 6.65625,4.992188 h 1.66407 v -1.664063 h -1.66407 z m -1.66406,6.65625 v 1.664063 h -1.66406 v 1.66406 h 1.66406 1.66406 1.66407 v 1.66407 1.66406 h 1.66406 v -1.66406 h 1.66406 1.66406 1.66407 v 1.66406 1.66406 h -1.66407 v 1.66406 1.66407 1.66406 h -1.66406 v 1.66406 h 1.66406 v 1.66406 h 1.66407 v -1.66406 h 1.66406 v 1.66406 h 1.66406 v -1.66406 h 1.66406 v -1.66406 h -1.66406 -1.66406 -1.66406 v -1.66406 -1.66407 h 1.66406 v -1.66406 -1.66406 -1.66406 h 1.66406 v 1.66406 1.66406 h 1.66406 v -1.66406 h 1.66407 v -1.66406 -1.66407 -1.66406 h -1.66407 v 1.66406 h -1.66406 v -1.66406 h -1.66406 -1.66406 -1.66407 v 1.66406 h -1.66406 -1.66406 v -1.66406 h -1.66406 v -1.664063 -1.66406 h -1.66407 v 1.66406 z m 14.97656,8.320313 v 1.66406 h 1.66407 v -1.66406 z m 0,6.65625 v 1.66406 h 1.66407 v -1.66406 z m -6.65625,1.66406 h -1.66406 v 1.66407 1.66406 h -1.66406 v -1.66406 -1.66407 h -1.66406 -1.66407 v 1.66407 h -1.66406 v 1.66406 h 1.66406 1.66407 v 1.66406 h -1.66407 v 1.66406 h 1.66407 1.66406 1.66406 v -1.66406 h 1.66406 v 1.66406 h 1.66407 1.66406 1.66406 v -1.66406 h -1.66406 -1.66406 v -1.66406 h -1.66407 v -1.66406 z m -8.32031,1.66407 v -1.66407 -1.66406 -1.66406 h 1.66406 v -1.66406 h 1.66407 v -1.66407 -1.66406 h -1.66407 v 1.66406 h -1.66406 v 1.66407 h -1.66406 v 1.66406 1.66406 1.66406 1.66407 z m -1.66406,0 h -1.66406 v -1.66407 h -1.66407 v 1.66407 1.66406 1.66406 1.66406 h 1.66407 1.66406 v -1.66406 h -1.66406 v -1.66406 h 1.66406 z m 1.66406,-8.32032 v -1.66406 h 1.66406 v -1.66406 h -1.66406 v -1.66406 h -1.66406 -1.66406 v -1.66407 -1.66406 h -1.66407 v 1.66406 1.66407 h -1.66406 -1.66406 -1.66406 v -1.66407 h -1.66407 v -1.66406 h -1.66406 -1.66406 -1.66211 -1.66406 v 1.66406 1.66407 1.66406 h 1.66406 1.66211 v -1.66406 h -1.66211 v -1.66407 h 1.66211 1.66406 v 1.66407 h 1.66406 v 1.66406 h 1.66407 1.66406 1.66406 v 1.66406 h 1.66406 1.66407 v 1.66406 h 1.66406 z m -3.32812,0 h -1.66407 v 1.66407 h 1.66407 z m -3.32813,-1.66406 h -1.66406 -1.66406 v 1.66406 h 1.66406 1.66406 z m -8.32031,-1.66406 v 1.66406 1.66406 h 1.66406 1.66406 v -1.66406 h -1.66406 v -1.66406 z m 16.64062,6.65625 v 1.66406 h 1.66407 1.66406 v -1.66406 h -1.66406 z m 3.32813,0 h 1.66406 v -1.66406 h -1.66406 z m 3.32812,-4.99219 v -1.66406 h -1.66406 v 1.66406 z m -1.66406,0 h -1.66406 v 1.66406 h 1.66406 z m -9.98437,-9.984373 h -1.66407 v 1.66406 h 1.66407 z m 8.32031,-9.984378 v 1.664062 1.664063 1.664063 1.66406 1.66406 1.66407 1.66406 h 1.66406 1.66406 1.66407 1.66406 1.66406 1.66406 1.66407 v -1.66406 -1.66407 -1.66406 -1.66406 -1.664063 -1.664063 -1.664062 h -1.66407 -1.66406 -1.66406 -1.66406 -1.66407 -1.66406 z m -21.63086,1.664062 h 1.66211 1.66406 1.66406 1.66407 1.66406 v 1.664063 1.664063 1.66406 1.66406 1.66407 h -1.66406 -1.66407 -1.66406 -1.66406 -1.66211 v -1.66407 -1.66406 -1.66406 -1.664063 z m 23.29492,0 h 1.66406 1.66407 1.66406 1.66406 1.66406 v 1.664063 1.664063 1.66406 1.66406 1.66407 h -1.66406 -1.66406 -1.66406 -1.66407 -1.66406 v -1.66407 -1.66406 -1.66406 -1.664063 z m -21.63281,1.664063 v 1.664063 1.66406 1.66406 h 1.66406 1.66406 1.66407 v -1.66406 -1.66406 -1.664063 h -1.66407 -1.66406 z m 23.29687,0 v 1.664063 1.66406 1.66406 h 1.66407 1.66406 1.66406 v -1.66406 -1.66406 -1.664063 h -1.66406 -1.66406 z m -16.64062,9.984376 v 1.66406 h 1.66406 v -1.66406 z m -9.98242,9.98438 v 1.66406 1.66406 1.66406 1.66407 1.66406 1.66406 1.66406 h 1.66406 1.66211 1.66406 1.66406 1.66407 1.66406 1.66406 v -1.66406 -1.66406 -1.66406 -1.66407 -1.66406 -1.66406 -1.66406 h -1.66406 -1.66406 -1.66407 -1.66406 -1.66406 -1.66211 z m 1.66406,1.66406 h 1.66211 1.66406 1.66406 1.66407 1.66406 v 1.66406 1.66406 1.66407 1.66406 1.66406 h -1.66406 -1.66407 -1.66406 -1.66406 -1.66211 v -1.66406 -1.66406 -1.66407 -1.66406 z m 1.66211,1.66406 v 1.66406 1.66407 1.66406 h 1.66406 1.66406 1.66407 v -1.66406 -1.66407 -1.66406 h -1.66407 -1.66406 z m 26.625,3.32813 v 1.66406 h 1.66406 v -1.66406 z m 3.32812,1.66406 v 1.66406 h 1.66407 v -1.66406 z"/><path clip-path="url(#D)" d="m 119.86114,81.766546 h -4.99804 c -2.94414,0 -5.31446,2.370307 -5.31446,5.314453 v 4.998048 m 46.65235,0 v -4.998048 c 0,-2.944146 -2.3703,-5.314453 -5.31445,-5.314453 h -4.99805 m -36.33985,36.339844 v 5 c 0,2.94415 2.37032,5.3125 5.31446,5.3125 h 4.99804 m 26.02735,0 h 4.99805 c 2.94415,0 5.31445,-2.36835 5.31445,-5.3125 v -5" fill="none" stroke="#c83737" stroke-width="2" stroke-linecap="round" stroke-linejoin="bevel"/><path clip-path="url(#E)" d="m 112.04943,90.601349 h 41.30928 v 5.163658 h -41.30928 z m 0,7.999998 h 41.30928 v 2.353403 h -41.30928 z" opacity=".4" fill="#383838"/><rect clip-path="url(#F)" ry="1.75" rx="1.75" y="178.56" x="112.41" height="9" width="40.93" fill="#4bac4f"/><path clip-path="url(#G)" d="m 89.751772,83.609862 c -0.369083,1.89132 -0.738173,3.78262 -1.107256,5.67394" fill="#f2f2f2" stroke="#e8c5aa" stroke-width="9.88" stroke-linecap="round"/><path clip-path="url(#H)" d="m 87.480646,94.693277 c -0.369083,1.89132 -0.738173,3.78262 -1.107256,5.673943" fill="#915a4f" stroke="#915a4f" stroke-width="9.88" stroke-linecap="round"/><path clip-path="url(#I)" d="m 85.904365,107.46601 -1.982203,-0.60328" fill="none" stroke="#7a4537" stroke-width="4.85" stroke-linecap="round"/><path clip-path="url(#J)" d="m 157.77491,128.2172 c 3.03529,19.50051 2.07482,16.72115 5.50062,31.49712" fill="none" stroke="#dfad87" stroke-width="14.65" stroke-linecap="round"/><path clip-path="url(#K)" d="m 157.40086,156.14635 c 1.68493,8.1636 1.89614,11.55467 5.76442,15.98413 3.86829,4.42945 12.51803,14.02276 13.36531,14.08325 0.84728,0.0605 -2.10794,-3.41183 -3.85787,-7.65971 -2.24136,-7.67773 -2.91666,-13.7801 -5.47493,-23.44261" fill="#dfad87" stroke="#dfad87" stroke-width="4.85" stroke-linecap="round" stroke-linejoin="round"/><path clip-path="url(#L)" d="m 157.5809,126.87075 c 0.36908,1.89132 0.73817,3.78262 1.10725,5.67394" fill="#f2f2f2" stroke="#e8c5aa" stroke-width="9.88" stroke-linecap="round"/><path clip-path="url(#M)" d="m 159.85202,137.95416 c 0.36909,1.89133 0.73818,3.78263 1.10726,5.67395" fill="#915a4f" stroke="#dfad87" stroke-width="9.88" stroke-linecap="round"/><path clip-path="url(#N)" d="m 161.4283,150.7269 1.98221,-0.60328" fill="none" stroke="#dba277" stroke-width="4.85" stroke-linecap="round"/><rect clip-path="url(#O)" ry="1.68" rx="1.68" y="132.63" x="112.41" height="40.93" width="40.93" opacity=".19" fill="#fff"/><path clip-path="url(#P)" d="m 115.4043,135.62188 v 1.39843 1.39649 1.39843 1.39649 1.39844 1.39843 1.39649 h 1.39648 1.39844 1.39844 1.39648 1.39844 1.39648 1.39844 v -1.39649 -1.39843 -1.39844 -1.39649 -1.39843 -1.39649 -1.39843 h -1.39844 -1.39648 -1.39844 -1.39648 -1.39844 -1.39844 z m 13.97656,0 v 1.39843 1.39649 h 1.39844 v -1.39649 -1.39843 z m 2.79492,0 v 1.39843 h 1.39844 v -1.39843 z m 5.5918,0 v 1.39843 h -1.39844 v 1.39649 h 1.39844 1.39844 v -1.39649 -1.39843 z m -1.39844,2.79492 h -1.39648 v 1.39843 h -1.39844 v -1.39843 h -1.39844 v 1.39843 1.39649 h 1.39844 v 1.39844 h 1.39844 v -1.39844 h 1.39648 v -1.39649 z m -2.79492,4.19336 h -1.39844 -1.39648 v 1.39843 h 1.39648 v 1.39649 h 1.39844 v -1.39649 z m -1.39844,2.79492 h -1.39648 v -1.39649 h -1.39844 v 1.39649 h -1.39844 v 1.39844 h -1.39648 -1.39844 -1.39844 v 1.39843 h 1.39844 v 1.39649 h 1.39844 v -1.39649 h 1.39648 1.39844 v -1.39843 h 1.39844 v 1.39843 h 1.39648 v -1.39843 z m 0,2.79687 v 1.39649 h 1.39844 v -1.39649 z m 1.39844,0 h 1.39844 1.39648 v -1.39843 -1.39844 -1.39649 h -1.39648 v 1.39649 1.39844 h -1.39844 z m 2.79492,-4.19336 h 1.39844 v -1.39843 h -1.39844 z m 1.39844,-1.39843 h 1.39844 v -1.39844 h -1.39844 z m 0,1.39843 v 1.39649 1.39844 h 1.39844 v -1.39844 -1.39649 z m 1.39844,2.79493 v 1.39843 h 1.39648 v -1.39843 z m -8.38672,1.39843 h -1.39844 v 1.39649 1.39844 h 1.39844 v -1.39844 z m -4.19336,1.39649 v 1.39844 h -1.39844 v 1.39843 h 1.39844 v 1.39649 1.39843 h 1.39648 v -1.39843 h 1.39844 1.39844 v -1.39649 h -1.39844 -1.39844 v -1.39843 -1.39844 z m 1.39648,5.59179 v 1.39844 1.39649 1.39843 h 1.39844 v -1.39843 h 1.39844 v 1.39843 h 1.39648 v 1.39844 h 1.39844 v 1.39649 h 1.39844 1.39648 v -1.39649 h -1.39648 v -1.39844 h 1.39648 1.39844 v 1.39844 1.39649 1.39843 h -1.39844 v 1.39649 h 1.39844 1.39844 v 1.39844 h 1.39648 v 1.39843 1.39649 1.39843 h 1.39844 v -1.39843 h 1.39648 v -1.39649 -1.39843 h -1.39648 v -1.39844 h 1.39648 v 1.39844 h 1.39844 1.39844 v 1.39843 h 1.39648 v -1.39843 h 1.39844 v 1.39843 1.39649 h -1.39844 -1.39648 -1.39844 v 1.39843 h 1.39844 1.39648 1.39844 1.39844 v -1.39843 -1.39649 -1.39843 -1.39844 h -1.39844 -1.39844 v -1.39649 h -1.39648 -1.39844 v -1.39843 h 1.39844 1.39648 v 1.39843 h 1.39844 1.39844 v -1.39843 -1.39649 h -1.39844 v -1.39844 h -1.39844 v -1.39843 h -1.39648 v 1.39843 h -1.39844 v -1.39843 h 1.39844 v -1.39649 -1.39844 -1.39843 h -1.39844 v 1.39843 1.39844 h -1.39844 v 1.39649 h -1.39648 -1.39844 -1.39648 v -1.39649 h 1.39648 v -1.39844 h -1.39648 v -1.39843 h -1.39844 v 1.39843 h -1.39844 v 1.39844 h -1.39648 v 1.39649 h -1.39844 -1.39844 v -1.39649 h 1.39844 v -1.39844 h -1.39844 -1.39648 v 1.39844 h -1.39844 v -1.39844 z m 9.78516,-1.39843 v -1.39649 h -1.39844 -1.39648 -1.39844 v -1.39843 h -1.39844 v 1.39843 1.39649 h 1.39844 1.39844 1.39648 z m 1.39844,0 h 1.39648 1.39844 v -1.39649 h 1.39648 v -1.39843 h -1.39648 v -1.39844 h -1.39844 v 1.39844 h -1.39648 v 1.39843 z m 0,-2.79492 v -1.39844 h -1.39844 -1.39844 -1.39648 v 1.39844 h 1.39648 1.39844 z m 2.79492,-1.39844 h 1.39648 v -1.39649 -1.39843 h -1.39648 v 1.39843 z m 1.39648,2.79687 v 1.39649 h 1.39844 v -1.39649 z m 0,1.39649 h -1.39648 v 1.39843 1.39844 h 1.39648 v -1.39844 z m 2.79688,0 h 1.39648 1.39844 v -1.39649 h 1.39844 v -1.39843 -1.39844 h -1.39844 v -1.39649 -1.39843 h -1.39844 v 1.39843 1.39649 1.39844 1.39843 h -1.39648 z m -6.98828,12.58008 h -1.39844 v 1.39843 h -1.39844 v 1.39649 h 1.39844 1.39844 v -1.39649 z m -2.79688,2.79492 h -1.39648 -1.39844 v -1.39649 h -1.39844 v 1.39649 h -1.39648 v 1.39843 h 1.39648 1.39844 1.39844 1.39648 z m -5.58984,0 v -1.39649 -1.39843 h -1.39844 -1.39844 v -1.39844 h 1.39844 1.39844 v 1.39844 h 1.39648 v -1.39844 h 1.39844 v 1.39844 1.39843 h 1.39844 1.39648 v -1.39843 h -1.39648 v -1.39844 -1.39649 h -1.39844 -1.39844 -1.39648 -1.39844 v -1.39843 h -1.39844 v 1.39843 h -1.39648 v 1.39649 1.39844 1.39843 1.39649 1.39843 h 1.39648 v -1.39843 h 1.39844 z m -2.79688,-6.98828 v -1.39649 -1.39844 h -1.39648 v 1.39844 1.39649 z m -1.39648,-6.98829 h -1.39844 -1.39844 v 1.39844 h 1.39844 1.39844 z m -2.79688,1.39844 h -1.39648 v 1.39649 1.39843 h 1.39648 1.39844 v -1.39843 h -1.39844 z m 1.39844,-4.19336 h -1.39844 -1.39648 v -1.39843 h -1.39844 -1.39648 v 1.39843 h 1.39648 v 1.39649 1.39843 h 1.39844 v -1.39843 h 1.39648 1.39844 z m -4.19336,2.79492 h -1.39648 v 1.39844 h 1.39648 z m -1.39648,1.39844 h -1.39844 v -1.39844 h -1.39844 v 1.39844 1.39649 1.39843 h 1.39844 1.39844 1.39648 v -1.39843 h -1.39648 z m 0,-5.59179 v -1.39844 -1.39649 h 1.39648 v 1.39649 h 1.39844 v -1.39649 -1.39843 h -1.39844 -1.39648 -1.39844 -1.39844 -1.39648 v 1.39843 h 1.39648 v 1.39649 h 1.39844 v 1.39844 z m -1.39844,0 h -1.39844 v 1.39843 h 1.39844 z m -1.39844,1.39843 h -1.39648 v 1.39649 h 1.39648 z m 8.38672,-1.39843 v -1.39844 h -1.39844 v 1.39844 z m 2.79492,-5.5918 v -1.39649 h 1.39844 v -1.39843 -1.39844 h 1.39844 v -1.39649 h -1.39844 -1.39844 -1.39648 v 1.39649 h 1.39648 v 1.39844 h -1.39648 v 1.39843 1.39649 z m 12.58008,-9.7832 v 1.39843 1.39649 1.39843 1.39649 1.39844 1.39843 1.39649 h 1.39844 1.39648 1.39844 1.39844 1.39648 1.39844 1.39844 v -1.39649 -1.39843 -1.39844 -1.39649 -1.39843 -1.39649 -1.39843 h -1.39844 -1.39844 -1.39648 -1.39844 -1.39844 -1.39648 z m -23.76172,1.39843 h 1.39844 1.39844 1.39648 1.39844 1.39648 v 1.39649 1.39843 1.39649 1.39844 1.39843 h -1.39648 -1.39844 -1.39648 -1.39844 -1.39844 v -1.39843 -1.39844 -1.39649 -1.39843 z m 9.78516,0 v 1.39649 h 1.39648 v -1.39649 z m 15.375,0 h 1.39648 1.39844 1.39844 1.39648 1.39844 v 1.39649 1.39843 1.39649 1.39844 1.39843 h -1.39844 -1.39648 -1.39844 -1.39844 -1.39648 v -1.39843 -1.39844 -1.39649 -1.39843 z m -23.76172,1.39649 v 1.39843 1.39649 1.39844 h 1.39844 1.39648 1.39844 v -1.39844 -1.39649 -1.39843 h -1.39844 -1.39648 z m 25.1582,0 v 1.39843 1.39649 1.39844 h 1.39844 1.39844 1.39648 v -1.39844 -1.39649 -1.39843 h -1.39648 -1.39844 z m 1.39844,8.38672 v 1.39843 1.39649 1.39844 h 1.39844 v -1.39844 -1.39649 -1.39843 z m 2.79492,8.38671 v 1.39844 h 1.39844 v 1.39649 h 1.39844 v -1.39649 -1.39844 h -1.39844 z m -8.38476,4.19336 h 1.39648 1.39844 1.39648 v 1.39844 1.39649 1.39843 h -1.39648 -1.39844 -1.39648 v -1.39843 -1.39649 z m -23.76172,1.39844 v 1.39649 1.39843 1.39649 1.39844 1.39843 1.39649 1.39843 h 1.39648 1.39844 1.39844 1.39648 1.39844 1.39648 1.39844 v -1.39843 -1.39649 -1.39843 -1.39844 -1.39649 -1.39843 -1.39649 h -1.39844 -1.39648 -1.39844 -1.39648 -1.39844 -1.39844 z m 25.1582,0 v 1.39649 h 1.39844 v -1.39649 z m -23.76172,1.39649 h 1.39844 1.39844 1.39648 1.39844 1.39648 v 1.39843 1.39649 1.39844 1.39843 1.39649 h -1.39648 -1.39844 -1.39648 -1.39844 -1.39844 v -1.39649 -1.39843 -1.39844 -1.39649 z m 1.39844,1.39843 v 1.39649 1.39844 1.39843 h 1.39844 1.39648 1.39844 v -1.39843 -1.39844 -1.39649 h -1.39844 -1.39648 z" opacity=".19"/></svg>