<?xml version="1.0" standalone="no"?>
<!DOCTYPE svg PUBLIC "-//W3C//DTD SVG 20010904//EN"
 "http://www.w3.org/TR/2001/REC-SVG-20010904/DTD/svg10.dtd">
<svg version="1.0" xmlns="http://www.w3.org/2000/svg"
 width="700.000000pt" height="700.000000pt" viewBox="0 0 700.000000 700.000000"
 preserveAspectRatio="xMidYMid meet">
<metadata>
Created by potrace 1.14, written by Peter Selinger 2001-2017
</metadata>
<g transform="translate(0.000000,700.000000) scale(0.100000,-0.100000)"
fill="#000000" stroke="none">
<path d="M474 5583 c4 -59 9 -109 10 -112 2 -3 7 -39 10 -79 4 -40 9 -78 11
-85 2 -6 7 -30 10 -51 9 -63 54 -254 81 -346 76 -254 177 -500 310 -750 65
-122 74 -137 143 -252 71 -118 243 -371 271 -398 3 -3 25 -32 49 -65 37 -50
159 -200 196 -241 6 -6 55 -61 110 -123 179 -199 431 -437 655 -621 30 -25 57
-47 60 -50 31 -35 578 -421 626 -441 29 -13 124 -72 124 -78 0 -7 -38 -36
-150 -118 -75 -54 -287 -181 -385 -230 -161 -81 -400 -174 -522 -203 l-53 -12
0 -45 0 -45 58 7 c466 53 810 154 1337 393 l109 49 96 -44 c429 -201 846 -333
1190 -378 25 -3 61 -8 80 -10 19 -3 58 -8 87 -10 l51 -4 -2 40 c-3 42 -17 59
-48 59 -23 0 -216 65 -318 107 -216 89 -456 224 -644 362 l-109 80 78 48 c279
173 709 481 780 557 6 6 35 31 65 56 66 53 133 114 258 235 346 332 614 654
846 1015 104 161 104 161 116 185 6 11 26 47 46 80 53 91 197 388 239 495 110
280 194 585 220 799 4 30 9 63 11 75 2 12 7 75 10 140 6 100 5 118 -7 113 -8
-3 -142 -56 -299 -117 -687 -268 -748 -289 -1190 -419 -151 -45 -305 -90 -342
-102 l-66 -20 0 -132 c-1 -176 -18 -365 -47 -517 -8 -41 -16 -86 -19 -100 -27
-162 -161 -584 -236 -745 -5 -11 -29 -63 -53 -115 -104 -229 -216 -427 -364
-645 -64 -92 -222 -302 -258 -341 -5 -6 -33 -38 -62 -70 -28 -33 -65 -74 -81
-92 l-30 -34 -102 115 c-55 63 -137 161 -180 218 -44 57 -83 109 -88 114 -5 6
-51 76 -104 155 -172 262 -306 518 -414 795 -20 50 -40 99 -44 110 -10 22 -72
215 -90 280 -30 106 -40 147 -58 240 -11 55 -23 116 -26 135 -3 19 -8 46 -11
60 -3 14 -8 50 -11 80 -2 30 -7 66 -10 80 -3 14 -7 108 -9 210 -3 102 -5 188
-5 191 0 11 -39 23 -400 129 -338 100 -458 139 -690 225 -131 49 -395 151
-425 165 -11 4 -69 27 -130 50 -60 22 -119 45 -130 50 -23 11 -128 50 -134 50
-2 0 0 -48 3 -107z"/>
</g>
</svg>
