<?xml version="1.0" encoding="UTF-8" standalone="no"?>
<svg
   viewBox="0 0 600 600"
   version="1.1"
   id="svg4"
   sodipodi:docname="icon.svg"
   inkscape:version="1.2.2 (b0a8486541, 2022-12-01)"
   inkscape:export-filename="icon-64.png"
   inkscape:export-xdpi="10.24"
   inkscape:export-ydpi="10.24"
   width="600"
   height="600"
   xmlns:inkscape="http://www.inkscape.org/namespaces/inkscape"
   xmlns:sodipodi="http://sodipodi.sourceforge.net/DTD/sodipodi-0.dtd"
   xmlns="http://www.w3.org/2000/svg"
   xmlns:svg="http://www.w3.org/2000/svg">
  <defs
     id="defs8" />
  <sodipodi:namedview
     id="namedview6"
     pagecolor="#ffffff"
     bordercolor="#666666"
     borderopacity="1.0"
     inkscape:showpageshadow="2"
     inkscape:pageopacity="0.0"
     inkscape:pagecheckerboard="0"
     inkscape:deskcolor="#d1d1d1"
     showgrid="false"
     inkscape:zoom="0.65186406"
     inkscape:cx="304.51134"
     inkscape:cy="246.21698"
     inkscape:window-width="1366"
     inkscape:window-height="700"
     inkscape:window-x="0"
     inkscape:window-y="0"
     inkscape:window-maximized="1"
     inkscape:current-layer="svg4" />
  <!--! Font Awesome Free 6.2.0 by @fontawesome - https://fontawesome.com License - https://fontawesome.com/license/free (Icons: CC BY 4.0, Fonts: SIL OFL 1.1, Code: MIT License) Copyright 2022 Fonticons, Inc. -->
  <path
     id="path2"
     style="fill:#6800a5;fill-opacity:1"
     d="M 300.01516,76 C 158.61558,76 44.015164,169.10033 44.015164,284 c 0,45.09985 17.69931,86.8009 47.69922,120.80078 -1.89999,24.49994 -11.39846,46.2985 -21.39843,62.89844 -5.59999,9.19997 -11.10119,16.60159 -15.20118,21.60156 -2.09999,2.6 -3.80039,4.49922 -4.90039,5.69922 -0.59999,0.7 -0.99883,1.10039 -1.29882,1.40039 l -0.30079,0.29883 c -4.49998,4.59997 -5.90038,11.40042 -3.40039,17.40039 2.5,5.99997 8.3008,9.90039 14.80078,9.90039 28.69992,0 57.599686,-8.90081 81.599606,-19.30078 22.99994,-9.99997 42.40081,-21.89964 54.30078,-30.59961 C 227.71546,485.59958 262.91528,492 300.01516,492 c 141.39958,0 256,-93.10033 256,-208 0,-114.89967 -114.60042,-208 -256,-208 z M 136.01712,187.12695 c 0.24553,-0.0116 0.49445,-0.0101 0.74414,0.006 0.57072,0.0366 1.15112,0.14543 1.72851,0.33789 l 86.96289,28.98633 c 2.69618,0.90095 4.47893,3.40874 4.55273,6.24609 2.42723,101.41241 82.0881,177.84744 135.29883,183.2129 3.3551,0.34291 5.83594,3.26732 5.83594,6.64257 v 0.21485 c 0,3.77866 -3.11869,6.90637 -6.89062,6.73828 -116.96416,-5.20422 -226.13025,-141.19171 -234.62891,-225.0353 -0.40263,-3.97112 2.71348,-7.17559 6.39649,-7.34961 z m 308.87109,0.0215 c 3.6866,0.16878 6.78452,3.37064 6.39843,7.34179 -5.64785,55.7389 -55.80613,134.54128 -123.24414,182.61524 -9.6148,-6.18577 -19.29615,-14.25405 -28.37304,-23.73438 28.17199,-32.67682 49.95492,-78.33078 51.23242,-130.64062 0.0673,-2.89116 1.88283,-5.37983 4.57226,-6.25391 l 86.9375,-28.97851 c 0.57992,-0.19331 1.16065,-0.30437 1.73243,-0.3418 0.25015,-0.0164 0.49836,-0.0191 0.74414,-0.008 z M 252.46828,393.10742 c 7.26153,4.84102 14.65816,9.41307 22.25586,13.44727 -18.82617,7.46322 -38.32514,12.10248 -58.02539,12.97656 -3.83247,0.13448 -6.92578,-2.95856 -6.92578,-6.79102 v -0.20117 c 0,-3.36181 2.48779,-6.25364 5.84961,-6.58984 11.43018,-1.143 24.00356,-5.58027 36.8457,-12.8418 z" />
</svg>
