<?xml version="1.0" encoding="UTF-8" standalone="no"?>
<!-- Created with Inkscape (http://www.inkscape.org/) -->

<svg
   id="svg3410"
   height="287.4003"
   width="398.55994"
   version="1.1"
   viewBox="0 0 398.55871 287.39943"
   sodipodi:docname="libervia.svg"
   inkscape:version="1.4.3 (0d15f75042, 2025-12-25)"
   xmlns:inkscape="http://www.inkscape.org/namespaces/inkscape"
   xmlns:sodipodi="http://sodipodi.sourceforge.net/DTD/sodipodi-0.dtd"
   xmlns="http://www.w3.org/2000/svg"
   xmlns:svg="http://www.w3.org/2000/svg"
   xmlns:rdf="http://www.w3.org/1999/02/22-rdf-syntax-ns#"
   xmlns:cc="http://creativecommons.org/ns#"
   xmlns:dc="http://purl.org/dc/elements/1.1/">
  <defs
     id="defs1" />
  <sodipodi:namedview
     id="namedview1"
     pagecolor="#ffffff"
     bordercolor="#666666"
     borderopacity="1.0"
     inkscape:showpageshadow="2"
     inkscape:pageopacity="0.0"
     inkscape:pagecheckerboard="0"
     inkscape:deskcolor="#d1d1d1"
     inkscape:zoom="0.62444759"
     inkscape:cx="0.80070771"
     inkscape:cy="69.661571"
     inkscape:window-width="1280"
     inkscape:window-height="955"
     inkscape:window-x="0"
     inkscape:window-y="0"
     inkscape:window-maximized="1"
     inkscape:current-layer="svg3410" />
  <metadata
     id="metadata3415">
    <rdf:RDF>
      <cc:Work
         rdf:about="">
        <dc:format>image/svg+xml</dc:format>
        <dc:type
           rdf:resource="http://purl.org/dc/dcmitype/StillImage" />
      </cc:Work>
    </rdf:RDF>
  </metadata>
  <g
     id="layer4"
     transform="translate(-188.14849,-447.65762)">
    <path
       id="path5718"
       opacity="0"
       d="m 387.46,496.82 -0.19965,212.78 -12.082,-0.62309 c -34.436,32.721 -114.18,32.546 -134.36,-3.5577 -4.7203,-23.465 20.948,-30.023 32.442,-44.505 -23.734,-28.947 -97.438,-39.35 -82.765,-73.898 17.397,-26.551 47.197,-24.995 71.175,-26.317 11.89,-17.878 26.232,-26.881 47.481,-39.658 21.249,-12.777 58.784,-23.693 78.31,-24.226 z"
       stroke-width="3.4905px" />
    <path
       id="path5722"
       d="m 261.6,672.63 c 10.212,4.8744 20.685,9.2003 31.36,12.953 14.523,5.1054 29.398,9.1436 44.313,12.953 13.137,3.3554 26.319,6.5372 39.541,9.5443 -17.818,13.682 -39.644,22.077 -62.038,23.861 -15.966,1.272 -32.172,-0.77203 -47.381,-5.7948 -6.291,-2.0776 -12.529,-4.7285 -17.545,-9.0569 -2.5079,-2.1642 -4.6835,-4.7382 -6.2352,-7.6648 -1.5518,-2.9266 -2.4674,-6.2126 -2.4666,-9.5252 0.001,-4.3283 1.5543,-8.541 3.7496,-12.271 3.8555,-6.5514 9.7755,-11.867 16.703,-14.998"
       fill-rule="evenodd"
       fill="#c11616" />
    <path
       id="path4229"
       d="m 387.37,496.77 0.007,5.4198 -0.014,-0.007 0.007,-5.413 z m 0,0 c -19.526,0.53321 -57.062,11.445 -78.311,24.222 -21.249,12.777 -35.586,21.778 -47.476,39.657 -23.978,1.3225 -53.777,-0.22933 -71.173,26.322 -14.674,34.548 59.029,44.946 82.763,73.894 -11.494,14.482 -37.164,21.039 -32.444,44.504 20.182,36.104 99.928,36.28 134.36,3.5587 l 11.031,0.57265 1.0499,0.0545 v -0.0349 l 0.40225,0.007 v 0.0279 l 5.0312,-0.259 0.0478,0.17732 v -0.18395 l 7.0015,-0.3613 c 34.436,32.721 114.17,32.545 134.36,-3.5587 4.7203,-23.465 -20.943,-30.022 -32.437,-44.504 23.734,-28.947 97.437,-39.345 82.763,-73.894 -17.397,-26.551 -47.195,-24.999 -71.173,-26.322 -11.89,-17.878 -26.234,-26.88 -47.483,-39.657 -20.781,-12.495 -57.092,-23.182 -76.948,-24.147 v -0.075 l -0.0209,0.075 c -0.44064,-0.0209 -0.91905,-0.0635 -1.343,-0.075 z"
       fill-rule="evenodd"
       fill="#e52e2e" />
    <path
       id="path6269"
       opacity="0"
       d="m 386.88,536.46 c -1.9704,-0.11693 -3.9466,-0.10087 -5.9197,-0.0984 -1.1675,0.007 -2.3354,0.0209 -3.5012,0.089 l 2.8638,-2.0807 c 1.0836,0.0737 2.1705,0.0778 3.256,0.089 2.0636,0.003 4.1295,0.014 6.1909,-0.0984 l -2.8898,2.0996 z" />
    <path
       id="path6271"
       opacity="0"
       d="m 387.12,536.94 c -0.11554,0.0314 -0.23212,0.0572 -0.34626,0.0928 -0.41038,0.1281 -1.0148,0.348 -1.3862,0.5102 -0.32322,0.14137 -1.2494,0.65091 -0.9557,0.45523 0.5885,-0.39209 1.2082,-0.73953 1.8448,-1.0476 0.32427,-0.15707 -0.60274,0.39491 -0.90411,0.59234 -0.3931,0.29704 -2.1151,1.4157 -1.9818,2.0659 0.0209,0.0175 0.0391,0.0604 0.0653,0.0517 0.0374,-0.014 0.10297,-0.11414 0.0681,-0.0963 -1.0001,0.51251 -1.9688,1.0852 -2.9748,1.5861 -0.089,0.0443 0.15917,-0.126 0.21153,-0.21047 0.20629,-0.3316 0.30192,-0.77901 0.40671,-1.1402 0.44458,-1.8355 0.5841,-3.7244 0.89898,-5.5829 0.2206,-0.8055 0.41502,-1.6972 1.006,-2.324 3.1008,-1.6738 3.053,-2.7319 4.1153,-0.50231 0.70256,1.3878 1.4996,2.7224 2.1844,4.1194 0.90903,1.8457 1.5342,3.7996 2.1298,5.7624 0.39593,1.3914 0.73734,2.8013 1.0173,4.2209 0.36905,1.8422 -0.43097,1.6132 -3.0603,2.8246 -0.12741,0.0586 -0.19407,-0.20349 -0.28273,-0.31205 -0.11135,-0.13648 -0.21188,-0.28133 -0.31764,-0.42217 -1.2188,-1.8158 -1.9577,-3.8804 -2.6358,-5.9427 -0.77255,-2.4539 -1.3339,-4.967 -1.9651,-7.4594 -0.29983,-1.0354 -0.14904,-0.54989 -0.44636,-1.4584 l 2.9948,-1.6319 c 0.23247,0.95412 0.111,0.44664 0.36259,1.5228 0.5264,2.5149 1.0514,5.036 1.862,7.4788 0.69712,2.0025 1.4353,4.0329 2.7923,5.6982 0.11623,0.10925 0.2185,0.23631 0.34905,0.32811 0.0314,0.0209 0.14101,-0.0244 0.10995,-0.003 -0.96327,0.61851 -1.9462,1.206 -2.9193,1.809 0.0405,-0.0412 0.10437,-0.0688 0.12182,-0.12392 0.0454,-0.14415 -0.0174,-0.56322 -0.0279,-0.68047 -0.19407,-1.4356 -0.49066,-2.8575 -0.85825,-4.2583 -0.57125,-1.949 -1.1976,-3.886 -2.1183,-5.7036 -0.70002,-1.3876 -1.53,-2.6966 -2.3112,-4.0391 -0.0367,-0.0639 -0.31031,-0.55055 -0.38476,-0.65562 -0.0531,-0.075 -0.11833,-0.17278 -0.222,-0.1822 -0.0314,-0.003 -0.12565,0.0349 -0.0974,0.0174 0.96767,-0.57202 1.947,-1.1241 2.9205,-1.6862 -0.0712,0.0209 -0.15044,0.0244 -0.21362,0.0635 -0.52584,0.32531 -0.86602,1.5386 -1.0659,2.0677 -0.40637,1.8422 -0.56543,3.7224 -0.86568,5.583 -0.014,0.0792 -0.28413,1.4782 -0.36849,1.5314 -0.9497,0.59925 -2.711,2.7504 -3.6058,1.4549 -0.0279,-0.0873 -0.0768,-0.17069 -0.0806,-0.26214 -0.038,-0.86959 1.5665,-1.8705 2.1272,-2.3081 1.9262,-1.3071 1.3262,-0.93294 4.693,-2.7903 0.92711,-0.51146 1.9664,-0.91252 3.0061,-1.1103 l -2.8898,2.0996 z" />
    <path
       id="path4328"
       opacity="0"
       d="m 387.46,496.82 -0.19965,212.78 -12.082,-0.62309 c -34.436,32.721 -114.18,32.546 -134.36,-3.5577 -4.7203,-23.465 20.948,-30.023 32.442,-44.505 -23.734,-28.947 -97.438,-39.35 -82.765,-73.898 17.397,-26.551 47.197,-24.995 71.175,-26.317 11.89,-17.878 26.232,-26.881 47.481,-39.658 21.249,-12.777 58.784,-23.693 78.31,-24.226 z"
       stroke-width="3.4905px" />
    <path
       id="path4334"
       opacity="0"
       d="m 386.88,536.46 c -1.9704,-0.11693 -3.9466,-0.10087 -5.9197,-0.0984 -1.1675,0.007 -2.3354,0.0209 -3.5012,0.089 l 2.8638,-2.0807 c 1.0836,0.0737 2.1705,0.0778 3.256,0.089 2.0636,0.003 4.1295,0.014 6.1909,-0.0984 l -2.8898,2.0996 z" />
    <path
       id="path4337"
       opacity="0"
       d="m 387.12,536.94 c -0.11554,0.0314 -0.23212,0.0572 -0.34626,0.0928 -0.41038,0.1281 -1.0148,0.348 -1.3862,0.5102 -0.32322,0.14137 -1.2494,0.65091 -0.9557,0.45523 0.5885,-0.39209 1.2082,-0.73953 1.8448,-1.0476 0.32427,-0.15707 -0.60274,0.39491 -0.90411,0.59234 -0.3931,0.29704 -2.1151,1.4157 -1.9818,2.0659 0.0209,0.0175 0.0391,0.0604 0.0653,0.0517 0.0374,-0.014 0.10297,-0.11414 0.0681,-0.0963 -1.0001,0.51251 -1.9688,1.0852 -2.9748,1.5861 -0.089,0.0443 0.15917,-0.126 0.21153,-0.21047 0.20629,-0.3316 0.30192,-0.77901 0.40671,-1.1402 0.44458,-1.8355 0.5841,-3.7244 0.89898,-5.5829 0.2206,-0.8055 0.41502,-1.6972 1.006,-2.324 3.1008,-1.6738 3.053,-2.7319 4.1153,-0.50231 0.70256,1.3878 1.4996,2.7224 2.1844,4.1194 0.90903,1.8457 1.5342,3.7996 2.1298,5.7624 0.39593,1.3914 0.73734,2.8013 1.0173,4.2209 0.36905,1.8422 -0.43097,1.6132 -3.0603,2.8246 -0.12741,0.0586 -0.19407,-0.20349 -0.28273,-0.31205 -0.11135,-0.13648 -0.21188,-0.28133 -0.31764,-0.42217 -1.2188,-1.8158 -1.9577,-3.8804 -2.6358,-5.9427 -0.77255,-2.4539 -1.3339,-4.967 -1.9651,-7.4594 -0.29983,-1.0354 -0.14904,-0.54989 -0.44636,-1.4584 l 2.9948,-1.6319 c 0.23247,0.95412 0.111,0.44664 0.36259,1.5228 0.5264,2.5149 1.0514,5.036 1.862,7.4788 0.69712,2.0025 1.4353,4.0329 2.7923,5.6982 0.11623,0.10925 0.2185,0.23631 0.34905,0.32811 0.0314,0.0209 0.14101,-0.0244 0.10995,-0.003 -0.96327,0.61851 -1.9462,1.206 -2.9193,1.809 0.0405,-0.0412 0.10437,-0.0688 0.12182,-0.12392 0.0454,-0.14415 -0.0174,-0.56322 -0.0279,-0.68047 -0.19407,-1.4356 -0.49066,-2.8575 -0.85825,-4.2583 -0.57125,-1.949 -1.1976,-3.886 -2.1183,-5.7036 -0.70002,-1.3876 -1.53,-2.6966 -2.3112,-4.0391 -0.0367,-0.0639 -0.31031,-0.55055 -0.38476,-0.65562 -0.0531,-0.075 -0.11833,-0.17278 -0.222,-0.1822 -0.0314,-0.003 -0.12565,0.0349 -0.0974,0.0174 0.96767,-0.57202 1.947,-1.1241 2.9205,-1.6862 -0.0712,0.0209 -0.15044,0.0244 -0.21362,0.0635 -0.52584,0.32531 -0.86602,1.5386 -1.0659,2.0677 -0.40637,1.8422 -0.56543,3.7224 -0.86568,5.583 -0.014,0.0792 -0.28413,1.4782 -0.36849,1.5314 -0.9497,0.59925 -2.711,2.7504 -3.6058,1.4549 -0.0279,-0.0873 -0.0768,-0.17069 -0.0806,-0.26214 -0.038,-0.86959 1.5665,-1.8705 2.1272,-2.3081 1.9262,-1.3071 1.3262,-0.93294 4.693,-2.7903 0.92711,-0.51146 1.9664,-0.91252 3.0061,-1.1103 l -2.8898,2.0996 z" />
    <path
       id="path4513"
       opacity="0"
       d="m 387.46,496.82 -0.19965,212.78 -12.082,-0.62309 c -34.436,32.721 -114.18,32.546 -134.36,-3.5577 -4.7203,-23.465 20.948,-30.023 32.442,-44.505 -23.734,-28.947 -97.438,-39.35 -82.765,-73.898 17.397,-26.551 47.197,-24.995 71.175,-26.317 11.89,-17.878 26.232,-26.881 47.481,-39.658 21.249,-12.777 58.784,-23.693 78.31,-24.226 z"
       stroke-width="3.4905px" />
    <path
       id="path4521"
       opacity="0"
       d="m 386.88,536.46 c -1.9704,-0.11693 -3.9466,-0.10087 -5.9197,-0.0984 -1.1675,0.007 -2.3354,0.0209 -3.5012,0.089 l 2.8638,-2.0807 c 1.0836,0.0737 2.1705,0.0778 3.256,0.089 2.0636,0.003 4.1295,0.014 6.1909,-0.0984 l -2.8898,2.0996 z" />
    <path
       id="path4523"
       opacity="0"
       d="m 387.12,536.94 c -0.11554,0.0314 -0.23212,0.0572 -0.34626,0.0928 -0.41038,0.1281 -1.0148,0.348 -1.3862,0.5102 -0.32322,0.14137 -1.2494,0.65091 -0.9557,0.45523 0.5885,-0.39209 1.2082,-0.73953 1.8448,-1.0476 0.32427,-0.15707 -0.60274,0.39491 -0.90411,0.59234 -0.3931,0.29704 -2.1151,1.4157 -1.9818,2.0659 0.0209,0.0175 0.0391,0.0604 0.0653,0.0517 0.0374,-0.014 0.10297,-0.11414 0.0681,-0.0963 -1.0001,0.51251 -1.9688,1.0852 -2.9748,1.5861 -0.089,0.0443 0.15917,-0.126 0.21153,-0.21047 0.20629,-0.3316 0.30192,-0.77901 0.40671,-1.1402 0.44458,-1.8355 0.5841,-3.7244 0.89898,-5.5829 0.2206,-0.8055 0.41502,-1.6972 1.006,-2.324 3.1008,-1.6738 3.053,-2.7319 4.1153,-0.50231 0.70256,1.3878 1.4996,2.7224 2.1844,4.1194 0.90903,1.8457 1.5342,3.7996 2.1298,5.7624 0.39593,1.3914 0.73734,2.8013 1.0173,4.2209 0.36905,1.8422 -0.43097,1.6132 -3.0603,2.8246 -0.12741,0.0586 -0.19407,-0.20349 -0.28273,-0.31205 -0.11135,-0.13648 -0.21188,-0.28133 -0.31764,-0.42217 -1.2188,-1.8158 -1.9577,-3.8804 -2.6358,-5.9427 -0.77255,-2.4539 -1.3339,-4.967 -1.9651,-7.4594 -0.29983,-1.0354 -0.14904,-0.54989 -0.44636,-1.4584 l 2.9948,-1.6319 c 0.23247,0.95412 0.111,0.44664 0.36259,1.5228 0.5264,2.5149 1.0514,5.036 1.862,7.4788 0.69712,2.0025 1.4353,4.0329 2.7923,5.6982 0.11623,0.10925 0.2185,0.23631 0.34905,0.32811 0.0314,0.0209 0.14101,-0.0244 0.10995,-0.003 -0.96327,0.61851 -1.9462,1.206 -2.9193,1.809 0.0405,-0.0412 0.10437,-0.0688 0.12182,-0.12392 0.0454,-0.14415 -0.0174,-0.56322 -0.0279,-0.68047 -0.19407,-1.4356 -0.49066,-2.8575 -0.85825,-4.2583 -0.57125,-1.949 -1.1976,-3.886 -2.1183,-5.7036 -0.70002,-1.3876 -1.53,-2.6966 -2.3112,-4.0391 -0.0367,-0.0639 -0.31031,-0.55055 -0.38476,-0.65562 -0.0531,-0.075 -0.11833,-0.17278 -0.222,-0.1822 -0.0314,-0.003 -0.12565,0.0349 -0.0974,0.0174 0.96767,-0.57202 1.947,-1.1241 2.9205,-1.6862 -0.0712,0.0209 -0.15044,0.0244 -0.21362,0.0635 -0.52584,0.32531 -0.86602,1.5386 -1.0659,2.0677 -0.40637,1.8422 -0.56543,3.7224 -0.86568,5.583 -0.014,0.0792 -0.28413,1.4782 -0.36849,1.5314 -0.9497,0.59925 -2.711,2.7504 -3.6058,1.4549 -0.0279,-0.0873 -0.0768,-0.17069 -0.0806,-0.26214 -0.038,-0.86959 1.5665,-1.8705 2.1272,-2.3081 1.9262,-1.3071 1.3262,-0.93294 4.693,-2.7903 0.92711,-0.51146 1.9664,-0.91252 3.0061,-1.1103 l -2.8898,2.0996 z" />
    <path
       id="path4534"
       opacity="0"
       d="m 387.46,496.82 -0.19965,212.78 -12.082,-0.62309 c -34.436,32.721 -114.18,32.546 -134.36,-3.5577 -4.7203,-23.465 20.948,-30.023 32.442,-44.505 -23.734,-28.947 -97.438,-39.35 -82.765,-73.898 17.397,-26.551 47.197,-24.995 71.175,-26.317 11.89,-17.878 26.232,-26.881 47.481,-39.658 21.249,-12.777 58.784,-23.693 78.31,-24.226 z"
       stroke-width="3.4905px" />
    <path
       id="path4536"
       opacity="0"
       d="m 386.88,536.46 c -1.9704,-0.11693 -3.9466,-0.10087 -5.9197,-0.0984 -1.1675,0.007 -2.3354,0.0209 -3.5012,0.089 l 2.8638,-2.0807 c 1.0836,0.0737 2.1705,0.0778 3.256,0.089 2.0636,0.003 4.1295,0.014 6.1909,-0.0984 l -2.8898,2.0996 z" />
    <path
       id="path4538"
       opacity="0"
       d="m 387.12,536.94 c -0.11554,0.0314 -0.23212,0.0572 -0.34626,0.0928 -0.41038,0.1281 -1.0148,0.348 -1.3862,0.5102 -0.32322,0.14137 -1.2494,0.65091 -0.9557,0.45523 0.5885,-0.39209 1.2082,-0.73953 1.8448,-1.0476 0.32427,-0.15707 -0.60274,0.39491 -0.90411,0.59234 -0.3931,0.29704 -2.1151,1.4157 -1.9818,2.0659 0.0209,0.0175 0.0391,0.0604 0.0653,0.0517 0.0374,-0.014 0.10297,-0.11414 0.0681,-0.0963 -1.0001,0.51251 -1.9688,1.0852 -2.9748,1.5861 -0.089,0.0443 0.15917,-0.126 0.21153,-0.21047 0.20629,-0.3316 0.30192,-0.77901 0.40671,-1.1402 0.44458,-1.8355 0.5841,-3.7244 0.89898,-5.5829 0.2206,-0.8055 0.41502,-1.6972 1.006,-2.324 3.1008,-1.6738 3.053,-2.7319 4.1153,-0.50231 0.70256,1.3878 1.4996,2.7224 2.1844,4.1194 0.90903,1.8457 1.5342,3.7996 2.1298,5.7624 0.39593,1.3914 0.73734,2.8013 1.0173,4.2209 0.36905,1.8422 -0.43097,1.6132 -3.0603,2.8246 -0.12741,0.0586 -0.19407,-0.20349 -0.28273,-0.31205 -0.11135,-0.13648 -0.21188,-0.28133 -0.31764,-0.42217 -1.2188,-1.8158 -1.9577,-3.8804 -2.6358,-5.9427 -0.77255,-2.4539 -1.3339,-4.967 -1.9651,-7.4594 -0.29983,-1.0354 -0.14904,-0.54989 -0.44636,-1.4584 l 2.9948,-1.6319 c 0.23247,0.95412 0.111,0.44664 0.36259,1.5228 0.5264,2.5149 1.0514,5.036 1.862,7.4788 0.69712,2.0025 1.4353,4.0329 2.7923,5.6982 0.11623,0.10925 0.2185,0.23631 0.34905,0.32811 0.0314,0.0209 0.14101,-0.0244 0.10995,-0.003 -0.96327,0.61851 -1.9462,1.206 -2.9193,1.809 0.0405,-0.0412 0.10437,-0.0688 0.12182,-0.12392 0.0454,-0.14415 -0.0174,-0.56322 -0.0279,-0.68047 -0.19407,-1.4356 -0.49066,-2.8575 -0.85825,-4.2583 -0.57125,-1.949 -1.1976,-3.886 -2.1183,-5.7036 -0.70002,-1.3876 -1.53,-2.6966 -2.3112,-4.0391 -0.0367,-0.0639 -0.31031,-0.55055 -0.38476,-0.65562 -0.0531,-0.075 -0.11833,-0.17278 -0.222,-0.1822 -0.0314,-0.003 -0.12565,0.0349 -0.0974,0.0174 0.96767,-0.57202 1.947,-1.1241 2.9205,-1.6862 -0.0712,0.0209 -0.15044,0.0244 -0.21362,0.0635 -0.52584,0.32531 -0.86602,1.5386 -1.0659,2.0677 -0.40637,1.8422 -0.56543,3.7224 -0.86568,5.583 -0.014,0.0792 -0.28413,1.4782 -0.36849,1.5314 -0.9497,0.59925 -2.711,2.7504 -3.6058,1.4549 -0.0279,-0.0873 -0.0768,-0.17069 -0.0806,-0.26214 -0.038,-0.86959 1.5665,-1.8705 2.1272,-2.3081 1.9262,-1.3071 1.3262,-0.93294 4.693,-2.7903 0.92711,-0.51146 1.9664,-0.91252 3.0061,-1.1103 l -2.8898,2.0996 z" />
  </g>
  <g
     id="layer6"
     fill-rule="evenodd"
     transform="translate(-188.14849,-447.65762)"
     fill="#c11616">
    <path
       id="path6020"
       d="m 513.06,672.41 c -10.212,4.8744 -20.685,9.2003 -31.36,12.953 -14.523,5.1054 -29.398,9.1436 -44.313,12.953 -13.137,3.3554 -26.319,6.5372 -39.541,9.5443 17.818,13.682 39.644,22.077 62.038,23.861 15.966,1.272 32.172,-0.77203 47.381,-5.7948 6.291,-2.0776 12.529,-4.7285 17.545,-9.0569 2.5079,-2.1642 4.6834,-4.7382 6.2352,-7.6648 1.5518,-2.9266 2.4674,-6.2126 2.4666,-9.5252 -10e-4,-4.3283 -1.5543,-8.541 -3.7496,-12.271 -3.8555,-6.5514 -9.7755,-11.867 -16.703,-14.998" />
    <path
       id="path6253"
       d="m 261.6,672.63 c 10.212,4.8744 20.685,9.2003 31.36,12.953 14.523,5.1054 29.398,9.1436 44.313,12.953 13.137,3.3554 26.319,6.5372 39.541,9.5443 -17.818,13.682 -39.644,22.077 -62.038,23.861 -15.966,1.272 -32.172,-0.77203 -47.381,-5.7948 -6.291,-2.0776 -12.529,-4.7285 -17.545,-9.0569 -2.5079,-2.1642 -4.6835,-4.7382 -6.2352,-7.6648 -1.5518,-2.9266 -2.4674,-6.2126 -2.4666,-9.5252 0.001,-4.3283 1.5543,-8.541 3.7496,-12.271 3.8555,-6.5514 9.7755,-11.867 16.703,-14.998" />
  </g>
  <g
     id="layer9"
     fill-rule="evenodd"
     transform="translate(-188.14849,-447.65762)"
     fill="#da1616">
    <path
       id="path4245"
       d="m 263.8,564.82 c 3.005,10.552 4.7886,21.451 5.3039,32.41 0.49362,10.498 -0.17611,21.049 -1.993,31.4 -11.606,3.8406 -24.277,4.4066 -36.18,1.6163 -11.903,-2.7904 -23.002,-8.9288 -31.692,-17.528 -2.8498,-2.8198 -5.4675,-5.9314 -7.2821,-9.5063 -1.8146,-3.5749 -2.7922,-7.6537 -2.2622,-11.628 0.646,-4.844 3.4922,-9.2025 7.1532,-12.44 3.6611,-3.237 8.1021,-5.461 12.617,-7.3308 17.07,-7.069 36.031,-9.5098 54.334,-6.9946" />
    <path
       id="path5966"
       d="m 520.54,562.1 c -2.2127,-0.0373 -6.9843,0.55938 -9.1958,0.64567 -2.2197,11.262 -3.876,22.07 -4.8344,33.509 -0.89259,10.653 0.93793,21.656 1.1494,32.344 11.577,3.8862 24.686,4.1996 36.585,1.4492 11.899,-2.7504 22.997,-8.8592 31.694,-17.432 2.8564,-2.8155 5.485,-5.9208 7.3014,-9.4966 1.8164,-3.5758 2.7861,-7.6634 2.2429,-11.637 -0.66106,-4.8364 -3.5226,-9.1742 -7.1855,-12.401 -3.6629,-3.2266 -8.0951,-5.4539 -12.585,-7.3696 -14.249,-6.0797 -29.683,-9.3504 -45.172,-9.6125 z" />
  </g>
  <g
     id="layer2"
     opacity="0.546"
     transform="translate(-188.14849,-447.65762)">
    <g
       id="g6296"
       transform="matrix(3.4905,0,0,3.4905,49.581,-992.92)"
       fill="#da1c1c">
      <g
         id="g6051"
         fill="#da1c1c">
        <path
           id="path4239"
           d="m 94.678,439.6 c -0.23973,5e-5 -0.47907,0.009 -0.71875,0.0137 h -1.4785 c 0.0019,0.0176 0.004,0.0351 0.0059,0.0527 -7.481,0.40281 -14.852,2.8385 -21.068,7.0254 -2.1039,1.4172 -4.0869,3.0371 -5.7266,4.9727 -1.6397,1.9356 -2.9298,4.2001 -3.541,6.6621 -0.52109,2.0989 -0.53234,4.3604 0.22852,6.3848 0.52867,1.4066 1.4176,2.6669 2.5059,3.7031 1.0882,1.0362 2.3736,1.8533 3.7383,2.4824 2.7293,1.2582 5.7381,1.7603 8.7148,2.1738 6.4436,0.89516 12.936,1.4324 19.439,1.6094 l -0.0098,-0.71093 h 0.01953 l -0.0098,0.71093 c 6.5031,-0.177 12.998,-0.71421 19.441,-1.6094 2.9768,-0.41354 5.9855,-0.91567 8.7148,-2.1738 1.3647,-0.62909 2.65,-1.4462 3.7383,-2.4824 1.0882,-1.0362 1.9752,-2.2965 2.5039,-3.7031 0.76086,-2.0244 0.74961,-4.2858 0.22852,-6.3848 -0.61123,-2.462 -1.8994,-4.7265 -3.5391,-6.6621 -1.6397,-1.9356 -3.6246,-3.5555 -5.7285,-4.9727 -6.3227,-4.2589 -13.84,-6.7106 -21.453,-7.0488 v -0.0293 h -1.1289 c -0.4518,-0.008 -0.9036,-0.007 -1.3555,0 h -2.8438 C 95.12928,439.6097 94.90343,439.6 94.67748,439.6 Z"
           fill-rule="evenodd"
           fill="#d41c1c" />
      </g>
    </g>
    <g
       id="g4373"
       transform="matrix(3.4905,0,0,3.4905,49.464,-993.04)"
       fill="#b00202">
      <g
         id="g4375"
         fill="#b00202">
        <path
           id="path4377"
           d="m 62.438,465.01 -12.207,0.30665 8.0879,4.125 5.6797,4.709 -3.1387,3.4375 c 4.2607,2.3547 8.7041,4.3809 13.275,6.0547 4.368,1.5993 8.868,2.8801 13.473,3.5391 6.3125,0.63448 12.656,0.81615 18.506,0 4.6046,-0.65897 9.1047,-1.9398 13.473,-3.5391 4.5713,-1.6738 9.0146,-3.7 13.275,-6.0547 l -3.1367,-3.4375 5.6777,-4.709 8.0879,-4.125 -12.133,-0.30664 c -3.8941,3.281 -8.4789,5.734 -13.367,7.1602 -6.0487,1.7647 -12.426,1.9428 -18.717,2.2949 -1.6602,0.1863 -3.2822,0.0895 -4.8262,0 -6.291,-0.35214 -12.668,-0.53026 -18.717,-2.2949 -4.8882,-1.4261 -9.3989,-3.8792 -13.293,-7.1602 z"
           fill-rule="evenodd"
           transform="translate(-0.082769,-0.42034)"
           fill="#b00202" />
      </g>
    </g>
    <g
       id="g4552"
       transform="matrix(3.4905,0,0,3.4905,49.464,-993.04)"
       fill="#b00202">
      <g
         id="g4554"
         fill="#b00202">
        <path
           id="path4556"
           d="m 62.438,465.01 -12.207,0.30665 8.0879,4.125 5.6797,4.709 -3.1387,3.4375 c 4.2607,2.3547 8.7041,4.3809 13.275,6.0547 4.368,1.5993 8.868,2.8801 13.473,3.5391 6.3125,0.63448 12.656,0.81615 18.506,0 4.6046,-0.65897 9.1047,-1.9398 13.473,-3.5391 4.5713,-1.6738 9.0146,-3.7 13.275,-6.0547 l -3.1367,-3.4375 5.6777,-4.709 8.0879,-4.125 -12.133,-0.30664 c -3.8941,3.281 -8.4789,5.734 -13.367,7.1602 -6.0487,1.7647 -12.426,1.9428 -18.717,2.2949 -1.6602,0.1863 -3.2822,0.0895 -4.8262,0 -6.291,-0.35214 -12.668,-0.53026 -18.717,-2.2949 -4.8882,-1.4261 -9.3989,-3.8792 -13.293,-7.1602 z"
           fill-rule="evenodd"
           transform="translate(-0.082769,-0.42034)"
           fill="#b00202" />
      </g>
    </g>
  </g>
  <g
     id="layer3"
     fill-rule="evenodd"
     transform="translate(-188.14849,-447.65762)"
     fill="#930000">
    <path
       id="path4243"
       d="m 361.98,602.88 c 6.4495,-5.4711 -8.1956,-32.826 -27.525,-32.69 -15.747,0.65196 -34.666,28.789 -24.82,33.201 9.8462,4.412 18.767,-17.019 29.171,-14.516 6.9598,3.4816 18.386,18.066 23.174,14.005 z" />
    <path
       id="path5960"
       d="m 412.79,602.88 c -6.4495,-5.4711 8.1956,-32.826 27.525,-32.69 15.747,0.65196 34.666,28.789 24.82,33.201 -9.8462,4.412 -18.767,-17.019 -29.171,-14.516 -6.9598,3.4816 -18.386,18.066 -23.174,14.005 z" />
    <path
       id="path4357"
       d="m 361.98,602.88 c 6.4495,-5.4711 -8.1956,-32.826 -27.525,-32.69 -15.747,0.65196 -34.666,28.789 -24.82,33.201 9.8462,4.412 18.767,-17.019 29.171,-14.516 6.9598,3.4816 18.386,18.066 23.174,14.005 z" />
    <path
       id="path4359"
       d="m 412.79,602.88 c -6.4495,-5.4711 8.1956,-32.826 27.525,-32.69 15.747,0.65196 34.666,28.789 24.82,33.201 -9.8462,4.412 -18.767,-17.019 -29.171,-14.516 -6.9598,3.4816 -18.386,18.066 -23.174,14.005 z" />
    <path
       id="path4558"
       d="m 361.98,602.88 c 6.4495,-5.4711 -8.1956,-32.826 -27.525,-32.69 -15.747,0.65196 -34.666,28.789 -24.82,33.201 9.8462,4.412 18.767,-17.019 29.171,-14.516 6.9598,3.4816 18.386,18.066 23.174,14.005 z" />
    <path
       id="path4560"
       d="m 412.79,602.88 c -6.4495,-5.4711 8.1956,-32.826 27.525,-32.69 15.747,0.65196 34.666,28.789 24.82,33.201 -9.8462,4.412 -18.767,-17.019 -29.171,-14.516 -6.9598,3.4816 -18.386,18.066 -23.174,14.005 z" />
    <path
       id="path4562"
       d="m 361.98,602.88 c 6.4495,-5.4711 -8.1956,-32.826 -27.525,-32.69 -15.747,0.65196 -34.666,28.789 -24.82,33.201 9.8462,4.412 18.767,-17.019 29.171,-14.516 6.9598,3.4816 18.386,18.066 23.174,14.005 z" />
    <path
       id="path4564"
       d="m 412.79,602.88 c -6.4495,-5.4711 8.1956,-32.826 27.525,-32.69 15.747,0.65196 34.666,28.789 24.82,33.201 -9.8462,4.412 -18.767,-17.019 -29.171,-14.516 -6.9598,3.4816 -18.386,18.066 -23.174,14.005 z" />
  </g>
  <g
     id="layer1"
     transform="translate(-188.14849,-447.65762)">
    <path
       id="path4231"
       d="m 367.23,502.62 c 3.9834,-3.2546 7.2986,-7.3233 9.6815,-11.882 3.1428,-6.0123 4.6424,-12.873 4.2946,-19.649 -0.34777,-6.7752 -2.542,-13.447 -6.2839,-19.106 6.3635,2.0353 11.965,6.3674 15.536,12.014 2.5094,3.9688 4.0247,8.5608 4.3703,13.244 1.5093,-1.9436 2.4769,-4.3035 2.7664,-6.7472 0.29102,-2.4566 -0.10417,-4.9908 -1.1293,-7.2421 -1.0252,-2.2513 -2.6773,-4.2132 -4.7214,-5.6064 5.4047,2.5686 10.041,6.7294 13.177,11.826 3.0525,4.9608 4.6754,10.79 4.6253,16.615 -0.05,5.8245 -1.7728,11.625 -4.9101,16.533 h -37.406"
       fill-rule="evenodd"
       fill="#e52e2e" />
    <path
       id="path4853"
       d="m 367.85,503.34 c 4.4742,-5.0146 7.8772,-10.98 9.9165,-17.384 1.2771,-4.0105 1.9846,-8.2323 1.7284,-12.433 -0.25623,-4.2011 -1.5438,-8.2628 -2.9777,-12.22 l -3.2595,-8.9955 c 3.8659,0.78002 7.5795,2.3076 10.875,4.4735 4.3665,2.8696 7.9864,6.8648 10.413,11.492 l -0.15428,-10.875 c 7.7807,5.4919 13.216,14.199 14.732,23.602 0.61314,3.8028 0.61006,7.6822 0.34871,11.525 -0.24535,3.6077 -0.71698,7.2001 -1.4112,10.749"
       stroke="#930000"
       stroke-width="6.981"
       fill="none" />
    <path
       id="path4857"
       d="m 398.03,468.1 c 0.0729,1.7579 -0.1535,3.5279 -0.66651,5.2109 -0.80066,2.6266 -2.3072,5.0344 -4.3193,6.9031 0.28982,-1.8497 0.2768,-3.7464 -0.0384,-5.5919 -0.28525,-1.6702 -0.81752,-3.2979 -1.5741,-4.814 l 6.5983,-1.7081"
       fill-rule="evenodd"
       fill="#930000" />
  </g>
  <g
     id="layer8"
     fill-rule="evenodd"
     transform="translate(-188.14849,-447.65762)">
    <path
       id="path5793"
       d="m 401.11,500.26 c -0.47061,0.59438 -1.1376,1.0047 -1.8319,1.3092 -0.69426,0.30458 -1.4258,0.51463 -2.134,0.78513 -1.2348,0.47163 -2.4198,1.133 -3.7292,1.3143 -1.2883,0.17839 -2.6392,-0.14165 -3.7105,-0.87906 -1.0713,-0.73741 -1.8526,-1.885 -2.146,-3.152 -0.29337,-1.2671 -0.096,-2.6413 0.54226,-3.7745 0.63821,-1.1332 1.711,-2.0144 2.9466,-2.4204 1.7872,-0.60393 3.7315,-0.73593 5.5838,-0.3791 0.83434,0.16072 1.6538,0.42054 2.4024,0.82252 0.74857,0.40199 1.4255,0.9495 1.9298,1.6333 0.50432,0.68382 0.83075,1.5071 0.87566,2.3556 0.0449,0.84849 -0.20153,1.7188 -0.72897,2.385"
       fill="#d61616" />
    <path
       id="path5797"
       d="m 333.96,525.12 -1.2206,1.4375 c -0.48862,0.14602 -1.0265,0.12109 -1.4996,-0.0695 -0.3607,-0.14533 -0.68287,-0.38509 -0.92565,-0.68887 -0.24279,-0.30378 -0.40562,-0.67088 -0.46787,-1.0547 -0.0622,-0.38387 -0.0237,-0.78361 0.11062,-1.1485 0.13435,-0.36493 0.36426,-0.69421 0.66055,-0.94607 0.32374,-0.55602 0.91713,-0.94638 1.5559,-1.0236 0.42143,-0.0509 0.85787,0.0305 1.2326,0.22985 0.37476,0.19938 0.68613,0.51586 0.8794,0.8938 0.19326,0.37794 0.26755,0.81566 0.2098,1.2362 -0.0577,0.42055 -0.24727,0.82203 -0.53526,1.1339 v 7e-5"
       fill="#d61616" />
    <path
       id="path5801"
       d="m 385.06,487.45 1.9641,1.2689 c 0.39152,0.71147 1.1546,1.2044 1.9641,1.2688 0.41235,0.0328 0.83146,-0.0399 1.2128,-0.20032 0.38129,-0.16039 0.72465,-0.40744 1.0056,-0.71103 0.56192,-0.60718 0.86288,-1.4313 0.9041,-2.2576 0.0412,-0.82627 -0.16568,-1.6534 -0.51834,-2.4018 -0.35266,-0.74836 -0.84747,-1.4225 -1.3954,-2.0423 -0.81757,-0.92479 -1.8156,-1.7676 -3.0217,-2.0301 -0.90549,-0.19706 -1.8833,-0.0396 -2.6812,0.43172 -0.79786,0.47133 -1.4077,1.2518 -1.6721,2.1399 -0.2644,0.88817 -0.1807,1.875 0.22949,2.706 0.41019,0.83095 1.1427,1.4976 2.0086,1.8278"
       fill="#d61616" />
    <path
       id="path5805"
       d="m 388.87,515.22 1.8716,0.84477 c 0.47859,0.51476 1.169,0.82638 1.8716,0.8448 0.60653,0.0159 1.2165,-0.18435 1.6956,-0.55663 0.47911,-0.37228 0.82385,-0.9139 0.95829,-1.5056 0.13444,-0.59166 0.0576,-1.2291 -0.21357,-1.7718 -0.27119,-0.54277 -0.73475,-0.98696 -1.2886,-1.2347 -0.30092,-0.47146 -0.73765,-0.85513 -1.244,-1.0928 -0.5063,-0.23767 -1.0805,-0.32855 -1.6354,-0.25886 -0.51334,0.0645 -1.0089,0.26568 -1.4218,0.57734 -0.41298,0.31166 -0.74238,0.73301 -0.94517,1.209 -0.20279,0.47598 -0.27848,1.0054 -0.21716,1.5192 0.0613,0.51373 0.25948,1.0105 0.5686,1.4254"
       fill="#d61616" />
    <path
       id="path6349"
       d="m 367.52,519 2.5159,1.013 c 0.63065,0.69028 1.5829,1.0737 2.5159,1.013 0.54343,-0.0354 1.0768,-0.21552 1.5303,-0.51694 0.45355,-0.30142 0.82621,-0.72336 1.0693,-1.2107 0.24307,-0.48732 0.35595,-1.0388 0.32389,-1.5825 -0.0321,-0.54363 -0.20897,-1.078 -0.50763,-1.5334 -0.46159,-0.78772 -1.1985,-1.4105 -2.0522,-1.7342 -0.85365,-0.32379 -1.8182,-0.34637 -2.6861,-0.0629 -0.92672,0.30268 -1.7352,0.95348 -2.2288,1.7942 -0.4936,0.8407 -0.66795,1.8638 -0.48068,2.8205"
       fill="#d61616" />
    <path
       id="path6353"
       d="m 425.76,524.43 -0.9817,1.7886 c -0.7045,0.22337 -1.489,0.18396 -2.1676,-0.1089 -0.92448,-0.39899 -1.6276,-1.2745 -1.8178,-2.2633 -0.19013,-0.98879 0.1382,-2.0626 0.84878,-2.776 0.2426,-0.41994 0.60102,-0.77219 1.0251,-1.0074 0.4241,-0.23526 0.91268,-0.35287 1.3974,-0.33637 0.53392,0.0182 1.0612,0.19977 1.493,0.51425 0.43186,0.31447 0.76656,0.76052 0.94775,1.2631 0.1812,0.50256 0.20816,1.0596 0.0763,1.5773 -0.13182,0.51771 -0.42187,0.99399 -0.82135,1.3487 v 1.1e-4"
       fill="#d61616" />
    <path
       id="path6357"
       d="m 442.01,532.88 -0.64875,1.3591 c -0.32738,0.38745 -0.85716,0.59346 -1.3603,0.52895 -0.31132,-0.0399 -0.60922,-0.17867 -0.84009,-0.3913 -0.23087,-0.21264 -0.39362,-0.49813 -0.45897,-0.80512 -0.0653,-0.30699 -0.033,-0.63402 0.0913,-0.92225 0.12425,-0.28822 0.33982,-0.53627 0.60789,-0.69952 0.0451,-0.41944 0.28753,-0.81341 0.64158,-1.0428 0.35405,-0.22939 0.81268,-0.2896 1.2139,-0.15938 0.41421,0.13442 0.7581,0.46954 0.90317,0.88014 0.14508,0.4106 0.0881,0.88737 -0.14978,1.2522"
       fill="#d61616" />
    <path
       id="path5970"
       d="m 555.78,595.39 c -0.58443,0.61967 -1.3144,1.1012 -2.1141,1.3946 -0.49062,0.71288 -1.2656,1.2241 -2.114,1.3946 -1.0787,0.21673 -2.2393,-0.12572 -3.0779,-0.83808 -0.83856,-0.71237 -1.3572,-1.7687 -1.4852,-2.8616 -0.12794,-1.0928 0.12113,-2.2149 0.63028,-3.1903 0.50915,-0.97541 1.2702,-1.8078 2.1498,-2.4688 0.53681,-0.40346 1.1224,-0.7477 1.7544,-0.97476 0.63197,-0.22707 1.3121,-0.33464 1.98,-0.26534 0.8365,0.0868 1.6384,0.45459 2.2633,1.0175 0.62482,0.56291 1.0718,1.3164 1.2855,2.1298 0.21368,0.81339 0.19581,1.6837 -0.032,2.4932 -0.22781,0.80955 -0.6631,1.5574 -1.2401,2.1692"
       fill="#c11616" />
    <path
       id="path5975"
       d="m 539.27,622.54 c 0.58187,1.5526 1.7381,2.9109 3.2455,3.6017 0.87959,0.40309 1.8595,0.57492 2.826,0.52999 0.96651,-0.0449 1.919,-0.30389 2.7911,-0.72301 1.8132,-0.87143 3.2718,-2.4558 3.9907,-4.3346 0.71891,-1.8789 0.69043,-4.0322 -0.0779,-5.8914 -0.88109,-1.2168 -2.1461,-2.1512 -3.5681,-2.6358 -1.422,-0.48453 -2.9944,-0.51686 -4.4351,-0.0912 -1.9134,0.56533 -3.5703,1.9502 -4.4635,3.7343 -0.89318,1.7841 -1.0088,3.9417 -0.30868,5.81"
       fill="#c11616" />
    <path
       id="path5979"
       d="m 535.92,574.3 -1.0755,0.95239 c -0.29653,0.37936 -0.663,0.70388 -1.0754,0.95234 -1.0434,0.62854 -2.3838,0.73642 -3.5143,0.28285 -1.1305,-0.45357 -2.0246,-1.458 -2.3442,-2.6334 -0.31961,-1.1754 -0.0572,-2.4943 0.68791,-3.4579 0.74513,-0.96358 1.9556,-1.5494 3.1736,-1.5357 0.94761,-0.40308 2.0731,-0.36313 2.9898,0.10611 0.92557,0.47381 1.6201,1.3766 1.8408,2.3927 0.22065,1.0161 -0.0369,2.1256 -0.68258,2.9407"
       fill="#c11616" />
    <path
       id="path5984"
       d="m 528.42,596.99 2.8611,2.7748 c 1.3128,0.16192 2.6825,-0.19362 3.7508,-0.97363 0.82253,-0.60055 1.4646,-1.445 1.8235,-2.3981 0.35886,-0.95311 0.43314,-2.0114 0.21095,-3.0052 -0.62193,-0.6902 -1.4415,-1.2003 -2.3354,-1.4535 -0.8939,-0.25323 -1.8592,-0.24878 -2.7508,0.0127 -1.0654,0.31245 -2.0187,0.99401 -2.6591,1.901 -0.64033,0.90702 -0.96343,2.0335 -0.9012,3.142"
       fill="#c11616" />
    <path
       id="path5992"
       d="m 565.78,582.67 4.4313,1.7043 c 0.51406,0.65231 1.2064,1.1627 1.9815,1.4608 0.77516,0.29814 1.6311,0.38321 2.4498,0.2435 0.98243,-0.16766 1.9064,-0.66137 2.5918,-1.3849 0.68539,-0.72354 1.1284,-1.6729 1.2426,-2.6629 0.11424,-0.99006 -0.10091,-2.0153 -0.6035,-2.8759 -0.5026,-0.86062 -1.2898,-1.5518 -2.2083,-1.9388 -0.43155,-0.99264 -1.1541,-1.8567 -2.0547,-2.4571 -0.90059,-0.6004 -1.9761,-0.93504 -3.0583,-0.95162 -1.032,-0.0158 -2.0669,0.25698 -2.957,0.77942 -0.8901,0.52245 -1.6328,1.293 -2.1221,2.2018 -0.48932,0.90873 -0.72381,1.953 -0.67002,2.9837 0.0538,1.0307 0.39571,2.0448 0.97697,2.8977"
       fill="#c11616" />
    <path
       id="path5996"
       d="m 567.47,612.85 1.8932,2.9915 c 0.65822,0.67934 1.6335,1.0378 2.575,0.94634 0.63002,-0.0612 1.2398,-0.31702 1.7248,-0.7237 0.48506,-0.40667 0.84335,-0.96245 1.0135,-1.5721 0.17015,-0.60968 0.15144,-1.2707 -0.0529,-1.8698 -0.20437,-0.59908 -0.59353,-1.1337 -1.1008,-1.5123 -0.36051,-0.68236 -0.97504,-1.2267 -1.6959,-1.5022 -0.72088,-0.27553 -1.5418,-0.27983 -2.2656,-0.0119 -0.64864,0.24015 -1.2154,0.69577 -1.5894,1.2776 -0.37395,0.58187 -0.55295,1.2867 -0.50196,1.9765"
       fill="#c11616" />
    <path
       id="path6000"
       d="m 440.01,719.11 -1.6451,2.9148 c -1.0396,0.35657 -2.1964,0.36157 -3.239,0.014 -0.86304,-0.2877 -1.6454,-0.81344 -2.2378,-1.5038 -0.59244,-0.69039 -0.9933,-1.5435 -1.1466,-2.4402 -0.15333,-0.89672 -0.0587,-1.8345 0.27068,-2.6826 0.32938,-0.84801 0.8926,-1.6038 1.611,-2.1619 0.36667,-0.67948 0.91279,-1.2611 1.5679,-1.6697 0.65509,-0.40865 1.4176,-0.64337 2.1891,-0.67388 0.96773,-0.0383 1.9455,0.24872 2.739,0.80393 0.79355,0.55522 1.3982,1.3754 1.6939,2.2977 0.29569,0.92225 0.28066,1.9412 -0.0421,2.8543 -0.32276,0.91313 -0.95138,1.7152 -1.761,2.2467 v 7.6e-4 -4e-5"
       fill="#b31616" />
    <path
       id="path6004"
       d="m 488.6,712.35 -2.506,2.954 c -0.61212,0.91227 -1.519,1.6234 -2.5509,2.0003 -1.0319,0.37692 -2.1836,0.41769 -3.2396,0.1147 -1.6718,-0.47967 -3.0604,-1.8473 -3.5654,-3.5116 -0.50503,-1.6643 -0.11066,-3.573 1.0126,-4.9008 0.38825,-1.3155 1.2713,-2.4786 2.4342,-3.2059 1.1628,-0.72738 2.595,-1.0126 3.9478,-0.78608 1.6011,0.26805 3.0667,1.2596 3.9111,2.6461 0.8444,1.3865 1.0528,3.1437 0.55625,4.6893"
       fill="#b31616" />
    <path
       id="path6008"
       d="m 506.51,708.59 3.3002,-2.7082 c 1.0559,-0.4186 2.292,-0.35598 3.3002,0.16719 1.0727,0.55667 1.864,1.6268 2.0818,2.8156 0.21778,1.1888 -0.1427,2.4699 -0.94842,3.3707 -0.20415,0.9547 -0.7374,1.8358 -1.4885,2.4595 -0.75109,0.62369 -1.7152,0.98594 -2.6911,1.0112 -0.82905,0.0214 -1.6629,-0.19816 -2.3739,-0.62516 -0.71095,-0.427 -1.2966,-1.06 -1.6671,-1.8019 -0.37057,-0.74193 -0.52483,-1.5903 -0.43915,-2.4152 0.0857,-0.82489 0.41102,-1.6235 0.92616,-2.2734 v -2.8e-4"
       fill="#b31616" />
    <path
       id="path6016"
       d="m 516.61,684.76 -4.2167,-2.4191 c -1.2694,-0.46096 -2.7133,-0.4212 -3.9554,0.1089 -1.0253,0.43756 -1.9039,1.1967 -2.5227,2.124 -0.61878,0.92725 -0.98068,2.0177 -1.0835,3.1277 -0.20572,2.22 0.62501,4.4556 1.9759,6.2293 1.0455,1.3726 2.4358,2.5255 4.0758,3.0617 1.5617,0.51064 3.3091,0.4298 4.817,-0.22284 1.5079,-0.65264 2.7628,-1.8712 3.4595,-3.3593 0.69664,-1.4881 0.82876,-3.2323 0.36421,-4.8084 -0.46455,-1.576 -1.5216,-2.9698 -2.914,-3.8421 v 1.4e-4"
       fill="#b31616" />
    <path
       id="path6024"
       d="m 462.69,721.77 -2.4216,-1.0929 c -0.77692,-0.11414 -1.5892,0.0266 -2.2824,0.39555 -0.84342,0.44886 -1.5005,1.2362 -1.7912,2.1463 -0.29073,0.91012 -0.21177,1.9325 0.21524,2.7872 0.45489,0.57408 1.0795,1.012 1.7742,1.244 0.69475,0.23198 1.4571,0.25718 2.1657,0.0716 1.1217,-0.29381 2.0876,-1.1308 2.5379,-2.1993 0.45037,-1.0685 0.37507,-2.3444 -0.19786,-3.3524"
       fill="#b31616" />
    <path
       id="path5765"
       d="m 264.74,678.43 -2.4217,-1.0929 c -0.7769,-0.11413 -1.5891,0.0266 -2.2823,0.39554 -0.84342,0.44886 -1.5005,1.2362 -1.7912,2.1463 -0.29074,0.91011 -0.21179,1.9325 0.21522,2.7872 0.45489,0.57409 1.0795,1.012 1.7742,1.244 0.69475,0.23198 1.4571,0.25718 2.1657,0.0716 1.1217,-0.29381 2.0876,-1.1308 2.5379,-2.1993 0.45036,-1.0685 0.37506,-2.3444 -0.19786,-3.3524"
       fill="#b31616" />
    <path
       id="path5769"
       d="m 326.37,719.34 -1.8121,2.9148 c -1.1385,0.42163 -2.4261,0.42668 -3.5678,0.014 -0.84451,-0.30525 -1.6071,-0.83402 -2.189,-1.5179 -0.58197,-0.68387 -0.98194,-1.5212 -1.1482,-2.4037 -0.16622,-0.88246 -0.0983,-1.8079 0.19501,-2.6567 0.29329,-0.84874 0.81124,-1.6187 1.4868,-2.2103 0.41245,-0.72263 1.0228,-1.331 1.7469,-1.741 0.72402,-0.41001 1.5597,-0.62057 2.3915,-0.6026 0.93718,0.0203 1.866,0.33221 2.6254,0.88178 0.75939,0.54957 1.346,1.3343 1.6582,2.2182 0.31216,0.88389 0.34847,1.863 0.10264,2.7676 -0.24583,0.90459 -0.77273,1.7307 -1.4893,2.335 v 7.3e-4"
       fill="#b31616" />
    <path
       id="path5773"
       d="m 280.71,724.22 4.4313,2.8656 c 0.40494,0.8309 1.0404,1.548 1.8166,2.0499 0.77617,0.50193 1.6908,0.78727 2.6147,0.81568 1.1243,0.0346 2.257,-0.3156 3.1656,-0.97869 0.90864,-0.66309 1.5876,-1.635 1.8976,-2.7163 0.31001,-1.0813 0.24914,-2.2653 -0.17013,-3.3091 -0.41928,-1.0438 -1.1943,-1.9409 -2.1662,-2.5073 -0.37314,-1.4456 -1.2971,-2.7417 -2.542,-3.5659 -1.2448,-0.82417 -2.7989,-1.1686 -4.2754,-0.94764 -1.8122,0.27122 -3.4757,1.4059 -4.3895,2.9941 -0.91386,1.5882 -1.0589,3.5966 -0.38266,5.2996"
       fill="#b31616" />
    <path
       id="path5781"
       d="m 344.79,709.92 c -0.47684,0.19223 -0.93942,0.41983 -1.3827,0.6803 -0.44473,0.26134 -0.88098,0.56042 -1.3827,0.6803 -0.54088,0.12924 -1.1324,0.0305 -1.602,-0.26743 -0.46957,-0.29791 -0.81093,-0.79105 -0.92441,-1.3354 -0.11349,-0.54441 0.002,-1.1329 0.31382,-1.5936 0.31142,-0.46072 0.81426,-0.78762 1.3617,-0.88525 0.21728,-0.35862 0.53585,-0.65511 0.90912,-0.84611 0.37327,-0.19101 0.8001,-0.27594 1.2181,-0.24237 0.42243,0.0339 0.83446,0.18885 1.1746,0.44165 0.34013,0.2528 0.60728,0.60267 0.76156,0.99738 0.15428,0.39471 0.19521,0.83299 0.11667,1.2494 -0.0785,0.41645 -0.2763,0.80973 -0.56375,1.1211"
       fill="#b31616" />
    <path
       id="path5789"
       d="m 252.89,705.24 -4.4313,3.6326 c -1.4176,0.56269 -3.0777,0.47874 -4.4313,-0.22409 -1.4385,-0.74692 -2.4996,-2.1821 -2.792,-3.7764 -0.29239,-1.5943 0.19032,-3.3126 1.2702,-4.5214 0.27471,-1.2812 0.99105,-2.4634 1.9996,-3.2999 1.0085,-0.83655 2.3027,-1.3221 3.6126,-1.3553 1.1118,-0.0282 2.23,0.26662 3.1834,0.8393 0.95341,0.57268 1.7389,1.4213 2.2363,2.4161 0.49738,0.99476 0.705,2.1323 0.5911,3.2386 -0.1139,1.1063 -0.54894,2.1777 -1.2386,3.0503 v 1.8e-4"
       fill="#b31616" />
    <path
       id="path5813"
       d="m 282.02,696.21 2.4052,-1.7951 c 0.44673,-0.9402 1.3768,-1.6343 2.4053,-1.7951 0.58593,-0.0916 1.1946,-0.0174 1.748,0.19576 0.55342,0.21316 1.0513,0.56333 1.4524,1.0002 0.80219,0.87367 1.1983,2.0759 1.209,3.262 0.0108,1.186 -0.34252,2.3558 -0.88527,3.4104 -0.54275,1.0546 -1.2707,2.0031 -2.044,2.9024 -1.0305,1.1982 -2.2061,2.3575 -3.7004,2.8723 -1.3542,0.46648 -2.9008,0.34117 -4.1622,-0.33722 -1.2614,-0.67838 -2.2186,-1.8997 -2.576,-3.2866 -0.35737,-1.387 -0.10952,-2.9188 0.66699,-4.1223 0.7765,-1.2035 2.07,-2.0606 3.481,-2.3066"
       fill="#b31616" />
    <path
       id="path5728"
       d="m 232.95,602.37 c 0.64351,0.54764 1.4195,0.91334 2.1141,1.3946 0.69615,0.48235 1.3242,1.0888 2.114,1.3946 0.54254,0.21008 1.1422,0.26549 1.7163,0.17168 0.57418,-0.0938 1.122,-0.33526 1.5869,-0.68502 0.92982,-0.69953 1.5022,-1.8225 1.6238,-2.9797 0.12164,-1.1572 -0.18606,-2.3388 -0.76726,-3.3468 -0.5812,-1.008 -1.4254,-1.8491 -2.3768,-2.5189 -1.0941,-0.77018 -2.3999,-1.3362 -3.7344,-1.2401 -0.86384,0.0622 -1.7037,0.40691 -2.3681,0.96254 -0.66436,0.55562 -1.1511,1.3185 -1.3837,2.1528 -0.23268,0.83424 -0.21164,1.7361 0.0509,2.5615 0.26257,0.82532 0.76462,1.5716 1.4242,2.1329"
       fill="#c11616" />
    <path
       id="path5732"
       d="m 227.7,621.35 c -0.62866,0.48827 -1.3823,0.78877 -2.143,1.0233 -0.76066,0.23456 -1.5399,0.40978 -2.2883,0.68101 -1.4923,0.54083 -2.8626,1.4623 -4.4313,1.7043 -1.2829,0.19797 -2.6352,-0.0941 -3.722,-0.8039 -1.0868,-0.70978 -1.8979,-1.8306 -2.2324,-3.0849 -0.33446,-1.2542 -0.18915,-2.6301 0.39994,-3.7868 0.58908,-1.1567 1.6164,-2.0834 2.8275,-2.5505 1.7382,-1.8314 4.2956,-2.8544 6.8174,-2.727 1.1532,0.0583 2.3004,0.34919 3.3148,0.90074 1.0144,0.55156 1.8918,1.3684 2.464,2.3713 0.57217,1.0029 0.82943,2.1925 0.66532,3.3354 -0.1641,1.1429 -0.76004,2.2286 -1.6719,2.9368"
       fill="#c11616" />
    <path
       id="path5736"
       d="m 239.09,571.22 1.0755,0.95239 c 0.29654,0.37936 0.66301,0.70388 1.0755,0.95234 1.0434,0.62853 2.3838,0.73641 3.5143,0.28284 1.1305,-0.45357 2.0246,-1.458 2.3442,-2.6334 0.3196,-1.1754 0.0572,-2.4943 -0.6879,-3.4579 -0.74512,-0.96358 -1.9556,-1.5494 -3.1736,-1.5357 -0.94761,-0.40307 -2.0731,-0.36313 -2.9898,0.10611 -0.92557,0.47381 -1.6201,1.3766 -1.8408,2.3927 -0.22066,1.0161 0.0369,2.1256 0.68255,2.9407"
       fill="#c11616" />
    <path
       id="path5744"
       d="m 258.92,624.4 -1.7626,0.68379 c -0.45047,0.46943 -1.1134,0.7266 -1.7626,0.68375 -0.46401,-0.0306 -0.91704,-0.21026 -1.276,-0.50595 -0.3589,-0.29569 -0.62192,-0.70596 -0.74078,-1.1555 -0.11886,-0.44958 -0.093,-0.93623 0.0729,-1.3707 0.16588,-0.43444 0.47093,-0.8145 0.85917,-1.0704 0.29613,-0.42168 0.71621,-0.75518 1.1941,-0.94797 0.47785,-0.19278 1.0118,-0.24415 1.5176,-0.14602 0.8083,0.15681 1.5307,0.70721 1.8964,1.4449 0.3657,0.7377 0.36638,1.6459 0.002,2.3841"
       fill="#c11616" />
    <path
       id="path5748"
       d="m 256.49,591.13 -1.9471,1.9832 c -0.86595,0.27319 -1.834,0.20739 -2.655,-0.18046 -0.96005,-0.45353 -1.7014,-1.3467 -1.9703,-2.3739 -0.26892,-1.0272 -0.0604,-2.1691 0.55429,-3.0349 0.38544,-0.55238 0.93314,-0.99008 1.5569,-1.2442 0.62378,-0.25415 1.3214,-0.32384 1.9831,-0.19811 1.0671,0.20275 2.0215,0.92998 2.5002,1.905 0.47864,0.97505 0.47021,2.1749 -0.0221,3.1432 v 1.4e-4"
       fill="#c11616" />
    <path
       id="path5752"
       d="m 208.98,582.67 -4.4313,1.7043 c -0.51406,0.65231 -1.2064,1.1627 -1.9815,1.4608 -0.77516,0.29814 -1.6311,0.38321 -2.4498,0.2435 -0.98243,-0.16766 -1.9064,-0.66137 -2.5918,-1.3849 -0.68539,-0.72354 -1.1284,-1.6729 -1.2426,-2.6629 -0.11424,-0.99006 0.10091,-2.0153 0.6035,-2.8759 0.5026,-0.86062 1.2898,-1.5518 2.2083,-1.9388 0.43155,-0.99264 1.1541,-1.8567 2.0547,-2.4571 0.90059,-0.6004 1.9761,-0.93504 3.0583,-0.95162 1.032,-0.0158 2.0669,0.25698 2.957,0.77942 0.8901,0.52245 1.6328,1.293 2.1221,2.2018 0.48932,0.90873 0.72381,1.953 0.67002,2.9837 -0.0538,1.0307 -0.39571,2.0448 -0.97697,2.8977"
       fill="#c11616" />
    <path
       id="path5756"
       d="m 200.42,605.02 -1.8932,2.9915 c -0.65822,0.67935 -1.6335,1.0378 -2.575,0.94635 -0.63002,-0.0612 -1.2398,-0.31702 -1.7248,-0.72369 -0.48507,-0.40668 -0.84336,-0.96246 -1.0135,-1.5721 -0.17016,-0.60969 -0.15145,-1.2707 0.0529,-1.8698 0.20437,-0.59908 0.59353,-1.1337 1.1008,-1.5123 0.36052,-0.68236 0.97505,-1.2267 1.6959,-1.5022 0.72088,-0.27553 1.5418,-0.27983 2.2656,-0.0119 0.64864,0.24016 1.2154,0.69577 1.5894,1.2776 0.37395,0.58186 0.55295,1.2867 0.50196,1.9765"
       fill="#c11616" />
    <path
       id="path5809"
       d="m 210.29,594.74 3.8309,1.7043 c 0.32987,0.68459 0.90856,1.2459 1.6029,1.5548 0.6943,0.30889 1.4987,0.36288 2.2281,0.14953 0.83614,-0.24458 1.5548,-0.83125 2.0195,-1.5681 0.46469,-0.73689 0.68333,-1.6153 0.68688,-2.4865 0.007,-1.7423 -0.8129,-3.3877 -1.8223,-4.8079 -0.55139,-0.77579 -1.1689,-1.5117 -1.9026,-2.1179 -0.73371,-0.60626 -1.5893,-1.0807 -2.5176,-1.2908 -1.1037,-0.24971 -2.2914,-0.11022 -3.3073,0.3884 -1.0158,0.49863 -1.8527,1.3529 -2.3302,2.3788 -0.47756,1.0259 -0.59251,2.2163 -0.32008,3.3146 0.27243,1.0983 0.93036,2.097 1.832,2.7808"
       fill="#c11616" />
    <path
       id="path6394"
       d="m 350.43,513.77 -1.9438,0.92429 c -0.4973,0.54179 -1.2097,0.88051 -1.9438,0.92424 -0.67703,0.0403 -1.3661,-0.16905 -1.9063,-0.5792 -0.54016,-0.41015 -0.92693,-1.0177 -1.0699,-1.6807 -0.143,-0.66298 -0.041,-1.376 0.28201,-1.9723 0.32307,-0.59634 0.8646,-1.0712 1.4981,-1.3135 0.30816,-0.49834 0.75829,-0.9078 1.2835,-1.1675 0.52521,-0.25974 1.1238,-0.36893 1.7069,-0.31135 0.56879,0.0562 1.1211,0.27068 1.5787,0.61314 0.4576,0.34245 0.81916,0.81187 1.0334,1.3417 0.21429,0.52987 0.28069,1.1186 0.18979,1.6829 -0.0909,0.56428 -0.33884,1.1024 -0.70868,1.5382"
       fill="#d61616" />
    <path
       id="path6398"
       d="m 418.46,512.65 -2.4316,0.96338 c -0.62143,0.65018 -1.5335,1.0115 -2.4316,0.96338 -0.65875,-0.0353 -1.3043,-0.28536 -1.8149,-0.703 -0.51067,-0.41764 -0.88382,-1.0007 -1.0492,-1.6394 -0.16533,-0.63864 -0.12199,-1.3295 0.12187,-1.9425 0.24385,-0.61297 0.68695,-1.1448 1.2458,-1.4954 0.40594,-0.586 0.98385,-1.0513 1.643,-1.3229 0.65912,-0.27158 1.3971,-0.34844 2.098,-0.2185 1.1422,0.21174 2.1648,0.99088 2.6721,2.036 0.50729,1.0451 0.48686,2.3305 -0.0534,3.3589"
       fill="#d61616" />
    <path
       id="path6402"
       d="m 389.46,527.5 -1.2292,1.7912 c -0.35313,0.34678 -0.79614,0.60126 -1.2736,0.73159 -0.47747,0.13034 -0.98833,0.13624 -1.4687,0.017 -0.91204,-0.22644 -1.6939,-0.9225 -2.0244,-1.8022 -0.33051,-0.87969 -0.20039,-1.9184 0.33691,-2.6894 0.38062,-0.72336 1.0664,-1.2797 1.8528,-1.503 0.78631,-0.22324 1.6622,-0.11028 2.3661,0.30515 0.52919,0.31231 0.9593,0.78978 1.2148,1.3486 0.25553,0.55882 0.33533,1.1965 0.22539,1.801"
       fill="#d61616" />
    <path
       id="path6406"
       d="m 518.45,609.75 1.5254,2.1068 c 0.72135,-0.0327 1.4306,-0.29491 1.9998,-0.73925 0.59872,-0.46738 1.0388,-1.1344 1.233,-1.8687 0.19414,-0.73431 0.14122,-1.5317 -0.14827,-2.2339 -0.29613,-0.42169 -0.71622,-0.75519 -1.1941,-0.94798 -0.47786,-0.19278 -1.0118,-0.24415 -1.5176,-0.14601 -0.8083,0.15682 -1.5307,0.70722 -1.8964,1.4449 -0.3657,0.7377 -0.36639,1.6459 -0.002,2.3841"
       fill="#c11616" />
    <path
       id="path4579"
       d="m 401.11,500.26 c -0.47061,0.59438 -1.1376,1.0047 -1.8319,1.3092 -0.69426,0.30458 -1.4258,0.51463 -2.134,0.78513 -1.2348,0.47163 -2.4198,1.133 -3.7292,1.3143 -1.2883,0.17839 -2.6392,-0.14165 -3.7105,-0.87906 -1.0713,-0.73741 -1.8526,-1.885 -2.146,-3.152 -0.29337,-1.2671 -0.096,-2.6413 0.54226,-3.7745 0.63821,-1.1332 1.711,-2.0144 2.9466,-2.4204 1.7872,-0.60393 3.7315,-0.73593 5.5838,-0.3791 0.83434,0.16072 1.6538,0.42054 2.4024,0.82252 0.74857,0.40199 1.4255,0.9495 1.9298,1.6333 0.50432,0.68382 0.83075,1.5071 0.87566,2.3556 0.0449,0.84849 -0.20153,1.7188 -0.72897,2.385"
       fill="#d61616" />
    <path
       id="path4583"
       d="m 333.96,525.12 -1.2206,1.4375 c -0.48862,0.14602 -1.0265,0.12109 -1.4996,-0.0695 -0.3607,-0.14533 -0.68287,-0.38509 -0.92565,-0.68887 -0.24279,-0.30378 -0.40562,-0.67088 -0.46787,-1.0547 -0.0622,-0.38387 -0.0237,-0.78361 0.11062,-1.1485 0.13435,-0.36493 0.36426,-0.69421 0.66055,-0.94607 0.32374,-0.55602 0.91713,-0.94638 1.5559,-1.0236 0.42143,-0.0509 0.85787,0.0305 1.2326,0.22985 0.37476,0.19938 0.68613,0.51586 0.8794,0.8938 0.19326,0.37794 0.26755,0.81566 0.2098,1.2362 -0.0577,0.42055 -0.24727,0.82203 -0.53526,1.1339 v 7e-5"
       fill="#d61616" />
    <path
       id="path4587"
       d="m 385.06,487.45 1.9641,1.2689 c 0.39152,0.71147 1.1546,1.2044 1.9641,1.2688 0.41235,0.0328 0.83146,-0.0399 1.2128,-0.20032 0.38129,-0.16039 0.72465,-0.40744 1.0056,-0.71103 0.56192,-0.60718 0.86288,-1.4313 0.9041,-2.2576 0.0412,-0.82627 -0.16568,-1.6534 -0.51834,-2.4018 -0.35266,-0.74836 -0.84747,-1.4225 -1.3954,-2.0423 -0.81757,-0.92479 -1.8156,-1.7676 -3.0217,-2.0301 -0.90549,-0.19706 -1.8833,-0.0396 -2.6812,0.43172 -0.79786,0.47133 -1.4077,1.2518 -1.6721,2.1399 -0.2644,0.88817 -0.1807,1.875 0.22949,2.706 0.41019,0.83095 1.1427,1.4976 2.0086,1.8278"
       fill="#d61616" />
    <path
       id="path4591"
       d="m 388.87,515.22 1.8716,0.84477 c 0.47859,0.51476 1.169,0.82638 1.8716,0.8448 0.60653,0.0159 1.2165,-0.18435 1.6956,-0.55663 0.47911,-0.37228 0.82385,-0.9139 0.95829,-1.5056 0.13444,-0.59166 0.0576,-1.2291 -0.21357,-1.7718 -0.27119,-0.54277 -0.73475,-0.98696 -1.2886,-1.2347 -0.30092,-0.47146 -0.73765,-0.85513 -1.244,-1.0928 -0.5063,-0.23767 -1.0805,-0.32855 -1.6354,-0.25886 -0.51334,0.0645 -1.0089,0.26568 -1.4218,0.57734 -0.41298,0.31166 -0.74238,0.73301 -0.94517,1.209 -0.20279,0.47598 -0.27848,1.0054 -0.21716,1.5192 0.0613,0.51373 0.25948,1.0105 0.5686,1.4254"
       fill="#d61616" />
    <path
       id="path4595"
       d="m 367.52,519 2.5159,1.013 c 0.63065,0.69028 1.5829,1.0737 2.5159,1.013 0.54343,-0.0354 1.0768,-0.21552 1.5303,-0.51694 0.45355,-0.30142 0.82621,-0.72336 1.0693,-1.2107 0.24307,-0.48732 0.35595,-1.0388 0.32389,-1.5825 -0.0321,-0.54363 -0.20897,-1.078 -0.50763,-1.5334 -0.46159,-0.78772 -1.1985,-1.4105 -2.0522,-1.7342 -0.85365,-0.32379 -1.8182,-0.34637 -2.6861,-0.0629 -0.92672,0.30268 -1.7352,0.95348 -2.2288,1.7942 -0.4936,0.8407 -0.66795,1.8638 -0.48068,2.8205"
       fill="#d61616" />
    <path
       id="path4599"
       d="m 425.76,524.43 -0.9817,1.7886 c -0.7045,0.22337 -1.489,0.18396 -2.1676,-0.1089 -0.92448,-0.39899 -1.6276,-1.2745 -1.8178,-2.2633 -0.19013,-0.98879 0.1382,-2.0626 0.84878,-2.776 0.2426,-0.41994 0.60102,-0.77219 1.0251,-1.0074 0.4241,-0.23526 0.91268,-0.35287 1.3974,-0.33637 0.53392,0.0182 1.0612,0.19977 1.493,0.51425 0.43186,0.31447 0.76656,0.76052 0.94775,1.2631 0.1812,0.50256 0.20816,1.0596 0.0763,1.5773 -0.13182,0.51771 -0.42187,0.99399 -0.82135,1.3487 v 1.1e-4"
       fill="#d61616" />
    <path
       id="path4603"
       d="m 442.01,532.88 -0.64875,1.3591 c -0.32738,0.38745 -0.85716,0.59346 -1.3603,0.52895 -0.31132,-0.0399 -0.60922,-0.17867 -0.84009,-0.3913 -0.23087,-0.21264 -0.39362,-0.49813 -0.45897,-0.80512 -0.0653,-0.30699 -0.033,-0.63402 0.0913,-0.92225 0.12425,-0.28822 0.33982,-0.53627 0.60789,-0.69952 0.0451,-0.41944 0.28753,-0.81341 0.64158,-1.0428 0.35405,-0.22939 0.81268,-0.2896 1.2139,-0.15938 0.41421,0.13442 0.7581,0.46954 0.90317,0.88014 0.14508,0.4106 0.0881,0.88737 -0.14978,1.2522"
       fill="#d61616" />
    <path
       id="path4607"
       d="m 555.78,595.39 c -0.58443,0.61967 -1.3144,1.1012 -2.1141,1.3946 -0.49062,0.71288 -1.2656,1.2241 -2.114,1.3946 -1.0787,0.21673 -2.2393,-0.12572 -3.0779,-0.83808 -0.83856,-0.71237 -1.3572,-1.7687 -1.4852,-2.8616 -0.12794,-1.0928 0.12113,-2.2149 0.63028,-3.1903 0.50915,-0.97541 1.2702,-1.8078 2.1498,-2.4688 0.53681,-0.40346 1.1224,-0.7477 1.7544,-0.97476 0.63197,-0.22707 1.3121,-0.33464 1.98,-0.26534 0.8365,0.0868 1.6384,0.45459 2.2633,1.0175 0.62482,0.56291 1.0718,1.3164 1.2855,2.1298 0.21368,0.81339 0.19581,1.6837 -0.032,2.4932 -0.22781,0.80955 -0.6631,1.5574 -1.2401,2.1692"
       fill="#c11616" />
    <path
       id="path4611"
       d="m 539.27,622.54 c 0.58187,1.5526 1.7381,2.9109 3.2455,3.6017 0.87959,0.40309 1.8595,0.57492 2.826,0.52999 0.96651,-0.0449 1.919,-0.30389 2.7911,-0.72301 1.8132,-0.87143 3.2718,-2.4558 3.9907,-4.3346 0.71891,-1.8789 0.69043,-4.0322 -0.0779,-5.8914 -0.88109,-1.2168 -2.1461,-2.1512 -3.5681,-2.6358 -1.422,-0.48453 -2.9944,-0.51686 -4.4351,-0.0912 -1.9134,0.56533 -3.5703,1.9502 -4.4635,3.7343 -0.89318,1.7841 -1.0088,3.9417 -0.30868,5.81"
       fill="#c11616" />
    <path
       id="path4615"
       d="m 535.92,574.3 -1.0755,0.95239 c -0.29653,0.37936 -0.663,0.70388 -1.0754,0.95234 -1.0434,0.62854 -2.3838,0.73642 -3.5143,0.28285 -1.1305,-0.45357 -2.0246,-1.458 -2.3442,-2.6334 -0.31961,-1.1754 -0.0572,-2.4943 0.68791,-3.4579 0.74513,-0.96358 1.9556,-1.5494 3.1736,-1.5357 0.94761,-0.40308 2.0731,-0.36313 2.9898,0.10611 0.92557,0.47381 1.6201,1.3766 1.8408,2.3927 0.22065,1.0161 -0.0369,2.1256 -0.68258,2.9407"
       fill="#c11616" />
    <path
       id="path4619"
       d="m 528.42,596.99 2.8611,2.7748 c 1.3128,0.16192 2.6825,-0.19362 3.7508,-0.97363 0.82253,-0.60055 1.4646,-1.445 1.8235,-2.3981 0.35886,-0.95311 0.43314,-2.0114 0.21095,-3.0052 -0.62193,-0.6902 -1.4415,-1.2003 -2.3354,-1.4535 -0.8939,-0.25323 -1.8592,-0.24878 -2.7508,0.0127 -1.0654,0.31245 -2.0187,0.99401 -2.6591,1.901 -0.64033,0.90702 -0.96343,2.0335 -0.9012,3.142"
       fill="#c11616" />
    <path
       id="path4623"
       d="m 565.78,582.67 4.4313,1.7043 c 0.51406,0.65231 1.2064,1.1627 1.9815,1.4608 0.77516,0.29814 1.6311,0.38321 2.4498,0.2435 0.98243,-0.16766 1.9064,-0.66137 2.5918,-1.3849 0.68539,-0.72354 1.1284,-1.6729 1.2426,-2.6629 0.11424,-0.99006 -0.10091,-2.0153 -0.6035,-2.8759 -0.5026,-0.86062 -1.2898,-1.5518 -2.2083,-1.9388 -0.43155,-0.99264 -1.1541,-1.8567 -2.0547,-2.4571 -0.90059,-0.6004 -1.9761,-0.93504 -3.0583,-0.95162 -1.032,-0.0158 -2.0669,0.25698 -2.957,0.77942 -0.8901,0.52245 -1.6328,1.293 -2.1221,2.2018 -0.48932,0.90873 -0.72381,1.953 -0.67002,2.9837 0.0538,1.0307 0.39571,2.0448 0.97697,2.8977"
       fill="#c11616" />
    <path
       id="path4627"
       d="m 567.47,612.85 1.8932,2.9915 c 0.65822,0.67934 1.6335,1.0378 2.575,0.94634 0.63002,-0.0612 1.2398,-0.31702 1.7248,-0.7237 0.48506,-0.40667 0.84335,-0.96245 1.0135,-1.5721 0.17015,-0.60968 0.15144,-1.2707 -0.0529,-1.8698 -0.20437,-0.59908 -0.59353,-1.1337 -1.1008,-1.5123 -0.36051,-0.68236 -0.97504,-1.2267 -1.6959,-1.5022 -0.72088,-0.27553 -1.5418,-0.27983 -2.2656,-0.0119 -0.64864,0.24015 -1.2154,0.69577 -1.5894,1.2776 -0.37395,0.58187 -0.55295,1.2867 -0.50196,1.9765"
       fill="#c11616" />
    <path
       id="path4631"
       d="m 440.01,719.11 -1.6451,2.9148 c -1.0396,0.35657 -2.1964,0.36157 -3.239,0.014 -0.86304,-0.2877 -1.6454,-0.81344 -2.2378,-1.5038 -0.59244,-0.69039 -0.9933,-1.5435 -1.1466,-2.4402 -0.15333,-0.89672 -0.0587,-1.8345 0.27068,-2.6826 0.32938,-0.84801 0.8926,-1.6038 1.611,-2.1619 0.36667,-0.67948 0.91279,-1.2611 1.5679,-1.6697 0.65509,-0.40865 1.4176,-0.64337 2.1891,-0.67388 0.96773,-0.0383 1.9455,0.24872 2.739,0.80393 0.79355,0.55522 1.3982,1.3754 1.6939,2.2977 0.29569,0.92225 0.28066,1.9412 -0.0421,2.8543 -0.32276,0.91313 -0.95138,1.7152 -1.761,2.2467 v 7.6e-4 -4e-5"
       fill="#b31616" />
    <path
       id="path4635"
       d="m 488.6,712.35 -2.506,2.954 c -0.61212,0.91227 -1.519,1.6234 -2.5509,2.0003 -1.0319,0.37692 -2.1836,0.41769 -3.2396,0.1147 -1.6718,-0.47967 -3.0604,-1.8473 -3.5654,-3.5116 -0.50503,-1.6643 -0.11066,-3.573 1.0126,-4.9008 0.38825,-1.3155 1.2713,-2.4786 2.4342,-3.2059 1.1628,-0.72738 2.595,-1.0126 3.9478,-0.78608 1.6011,0.26805 3.0667,1.2596 3.9111,2.6461 0.8444,1.3865 1.0528,3.1437 0.55625,4.6893"
       fill="#b31616" />
    <path
       id="path4639"
       d="m 506.51,708.59 3.3002,-2.7082 c 1.0559,-0.4186 2.292,-0.35598 3.3002,0.16719 1.0727,0.55667 1.864,1.6268 2.0818,2.8156 0.21778,1.1888 -0.1427,2.4699 -0.94842,3.3707 -0.20415,0.9547 -0.7374,1.8358 -1.4885,2.4595 -0.75109,0.62369 -1.7152,0.98594 -2.6911,1.0112 -0.82905,0.0214 -1.6629,-0.19816 -2.3739,-0.62516 -0.71095,-0.427 -1.2966,-1.06 -1.6671,-1.8019 -0.37057,-0.74193 -0.52483,-1.5903 -0.43915,-2.4152 0.0857,-0.82489 0.41102,-1.6235 0.92616,-2.2734 v -2.8e-4"
       fill="#b31616" />
    <path
       id="path4643"
       d="m 516.61,684.76 -4.2167,-2.4191 c -1.2694,-0.46096 -2.7133,-0.4212 -3.9554,0.1089 -1.0253,0.43756 -1.9039,1.1967 -2.5227,2.124 -0.61878,0.92725 -0.98068,2.0177 -1.0835,3.1277 -0.20572,2.22 0.62501,4.4556 1.9759,6.2293 1.0455,1.3726 2.4358,2.5255 4.0758,3.0617 1.5617,0.51064 3.3091,0.4298 4.817,-0.22284 1.5079,-0.65264 2.7628,-1.8712 3.4595,-3.3593 0.69664,-1.4881 0.82876,-3.2323 0.36421,-4.8084 -0.46455,-1.576 -1.5216,-2.9698 -2.914,-3.8421 v 1.4e-4"
       fill="#b31616" />
    <path
       id="path4647"
       d="m 462.69,721.77 -2.4216,-1.0929 c -0.77692,-0.11414 -1.5892,0.0266 -2.2824,0.39555 -0.84342,0.44886 -1.5005,1.2362 -1.7912,2.1463 -0.29073,0.91012 -0.21177,1.9325 0.21524,2.7872 0.45489,0.57408 1.0795,1.012 1.7742,1.244 0.69475,0.23198 1.4571,0.25718 2.1657,0.0716 1.1217,-0.29381 2.0876,-1.1308 2.5379,-2.1993 0.45037,-1.0685 0.37507,-2.3444 -0.19786,-3.3524"
       fill="#b31616" />
    <path
       id="path4651"
       d="m 264.74,678.43 -2.4217,-1.0929 c -0.7769,-0.11413 -1.5891,0.0266 -2.2823,0.39554 -0.84342,0.44886 -1.5005,1.2362 -1.7912,2.1463 -0.29074,0.91011 -0.21179,1.9325 0.21522,2.7872 0.45489,0.57409 1.0795,1.012 1.7742,1.244 0.69475,0.23198 1.4571,0.25718 2.1657,0.0716 1.1217,-0.29381 2.0876,-1.1308 2.5379,-2.1993 0.45036,-1.0685 0.37506,-2.3444 -0.19786,-3.3524"
       fill="#b31616" />
    <path
       id="path4655"
       d="m 326.37,719.34 -1.8121,2.9148 c -1.1385,0.42163 -2.4261,0.42668 -3.5678,0.014 -0.84451,-0.30525 -1.6071,-0.83402 -2.189,-1.5179 -0.58197,-0.68387 -0.98194,-1.5212 -1.1482,-2.4037 -0.16622,-0.88246 -0.0983,-1.8079 0.19501,-2.6567 0.29329,-0.84874 0.81124,-1.6187 1.4868,-2.2103 0.41245,-0.72263 1.0228,-1.331 1.7469,-1.741 0.72402,-0.41001 1.5597,-0.62057 2.3915,-0.6026 0.93718,0.0203 1.866,0.33221 2.6254,0.88178 0.75939,0.54957 1.346,1.3343 1.6582,2.2182 0.31216,0.88389 0.34847,1.863 0.10264,2.7676 -0.24583,0.90459 -0.77273,1.7307 -1.4893,2.335 v 7.3e-4"
       fill="#b31616" />
    <path
       id="path4660"
       d="m 280.71,724.22 4.4313,2.8656 c 0.40494,0.8309 1.0404,1.548 1.8166,2.0499 0.77617,0.50193 1.6908,0.78727 2.6147,0.81568 1.1243,0.0346 2.257,-0.3156 3.1656,-0.97869 0.90864,-0.66309 1.5876,-1.635 1.8976,-2.7163 0.31001,-1.0813 0.24914,-2.2653 -0.17013,-3.3091 -0.41928,-1.0438 -1.1943,-1.9409 -2.1662,-2.5073 -0.37314,-1.4456 -1.2971,-2.7417 -2.542,-3.5659 -1.2448,-0.82417 -2.7989,-1.1686 -4.2754,-0.94764 -1.8122,0.27122 -3.4757,1.4059 -4.3895,2.9941 -0.91386,1.5882 -1.0589,3.5966 -0.38266,5.2996"
       fill="#b31616" />
    <path
       id="path4664"
       d="m 344.79,709.92 c -0.47684,0.19223 -0.93942,0.41983 -1.3827,0.6803 -0.44473,0.26134 -0.88098,0.56042 -1.3827,0.6803 -0.54088,0.12924 -1.1324,0.0305 -1.602,-0.26743 -0.46957,-0.29791 -0.81093,-0.79105 -0.92441,-1.3354 -0.11349,-0.54441 0.002,-1.1329 0.31382,-1.5936 0.31142,-0.46072 0.81426,-0.78762 1.3617,-0.88525 0.21728,-0.35862 0.53585,-0.65511 0.90912,-0.84611 0.37327,-0.19101 0.8001,-0.27594 1.2181,-0.24237 0.42243,0.0339 0.83446,0.18885 1.1746,0.44165 0.34013,0.2528 0.60728,0.60267 0.76156,0.99738 0.15428,0.39471 0.19521,0.83299 0.11667,1.2494 -0.0785,0.41645 -0.2763,0.80973 -0.56375,1.1211"
       fill="#b31616" />
    <path
       id="path4668"
       d="m 252.89,705.24 -4.4313,3.6326 c -1.4176,0.56269 -3.0777,0.47874 -4.4313,-0.22409 -1.4385,-0.74692 -2.4996,-2.1821 -2.792,-3.7764 -0.29239,-1.5943 0.19032,-3.3126 1.2702,-4.5214 0.27471,-1.2812 0.99105,-2.4634 1.9996,-3.2999 1.0085,-0.83655 2.3027,-1.3221 3.6126,-1.3553 1.1118,-0.0282 2.23,0.26662 3.1834,0.8393 0.95341,0.57268 1.7389,1.4213 2.2363,2.4161 0.49738,0.99476 0.705,2.1323 0.5911,3.2386 -0.1139,1.1063 -0.54894,2.1777 -1.2386,3.0503 v 1.8e-4"
       fill="#b31616" />
    <path
       id="path4672"
       d="m 282.02,696.21 2.4052,-1.7951 c 0.44673,-0.9402 1.3768,-1.6343 2.4053,-1.7951 0.58593,-0.0916 1.1946,-0.0174 1.748,0.19576 0.55342,0.21316 1.0513,0.56333 1.4524,1.0002 0.80219,0.87367 1.1983,2.0759 1.209,3.262 0.0108,1.186 -0.34252,2.3558 -0.88527,3.4104 -0.54275,1.0546 -1.2707,2.0031 -2.044,2.9024 -1.0305,1.1982 -2.2061,2.3575 -3.7004,2.8723 -1.3542,0.46648 -2.9008,0.34117 -4.1622,-0.33722 -1.2614,-0.67838 -2.2186,-1.8997 -2.576,-3.2866 -0.35737,-1.387 -0.10952,-2.9188 0.66699,-4.1223 0.7765,-1.2035 2.07,-2.0606 3.481,-2.3066"
       fill="#b31616" />
    <path
       id="path4676"
       d="m 232.95,602.37 c 0.64351,0.54764 1.4195,0.91334 2.1141,1.3946 0.69615,0.48235 1.3242,1.0888 2.114,1.3946 0.54254,0.21008 1.1422,0.26549 1.7163,0.17168 0.57418,-0.0938 1.122,-0.33526 1.5869,-0.68502 0.92982,-0.69953 1.5022,-1.8225 1.6238,-2.9797 0.12164,-1.1572 -0.18606,-2.3388 -0.76726,-3.3468 -0.5812,-1.008 -1.4254,-1.8491 -2.3768,-2.5189 -1.0941,-0.77018 -2.3999,-1.3362 -3.7344,-1.2401 -0.86384,0.0622 -1.7037,0.40691 -2.3681,0.96254 -0.66436,0.55562 -1.1511,1.3185 -1.3837,2.1528 -0.23268,0.83424 -0.21164,1.7361 0.0509,2.5615 0.26257,0.82532 0.76462,1.5716 1.4242,2.1329"
       fill="#c11616" />
    <path
       id="path4680"
       d="m 227.7,621.35 c -0.62866,0.48827 -1.3823,0.78877 -2.143,1.0233 -0.76066,0.23456 -1.5399,0.40978 -2.2883,0.68101 -1.4923,0.54083 -2.8626,1.4623 -4.4313,1.7043 -1.2829,0.19797 -2.6352,-0.0941 -3.722,-0.8039 -1.0868,-0.70978 -1.8979,-1.8306 -2.2324,-3.0849 -0.33446,-1.2542 -0.18915,-2.6301 0.39994,-3.7868 0.58908,-1.1567 1.6164,-2.0834 2.8275,-2.5505 1.7382,-1.8314 4.2956,-2.8544 6.8174,-2.727 1.1532,0.0583 2.3004,0.34919 3.3148,0.90074 1.0144,0.55156 1.8918,1.3684 2.464,2.3713 0.57217,1.0029 0.82943,2.1925 0.66532,3.3354 -0.1641,1.1429 -0.76004,2.2286 -1.6719,2.9368"
       fill="#c11616" />
    <path
       id="path4684"
       d="m 239.09,571.22 1.0755,0.95239 c 0.29654,0.37936 0.66301,0.70388 1.0755,0.95234 1.0434,0.62853 2.3838,0.73641 3.5143,0.28284 1.1305,-0.45357 2.0246,-1.458 2.3442,-2.6334 0.3196,-1.1754 0.0572,-2.4943 -0.6879,-3.4579 -0.74512,-0.96358 -1.9556,-1.5494 -3.1736,-1.5357 -0.94761,-0.40307 -2.0731,-0.36313 -2.9898,0.10611 -0.92557,0.47381 -1.6201,1.3766 -1.8408,2.3927 -0.22066,1.0161 0.0369,2.1256 0.68255,2.9407"
       fill="#c11616" />
    <path
       id="path4688"
       d="m 258.92,624.4 -1.7626,0.68379 c -0.45047,0.46943 -1.1134,0.7266 -1.7626,0.68375 -0.46401,-0.0306 -0.91704,-0.21026 -1.276,-0.50595 -0.3589,-0.29569 -0.62192,-0.70596 -0.74078,-1.1555 -0.11886,-0.44958 -0.093,-0.93623 0.0729,-1.3707 0.16588,-0.43444 0.47093,-0.8145 0.85917,-1.0704 0.29613,-0.42168 0.71621,-0.75518 1.1941,-0.94797 0.47785,-0.19278 1.0118,-0.24415 1.5176,-0.14602 0.8083,0.15681 1.5307,0.70721 1.8964,1.4449 0.3657,0.7377 0.36638,1.6459 0.002,2.3841"
       fill="#c11616" />
    <path
       id="path4693"
       d="m 256.49,591.13 -1.9471,1.9832 c -0.86595,0.27319 -1.834,0.20739 -2.655,-0.18046 -0.96005,-0.45353 -1.7014,-1.3467 -1.9703,-2.3739 -0.26892,-1.0272 -0.0604,-2.1691 0.55429,-3.0349 0.38544,-0.55238 0.93314,-0.99008 1.5569,-1.2442 0.62378,-0.25415 1.3214,-0.32384 1.9831,-0.19811 1.0671,0.20275 2.0215,0.92998 2.5002,1.905 0.47864,0.97505 0.47021,2.1749 -0.0221,3.1432 v 1.4e-4"
       fill="#c11616" />
    <path
       id="path4697"
       d="m 208.98,582.67 -4.4313,1.7043 c -0.51406,0.65231 -1.2064,1.1627 -1.9815,1.4608 -0.77516,0.29814 -1.6311,0.38321 -2.4498,0.2435 -0.98243,-0.16766 -1.9064,-0.66137 -2.5918,-1.3849 -0.68539,-0.72354 -1.1284,-1.6729 -1.2426,-2.6629 -0.11424,-0.99006 0.10091,-2.0153 0.6035,-2.8759 0.5026,-0.86062 1.2898,-1.5518 2.2083,-1.9388 0.43155,-0.99264 1.1541,-1.8567 2.0547,-2.4571 0.90059,-0.6004 1.9761,-0.93504 3.0583,-0.95162 1.032,-0.0158 2.0669,0.25698 2.957,0.77942 0.8901,0.52245 1.6328,1.293 2.1221,2.2018 0.48932,0.90873 0.72381,1.953 0.67002,2.9837 -0.0538,1.0307 -0.39571,2.0448 -0.97697,2.8977"
       fill="#c11616" />
    <path
       id="path4702"
       d="m 200.42,605.02 -1.8932,2.9915 c -0.65822,0.67935 -1.6335,1.0378 -2.575,0.94635 -0.63002,-0.0612 -1.2398,-0.31702 -1.7248,-0.72369 -0.48507,-0.40668 -0.84336,-0.96246 -1.0135,-1.5721 -0.17016,-0.60969 -0.15145,-1.2707 0.0529,-1.8698 0.20437,-0.59908 0.59353,-1.1337 1.1008,-1.5123 0.36052,-0.68236 0.97505,-1.2267 1.6959,-1.5022 0.72088,-0.27553 1.5418,-0.27983 2.2656,-0.0119 0.64864,0.24016 1.2154,0.69577 1.5894,1.2776 0.37395,0.58186 0.55295,1.2867 0.50196,1.9765"
       fill="#c11616" />
    <path
       id="path4706"
       d="m 210.29,594.74 3.8309,1.7043 c 0.32987,0.68459 0.90856,1.2459 1.6029,1.5548 0.6943,0.30889 1.4987,0.36288 2.2281,0.14953 0.83614,-0.24458 1.5548,-0.83125 2.0195,-1.5681 0.46469,-0.73689 0.68333,-1.6153 0.68688,-2.4865 0.007,-1.7423 -0.8129,-3.3877 -1.8223,-4.8079 -0.55139,-0.77579 -1.1689,-1.5117 -1.9026,-2.1179 -0.73371,-0.60626 -1.5893,-1.0807 -2.5176,-1.2908 -1.1037,-0.24971 -2.2914,-0.11022 -3.3073,0.3884 -1.0158,0.49863 -1.8527,1.3529 -2.3302,2.3788 -0.47756,1.0259 -0.59251,2.2163 -0.32008,3.3146 0.27243,1.0983 0.93036,2.097 1.832,2.7808"
       fill="#c11616" />
    <path
       id="path4710"
       d="m 350.43,513.77 -1.9438,0.92429 c -0.4973,0.54179 -1.2097,0.88051 -1.9438,0.92424 -0.67703,0.0403 -1.3661,-0.16905 -1.9063,-0.5792 -0.54016,-0.41015 -0.92693,-1.0177 -1.0699,-1.6807 -0.143,-0.66298 -0.041,-1.376 0.28201,-1.9723 0.32307,-0.59634 0.8646,-1.0712 1.4981,-1.3135 0.30816,-0.49834 0.75829,-0.9078 1.2835,-1.1675 0.52521,-0.25974 1.1238,-0.36893 1.7069,-0.31135 0.56879,0.0562 1.1211,0.27068 1.5787,0.61314 0.4576,0.34245 0.81916,0.81187 1.0334,1.3417 0.21429,0.52987 0.28069,1.1186 0.18979,1.6829 -0.0909,0.56428 -0.33884,1.1024 -0.70868,1.5382"
       fill="#d61616" />
    <path
       id="path4714"
       d="m 418.46,512.65 -2.4316,0.96338 c -0.62143,0.65018 -1.5335,1.0115 -2.4316,0.96338 -0.65875,-0.0353 -1.3043,-0.28536 -1.8149,-0.703 -0.51067,-0.41764 -0.88382,-1.0007 -1.0492,-1.6394 -0.16533,-0.63864 -0.12199,-1.3295 0.12187,-1.9425 0.24385,-0.61297 0.68695,-1.1448 1.2458,-1.4954 0.40594,-0.586 0.98385,-1.0513 1.643,-1.3229 0.65912,-0.27158 1.3971,-0.34844 2.098,-0.2185 1.1422,0.21174 2.1648,0.99088 2.6721,2.036 0.50729,1.0451 0.48686,2.3305 -0.0534,3.3589"
       fill="#d61616" />
    <path
       id="path4718"
       d="m 389.46,527.5 -1.2292,1.7912 c -0.35313,0.34678 -0.79614,0.60126 -1.2736,0.73159 -0.47747,0.13034 -0.98833,0.13624 -1.4687,0.017 -0.91204,-0.22644 -1.6939,-0.9225 -2.0244,-1.8022 -0.33051,-0.87969 -0.20039,-1.9184 0.33691,-2.6894 0.38062,-0.72336 1.0664,-1.2797 1.8528,-1.503 0.78631,-0.22324 1.6622,-0.11028 2.3661,0.30515 0.52919,0.31231 0.9593,0.78978 1.2148,1.3486 0.25553,0.55882 0.33533,1.1965 0.22539,1.801"
       fill="#d61616" />
    <path
       id="path4723"
       d="m 518.45,609.75 1.5254,2.1068 c 0.72135,-0.0327 1.4306,-0.29491 1.9998,-0.73925 0.59872,-0.46738 1.0388,-1.1344 1.233,-1.8687 0.19414,-0.73431 0.14122,-1.5317 -0.14827,-2.2339 -0.29613,-0.42169 -0.71622,-0.75519 -1.1941,-0.94798 -0.47786,-0.19278 -1.0118,-0.24415 -1.5176,-0.14601 -0.8083,0.15682 -1.5307,0.70722 -1.8964,1.4449 -0.3657,0.7377 -0.36639,1.6459 -0.002,2.3841"
       fill="#c11616" />
  </g>
  <g
     id="layer7"
     transform="translate(-188.14849,-447.65762)"
     fill="#f05959">
    <path
       id="path6316"
       opacity="0.55"
       d="m 411.93,511.91 -4.043,11.731 c 6.8378,1.8752 13.559,4.1751 20.112,6.8822 7.4981,3.0974 14.776,6.728 21.76,10.855 l 5.1541,-11.078 c -6.4942,-3.4907 -13.135,-6.7083 -19.899,-9.6416 -7.5523,-3.275 -15.258,-6.1954 -23.084,-8.7484"
       fill-rule="evenodd" />
    <a
       id="a6343"
       transform="matrix(3.6223,0.67417,-0.029219,3.6732,47.869,-1146.1)">
      <path
         id="path6320"
         opacity="0.505"
         d="m 117.18,435.36 -1.3906,3.268 4.228,1.6907 0.8687,-3.3565 -3.7061,-1.6022"
         fill-rule="evenodd"
         fill="#f05959" />
    </a>
  </g>
  <g
     id="layer10"
     transform="translate(-188.14849,-447.65762)">
    <g
       id="g6324"
       transform="matrix(3.4905,0,0,3.4905,49.464,-993.04)"
       fill="#b00202">
      <g
         id="g6337"
         fill="#b00202">
        <path
           id="path4235"
           d="m 62.438,465.01 -12.207,0.30665 8.0879,4.125 5.6797,4.709 -3.1387,3.4375 c 4.2607,2.3547 8.7041,4.3809 13.275,6.0547 4.368,1.5993 8.868,2.8801 13.473,3.5391 6.3125,0.63448 12.656,0.81615 18.506,0 4.6046,-0.65897 9.1047,-1.9398 13.473,-3.5391 4.5713,-1.6738 9.0146,-3.7 13.275,-6.0547 l -3.1367,-3.4375 5.6777,-4.709 8.0879,-4.125 -12.133,-0.30664 c -3.8941,3.281 -8.4789,5.734 -13.367,7.1602 -6.0487,1.7647 -12.426,1.9428 -18.717,2.2949 -1.6602,0.1863 -3.2822,0.0895 -4.8262,0 -6.291,-0.35214 -12.668,-0.53026 -18.717,-2.2949 -4.8882,-1.4261 -9.3989,-3.8792 -13.293,-7.1602 z"
           fill-rule="evenodd"
           transform="translate(-0.082769,-0.42034)"
           fill="#b00202" />
      </g>
    </g>
  </g>
  <g
     id="layer5"
     fill-rule="evenodd"
     transform="translate(-188.14849,-447.65762)"
     fill="#930000">
    <path
       id="path4756"
       style="color:#000000;text-indent:0;text-transform:none"
       d="m 373.67,498.3 c -20.05,0.55223 -45.856,9.6668 -67.213,22.619 -19.988,12.122 -34.202,21.299 -45.919,38.331 -11.129,0.56065 -23.726,0.59946 -35.976,3.6293 -12.773,3.159 -25.176,9.8008 -34.101,23.54 l -0.1651,0.25306 -0.11902,0.27959 c -3.9747,9.4387 -1.7936,18.243 3.8095,25.052 5.6032,6.8092 14.228,12.21 23.828,17.427 18.052,9.8099 39.342,19.166 50.62,31.005 -5.2475,5.3506 -13.333,10.41 -20.395,16.375 -3.9928,3.3727 -7.5777,7.1423 -9.5602,11.907 -1.9825,4.7644 -2.0866,10.472 0.42916,16.542 4.2734,10.31 13.047,17.752 23.92,22.568 10.873,4.8161 23.939,7.1202 37.521,7.2253 26.557,0.20489 55.009,-8.0023 72.764,-24.166 9.8536,0.95437 19.454,0.47715 28.628,0 17.755,16.164 46.208,24.372 72.765,24.166 13.582,-0.10506 26.648,-2.4092 37.521,-7.2253 10.873,-4.8161 19.647,-12.258 23.92,-22.568 2.5157,-6.0697 2.4116,-11.777 0.42915,-16.542 -1.9826,-4.7644 -5.5675,-8.534 -9.5602,-11.907 -7.0616,-5.9649 -15.147,-11.024 -20.395,-16.375 11.278,-11.84 32.568,-21.196 50.62,-31.005 9.6001,-5.2168 18.225,-10.618 23.828,-17.427 5.6032,-6.809 7.7842,-15.613 3.8095,-25.052 l -0.11833,-0.27959 -0.16475,-0.25306 c -8.9255,-13.74 -21.328,-20.381 -34.101,-23.54 -12.25,-3.0298 -24.848,-3.0686 -35.976,-3.6293 -11.718,-17.032 -25.931,-26.208 -45.919,-38.331 -21.357,-12.953 -42.905,-21.743 -62.956,-22.295 -1.3626,6.2333 -0.66302,3.1291 -1.3626,6.2333 24.298,0.42043 37.87,12.121 60.832,21.909 20.554,12.466 33.798,20.854 44.909,37.705 l 0.93748,1.4184 1.6902,0.0998 c 11.761,0.65423 24.565,0.62857 36.24,3.5161 11.56,2.8591 21.903,8.39 29.796,20.337 2.9944,7.2998 1.6321,12.397 -2.8192,17.807 -4.5021,5.4711 -12.492,10.706 -21.834,15.782 -18.683,10.153 -42.583,19.56 -55.037,34.881 l -1.7232,2.1242 1.6902,2.1576 c 6.2742,7.9736 16.54,13.383 23.716,19.445 3.588,3.0309 6.3343,6.1243 7.6653,9.323 1.331,3.1986 1.5254,6.5517 -0.42912,11.267 -3.4517,8.3279 -10.639,14.635 -20.401,18.959 -9.7627,4.3243 -22.012,6.5467 -34.86,6.6459 -25.698,0.19861 -53.713,-8.2371 -69.417,-23.287 l -1.0498,-1.0055 c -11.296,0.59171 -22.339,0.51736 -33.117,0 l -1.0498,1.0055 c -15.704,15.05 -43.719,23.486 -69.417,23.287 -12.849,-0.0991 -25.098,-2.3216 -34.86,-6.6459 -9.7627,-4.3243 -16.95,-10.631 -20.401,-18.959 -1.9545,-4.7157 -1.7601,-8.0688 -0.42912,-11.267 1.331,-3.1987 4.0773,-6.2921 7.6653,-9.323 7.176,-6.0616 17.441,-11.471 23.716,-19.445 l 1.6902,-2.1576 -1.7232,-2.1242 c -12.455,-15.321 -36.354,-24.728 -55.037,-34.881 -9.3417,-5.0764 -17.332,-10.311 -21.834,-15.782 -4.4513,-5.4094 -5.8136,-10.507 -2.8192,-17.807 7.8938,-11.947 18.236,-17.478 29.796,-20.337 11.675,-2.8876 24.48,-2.8619 36.24,-3.5161 l 1.6902,-0.0998 0.93751,-1.4184 c 11.111,-16.85 24.356,-25.239 44.909,-37.705 23.026,-9.8116 36.099,-20.683 60.52,-21.089 0,0 0.41432,-2.9309 3.2063,-7.377 z" />
    <path
       id="path4742"
       style="color:#000000;text-indent:0;text-transform:none"
       d="m 373.67,498.3 c -20.05,0.55223 -45.856,9.6668 -67.213,22.619 -19.988,12.122 -34.202,21.299 -45.919,38.331 -11.129,0.56065 -23.726,0.59946 -35.976,3.6293 -12.773,3.159 -25.176,9.8008 -34.101,23.54 l -0.1651,0.25306 -0.11902,0.27959 c -3.9747,9.4387 -1.7936,18.243 3.8095,25.052 5.6032,6.8092 14.228,12.21 23.828,17.427 18.052,9.8099 39.342,19.166 50.62,31.005 -5.2475,5.3506 -13.333,10.41 -20.395,16.375 -3.9928,3.3727 -7.5777,7.1423 -9.5602,11.907 -1.9825,4.7644 -2.0866,10.472 0.42916,16.542 4.2734,10.31 13.047,17.752 23.92,22.568 10.873,4.8161 23.939,7.1202 37.521,7.2253 26.557,0.20489 55.009,-8.0023 72.764,-24.166 9.8536,0.95437 19.454,0.47715 28.628,0 17.755,16.164 46.208,24.372 72.765,24.166 13.582,-0.10506 26.648,-2.4092 37.521,-7.2253 10.873,-4.8161 19.647,-12.258 23.92,-22.568 2.5157,-6.0697 2.4116,-11.777 0.42915,-16.542 -1.9826,-4.7644 -5.5675,-8.534 -9.5602,-11.907 -7.0616,-5.9649 -15.147,-11.024 -20.395,-16.375 11.278,-11.84 32.568,-21.196 50.62,-31.005 9.6001,-5.2168 18.225,-10.618 23.828,-17.427 5.6032,-6.809 7.7842,-15.613 3.8095,-25.052 l -0.11833,-0.27959 -0.16475,-0.25306 c -8.9255,-13.74 -21.328,-20.381 -34.101,-23.54 -12.25,-3.0298 -24.848,-3.0686 -35.976,-3.6293 -11.718,-17.032 -25.931,-26.208 -45.919,-38.331 -21.357,-12.953 -42.905,-21.743 -62.956,-22.295 -1.3626,6.2333 -0.66302,3.1291 -1.3626,6.2333 24.298,0.42043 37.87,12.121 60.832,21.909 20.554,12.466 33.798,20.854 44.909,37.705 l 0.93748,1.4184 1.6902,0.0998 c 11.761,0.65423 24.565,0.62857 36.24,3.5161 11.56,2.8591 21.903,8.39 29.796,20.337 2.9944,7.2998 1.6321,12.397 -2.8192,17.807 -4.5021,5.4711 -12.492,10.706 -21.834,15.782 -18.683,10.153 -42.583,19.56 -55.037,34.881 l -1.7232,2.1242 1.6902,2.1576 c 6.2742,7.9736 16.54,13.383 23.716,19.445 3.588,3.0309 6.3343,6.1243 7.6653,9.323 1.331,3.1986 1.5254,6.5517 -0.42912,11.267 -3.4517,8.3279 -10.639,14.635 -20.401,18.959 -9.7627,4.3243 -22.012,6.5467 -34.86,6.6459 -25.698,0.19861 -53.713,-8.2371 -69.417,-23.287 l -1.0498,-1.0055 c -11.296,0.59171 -22.339,0.51736 -33.117,0 l -1.0498,1.0055 c -15.704,15.05 -43.719,23.486 -69.417,23.287 -12.849,-0.0991 -25.098,-2.3216 -34.86,-6.6459 -9.7627,-4.3243 -16.95,-10.631 -20.401,-18.959 -1.9545,-4.7157 -1.7601,-8.0688 -0.42912,-11.267 1.331,-3.1987 4.0773,-6.2921 7.6653,-9.323 7.176,-6.0616 17.441,-11.471 23.716,-19.445 l 1.6902,-2.1576 -1.7232,-2.1242 c -12.455,-15.321 -36.354,-24.728 -55.037,-34.881 -9.3417,-5.0764 -17.332,-10.311 -21.834,-15.782 -4.4513,-5.4094 -5.8136,-10.507 -2.8192,-17.807 7.8938,-11.947 18.236,-17.478 29.796,-20.337 11.675,-2.8876 24.48,-2.8619 36.24,-3.5161 l 1.6902,-0.0998 0.93751,-1.4184 c 11.111,-16.85 24.356,-25.239 44.909,-37.705 23.026,-9.8116 36.099,-20.683 60.52,-21.089 0,0 0.41432,-2.9309 3.2063,-7.377 z" />
  </g>
</svg>
