<?xml version="1.0" encoding="UTF-8" standalone="no"?>
<svg
   viewBox="0 0 141.73 141.73"
   version="1.1"
   id="svg2"
   sodipodi:docname="monocles-chat-again.svg"
   inkscape:version="1.4.3 (0d15f75042, 2025-12-25)"
   xmlns:inkscape="http://www.inkscape.org/namespaces/inkscape"
   xmlns:sodipodi="http://sodipodi.sourceforge.net/DTD/sodipodi-0.dtd"
   xmlns="http://www.w3.org/2000/svg"
   xmlns:svg="http://www.w3.org/2000/svg">
  <sodipodi:namedview
     id="namedview2"
     pagecolor="#ffffff"
     bordercolor="#666666"
     borderopacity="1.0"
     inkscape:showpageshadow="2"
     inkscape:pageopacity="0.0"
     inkscape:pagecheckerboard="0"
     inkscape:deskcolor="#d1d1d1"
     inkscape:zoom="5.0871377"
     inkscape:cx="70.864998"
     inkscape:cy="70.864998"
     inkscape:window-width="1280"
     inkscape:window-height="955"
     inkscape:window-x="0"
     inkscape:window-y="0"
     inkscape:window-maximized="1"
     inkscape:current-layer="circle" />
  <defs
     id="defs1">
    <style
       id="style1">.cls-1{fill:#708ad3;}.cls-2{fill:#3d5da1;}</style>
  </defs>
  <g
     id="circle">
    <path
       class="cls-1"
       d="M74.88,23.34A47.54,47.54,0,0,0,30,86.5l-4.35,8.9-6.1,12.47a2.17,2.17,0,0,0,2.1,3.11l13.84-1,11.37-.79a47.52,47.52,0,1,0,28-85.9Zm0,86.18a38.66,38.66,0,1,1,38.65-38.65A38.7,38.7,0,0,1,74.88,109.52Z"
       id="path1"
       style="fill:#708ad3;fill-opacity:1" />
    <path
       class="cls-2"
       d="M99.68,59.49A9.79,9.79,0,1,0,99,64.7V81.36a1.47,1.47,0,0,1-.74,1.26,12.9,12.9,0,0,1-6.35,1.67c-3.45-.08-6.77-2.41-8-3.41a15,15,0,0,0-2.18-1.45,9.82,9.82,0,0,0-2.83-1.06,4.25,4.25,0,0,0-4,.82,4.25,4.25,0,0,0-4-.82A9.82,9.82,0,0,0,68,79.43a13.67,13.67,0,0,0-2.17,1.45c-1.27,1-4.59,3.33-8,3.41a12.87,12.87,0,0,1-6.45-1.74,1.24,1.24,0,0,1-.64-1.09V64.52a9.81,9.81,0,1,0-.63-5,1.34,1.34,0,0,0-1.24,1.33,1.31,1.31,0,0,0,.26.78V81.53a2.71,2.71,0,0,0,.38,1.39c1.06,1.73,4.94,7.42,10.71,7.74.53,0,1,0,1.52,0a17.41,17.41,0,0,0,8.11-2,10.57,10.57,0,0,0,5-5,10.57,10.57,0,0,0,5,5,17.58,17.58,0,0,0,9.63,1.92c5.82-.32,9.7-6.06,10.75-7.81a2.43,2.43,0,0,0,.34-1.24V61.69a1.29,1.29,0,0,0,.34-.87A1.34,1.34,0,0,0,99.68,59.49ZM97,60.82a7,7,0,1,1-7-7A7,7,0,0,1,97,60.82Zm-37.2-7a7,7,0,1,1-7,7A7,7,0,0,1,59.77,53.83Z"
       id="path2"
       style="fill:#3d5da1;fill-opacity:1" />
  </g>
</svg>
