<?xml version="1.0" encoding="UTF-8" standalone="no"?>
<svg width="256" height="256" version="1.1" xml:space="preserve" style="clip-rule:evenodd;fill-rule:evenodd;stroke-linejoin:round;stroke-miterlimit:2" id="svg44" viewBox="0 0 256 256" xmlns="http://www.w3.org/2000/svg" xmlns:svg="http://www.w3.org/2000/svg"><defs id="defs48"/><g id="g42" transform="translate(-78.644591,-79.131596)"><g id="g26" transform="matrix(0.61793051,0,0,0.61793051,79.143005,79.143005)"><g id="g6"><path d="m 211.345,190.214 c -1.137,4.372 -5.39,7.182 -9.858,6.513 -22.854,-3.548 -44.571,-15.066 -60.591,-34.158 -35.111,-41.843 -29.645,-104.32 12.199,-139.431 41.843,-35.111 104.32,-29.645 139.431,12.198 16.02,19.092 23.592,42.479 23.117,65.603 -0.117,4.516 -3.623,8.215 -8.126,8.575 -4.029,0.353 -8.046,0.928 -12.032,1.727 -2.662,0.545 -5.427,-0.168 -7.494,-1.933 -2.066,-1.764 -3.204,-4.383 -3.084,-7.098 0.798,-16.564 -4.394,-33.46 -15.884,-47.152 -24.226,-28.872 -67.335,-32.644 -96.207,-8.418 -28.872,24.227 -32.644,67.336 -8.417,96.208 11.489,13.693 27.226,21.74 43.677,23.832 2.694,0.353 5.075,1.928 6.454,4.269 1.378,2.341 1.6,5.187 0.602,7.714 -1.477,3.787 -2.741,7.643 -3.787,11.551 z" style="fill:#74aa00" id="path2"/><path d="m 211.306,68.301 c 16.918,-2.983 33.074,8.33 36.057,25.247 2.983,16.917 -8.33,33.074 -25.247,36.057 -16.918,2.983 -33.074,-8.33 -36.057,-25.248 -2.983,-16.917 8.33,-33.073 25.247,-36.056 z" id="path4"/></g><g id="g12"><path d="m 224.072,211.345 c -4.372,-1.137 -7.183,-5.39 -6.513,-9.858 3.547,-22.854 15.066,-44.571 34.158,-60.591 41.843,-35.111 104.32,-29.645 139.431,12.199 35.111,41.843 29.645,104.32 -12.199,139.431 -19.091,16.02 -42.479,23.592 -65.602,23.117 -4.516,-0.117 -8.216,-3.623 -8.576,-8.126 -0.352,-4.029 -0.927,-8.046 -1.726,-12.032 -0.545,-2.662 0.168,-5.427 1.933,-7.494 1.764,-2.066 4.383,-3.204 7.098,-3.084 16.564,0.798 33.459,-4.394 47.152,-15.884 28.872,-24.226 32.644,-67.335 8.417,-96.207 -24.226,-28.872 -67.335,-32.644 -96.207,-8.417 -13.693,11.489 -21.74,27.226 -23.833,43.677 -0.352,2.694 -1.927,5.075 -4.268,6.454 -2.342,1.378 -5.188,1.6 -7.714,0.602 -3.787,-1.477 -7.644,-2.741 -11.551,-3.787 z" style="fill:#74aa00" id="path8"/><path d="m 345.985,211.306 c 2.983,16.918 -8.33,33.074 -25.247,36.057 -16.918,2.983 -33.074,-8.33 -36.057,-25.247 -2.983,-16.918 8.33,-33.074 25.247,-36.057 16.918,-2.983 33.074,8.33 36.057,25.247 z" id="path10"/></g><g id="g18"><path d="m 202.941,224.072 c 1.136,-4.372 5.389,-7.183 9.857,-6.513 22.855,3.547 44.572,15.066 60.592,34.158 35.11,41.843 29.644,104.32 -12.199,139.431 -41.843,35.111 -104.32,29.645 -139.431,-12.199 -16.02,-19.091 -23.593,-42.479 -23.117,-65.602 0.117,-4.516 3.622,-8.216 8.126,-8.576 4.029,-0.352 8.046,-0.927 12.032,-1.726 2.662,-0.545 5.427,0.168 7.493,1.933 2.067,1.764 3.205,4.383 3.084,7.098 -0.798,16.564 4.395,33.459 15.884,47.152 24.227,28.872 67.336,32.644 96.208,8.417 28.872,-24.226 32.643,-67.335 8.417,-96.207 -11.49,-13.693 -27.227,-21.74 -43.678,-23.833 -2.694,-0.352 -5.075,-1.927 -6.453,-4.268 -1.379,-2.342 -1.601,-5.188 -0.602,-7.714 1.477,-3.787 2.741,-7.644 3.787,-11.551 z" style="fill:#74aa00" id="path14"/><path d="m 202.979,345.985 c -16.917,2.983 -33.073,-8.33 -36.056,-25.247 -2.983,-16.918 8.329,-33.074 25.247,-36.057 16.917,-2.983 33.074,8.33 36.057,25.247 2.983,16.918 -8.33,33.074 -25.248,36.057 z" id="path16"/></g><g id="g24"><path d="m 190.214,202.941 c 4.372,1.136 7.182,5.389 6.513,9.857 -3.548,22.855 -15.066,44.572 -34.158,60.592 C 120.726,308.5 58.249,303.034 23.138,261.191 -11.973,219.348 -6.507,156.871 35.336,121.76 54.428,105.74 77.815,98.167 100.939,98.643 c 4.516,0.117 8.215,3.622 8.575,8.126 0.353,4.029 0.928,8.046 1.727,12.032 0.545,2.662 -0.168,5.427 -1.933,7.493 -1.764,2.067 -4.383,3.205 -7.098,3.084 -16.564,-0.798 -33.46,4.395 -47.152,15.884 -28.872,24.227 -32.644,67.336 -8.418,96.208 24.227,28.872 67.336,32.643 96.208,8.417 13.693,-11.49 21.74,-27.227 23.832,-43.678 0.353,-2.694 1.928,-5.075 4.269,-6.453 2.341,-1.379 5.187,-1.601 7.714,-0.602 3.787,1.477 7.643,2.741 11.551,3.787 z" style="fill:#74aa00" id="path20"/><path d="m 68.301,202.979 c -2.983,-16.917 8.33,-33.073 25.247,-36.056 16.917,-2.983 33.074,8.329 36.057,25.247 2.983,16.917 -8.33,33.074 -25.248,36.057 -16.917,2.983 -33.073,-8.33 -36.056,-25.248 z" id="path22"/></g></g><g id="g40"/></g></svg>