<?xml version="1.0" encoding="UTF-8" standalone="no"?>
<!-- Created with Inkscape (http://www.inkscape.org/) -->

<svg
   id="svg1"
   width="234.76781"
   height="246.51225"
   version="1.1"
   viewBox="0 0 234.76781 246.51225"
   xml:space="preserve"
   sodipodi:docname="specs.svg"
   inkscape:version="1.4.3 (0d15f75042, 2025-12-25)"
   xmlns:inkscape="http://www.inkscape.org/namespaces/inkscape"
   xmlns:sodipodi="http://sodipodi.sourceforge.net/DTD/sodipodi-0.dtd"
   xmlns="http://www.w3.org/2000/svg"
   xmlns:svg="http://www.w3.org/2000/svg"><defs
   id="defs1" /><sodipodi:namedview
   id="namedview1"
   pagecolor="#ffffff"
   bordercolor="#666666"
   borderopacity="1.0"
   inkscape:showpageshadow="2"
   inkscape:pageopacity="0.0"
   inkscape:pagecheckerboard="0"
   inkscape:deskcolor="#d1d1d1"
   inkscape:zoom="0.99583333"
   inkscape:cx="104.93724"
   inkscape:cy="186.27615"
   inkscape:window-width="1280"
   inkscape:window-height="955"
   inkscape:window-x="0"
   inkscape:window-y="0"
   inkscape:window-maximized="1"
   inkscape:current-layer="g1" /><g
   id="g1"
   transform="translate(-626.90187,-96.92885)"><g
     id="g28"><g
       id="g15"
       transform="matrix(1.0966,0.0079404,-0.0079404,1.0966,-96.702,-70.6)"
       fill="#d2702f"><path
         id="path6"
         transform="matrix(0.91186,-0.0066027,0.0066027,0.91186,641.14,134.73)"
         d="m 76.209,260.72 c -1.4871,-0.40741 -3.172,-1.0955 -3.7441,-1.5292 -2.6358,-1.9979 -4.3968,-3.8875 -5.3513,-5.7423 -1.1483,-2.2312 -45.514,-193.52 -45.514,-196.24 0,-5.65 4.9175,-12.083 10.451,-13.671 1.697,-0.4871 30.95,-7.2646 65.006,-15.061 68.287,-15.633 64.559,-15.003 72.575,-12.268 5.4303,1.8523 17.782,8.243 24.77,12.816 12.132,7.9387 23.239,18.087 26.592,24.296 1.1704,2.1673 3.6607,12.304 10.463,42.589 4.9099,21.86 12.621,56.19 17.136,76.289 8.004,35.634 8.1919,36.624 7.5405,39.745 -0.36745,1.7601 -1.3897,4.2298 -2.2716,5.4882 -3.6285,5.1773 1.5746,3.7357 -88.282,24.461 -45.133,10.41 -83.097,19.071 -84.364,19.247 -1.2672,0.17637 -3.5208,-0.0127 -5.0079,-0.42006 z"
         fill="#d06f2f"
         fill-rule="evenodd" /><path
         id="rect6"
         transform="rotate(-13.415,1.4925e-5,-1.1961e-5)"
         d="m 612.95,324.66 117.35,0.23302 c 11.681,0.0232 48.624,35.907 48.529,51.922 l -0.82315,138.45 c -0.0451,7.5844 -6.106,13.691 -13.691,13.691 h -151.36 c -7.5846,0 -13.691,-6.106 -13.691,-13.691 v -176.91 c 0,-7.5846 6.106,-13.706 13.691,-13.691 z"
         display="none"
         fill="#aa0000"
         fill-rule="evenodd"
         stroke-width="10.34" /><g
         id="g2"
         transform="matrix(0.65354,0,0,0.65354,267.69,91.11)"
         stroke="#ffffff"><circle
           id="path1"
           transform="rotate(-0.41487)"
           cx="770.72998"
           cy="264.28"
           r="68.391998"
           fill="#d27131"
           stroke="#ffffff"
           stroke-width="20.929" /><path
           id="rect1"
           transform="rotate(-12.415)"
           d="m 579.07,392 h 239.75 c 0.12858,0 0.24463,0.0518 0.32854,0.13566 0.0839,0.0839 0.13566,0.19996 0.13566,0.32854 l -25.067,25.343 25.067,27.212 c 0.0871,0.0946 -0.0518,0.24463 -0.13566,0.32854 -0.0839,0.0839 -0.19996,0.13566 -0.32854,0.13566 H 579.07 c -0.12859,0 -0.24464,-0.0518 -0.32854,-0.13567 -0.0839,-0.0839 -0.13566,-0.19995 -0.13566,-0.32853 l 21.086,-27.288 -21.086,-25.267 c -0.0824,-0.0987 0.0518,-0.24463 0.13566,-0.32854 C 578.82536,392.05176 578.94141,392 579.07,392 Z"
           stroke-width="6.893" /></g><path
         id="path15"
         d="m 782.44,147.63 c 15.783,-3.7088 58.18,22.398 61.932,38.364 l 0.11324,0.4819 c 0,0 -26.561,2.0882 -41.04,18.088 -1.5764,-34.299 -21.363,-55.768 -21.363,-55.768 0,0 -15.161,2.4804 0.35773,-1.1661 z"
         fill="#aa4400"
         opacity="0.98914" /><path
         id="path3"
         d="m 818.83,324.41 18.206,6.6066 c 0,0 1.6517,-16.23 4,-24.715 2.3483,-8.485 10.295,-25.811 10.295,-25.811"
         fill="none"
         stroke="#ffffff"
         stroke-width="10.34" /><path
         id="text4"
         transform="matrix(0.88701,-0.21156,0.21156,0.88701,465.6,-104.28)"
         d="m 206.74,475.86 5.7067,-9.8134 -5.3333,-9.2267 h 3.9467 l 3.1467,6 3.0933,-6 h 4 l -5.3333,9.2 5.7067,9.84 h -4.08 l -3.4133,-6.6134 -3.4933,6.6134 z m 17.6,0 v -19.04 h 12 v 3.3333 h -8.2667 v 4.16 h 7.8667 v 3.3333 h -7.8667 v 4.88 h 8.2667 v 3.3333 z m 16,0 v -19.04 h 6.32 q 3.28,0 4.88,1.5467 1.6,1.52 1.6,4.3733 0,1.8933 -0.69333,3.3333 -0.66667,1.4133 -2.16,2.2133 -1.4667,0.8 -3.8667,0.8 h -2.3467 v 6.7734 z m 5.68,-10.053 q 1.12,0 1.84,-0.32 0.72,-0.34667 1.0667,-0.98667 0.37334,-0.66667 0.37334,-1.6 0,-1.4133 -0.66667,-2.1067 -0.66667,-0.6934 -2.1067,-0.69333 h -2.4533 v 5.7067 z"
         fill="#ffffff"
         stroke-width="11.339"
         style="white-space:pre"
         aria-label="XEP" /></g></g></g>
</svg>
