<?xml version="1.0" encoding="UTF-8"?>
<!-- Created with Inkscape (http://www.inkscape.org/) -->
<svg id="svg1" width="1200" height="600" version="1.1" viewBox="0 0 1200 600" xml:space="preserve" xmlns="http://www.w3.org/2000/svg"><g id="g1"><rect id="rect22" x=".31525" y="1.9197" width="1199.4" height="597.29" ry=".50905" fill="#fff"/><g id="g26"><rect id="rect23" x=".2202" y="565" width="300" height="35" ry=".50166" fill="#d2702f"/><rect id="rect24" x="300.19" y="565" width="300" height="35" ry=".50166" fill="#457faf"/><rect id="rect25" x="600.16" y="565" width="300" height="35" ry=".50166" fill="#adcc6f"/><rect id="rect26" x="900.12" y="565" width="300" height="35" ry=".50166" fill="#58a0d2"/></g><g id="g1722" transform="matrix(1.2652 0 0 1.2652 322.16 194.12)" fill="#688630"><path id="path1691" d="m25.988 172.08-13.388-14.65h11.643l9.127 10.268 9.129-10.268h11.643l-13.387 14.646 14.401 14.728h-12.09l-9.697-10.67-9.693 10.67h-12.092l14.404-14.73z"/><path id="path1693" d="m58.508 157.43h13.836l10.183 18.905 10.183-18.905h13.832v29.374h-8.762v-21.096h-0.08l-11.807 21.096h-6.733l-11.807-21.096h-0.082v21.096h-8.764v-29.37z"/><path id="path1695" d="m112.66 157.43h24.546c8.559 0 10.628 4.302 10.628 10.063v2.516c0 4.381-1.908 9.41-8.275 9.41h-17.894v7.385h-9.005v-29.38zm9 14.69h13.997c2.109 0 2.924-1.377 2.924-3.123v-1.135c0-1.99-0.976-3.127-3.694-3.127h-13.227v7.38z"/><path id="path1697" d="m152.72 157.43h24.546c8.561 0 10.63 4.302 10.63 10.063v2.516c0 4.381-1.907 9.41-8.275 9.41h-17.893v7.385h-9.008v-29.38zm9.01 14.69h13.996c2.11 0 2.922-1.377 2.922-3.123v-1.135c0-1.99-0.974-3.127-3.693-3.127h-13.225v7.38z"/></g><g id="g28"><g id="g3"><g id="g32" transform="translate(.098041)" display="none" fill="#688630"><path id="text31" d="m604.42 390.76h3.8542l18.854 35.547v-35.547h2.6042v38.88h-3.6979l-18.958-35.781v35.781h-2.6562z" display="inline" aria-label="Newsletter"/><path id="path32" d="m666.64 413.86v1.5104h-22.135c0 4.6875 0.91146 7.9687 2.7344 9.8437 2.0139 2.0833 5.0087 3.125 8.9844 3.125 1.0417 0 2.4219-0.22569 4.1406-0.67708 1.7361-0.45139 3.4549-1.1285 5.1562-2.0312v2.526c-1.7188 0.72917-3.4809 1.2847-5.2865 1.6667-1.8056 0.38195-3.2378 0.57292-4.2969 0.57292-4.4965 0-7.8819-1.2153-10.156-3.6458-2.4653-2.5868-3.6979-6.3802-3.6979-11.38 0-5.191 1.1285-9.0625 3.3854-11.615 2.309-2.6562 5.5208-3.9844 9.6354-3.9844 3.8194 0 6.7014 1.2587 8.6458 3.776 1.9271 2.6389 2.8906 6.0764 2.8906 10.312zm-2.4219-0.52083c0-4.0972-0.92014-7.0833-2.7604-8.9583-1.5451-1.6667-3.6458-2.5-6.3021-2.5-2.8993 0-5.3298 0.86806-7.2917 2.6042-1.8056 1.6146-2.8906 4.566-3.2552 8.8542z" display="inline" aria-label="Newsletter"/><path id="path33" d="m674.06 400.47h2.474l6.849 25.99 6.7969-25.99h3.0469l6.849 26.12 6.8229-26.12h2.474l-7.6302 29.167h-3.3333l-6.7187-25.573-6.6927 25.573h-3.2812z" display="inline" aria-label="Newsletter"/><path id="path34" d="m736.84 401.33v2.6302c-1.684-0.9375-2.7344-1.4583-3.151-1.5625-1.2153-0.29513-2.7257-0.46874-4.5312-0.52083-2.7431 0-4.8958 0.54687-6.4583 1.6406-1.1979 0.90278-1.7969 2.4479-1.7969 4.6354 0 1.4757 0.56424 2.6302 1.6927 3.4635 1.1979 0.90277 2.908 1.5972 5.1302 2.0833l1.6406 0.36458c2.7604 0.60764 4.8524 1.467 6.276 2.5781 1.6493 1.2674 2.5174 2.9167 2.6042 4.9479 0 2.7604-0.81597 4.9219-2.4479 6.4844-1.7361 1.5451-4.5312 2.3177-8.3854 2.3177-2.1528 0-3.7847-0.14757-4.8958-0.44271-1.3368-0.38195-2.743-0.84202-4.2187-1.3802v-2.9948c2.118 1.2153 3.4896 1.9097 4.1146 2.0833 1.7188 0.45139 3.4201 0.67708 5.1042 0.67708 2.8125 0 4.8872-0.5816 6.224-1.7448 1.3542-1.1806 2.0312-2.7257 2.0312-4.6354 0-1.5972-0.45139-2.7604-1.3542-3.4896-1.3021-1.0417-3.3767-1.8924-6.224-2.5521l-1.6667-0.39062c-2.4479-0.57292-4.3142-1.3802-5.599-2.4219-1.6146-1.3021-2.4219-2.8819-2.4219-4.7396 0-3.0556 0.97222-5.2517 2.9167-6.5885 1.9444-1.3368 4.3316-2.0052 7.1615-2.0052 2.4132 0 4.0799 0.13021 5 0.39062 1.1111 0.3125 2.1962 0.70313 3.2552 1.1719z" display="inline" aria-label="Newsletter"/><path id="path35" d="m748.12 389.12h2.3958v40.521h-2.3958z" display="inline" aria-label="Newsletter"/><path id="path36" d="m785.67 413.86v1.5104h-22.135c0 4.6875 0.91146 7.9687 2.7344 9.8437 2.0139 2.0833 5.0087 3.125 8.9844 3.125 1.0417 0 2.4219-0.22569 4.1406-0.67708 1.7361-0.45139 3.4549-1.1285 5.1562-2.0312v2.526c-1.7188 0.72917-3.4809 1.2847-5.2865 1.6667-1.8056 0.38195-3.2378 0.57292-4.2969 0.57292-4.4965 0-7.8819-1.2153-10.156-3.6458-2.4653-2.5868-3.6979-6.3802-3.6979-11.38 0-5.191 1.1285-9.0625 3.3854-11.615 2.309-2.6562 5.5208-3.9844 9.6354-3.9844 3.8194 0 6.7014 1.2587 8.6458 3.776 1.9271 2.6389 2.8906 6.0764 2.8906 10.312zm-2.4219-0.52083c0-4.0972-0.92014-7.0833-2.7604-8.9583-1.5451-1.6667-3.6458-2.5-6.3021-2.5-2.8993 0-5.3298 0.86806-7.2917 2.6042-1.8056 1.6146-2.8906 4.566-3.2552 8.8542z" display="inline" aria-label="Newsletter"/><path id="path37" d="m798.28 392.19v8.2812h9.8698v2.0312h-9.8698v17.526c0 2.2222 0.28646 3.776 0.85938 4.6615 1.1806 1.9444 2.8993 2.9167 5.1562 2.9167h3.8542v2.0312h-3.724c-2.3785 0-4.401-0.69444-6.0677-2.0833s-2.5-3.8976-2.5-7.526v-17.526h-3.4896v-2.0312h3.4896v-8.2812z" display="inline" aria-label="Newsletter"/><path id="path38" d="m819.19 392.19v8.2812h9.8698v2.0312h-9.8698v17.526c0 2.2222 0.28646 3.776 0.85937 4.6615 1.1806 1.9444 2.8993 2.9167 5.1562 2.9167h3.8542v2.0312h-3.724c-2.3785 0-4.401-0.69444-6.0677-2.0833s-2.5-3.8976-2.5-7.526v-17.526h-3.4896v-2.0312h3.4896v-8.2812z" display="inline" aria-label="Newsletter"/><path id="path39" d="m860.31 413.86v1.5104h-22.135c0 4.6875 0.91146 7.9687 2.7344 9.8437 2.0139 2.0833 5.0087 3.125 8.9844 3.125 1.0417 0 2.4219-0.22569 4.1406-0.67708 1.7361-0.45139 3.4549-1.1285 5.1562-2.0312v2.526c-1.7188 0.72917-3.4809 1.2847-5.2865 1.6667-1.8056 0.38195-3.2378 0.57292-4.2969 0.57292-4.4965 0-7.8819-1.2153-10.156-3.6458-2.4653-2.5868-3.6979-6.3802-3.6979-11.38 0-5.191 1.1285-9.0625 3.3854-11.615 2.309-2.6562 5.5208-3.9844 9.6354-3.9844 3.8194 0 6.7014 1.2587 8.6458 3.776 1.9271 2.6389 2.8906 6.0764 2.8906 10.312zm-2.4219-0.52083c0-4.0972-0.92014-7.0833-2.7604-8.9583-1.5451-1.6667-3.6458-2.5-6.3021-2.5-2.8993 0-5.3299 0.86806-7.2917 2.6042-1.8056 1.6146-2.8906 4.566-3.2552 8.8542z" display="inline" aria-label="Newsletter"/><path id="path40" d="m886.22 402.53c-0.38195-0.19097-0.90278-0.3559-1.5625-0.49479-0.59028-0.10417-1.3368-0.15625-2.2396-0.15625-2.9514 0-5.3993 1.0938-7.3438 3.2812-1.5278 1.7708-2.2917 4.809-2.2917 9.1146v15.365h-2.3438v-29.167h2.3438v5.4688c0.78125-1.5625 1.875-2.8819 3.2812-3.9583 1.9444-1.4757 4.2361-2.2135 6.875-2.2135 0.67709 0 1.2674 0.026 1.7708 0.0781 0.52083 0 1.0243 0.0608 1.5104 0.18229z" display="inline" aria-label="Newsletter"/></g><g id="g30"><rect id="rect3" x="620.7" y="137.1" width="249.43" height="176.47" ry="12.896" fill="#688630"/><path id="path3" d="m640.21 149.32 105.37 70.249 104.86-70.419s3.6364-2.0303 6.2783 2.0362-0.33937 6.957-0.33937 6.957l-110.8 74.321-111.48-74.491s-2.3382-3.6713 0-6.957 6.1086-1.6968 6.1086-1.6968z" fill="#fff"/></g></g><g id="g1716" transform="matrix(1.2652 0 0 1.2652 322.16 132.12)"><path id="path1679" d="m151.81 29.558c0.077 1.313-1.787 0.968-1.787 2.293 0 38.551-46.558 97.366-91.688 108.73v1.639c59.953-5.52 128.56-67.8 130.07-126.85l-36.599 14.189z" fill="#447cab"/><path id="path1681" d="m133.67 34.301c0.076 1.313 0.12 2.63 0.12 3.957 0 38.551-30.699 90.497-75.827 101.86v1.639c59.044-2.79 105.81-63.024 105.81-109.2 0-2.375-0.128-4.729-0.371-7.056l-29.73 8.798z" fill="#e96d1f"/><path id="path1683" d="m163.69 24.952-7.617 2.722c0.041 0.962 0.066 2.254 0.066 3.225 0 41.219-37.271 98.204-87.272 107.12-3.245 1.088-7.538 2.077-10.932 2.931v1.638c65.254-5.56 111.1-71.866 105.76-117.64z" display="none" fill="#d9541e"/><path id="path1685" d="m50.011 29.557c-0.077 1.313 1.787 0.968 1.787 2.293 0 38.551 46.558 97.366 91.688 108.73v1.639c-59.953-5.52-128.56-67.8-130.07-126.85l36.599 14.189z" fill="#467ead"/><path id="path1687" d="m68.143 34.3c-0.076 1.313-0.12 2.63-0.12 3.957 0 38.551 30.699 90.497 75.827 101.86v1.639c-59.044-2.79-105.81-63.024-105.81-109.2 0-2.375 0.128-4.729 0.371-7.056l29.73 8.798z" fill="#a0ce67"/><path id="path1689" d="m38.125 24.951 7.617 2.722c-0.041 0.962-0.066 2.254-0.066 3.225 0 41.219 37.271 98.204 87.272 107.12 3.245 1.088 7.538 2.077 10.932 2.931v1.638c-65.254-5.56-111.1-71.866-105.76-117.64z" display="none" fill="#439639"/></g></g><g id="g4360"><g id="text4232" transform="matrix(1.2118 0 0 .96134 -141.4 6.3983)" fill="#688630" opacity=".98914" stroke-width="3.7795" style="white-space:pre" aria-label="Newsletter"><path id="path4478" d="m608 401.95h7.3346l13.733 19.403q0.41615 0.5722 1.1444 1.8207 0.72826 1.2484 0.93634 1.6646l0.26009-0.15606q0-0.41615-0.10404-1.3525-0.052-0.93634-0.052-1.6646v-19.715h7.3346v35.685h-7.3346l-13.785-19.559q-0.62422-0.88432-1.2484-1.9767-0.62422-1.1444-0.78028-1.4565l-0.26009 0.15606q0 0.36413 0.052 1.3005 0.10404 0.93634 0.10404 1.8207v19.715h-7.3346z"/><path id="path4480" d="m657.06 438.26q-6.6064 0-9.8836-3.4853-3.2252-3.4853-3.2252-10.82t3.2252-10.82q3.2772-3.4853 9.8836-3.4853 6.0862 0 9.1033 3.5373 3.0171 3.4853 3.0171 10.768v1.6646h-17.998q0.10404 3.6413 1.4565 5.41 1.3525 1.7166 4.5256 1.7166 2.2368 0 3.5893-1.2484 1.4045-1.2484 1.4045-3.5373h7.0225q0 5.1499-3.3292 7.7508-3.3292 2.5489-8.7912 2.5489zm4.7337-17.374q0-5.67-4.7337-5.67-2.705 0-4.1095 1.4045-1.3525 1.4045-1.6646 4.2655z"/><path id="path4482" d="m671.21 410.27h7.3346l2.9651 11.236q0.31211 1.1964 0.88432 4.0575 0.5722 2.861 0.72826 3.7974h0.20808q0.15605-0.88432 0.62422-3.2252 0.52019-2.3929 1.0404-4.5777l2.809-11.288h7.3346l2.9651 11.34q0.41615 1.5606 0.98836 4.2135 0.57221 2.653 0.72826 3.5373h0.20808q0.15606-0.78028 0.67624-3.3292 0.52019-2.6009 0.98836-4.4216l2.809-11.34h6.7624l-8.1149 27.362h-7.3867l-3.1211-13.057q-0.41615-1.6126-0.78028-3.5373-0.36413-1.9247-0.46817-2.4969h-0.26009q-0.052 0.57221-0.36414 2.4449-0.31211 1.8727-0.72826 3.5373l-3.2772 13.109h-7.3867z"/><path id="path4484" d="m726.09 438.26q-5.7221 0-8.9992-2.3408-3.2252-2.3929-3.2252-6.3463l0.052-0.62423h6.9185v0.36413q0.052 1.8207 1.6126 2.653 1.6126 0.78028 3.9014 0.78028 2.1328 0 3.6413-0.5722 1.5086-0.57221 1.5086-1.8727 0-1.4565-1.5606-2.1848-1.5085-0.72826-4.7857-1.4565-3.3812-0.78028-5.514-1.5606-2.1328-0.8323-3.6933-2.5489-1.5606-1.7166-1.5606-4.5776 0-4.0054 3.3292-6.1382 3.3812-2.1848 8.6871-2.1848 4.9418 0 8.167 2.0287 3.2252 1.9767 3.2252 5.41l-0.052 1.1964h-6.9185v-0.10404q-0.052-1.5085-1.3005-2.2368-1.2484-0.78028-3.3812-0.78028t-3.3812 0.57221q-1.2484 0.5722-1.2484 1.6126 0 1.3005 1.4045 1.9247 1.4565 0.62422 4.6297 1.2484 3.4853 0.78028 5.67 1.5606t3.7974 2.5489 1.6126 4.7857q0 8.8432-12.537 8.8432z"/><path id="path4486" d="m744.09 400.02h7.1266v37.61h-7.1266z"/><path id="path4488" d="m769.84 438.26q-6.6064 0-9.8836-3.4853-3.2252-3.4853-3.2252-10.82t3.2252-10.82q3.2772-3.4853 9.8836-3.4853 6.0862 0 9.1033 3.5373 3.0171 3.4853 3.0171 10.768v1.6646h-17.998q0.10404 3.6413 1.4565 5.41 1.3525 1.7166 4.5256 1.7166 2.2368 0 3.5893-1.2484 1.4045-1.2484 1.4045-3.5373h7.0225q0 5.1499-3.3292 7.7508-3.3292 2.5489-8.7912 2.5489zm4.7337-17.374q0-5.67-4.7337-5.67-2.705 0-4.1095 1.4045-1.3525 1.4045-1.6646 4.2655z"/><path id="path4490" d="m794.8 438.26q-3.8494 0-5.514-2.0808-1.6646-2.0808-1.6646-5.2539v-14.825h-3.2772v-5.8261h3.4332l1.1964-7.6988h5.7741v7.6988h4.7337v5.8261h-4.7337v14.097q0 2.2368 2.2368 2.2368h2.4969v4.9938q-0.88432 0.31211-2.2368 0.5722-1.3005 0.2601-2.4449 0.2601z"/><path id="path4492" d="m812.13 438.26q-3.8494 0-5.514-2.0808-1.6646-2.0808-1.6646-5.2539v-14.825h-3.2772v-5.8261h3.4332l1.1964-7.6988h5.7741v7.6988h4.7337v5.8261h-4.7337v14.097q0 2.2368 2.2368 2.2368h2.4969v4.9938q-0.88432 0.31211-2.2368 0.5722-1.3005 0.2601-2.4449 0.2601z"/><path id="path4494" d="m833.4 438.26q-6.6064 0-9.8836-3.4853-3.2252-3.4853-3.2252-10.82t3.2252-10.82q3.2772-3.4853 9.8836-3.4853 6.0862 0 9.1033 3.5373 3.0171 3.4853 3.0171 10.768v1.6646h-17.998q0.10403 3.6413 1.4565 5.41 1.3525 1.7166 4.5256 1.7166 2.2368 0 3.5893-1.2484 1.4045-1.2484 1.4045-3.5373h7.0225q0 5.1499-3.3292 7.7508-3.3292 2.5489-8.7912 2.5489zm4.7337-17.374q0-5.67-4.7337-5.67-2.705 0-4.1095 1.4045-1.3525 1.4045-1.6646 4.2655z"/><path id="path4496" d="m851.04 410.27h6.0862l0.57221 4.4216h0.36413q0.88432-2.3408 2.2888-3.6933 1.4045-1.3525 3.6933-1.3525 0.98836 0 1.7166 0.20807 0.78028 0.15606 0.98836 0.2601v6.6584h-1.9767q-3.4853 0-5.0458 1.9247-1.5606 1.8727-1.5606 5.7221v13.213h-7.1266z"/></g></g></g>
</svg>
