<?xml version="1.0" encoding="UTF-8" standalone="no"?>
<!-- Created with Inkscape (http://www.inkscape.org/) -->

<svg
   id="svg1"
   width="530.99609"
   height="176.47"
   version="1.1"
   viewBox="0 0 530.99609 176.47"
   xml:space="preserve"
   sodipodi:docname="xmpp_newsletter_cropped.svg"
   inkscape:version="1.4.3 (0d15f75042, 2025-12-25)"
   xmlns:inkscape="http://www.inkscape.org/namespaces/inkscape"
   xmlns:sodipodi="http://sodipodi.sourceforge.net/DTD/sodipodi-0.dtd"
   xmlns="http://www.w3.org/2000/svg"
   xmlns:svg="http://www.w3.org/2000/svg"><defs
   id="defs1" /><sodipodi:namedview
   id="namedview1"
   pagecolor="#ffffff"
   bordercolor="#666666"
   borderopacity="1.0"
   inkscape:showpageshadow="2"
   inkscape:pageopacity="0.0"
   inkscape:pagecheckerboard="0"
   inkscape:deskcolor="#d1d1d1"
   inkscape:zoom="0.49791667"
   inkscape:cx="103.43096"
   inkscape:cy="332.38494"
   inkscape:window-width="1280"
   inkscape:window-height="955"
   inkscape:window-x="0"
   inkscape:window-y="0"
   inkscape:window-maximized="1"
   inkscape:current-layer="svg1" /><g
   id="g1"
   transform="translate(-339.13392,-137.10001)"><g
     id="g28"><g
       id="g3"><g
         id="g30"><rect
           id="rect3"
           x="620.70001"
           y="137.10001"
           width="249.42999"
           height="176.47"
           ry="12.896"
           fill="#688630" /><path
           id="path3"
           d="m 640.21,149.32 105.37,70.249 104.86,-70.419 c 0,0 3.6364,-2.0303 6.2783,2.0362 2.6419,4.0665 -0.33937,6.957 -0.33937,6.957 l -110.8,74.321 -111.48,-74.491 c 0,0 -2.3382,-3.6713 0,-6.957 2.3382,-3.2857 6.1086,-1.6968 6.1086,-1.6968 z"
           fill="#ffffff" /></g></g><g
       id="g1716"
       transform="matrix(1.2652,0,0,1.2652,322.16,132.12)"><path
         id="path1679"
         d="m 151.81,29.558 c 0.077,1.313 -1.787,0.968 -1.787,2.293 0,38.551 -46.558,97.366 -91.688,108.73 v 1.639 c 59.953,-5.52 128.56,-67.8 130.07,-126.85 l -36.599,14.189 z"
         fill="#447cab" /><path
         id="path1681"
         d="m 133.67,34.301 c 0.076,1.313 0.12,2.63 0.12,3.957 0,38.551 -30.699,90.497 -75.827,101.86 v 1.639 c 59.044,-2.79 105.81,-63.024 105.81,-109.2 0,-2.375 -0.128,-4.729 -0.371,-7.056 l -29.73,8.798 z"
         fill="#e96d1f" /><path
         id="path1683"
         d="m 163.69,24.952 -7.617,2.722 c 0.041,0.962 0.066,2.254 0.066,3.225 0,41.219 -37.271,98.204 -87.272,107.12 -3.245,1.088 -7.538,2.077 -10.932,2.931 v 1.638 c 65.254,-5.56 111.1,-71.866 105.76,-117.64 z"
         display="none"
         fill="#d9541e" /><path
         id="path1685"
         d="m 50.011,29.557 c -0.077,1.313 1.787,0.968 1.787,2.293 0,38.551 46.558,97.366 91.688,108.73 v 1.639 C 83.533,136.699 14.926,74.419 13.416,15.369 l 36.599,14.189 z"
         fill="#467ead" /><path
         id="path1687"
         d="m 68.143,34.3 c -0.076,1.313 -0.12,2.63 -0.12,3.957 0,38.551 30.699,90.497 75.827,101.86 v 1.639 C 84.806,138.966 38.04,78.732 38.04,32.556 c 0,-2.375 0.128,-4.729 0.371,-7.056 l 29.73,8.798 z"
         fill="#a0ce67" /><path
         id="path1689"
         d="m 38.125,24.951 7.617,2.722 c -0.041,0.962 -0.066,2.254 -0.066,3.225 0,41.219 37.271,98.204 87.272,107.12 3.245,1.088 7.538,2.077 10.932,2.931 v 1.638 C 78.626,137.027 32.78,70.721 38.12,24.947 Z"
         display="none"
         fill="#439639" /></g></g></g>
</svg>
