<svg xmlns="http://www.w3.org/2000/svg" width="200" height="200"><linearGradient id="a" x1="-1073.2" x2="-1073.2" y1="126.85" y2="0" gradientTransform="matrix(.89155 0 0 .89155 1078.09 5.37)" gradientUnits="userSpaceOnUse"><stop offset=".01" stop-color="#1b3967"/><stop offset=".47" stop-color="#13b5ea"/><stop offset=".99" stop-color="#002b5c"/></linearGradient><linearGradient id="b" x1="-1073.2" x2="-1073.2" y1="126.85" y2="0" gradientTransform="matrix(-.89155 0 0 .89155 -875.65 5.37)" gradientUnits="userSpaceOnUse"><stop offset=".01" stop-color="#1b3967"/><stop offset=".47" stop-color="#13b5ea"/><stop offset=".99" stop-color="#002b5c"/></linearGradient><path fill="url(#a)" d="m 146.59808,18.019175 c 0.0686,1.170605 -1.59319,0.86302 -1.59319,2.044324 0,34.370129 -41.50877,86.806631 -81.744392,96.938201 v 1.46125 C 116.71157,113.54159 177.8781,58.015874 179.22434,5.369869 l -32.62982,12.650198 z"/><path fill="#e96d1f" d="m 130.43251,22.247795 c 0.0678,1.170605 0.10698,2.344776 0.10698,3.527862 0,34.370129 -27.36966,80.682573 -67.603516,90.813253 v 1.46125 c 52.640656,-2.48742 94.334856,-56.189033 94.334856,-97.357227 0,-2.117431 -0.11411,-4.216139 -0.33076,-6.290774 l -26.50577,7.843853 z"/><path fill="#d9541e" d="m 157.19504,13.912698 -6.79092,2.426798 c 0.0366,0.857671 0.0588,2.009553 0.0588,2.875247 0,36.748784 -33.22894,87.553747 -77.807312,95.502807 -2.893087,0.97 -6.72051,1.85175 -9.74642,2.61313 v 1.46036 C 121.0864,113.83402 161.96039,54.718923 157.1995,13.909132 Z"/><path fill="url(#b)" d="m 55.843577,18.018284 c -0.06865,1.170604 1.593199,0.86302 1.593199,2.044323 0,34.370129 41.508774,86.806633 81.744394,96.938203 v 1.46125 C 85.730103,113.5407 24.563559,58.014982 23.217319,5.368977 l 32.629824,12.650198 z"/><path fill="#a0ce67" d="m 72.009154,22.246904 c -0.06776,1.170604 -0.106986,2.344775 -0.106986,3.527861 0,34.370129 27.369682,80.682575 67.603522,90.813255 v 1.46125 C 86.865046,115.56185 45.170836,61.860236 45.170836,20.692041 c 0,-2.11743 0.114119,-4.216138 0.330765,-6.290774 l 26.50577,7.843853 z"/><path fill="#439639" d="m 45.246618,13.911806 6.790934,2.426798 c -0.03655,0.857671 -0.05884,2.009553 -0.05884,2.875248 0,36.748783 33.228946,87.553748 77.807308,95.502808 2.89308,0.97 6.7205,1.85175 9.74642,2.61313 v 1.46036 C 81.355269,113.83313 40.481286,54.718032 45.24216,13.90824 Z"/><path d="M34.425881 145.08284L22.489814 132.02163h10.380313l8.137173 9.15444 8.138956-9.15444H59.526568L47.591394 145.07927 60.4306 158.21001H49.651765l-8.645357-9.51283-8.64179 9.51283H21.584l12.841881-13.13252zM63.419074 132.02163h12.33548l9.07865 16.85475 9.078646-16.85475h12.33191v26.18838h-7.81174v-18.80813h-.0713L87.83416 158.21001H81.831356L71.30483 139.40188h-.07311v18.80813H63.418182V132.0252zM111.70004 132.02163h21.88398c7.63077 0 9.47539 3.83545 9.47539 8.97167v2.24314c0 3.90588-1.70108 8.38948-7.37757 8.38948h-15.95339v6.58409h-8.02841v-26.19372zm8.02395 13.09687h12.47902c1.88029 0 2.6069-1.22767 2.6069-2.78431v-1.01191c0-1.77418-.87015-2.78788-3.29339-2.78788H119.724v6.57964zM147.41552 132.02163h21.88398c7.63255 0 9.47717 3.83545 9.47717 8.97167v2.24314c0 3.90588-1.70019 8.38948-7.37757 8.38948h-15.9525v6.58409h-8.03108v-26.19372zm8.03286 13.09687h12.47813c1.88117 0 2.60511-1.22767 2.60511-2.78431v-1.01191c0-1.77418-.86837-2.78788-3.29249-2.78788h-11.79075v6.57964z"/><g fill="#565656" stroke-width="1.02" style="line-height:1.25;-inkscape-font-specification:'Ubuntu, Medium';font-variant-ligatures:normal;font-variant-caps:normal;font-variant-numeric:normal;font-feature-settings:normal;text-align:start" aria-label="Providers" font-family="Ubuntu" font-size="40.96" font-weight="500" letter-spacing="0" word-spacing="0"><path style="-inkscape-font-specification:'Ubuntu, Medium';font-variant-ligatures:normal;font-variant-caps:normal;font-variant-numeric:normal;font-feature-settings:normal;text-align:start" d="M18.327795 168.14683q6.184743 0 9.461428 2.25272 3.317644 2.25272 3.317644 7.04487 0 2.49848-.901088 4.30065-.86013 1.76122-2.539431 2.90806-1.679301 1.10588-4.095857 1.63834-2.416555.53247-5.529406.53247h-2.58039v9.99389h-5.160779v-27.9747q1.802177-.40959 3.972981-.53247 2.211762-.16383 4.054898-.16383zm.368627 4.46448q-1.966011 0-3.235727.12288v9.66622h2.498473q3.727229 0 5.734199-1.02396 2.00697-1.06493 2.00697-3.97298 0-1.3926-.532462-2.33464-.532461-.94205-1.474508-1.47451-.942047-.53246-2.252721-.73726-1.269716-.24575-2.744224-.24575zM47.778923 179.86098q-.614378-.20479-1.72026-.40959-1.064922-.24575-2.498472-.24575-.819171 0-1.761218.16384-.901089.16383-1.269716.28671v17.16164h-4.955986v-20.39737q1.43355-.53246 3.563395-.98301 2.170804-.4915 4.792152-.4915.491503 0 1.14684.0819.655337.041 1.310674.16383.655337.0819 1.269715.24575.614379.12288.983006.24576zM71.426093 186.08668q0 2.53943-.737254 4.62832-.737254 2.08889-2.088886 3.56339-1.351633 1.47451-3.276686 2.29368-1.884094.81918-4.177773.81918-2.29368 0-4.177774-.81918-1.884094-.81917-3.235726-2.29368-1.351633-1.4745-2.129846-3.56339-.737254-2.08889-.737254-4.62832 0-2.53943.737254-4.58736.778213-2.08888 2.129846-3.56339 1.392591-1.47451 3.276685-2.25272 1.884094-.81918 4.136815-.81918 2.252721 0 4.136815.81918 1.925052.77821 3.276685 2.25272 1.351633 1.47451 2.088887 3.56339.778212 2.04793.778212 4.58736zm-5.078862 0q0-3.19477-1.392591-5.0379-1.351632-1.8841-3.809146-1.8841-2.457514 0-3.850105 1.8841-1.351633 1.84313-1.351633 5.0379 0 3.23573 1.351633 5.11982 1.392591 1.8841 3.850105 1.8841 2.457514 0 3.809146-1.8841 1.392591-1.88409 1.392591-5.11982zM81.540301 196.81783q-2.047928-4.21874-4.218732-9.66623-2.129846-5.48844-3.891064-11.7551h5.283655q.450544 1.80217 1.023964 3.89106.614378 2.04793 1.269715 4.13681.696296 2.04793 1.392592 4.01394.737254 1.92506 1.351632 3.48148.614379-1.55642 1.310674-3.48148.696296-1.96601 1.351633-4.01394.696296-2.08888 1.310674-4.13681.614379-2.08889 1.064923-3.89106h5.11982q-1.761218 6.26666-3.932022 11.7551-2.129845 5.44749-4.177773 9.66623zM102.56804 196.81783H97.612053V175.3965h4.955987zm.53246-27.68799q0 1.39259-.90109 2.21176-.90109.81917-2.12984.81917-1.269719 0-2.170807-.81917-.901088-.81917-.901088-2.21176 0-1.43355.901088-2.25273.901088-.81917 2.170807-.81917 1.22875 0 2.12984.81917.90109.81918.90109 2.25273zM112.74177 186.04572q0 3.27669 1.55642 5.16078 1.55643 1.84314 4.30065 1.84314 1.1878 0 2.00697-.0819.86013-.12288 1.39259-.24575V180.4344q-.65533-.45054-1.76121-.81917-1.06493-.40959-2.29368-.40959-2.70327 0-3.97299 1.84314-1.22875 1.84313-1.22875 4.99694zm14.21262 10.11677q-1.47451.45054-3.72723.81917-2.21176.36863-4.66928.36863-2.53943 0-4.5464-.77822-2.00697-.77821-3.44052-2.21176-1.39259-1.47451-2.1708-3.52244-.73725-2.08888-.73725-4.66927 0-2.53943.61437-4.58736.65534-2.08889 1.8841-3.5634 1.22876-1.4745 2.98997-2.25272 1.76122-.81917 4.0549-.81917 1.55643 0 2.74423.36863 1.18779.36863 2.04792.81917v-10.2806l4.95599-.81917zM132.06205 186.20956q0-2.82614.81917-4.95599.86013-2.12984 2.25272-3.52244 1.39259-1.43355 3.19477-2.12984 1.80217-.73726 3.68627-.73726 4.42352 0 6.88104 2.74423 2.49847 2.74422 2.49847 8.19171 0 .40959-.041.94205 0 .4915-.041.90109h-14.1307q.20479 2.58039 1.80217 4.01394 1.63835 1.39259 4.71024 1.39259 1.80217 0 3.27668-.32767 1.51547-.32767 2.3756-.6963l.65534 4.0549q-.40959.20479-1.14684.45055-.6963.20479-1.63835.36862-.90108.2048-1.96601.32767-1.06492.12288-2.1708.12288-2.82614 0-4.91503-.81917-2.08889-.86013-3.44052-2.33464-1.35163-1.51547-2.00697-3.52244-.65533-2.04793-.65533-4.46448zm14.37645-2.21177q0-1.02396-.28671-1.92505-.28671-.94204-.86013-1.59738-.53246-.6963-1.35163-1.06492-.77821-.40959-1.8841-.40959-1.14683 0-2.00696.45054-.86013.40959-1.47451 1.10589-.57342.69629-.90109 1.59738-.32767.90109-.45055 1.84313zM168.81469 179.86098q-.61438-.20479-1.72026-.40959-1.06492-.24575-2.49847-.24575-.81918 0-1.76122.16384-.90109.16383-1.26972.28671v17.16164h-4.95598v-20.39737q1.43355-.53246 3.56339-.98301 2.1708-.4915 4.79215-.4915.49151 0 1.14684.0819.65534.041 1.31068.16383.65533.0819 1.26971.24575.61438.12288.98301.24576zM178.45402 193.25443q1.96601 0 2.8671-.45054.90109-.49151.90109-1.63835 0-1.06492-.983-1.76121-.94205-.6963-3.15381-1.51547-1.35164-.4915-2.49848-1.02397-1.10588-.57342-1.92505-1.31067-.81917-.73725-1.31067-1.76122-.45055-1.06492-.45055-2.58039 0-2.94901 2.17081-4.62832 2.1708-1.72026 5.89803-1.72026 1.88409 0 3.60435.36863 1.72026.32767 2.58039.65534l-.90108 4.01394q-.81918-.36863-2.08889-.65534-1.26972-.32767-2.94902-.32767-1.51547 0-2.45751.53246-.94205.49151-.94205 1.55643 0 .53246.16383.94205.2048.40958.65534.77821.45055.32767 1.1878.69629.73725.32767 1.80218.6963 1.76122.65534 2.98997 1.31067 1.22876.61438 2.00697 1.43355.81917.77822 1.1878 1.80218.36863 1.02397.36863 2.45751 0 3.0719-2.29368 4.66928-2.25272 1.55643-6.47146 1.55643-2.82614 0-4.5464-.49151-1.72026-.45054-2.41655-.73725l.86013-4.13682q1.10588.45055 2.62135.86013 1.55642.40959 3.52243.40959z" transform="scale(1.02397 .97659)"/></g></svg>