<?xml version="1.0" standalone="no"?>
<!DOCTYPE svg PUBLIC "-//W3C//DTD SVG 20010904//EN"
 "http://www.w3.org/TR/2001/REC-SVG-20010904/DTD/svg10.dtd">
<svg version="1.0" xmlns="http://www.w3.org/2000/svg"
 width="708.000000pt" height="708.000000pt" viewBox="0 0 708.000000 708.000000"
 preserveAspectRatio="xMidYMid meet">
<metadata>
Created by potrace 1.11, written by Peter Selinger 2001-2013
</metadata>
<g transform="translate(0.000000,708.000000) scale(0.100000,-0.100000)"
fill="#000000" stroke="none">
<path d="M15 6123 c11 -156 16 -209 29 -283 3 -19 8 -51 10 -70 5 -41 32 -179
45 -230 31 -116 47 -174 69 -250 14 -47 27 -87 27 -90 1 -3 4 -12 8 -20 3 -8
13 -35 21 -60 33 -97 47 -136 56 -155 5 -11 21 -49 36 -85 174 -428 489 -945
817 -1345 82 -100 131 -158 147 -175 8 -9 44 -50 80 -91 71 -81 390 -403 485
-490 109 -98 161 -144 199 -174 21 -16 50 -41 65 -55 15 -14 40 -35 56 -47 17
-12 41 -31 55 -42 14 -11 54 -43 90 -71 36 -28 73 -58 83 -66 9 -8 20 -14 22
-14 3 0 33 -22 68 -48 34 -26 105 -77 157 -112 52 -35 97 -68 98 -72 2 -4 8
-8 12 -8 8 0 139 -78 150 -90 6 -6 32 -21 103 -61 l48 -26 -33 -27 c-52 -43
-59 -48 -143 -106 -323 -222 -646 -375 -1022 -485 l-63 -18 0 -44 0 -44 54 5
c56 6 114 14 150 22 11 3 32 7 46 9 130 20 345 68 535 119 167 45 449 141 580
197 17 7 32 13 35 14 3 0 27 11 54 23 27 12 50 22 52 22 1 0 42 18 90 41 l88
40 105 -49 c253 -119 484 -215 676 -280 89 -30 366 -108 415 -116 14 -3 25 -5
25 -6 0 -1 9 -3 20 -4 17 -3 85 -15 165 -31 13 -3 42 -7 65 -10 22 -4 51 -8
65 -10 14 -2 48 -6 75 -10 28 -3 71 -8 98 -11 50 -6 49 -7 50 51 1 28 -3 31
-58 49 -33 10 -67 21 -75 24 -8 3 -24 7 -35 9 -11 1 -29 7 -40 12 -11 5 -49
20 -85 32 -144 48 -515 224 -561 265 -8 8 -19 14 -23 14 -4 0 -40 21 -79 47
-40 27 -76 50 -82 52 -5 2 -14 8 -20 13 -5 5 -41 32 -80 59 -38 28 -81 59 -95
70 -14 10 -38 28 -53 40 l-28 21 33 23 c18 12 56 34 83 49 28 16 64 39 82 52
17 13 34 24 37 24 5 0 68 40 91 57 6 5 62 43 126 86 64 42 125 86 137 97 12
11 25 20 29 20 4 0 23 14 42 30 18 17 36 30 40 30 3 0 20 13 38 28 17 15 46
38 65 52 48 37 278 228 318 265 19 18 66 61 105 96 200 182 481 480 641 679
38 47 73 90 79 97 5 7 15 18 20 25 62 80 75 97 75 106 0 6 4 12 8 14 10 4 105
132 169 228 59 88 203 320 203 326 0 2 11 22 25 43 28 45 170 322 202 396 12
28 36 82 53 120 17 39 31 71 31 73 -1 1 6 19 15 40 28 66 123 356 144 437 31
119 67 284 75 335 3 25 8 56 10 70 5 37 17 113 20 130 11 58 23 300 16 300 -6
0 -90 -32 -161 -61 -45 -18 -373 -145 -635 -246 -119 -45 -425 -150 -459 -157
-6 -2 -38 -11 -71 -21 -33 -11 -62 -19 -65 -20 -3 -1 -32 -9 -65 -20 -33 -10
-64 -19 -70 -21 -14 -3 -246 -72 -455 -135 -36 -11 -76 -22 -90 -25 -13 -3
-26 -7 -28 -8 -2 -2 -5 -95 -7 -207 -2 -112 -6 -224 -10 -249 -3 -25 -8 -61
-11 -80 -3 -19 -7 -53 -9 -75 -5 -49 -19 -142 -29 -190 -41 -194 -103 -432
-136 -525 -73 -208 -120 -332 -132 -344 -4 -6 -8 -16 -8 -23 0 -37 -266 -566
-294 -585 -6 -4 -7 -8 -3 -8 4 0 -5 -19 -21 -42 -16 -24 -37 -59 -47 -78 -10
-19 -21 -37 -24 -40 -3 -3 -41 -57 -83 -120 -90 -133 -138 -203 -147 -210 -3
-3 -26 -32 -51 -65 -25 -33 -54 -71 -66 -85 -50 -60 -181 -209 -219 -248 l-42
-44 -69 78 c-38 42 -73 82 -79 88 -5 6 -27 32 -48 58 -21 26 -43 53 -50 60 -7
7 -47 60 -90 118 -43 58 -82 111 -88 118 -11 14 -107 156 -124 184 -5 9 -41
67 -78 128 -38 62 -83 139 -101 173 -78 144 -124 237 -118 237 4 0 2 4 -4 8
-10 7 -109 226 -163 363 -29 74 -108 306 -117 342 -2 9 -6 26 -8 37 -3 11 -8
25 -11 30 -3 5 -8 18 -10 27 -2 10 -15 68 -30 128 -30 126 -52 235 -59 285 -3
19 -7 45 -10 58 -3 13 -8 51 -11 85 -4 34 -8 76 -11 92 -8 59 -17 242 -18 359
-1 118 -1 120 -26 127 -14 4 -88 26 -165 49 -77 23 -169 51 -205 61 -36 11
-72 22 -80 24 -239 65 -511 156 -820 275 -146 56 -157 60 -212 84 -20 9 -40
16 -45 16 -4 1 -26 9 -48 20 -22 11 -44 20 -50 20 -5 0 -71 25 -145 55 -74 30
-138 55 -143 55 -4 0 -26 9 -50 19 -68 31 -173 71 -186 71 -10 0 -12 -21 -6
-97z"/>
</g>
</svg>
