<?xml version="1.0" encoding="utf-8"?>
<!-- Generator: Adobe Illustrator 19.0.1, SVG Export Plug-In . SVG Version: 6.00 Build 0)  -->
<svg version="1.1" id="Layer_1" xmlns="http://www.w3.org/2000/svg" xmlns:xlink="http://www.w3.org/1999/xlink" x="0px" y="0px"
	 viewBox="-3215 464 300 389" style="enable-background:new -3215 464 300 389;" xml:space="preserve">
<style type="text/css">
	.st0{fill:#5382A1;}
	.st1{fill:#E76F00;}
</style>
<path class="st0" d="M-3112.3,755.3c0,0-14.2,8.2,10.1,11c29.4,3.4,44.4,2.9,76.8-3.3c0,0,8.5,5.3,20.4,10
	C-3077.6,804.2-3169.4,771.3-3112.3,755.3"/>
<path class="st0" d="M-3121.2,714.7c0,0-15.9,11.8,8.4,14.3c31.4,3.2,56.2,3.5,99.1-4.8c0,0,5.9,6,15.3,9.3
	C-3086.2,759.2-3184,735.6-3121.2,714.7"/>
<path class="st1" d="M-3046.4,645.8c17.9,20.6-4.7,39.1-4.7,39.1s45.4-23.5,24.6-52.8c-19.5-27.4-34.4-41,46.5-87.9
	C-2980,544.2-3107,575.9-3046.4,645.8"/>
<path class="st0" d="M-2950.3,785.4c0,0,10.5,8.6-11.6,15.3c-41.9,12.7-174.5,16.5-211.3,0.5c-13.2-5.8,11.6-13.8,19.4-15.4
	c8.1-1.8,12.8-1.4,12.8-1.4c-14.7-10.4-95.2,20.4-40.9,29.2C-3033.8,837.5-2911.9,802.7-2950.3,785.4"/>
<path class="st0" d="M-3105.5,672.6c0,0-67.4,16-23.9,21.8c18.4,2.5,55,1.9,89.2-1c27.9-2.4,55.9-7.4,55.9-7.4s-9.8,4.2-17,9.1
	c-68.5,18-200.8,9.6-162.7-8.8C-3131.7,670.9-3105.5,672.6-3105.5,672.6"/>
<path class="st0" d="M-2984.5,740.2c69.6-36.2,37.4-70.9,15-66.2c-5.5,1.1-8,2.1-8,2.1s2-3.2,5.9-4.6c44.4-15.6,78.6,46.1-14.3,70.5
	C-2985.9,742.1-2984.9,741.1-2984.5,740.2"/>
<path class="st1" d="M-3026.5,468.4c0,0,38.5,38.6-36.6,97.9c-60.2,47.6-13.7,74.7,0,105.7c-35.2-31.7-61-59.6-43.7-85.6
	C-3081.3,548.2-3011,529.7-3026.5,468.4"/>
<path class="st0" d="M-3098.7,838.2c66.8,4.3,169.4-2.4,171.8-34c0,0-4.7,12-55.2,21.5c-57,10.7-127.4,9.5-169.1,2.6
	C-3151.1,828.4-3142.6,835.4-3098.7,838.2"/>
</svg>
