<?xml version="1.0" encoding="UTF-8" standalone="no"?>
<svg version="1.1" width="937" height="937" viewBox="0 0 937 937"
	xmlns:dc="http://purl.org/dc/elements/1.1/"
	xmlns:cc="http://creativecommons.org/ns#"
	xmlns:rdf="http://www.w3.org/1999/02/22-rdf-syntax-ns#"
	xmlns="http://www.w3.org/2000/svg">

	<title>Lua programming language logo</title>

	<metadata>
		<rdf:RDF>
			<cc:Work rdf:about="">
				<dc:format>image/svg+xml</dc:format>
				<dc:type rdf:resource="http://purl.org/dc/dcmitype/StillImage" />
				<dc:title>Lua programming language logo</dc:title>
			</cc:Work>
		</rdf:RDF>
	</metadata>

	<path d="M 880.401,266.182 A 456.668,456.668 0 1 1 722.223,90.5071"
		style="fill:none; stroke:#808080;stroke-width:10.59654522;stroke-linecap:butt;stroke-dasharray:39.8522;stroke-dashoffset:0" />

	<circle cx="473.505" cy="473.504" r="353.21301"
		style="fill:#000080" />
	<circle cx="619.81201" cy="327.19699" r="103.454"
		style="fill:#ffffff" />
	<circle
		cx="826.71802" cy="120.291" r="103.455"
		fill="#000080" />
	<path d="m 377.82241,650.10583 0,-26.06741 -114.44233,0 0,-205.6783 -29.56427,0 0,231.74571 144.0066,0" 
		fill="#ffffff"/>
	<path d="m 536.70055,650.10583 0,-166.57716 -26.38531,0 0,91.87176 c 0,34.01477 -17.80217,56.26747 -45.45904,56.26747 -20.98107,0 -34.3327,-12.71583 -34.3327,-32.74322 l 0,-115.39601 -26.38531,0 0,125.88656 c 0,27.65687 20.66323,45.45904 53.08852,45.45904 24.47792,0 40.05483,-8.5832 55.63169,-30.51796 l 0,25.74952 23.84215,0" 
		fill="#ffffff"/>
	<path d="m 730.50248,649.47004 0,-20.0274 c -2.86105,0.63579 -4.13264,0.63579 -5.72211,0.63579 -9.21896,0 -14.3053,-4.76844 -14.3053,-13.03371 l 0,-92.82545 c 0,-29.56423 -21.61692,-45.45903 -62.62538,-45.45903 -40.37267,0 -65.16855,15.57691 -66.75803,54.04221 l 26.70321,0 c 2.22527,-20.34528 14.30532,-29.56427 39.10113,-29.56427 23.84213,0 37.19376,8.90109 37.19376,24.79584 l 0,6.9937 c 0,11.12632 -6.67582,15.89477 -27.6569,18.43793 -37.51161,4.76842 -43.23377,6.04001 -53.40642,10.17265 -19.39159,7.94737 -29.24637,22.88848 -29.24637,43.23377 0,30.20003 20.98113,48.0022 54.678,48.0022 21.29897,0 41.9622,-8.90109 56.58538,-24.47795 2.86105,12.7158 14.3053,21.93478 27.339,21.93478 5.40421,0 9.53687,-0.63579 18.12003,-2.86106 m -46.41272,-56.90326 c 0,23.84212 -24.16007,39.10112 -49.90957,39.10112 -20.66318,0 -32.74322,-7.31161 -32.74322,-25.43162 0,-17.48423 11.76215,-25.11374 40.05481,-29.24638 27.97477,-3.81474 33.69692,-5.08633 42.59798,-9.21896 l 0,24.79584"
		fill="#ffffff"/>
</svg>
