<?xml version="1.0" encoding="UTF-8"?>
<!-- Created with Inkscape (http://www.inkscape.org/) -->
<svg id="svg1" width="1200" height="600" version="1.1" viewBox="0 0 1200 600" xml:space="preserve" xmlns="http://www.w3.org/2000/svg"><g id="g1"><rect id="rect22" x=".31525" y="1.9197" width="1199.4" height="597.29" ry=".50905" fill="#fff"/><g id="g26"><rect id="rect23" x=".2202" y="565" width="300" height="35" ry=".50166" fill="#d2702f"/><rect id="rect24" x="300.19" y="565" width="300" height="35" ry=".50166" fill="#457faf"/><rect id="rect25" x="600.16" y="565" width="300" height="35" ry=".50166" fill="#adcc6f"/><rect id="rect26" x="900.12" y="565" width="300" height="35" ry=".50166" fill="#58a0d2"/></g><g id="g1722" transform="matrix(1.2652 0 0 1.2652 376.16 194.12)" fill="#d27131"><path id="path1691" d="m25.988 172.08-13.388-14.65h11.643l9.127 10.268 9.129-10.268h11.643l-13.387 14.646 14.401 14.728h-12.09l-9.697-10.67-9.693 10.67h-12.092l14.404-14.73z"/><path id="path1693" d="m58.508 157.43h13.836l10.183 18.905 10.183-18.905h13.832v29.374h-8.762v-21.096h-0.08l-11.807 21.096h-6.733l-11.807-21.096h-0.082v21.096h-8.764v-29.37z"/><path id="path1695" d="m112.66 157.43h24.546c8.559 0 10.628 4.302 10.628 10.063v2.516c0 4.381-1.908 9.41-8.275 9.41h-17.894v7.385h-9.005v-29.38zm9 14.69h13.997c2.109 0 2.924-1.377 2.924-3.123v-1.135c0-1.99-0.976-3.127-3.694-3.127h-13.227v7.38z"/><path id="path1697" d="m152.72 157.43h24.546c8.561 0 10.63 4.302 10.63 10.063v2.516c0 4.381-1.907 9.41-8.275 9.41h-17.893v7.385h-9.008v-29.38zm9.01 14.69h13.996c2.11 0 2.922-1.377 2.922-3.123v-1.135c0-1.99-0.974-3.127-3.693-3.127h-13.225v7.38z"/></g><g id="g28"><g id="g1716" transform="matrix(1.2652 0 0 1.2652 322.16 132.12)"><path id="path1679" d="m151.81 29.558c0.077 1.313-1.787 0.968-1.787 2.293 0 38.551-46.558 97.366-91.688 108.73v1.639c59.953-5.52 128.56-67.8 130.07-126.85l-36.599 14.189z" fill="#447cab"/><path id="path1681" d="m133.67 34.301c0.076 1.313 0.12 2.63 0.12 3.957 0 38.551-30.699 90.497-75.827 101.86v1.639c59.044-2.79 105.81-63.024 105.81-109.2 0-2.375-0.128-4.729-0.371-7.056l-29.73 8.798z" fill="#e96d1f"/><path id="path1683" d="m163.69 24.952-7.617 2.722c0.041 0.962 0.066 2.254 0.066 3.225 0 41.219-37.271 98.204-87.272 107.12-3.245 1.088-7.538 2.077-10.932 2.931v1.638c65.254-5.56 111.1-71.866 105.76-117.64z" display="none" fill="#d9541e"/><path id="path1685" d="m50.011 29.557c-0.077 1.313 1.787 0.968 1.787 2.293 0 38.551 46.558 97.366 91.688 108.73v1.639c-59.953-5.52-128.56-67.8-130.07-126.85l36.599 14.189z" fill="#467ead"/><path id="path1687" d="m68.143 34.3c-0.076 1.313-0.12 2.63-0.12 3.957 0 38.551 30.699 90.497 75.827 101.86v1.639c-59.044-2.79-105.81-63.024-105.81-109.2 0-2.375 0.128-4.729 0.371-7.056l29.73 8.798z" fill="#a0ce67"/><path id="path1689" d="m38.125 24.951 7.617 2.722c-0.041 0.962-0.066 2.254-0.066 3.225 0 41.219 37.271 98.204 87.272 107.12 3.245 1.088 7.538 2.077 10.932 2.931v1.638c-65.254-5.56-111.1-71.866-105.76-117.64z" display="none" fill="#439639"/></g><g id="g15" transform="matrix(1.0966 .0079404 -.0079404 1.0966 -96.702 -70.6)" fill="#d2702f"><path id="path6" transform="matrix(.91186 -.0066027 .0066027 .91186 641.14 134.73)" d="m76.209 260.72c-1.4871-0.40741-3.172-1.0955-3.7441-1.5292-2.6358-1.9979-4.3968-3.8875-5.3513-5.7423-1.1483-2.2312-45.514-193.52-45.514-196.24 0-5.65 4.9175-12.083 10.451-13.671 1.697-0.4871 30.95-7.2646 65.006-15.061 68.287-15.633 64.559-15.003 72.575-12.268 5.4303 1.8523 17.782 8.243 24.77 12.816 12.132 7.9387 23.239 18.087 26.592 24.296 1.1704 2.1673 3.6607 12.304 10.463 42.589 4.9099 21.86 12.621 56.19 17.136 76.289 8.004 35.634 8.1919 36.624 7.5405 39.745-0.36745 1.7601-1.3897 4.2298-2.2716 5.4882-3.6285 5.1773 1.5746 3.7357-88.282 24.461-45.133 10.41-83.097 19.071-84.364 19.247-1.2672 0.17637-3.5208-0.0127-5.0079-0.42006z" fill="#d06f2f" fill-rule="evenodd"/><path id="rect6" transform="rotate(-13.415 1.4925e-5 -1.1961e-5)" d="m612.95 324.66 117.35 0.23302c11.681 0.0232 48.624 35.907 48.529 51.922l-0.82315 138.45c-0.0451 7.5844-6.106 13.691-13.691 13.691h-151.36c-7.5846 0-13.691-6.106-13.691-13.691v-176.91c0-7.5846 6.106-13.706 13.691-13.691z" display="none" fill="#a00" fill-rule="evenodd" stroke-width="10.34"/><g id="g2" transform="matrix(.65354 0 0 .65354 267.69 91.11)" stroke="#fff"><circle id="path1" transform="rotate(-.41487)" cx="770.73" cy="264.28" r="68.392" fill="#d27131" stroke="#fff" stroke-width="20.929"/><path id="rect1" transform="rotate(-12.415)" d="m579.07 392h239.75c0.12858 0 0.24463 0.0518 0.32854 0.13566 0.0839 0.0839 0.13566 0.19996 0.13566 0.32854l-25.067 25.343 25.067 27.212c0.0871 0.0946-0.0518 0.24463-0.13566 0.32854-0.0839 0.0839-0.19996 0.13566-0.32854 0.13566h-239.75c-0.12859 0-0.24464-0.0518-0.32854-0.13567-0.0839-0.0839-0.13566-0.19995-0.13566-0.32853l21.086-27.288-21.086-25.267c-0.0824-0.0987 0.0518-0.24463 0.13566-0.32854 0.0839-0.0839 0.19995-0.13566 0.32854-0.13566z" stroke-width="6.893"/></g><path id="path15" d="m782.44 147.63c15.783-3.7088 58.18 22.398 61.932 38.364l0.11324 0.4819s-26.561 2.0882-41.04 18.088c-1.5764-34.299-21.363-55.768-21.363-55.768s-15.161 2.4804 0.35773-1.1661z" fill="#a40" opacity=".98914"/><path id="path3" d="m818.83 324.41 18.206 6.6066s1.6517-16.23 4-24.715 10.295-25.811 10.295-25.811" fill="none" stroke="#fff" stroke-width="10.34"/><path id="text4" transform="matrix(.88701 -.21156 .21156 .88701 465.6 -104.28)" d="m206.74 475.86 5.7067-9.8134-5.3333-9.2267h3.9467l3.1467 6 3.0933-6h4l-5.3333 9.2 5.7067 9.84h-4.08l-3.4133-6.6134-3.4933 6.6134zm17.6 0v-19.04h12v3.3333h-8.2667v4.16h7.8667v3.3333h-7.8667v4.88h8.2667v3.3333zm16 0v-19.04h6.32q3.28 0 4.88 1.5467 1.6 1.52 1.6 4.3733 0 1.8933-0.69333 3.3333-0.66667 1.4133-2.16 2.2133-1.4667 0.8-3.8667 0.8h-2.3467v6.7734zm5.68-10.053q1.12 0 1.84-0.32 0.72-0.34667 1.0667-0.98667 0.37334-0.66667 0.37334-1.6 0-1.4133-0.66667-2.1067t-2.1067-0.69333h-2.4533v5.7067z" fill="#fff" stroke-width="11.339" style="white-space:pre" aria-label="XEP"/></g></g><g id="g4360" transform="translate(156)" fill="#d27131"><g id="text5407" transform="matrix(1.2118 0 0 .96134 -243.4 6.3983)" fill="#d27131" opacity=".98914" stroke-width="3.7795" style="white-space:pre" aria-label="Specs"><path id="path6965" d="m621.69 438.26q-4.1095 0-7.5427-1.2484-3.3812-1.3005-5.41-3.7974-2.0287-2.4969-2.0287-6.0342l0.052-1.1444h7.6468l-0.052 0.8323q0 2.2888 2.0287 3.6413 2.0287 1.3525 5.67 1.3525 3.8494 0 5.566-0.98835 1.7166-1.0404 1.7166-2.757 0-1.5085-1.1444-2.4969-1.0924-1.0404-2.809-1.6126-1.6646-0.62423-4.6297-1.4565-4.2135-1.1964-6.8145-2.2888-2.6009-1.0924-4.4736-3.2252-1.8727-2.1848-1.8727-5.7221 0-4.8898 3.9534-7.4387t10.508-2.5489q6.1902 0 10.092 2.653 3.9534 2.6009 3.9534 7.8548v0.62422h-7.4907v-0.46817q0-1.9767-1.8207-3.1211-1.7686-1.1444-4.8378-1.1444-3.2772 0-5.0458 0.88432-1.7166 0.88432-1.7166 2.4449 0 1.1964 1.0404 2.0808 1.0404 0.8323 2.6009 1.4045 1.5606 0.52019 4.4216 1.3005 4.2655 1.1444 6.9705 2.2888 2.757 1.0924 4.7337 3.2772 1.9767 2.1848 1.9767 5.7221 0 5.7221-4.1095 8.427-4.0575 2.705-11.132 2.705z"/><path id="path6967" d="m642.91 410.27h6.0862l0.46817 3.5893h0.36414q1.3005-2.0808 3.4853-3.1211 2.1848-1.0924 4.8377-1.0924 5.2019 0 8.0629 3.5893 2.861 3.5373 2.861 10.768 0 7.0746-2.913 10.664-2.861 3.5893-7.6468 3.5893-2.757 0-4.8898-0.98836-2.0808-0.98836-3.2772-2.809h-0.31211v12.172h-7.1266zm12.953 21.796q3.1731 0 4.5256-1.8727 1.3525-1.9247 1.3525-5.7741v-0.93634q0-3.8494-1.3525-5.7221-1.3525-1.9247-4.5256-1.9247-5.8261 0-5.8261 7.6468v0.8323q0 7.7508 5.8261 7.7508z"/><path id="path6969" d="m685.98 438.26q-6.6064 0-9.8836-3.4853-3.2252-3.4853-3.2252-10.82t3.2252-10.82q3.2772-3.4853 9.8836-3.4853 6.0862 0 9.1033 3.5373 3.0171 3.4853 3.0171 10.768v1.6646h-17.998q0.10404 3.6413 1.4565 5.41 1.3525 1.7166 4.5256 1.7166 2.2368 0 3.5893-1.2484 1.4045-1.2484 1.4045-3.5373h7.0225q0 5.1499-3.3292 7.7508-3.3292 2.5489-8.7912 2.5489zm4.7337-17.374q0-5.67-4.7337-5.67-2.705 0-4.1095 1.4045-1.3525 1.4045-1.6646 4.2655z"/><path id="path6971" d="m714.96 438.26q-6.5544 0-9.8316-3.4853-3.2252-3.4853-3.2252-10.82 0-7.2826 3.2252-10.768 3.2772-3.5373 9.8316-3.5373 5.462 0 8.6871 2.809 3.2772 2.757 3.2772 8.1149h-7.1786q0-2.4969-1.3005-3.8494-1.3005-1.3525-3.6413-1.3525-2.9131 0-4.3176 2.0808-1.3525 2.0287-1.3525 6.0862v0.8323q0 4.0575 1.4045 6.1382 1.4565 2.0287 4.6297 2.0287 2.2368 0 3.5373-1.3525 1.3525-1.4045 1.3525-3.8494h6.8665q0 5.3579-3.2252 8.167-3.2252 2.757-8.7392 2.757z"/><path id="path6973" d="m743.46 438.26q-5.7221 0-8.9992-2.3408-3.2252-2.3929-3.2252-6.3463l0.052-0.62423h6.9185v0.36413q0.052 1.8207 1.6126 2.653 1.6126 0.78028 3.9014 0.78028 2.1328 0 3.6413-0.5722 1.5086-0.57221 1.5086-1.8727 0-1.4565-1.5606-2.1848-1.5085-0.72826-4.7857-1.4565-3.3812-0.78028-5.514-1.5606-2.1328-0.8323-3.6933-2.5489-1.5606-1.7166-1.5606-4.5776 0-4.0054 3.3292-6.1382 3.3812-2.1848 8.6871-2.1848 4.9418 0 8.167 2.0287 3.2252 1.9767 3.2252 5.41l-0.052 1.1964h-6.9185v-0.10404q-0.052-1.5085-1.3005-2.2368-1.2484-0.78028-3.3812-0.78028t-3.3812 0.57221q-1.2484 0.5722-1.2484 1.6126 0 1.3005 1.4045 1.9247 1.4565 0.62422 4.6297 1.2484 3.4853 0.78028 5.67 1.5606t3.7974 2.5489 1.6126 4.7857q0 8.8432-12.537 8.8432z"/></g></g></g>
</svg>
