<?xml version="1.0" encoding="UTF-8"?>
<!-- Created with Inkscape (http://www.inkscape.org/) -->
<svg id="svg1" width="1200" height="600" version="1.1" viewBox="0 0 1200 600" xml:space="preserve" xmlns="http://www.w3.org/2000/svg"><g id="g1"><rect id="rect22" x=".31525" y="1.9197" width="1199.4" height="597.29" ry=".50905" fill="#fff"/><g id="g26"><rect id="rect23" x=".2202" y="565" width="300" height="35" ry=".50166" fill="#d2702f"/><rect id="rect24" x="300.19" y="565" width="300" height="35" ry=".50166" fill="#457faf"/><rect id="rect25" x="600.16" y="565" width="300" height="35" ry=".50166" fill="#adcc6f"/><rect id="rect26" x="900.12" y="565" width="300" height="35" ry=".50166" fill="#58a0d2"/></g><g id="g1722" transform="matrix(1.2652 0 0 1.2652 226.16 194.12)" fill="#02ab89"><path id="path1691" d="m25.988 172.08-13.388-14.65h11.643l9.127 10.268 9.129-10.268h11.643l-13.387 14.646 14.401 14.728h-12.09l-9.697-10.67-9.693 10.67h-12.092l14.404-14.73z"/><path id="path1693" d="m58.508 157.43h13.836l10.183 18.905 10.183-18.905h13.832v29.374h-8.762v-21.096h-0.08l-11.807 21.096h-6.733l-11.807-21.096h-0.082v21.096h-8.764v-29.37z"/><path id="path1695" d="m112.66 157.43h24.546c8.559 0 10.628 4.302 10.628 10.063v2.516c0 4.381-1.908 9.41-8.275 9.41h-17.894v7.385h-9.005v-29.38zm9 14.69h13.997c2.109 0 2.924-1.377 2.924-3.123v-1.135c0-1.99-0.976-3.127-3.694-3.127h-13.227v7.38z"/><path id="path1697" d="m152.72 157.43h24.546c8.561 0 10.63 4.302 10.63 10.063v2.516c0 4.381-1.907 9.41-8.275 9.41h-17.893v7.385h-9.008v-29.38zm9.01 14.69h13.996c2.11 0 2.922-1.377 2.922-3.123v-1.135c0-1.99-0.974-3.127-3.693-3.127h-13.225v7.38z"/></g><g id="g28"><g id="g1716" transform="matrix(1.2652 0 0 1.2652 322.16 132.12)"><path id="path1679" d="m151.81 29.558c0.077 1.313-1.787 0.968-1.787 2.293 0 38.551-46.558 97.366-91.688 108.73v1.639c59.953-5.52 128.56-67.8 130.07-126.85l-36.599 14.189z" fill="#447cab"/><path id="path1681" d="m133.67 34.301c0.076 1.313 0.12 2.63 0.12 3.957 0 38.551-30.699 90.497-75.827 101.86v1.639c59.044-2.79 105.81-63.024 105.81-109.2 0-2.375-0.128-4.729-0.371-7.056l-29.73 8.798z" fill="#e96d1f"/><path id="path1683" d="m163.69 24.952-7.617 2.722c0.041 0.962 0.066 2.254 0.066 3.225 0 41.219-37.271 98.204-87.272 107.12-3.245 1.088-7.538 2.077-10.932 2.931v1.638c65.254-5.56 111.1-71.866 105.76-117.64z" display="none" fill="#d9541e"/><path id="path1685" d="m50.011 29.557c-0.077 1.313 1.787 0.968 1.787 2.293 0 38.551 46.558 97.366 91.688 108.73v1.639c-59.953-5.52-128.56-67.8-130.07-126.85l36.599 14.189z" fill="#467ead"/><path id="path1687" d="m68.143 34.3c-0.076 1.313-0.12 2.63-0.12 3.957 0 38.551 30.699 90.497 75.827 101.86v1.639c-59.044-2.79-105.81-63.024-105.81-109.2 0-2.375 0.128-4.729 0.371-7.056l29.73 8.798z" fill="#a0ce67"/><path id="path1689" d="m38.125 24.951 7.617 2.722c-0.041 0.962-0.066 2.254-0.066 3.225 0 41.219 37.271 98.204 87.272 107.12 3.245 1.088 7.538 2.077 10.932 2.931v1.638c-65.254-5.56-111.1-71.866-105.76-117.64z" display="none" fill="#439639"/></g><g id="g4857" transform="matrix(1.1457 -.52812 .41861 .90817 -240.72 445.01)" fill="#0a8" stroke-width="3.7795"><path id="rect4862" d="m704.4 188.81c-4.3399-4e-5 -12.59 1.359-12.59 16.316v69.163c0 15.459 8.2555 16.32 12.59 16.316l59.979-0.048 0.13272-101.75z" opacity=".98914" stop-color="#000000"/><path id="rect4867" d="m769.91 188.81 102.32-59.745v221.29l-102.32-59.745c-0.24354-0.1422-0.50905-0.22704-0.50905-0.50905v-100.78c0-0.28202 0.22704-0.50975 0.50905-0.50905z" opacity=".98914" stop-color="#000000"/></g></g><g id="g4360" transform="translate(6)" fill="#02ab89"><g id="text4474" transform="matrix(1.2118 0 0 .96134 -243.4 6.3983)" fill="#02ab89" opacity=".98914" stroke-width="3.7795" style="white-space:pre" aria-label="Announcements"><path id="path5411" d="m618.56 401.95h9.4674l13.941 35.685h-8.219l-2.5489-6.8145h-16.23l-2.5489 6.8145h-7.8028zm10.248 22.576-3.3812-9.0513q-0.41615-1.0924-1.1964-3.6413-0.78029-2.5489-1.0404-3.3812h-0.26009q-0.2601 0.8323-1.0404 3.3812t-1.1964 3.6413l-3.3812 9.0513z"/><path id="path5413" d="m645.77 410.27h6.0862l0.52019 3.5893h0.36413q3.3292-4.2135 8.5311-4.2135 4.2135 0 6.6064 2.2888 2.4449 2.2888 2.4449 7.3347v18.363h-7.1266v-16.854q0-2.5489-1.1964-3.6933-1.1964-1.1444-3.5373-1.1444-2.3929 0-4.0054 1.7166-1.5606 1.6646-1.5606 4.1615v15.814h-7.1266z"/><path id="path5415" d="m677.55 410.27h6.0862l0.52019 3.5893h0.36413q3.3292-4.2135 8.5311-4.2135 4.2135 0 6.6064 2.2888 2.4449 2.2888 2.4449 7.3347v18.363h-7.1266v-16.854q0-2.5489-1.1964-3.6933-1.1964-1.1444-3.5373-1.1444-2.3929 0-4.0054 1.7166-1.5606 1.6646-1.5606 4.1615v15.814h-7.1266z"/><path id="path5417" d="m721.51 438.26q-7.0225 0-10.456-3.4853t-3.4332-10.82 3.4332-10.82 10.456-3.4853 10.456 3.4853q3.4853 3.4853 3.4853 10.82t-3.4853 10.82q-3.4332 3.4853-10.456 3.4853zm0-5.8261q3.4853 0 5.0458-1.9767 1.5606-2.0287 1.5606-6.0862v-0.8323q0-4.0575-1.5606-6.0342-1.5606-2.0287-5.0458-2.0287t-5.0458 2.0287q-1.5086 1.9767-1.5086 6.0342v0.8323q0 4.0575 1.5086 6.0862 1.5606 1.9767 5.0458 1.9767z"/><path id="path5419" d="m750.02 438.26q-4.2135 0-6.6584-2.2888-2.3929-2.2888-2.3929-7.3346v-18.363h7.1266v16.854q0 2.5489 1.1964 3.6933t3.5373 1.1444q2.3929 0 3.9534-1.6646 1.6126-1.7166 1.6126-4.2135v-15.814h7.1266v27.362h-6.0862l-0.52018-3.5893h-0.36414q-3.3292 4.2135-8.5311 4.2135z"/><path id="path5421" d="m772.9 410.27h6.0862l0.52019 3.5893h0.36413q3.3292-4.2135 8.5311-4.2135 4.2135 0 6.6064 2.2888 2.4449 2.2888 2.4449 7.3347v18.363h-7.1266v-16.854q0-2.5489-1.1964-3.6933-1.1964-1.1444-3.5373-1.1444-2.3929 0-4.0054 1.7166-1.5606 1.6646-1.5606 4.1615v15.814h-7.1266z"/><path id="path5423" d="m816.03 438.26q-6.5544 0-9.8316-3.4853-3.2252-3.4853-3.2252-10.82 0-7.2826 3.2252-10.768 3.2772-3.5373 9.8316-3.5373 5.462 0 8.6871 2.809 3.2772 2.757 3.2772 8.1149h-7.1786q0-2.4969-1.3005-3.8494-1.3005-1.3525-3.6413-1.3525-2.913 0-4.3176 2.0808-1.3525 2.0287-1.3525 6.0862v0.8323q0 4.0575 1.4045 6.1382 1.4565 2.0287 4.6297 2.0287 2.2368 0 3.5373-1.3525 1.3525-1.4045 1.3525-3.8494h6.8665q0 5.3579-3.2252 8.167-3.2252 2.757-8.7392 2.757z"/><path id="path5425" d="m844.9 438.26q-6.6064 0-9.8836-3.4853-3.2252-3.4853-3.2252-10.82t3.2252-10.82q3.2772-3.4853 9.8836-3.4853 6.0862 0 9.1033 3.5373 3.0171 3.4853 3.0171 10.768v1.6646h-17.999q0.10404 3.6413 1.4565 5.41 1.3525 1.7166 4.5256 1.7166 2.2368 0 3.5893-1.2484 1.4045-1.2484 1.4045-3.5373h7.0225q0 5.1499-3.3292 7.7508-3.3292 2.5489-8.7912 2.5489zm4.7337-17.374q0-5.67-4.7337-5.67-2.705 0-4.1095 1.4045-1.3525 1.4045-1.6646 4.2655z"/><path id="path5427" d="m862.53 410.27h6.0862l0.52018 3.5893h0.36414q3.0171-4.2135 7.8028-4.2135 5.2019 0 7.1786 4.2135h0.41615q3.1211-4.2135 8.1149-4.2135 3.9014 0 6.1902 2.2888 2.3408 2.2888 2.3408 7.3347v18.363h-7.1266v-16.854q0-4.8378-4.0054-4.8378-2.0808 0-3.4332 1.7166-1.3525 1.6646-1.3525 4.1615v15.814h-7.1266v-16.854q0-4.8378-4.0054-4.8378-2.0808 0-3.4853 1.7166-1.3525 1.6646-1.3525 4.1615v15.814h-7.1266z"/><path id="path5429" d="m920.07 438.26q-6.6064 0-9.8836-3.4853-3.2252-3.4853-3.2252-10.82t3.2252-10.82q3.2772-3.4853 9.8836-3.4853 6.0862 0 9.1033 3.5373 3.0171 3.4853 3.0171 10.768v1.6646h-17.998q0.10403 3.6413 1.4565 5.41 1.3525 1.7166 4.5256 1.7166 2.2368 0 3.5893-1.2484 1.4045-1.2484 1.4045-3.5373h7.0225q0 5.1499-3.3292 7.7508-3.3292 2.5489-8.7912 2.5489zm4.7337-17.374q0-5.67-4.7337-5.67-2.705 0-4.1095 1.4045-1.3525 1.4045-1.6646 4.2655z"/><path id="path5431" d="m937.7 410.27h6.0862l0.52018 3.5893h0.36414q3.3292-4.2135 8.5311-4.2135 4.2135 0 6.6064 2.2888 2.4449 2.2888 2.4449 7.3347v18.363h-7.1266v-16.854q0-2.5489-1.1964-3.6933-1.1964-1.1444-3.5373-1.1444-2.3929 0-4.0054 1.7166-1.5606 1.6646-1.5606 4.1615v15.814h-7.1266z"/><path id="path5433" d="m976.82 438.26q-3.8494 0-5.514-2.0808-1.6646-2.0808-1.6646-5.2539v-14.825h-3.2772v-5.8261h3.4332l1.1964-7.6988h5.7741v7.6988h4.7337v5.8261h-4.7337v14.097q0 2.2368 2.2368 2.2368h2.4969v4.9938q-0.88432 0.31211-2.2368 0.5722-1.3005 0.2601-2.4449 0.2601z"/><path id="path5435" d="m997.73 438.26q-5.7221 0-8.9992-2.3408-3.2252-2.3929-3.2252-6.3463l0.052-0.62423h6.9185v0.36413q0.052 1.8207 1.6126 2.653 1.6126 0.78028 3.9014 0.78028 2.1328 0 3.6413-0.5722 1.5086-0.57221 1.5086-1.8727 0-1.4565-1.5606-2.1848-1.5085-0.72826-4.7857-1.4565-3.3812-0.78028-5.514-1.5606-2.1328-0.8323-3.6933-2.5489-1.5606-1.7166-1.5606-4.5776 0-4.0054 3.3292-6.1382 3.3812-2.1848 8.6871-2.1848 4.9418 0 8.167 2.0287 3.2251 1.9767 3.2251 5.41l-0.052 1.1964h-6.9185v-0.10404q-0.052-1.5085-1.3004-2.2368-1.2485-0.78028-3.3813-0.78028t-3.3812 0.57221q-1.2484 0.5722-1.2484 1.6126 0 1.3005 1.4045 1.9247 1.4565 0.62422 4.6297 1.2484 3.4853 0.78028 5.6701 1.5606t3.7974 2.5489q1.6125 1.7686 1.6125 4.7857 0 8.8432-12.536 8.8432z"/></g></g></g>
</svg>
