<?xml version="1.0" encoding="UTF-8"?>
<!-- Created with Inkscape (http://www.inkscape.org/) -->
<svg id="svg1" width="360" height="360" version="1.1" viewBox="0 0 360 360" xmlns="http://www.w3.org/2000/svg">
 <defs id="defs1">
  <linearGradient id="SVGID_left_" x1="-1073.2" x2="-1073.2" y1="126.85" y2="1.279e-13" gradientTransform="matrix(-1 0 0 1 -774.37 -6.001)" gradientUnits="userSpaceOnUse">
   <stop id="stop4" stop-color="#1b3967" offset=".011"/>
   <stop id="stop5" stop-color="#13b5ea" offset=".467"/>
   <stop id="stop6" stop-color="#002b5c" offset=".9945"/>
  </linearGradient>
  <linearGradient id="SVGID_right_" x1="-1073.2" x2="-1073.2" y1="126.85" y2="1.279e-13" gradientTransform="translate(1417 -6)" gradientUnits="userSpaceOnUse">
   <stop id="stop1" stop-color="#1b3967" offset=".011"/>
   <stop id="stop2" stop-color="#13b5ea" offset=".467"/>
   <stop id="stop3" stop-color="#002b5c" offset=".9945"/>
  </linearGradient>
 </defs>
 <g id="g1" transform="translate(-149.79 -3.5857)">
  <g id="g11" fill-rule="evenodd">
   <path id="path1" d="m173.99 161.64 21.094 81.634s-29.113-2.3063-38.621-33.348 17.528-48.286 17.528-48.286z"/>
   <path id="path2" d="m189.94 145.78 56.935-15.264 25.946 104.57-56.609 14.939z"/>
   <path id="path7" d="m220.16 269.64 42.809 61.433 10.563 0.27798 43.365-11.397s5.54-5.222 1.1119-13.621c-9.7877-18.565-21.054-14.534-27.242-24.74-3.2068-5.2891-2.3979-13.571-5.0036-19.18-3.3249-7.1581-10.007-6.6715-10.007-6.6715z"/>
   <path id="path3" d="m374.93 35.854c-4.5353-0.31758-7.9654 1.741-10.662 5.3242-8.3016 11.031-29.737 37.83-37.361 46.664-20.359 23.59-59.488 38.916-59.488 38.916l24.463 102.85s38.941-0.69727 57.82 3.3359c21.037 4.4941 39.903 13.937 60.32 22.934 5.7304 2.525 12.988 7.1413 18.068 5.1426 5.08-1.9987 7.2285-11.953 7.2285-11.953l-16.123-66.715s14.388-28.832 10.562-42.809-30.021-30.578-30.021-30.578l-15.062-65.18c-1.4695-6.3593-3.2603-6.7169-7.7324-7.6504-0.69406-0.14488-1.3638-0.23784-2.0117-0.2832zm-5.7715 38.088 37.25 153.45s-30.417-13.62-49.48-17.791c-14.574-3.1886-50.592-5.5605-50.592-5.5605l-15.012-61.154s32.854-23.67 47.812-37.25c10.773-9.7806 30.021-31.689 30.021-31.689z"/>
  </g>
  <g id="g10" fill-rule="evenodd" stroke="#000" stroke-linecap="round" stroke-width="15.118">
   <path id="path5" d="m431.42 103.41 26.13-38.361"/>
   <path id="path4" d="m450.32 136.21 47.256-12.231"/>
   <path id="path6" d="m448.66 176.79 43.365 18.347"/>
  </g>
  <g id="g7" transform="matrix(.34529 -.079717 .079717 .34529 230.34 162.68)">
   <g id="g9">
    <path id="path6-3" d="m372.22 8.189c0.077 1.313-1.787 0.968-1.787 2.293 0 38.551-46.558 97.366-91.688 108.73v1.639c59.953-5.52 128.56-67.8 130.07-126.85l-36.599 14.189z" fill="url(#SVGID_right_)"/>
    <path id="path7-5" d="m354.09 12.932c0.076 1.313 0.12 2.63 0.12 3.957 0 38.551-30.699 90.497-75.827 101.86v1.639c59.044-2.79 105.81-63.024 105.81-109.2 0-2.375-0.128-4.729-0.371-7.056l-29.73 8.798z" fill="#e96d1f"/>
    <path id="path8" d="m384.11 3.583-7.617 2.722c0.041 0.962 0.066 2.254 0.066 3.225 0 41.219-37.271 98.204-87.272 107.12-3.245 1.088-7.538 2.077-10.932 2.931v1.638c65.254-5.56 111.1-71.866 105.76-117.64z" fill="#d9541e"/>
    <path id="path9" d="m270.43 8.188c-0.077 1.313 1.787 0.968 1.787 2.293 0 38.551 46.558 97.366 91.688 108.73v1.639c-59.953-5.52-128.56-67.8-130.07-126.85l36.599 14.189z" fill="url(#SVGID_left_)"/>
    <path id="path10" d="m288.56 12.931c-0.076 1.313-0.12 2.63-0.12 3.957 0 38.551 30.699 90.497 75.827 101.86v1.639c-59.044-2.79-105.81-63.024-105.81-109.2 0-2.375 0.128-4.729 0.371-7.056l29.73 8.798z" fill="#a0ce67"/>
    <path id="path11" d="m258.54 3.582 7.617 2.722c-0.041 0.962-0.066 2.254-0.066 3.225 0 41.219 37.271 98.204 87.272 107.12 3.245 1.088 7.538 2.077 10.932 2.931v1.638c-65.254-5.56-111.1-71.866-105.76-117.64z" fill="#439639"/>
   </g>
   <g id="g8">
    <path id="path12" d="m246.4 150.71-13.388-14.65h11.643l9.127 10.268 9.129-10.268h11.643l-13.387 14.646 14.401 14.728h-12.09l-9.697-10.67-9.693 10.67h-12.092l14.404-14.73z"/>
    <path id="path13" d="m278.92 136.06h13.836l10.183 18.905 10.183-18.905h13.832v29.374h-8.762v-21.096h-0.08l-11.807 21.096h-6.733l-11.807-21.096h-0.082v21.096h-8.764v-29.37z"/>
    <path id="path14" d="m333.08 136.06h24.546c8.559 0 10.628 4.302 10.628 10.063v2.516c0 4.381-1.908 9.41-8.275 9.41h-17.894v7.385h-9.005v-29.38zm9 14.69h13.997c2.109 0 2.924-1.377 2.924-3.123v-1.135c0-1.99-0.976-3.127-3.694-3.127h-13.227v7.38z"/>
    <path id="path15" d="m373.14 136.06h24.546c8.561 0 10.63 4.302 10.63 10.063v2.516c0 4.381-1.907 9.41-8.275 9.41h-17.893v7.385h-9.008v-29.38zm9.01 14.69h13.996c2.11 0 2.922-1.377 2.922-3.123v-1.135c0-1.99-0.974-3.127-3.693-3.127h-13.225v7.38z"/>
   </g>
  </g>
 </g>
</svg>
