<?xml version="1.0" encoding="UTF-8" standalone="no"?>
<!-- Created with Inkscape (http://www.inkscape.org/) -->

<svg
   version="1.1"
   id="svg1"
   width="1200"
   height="600"
   viewBox="0 0 1200 600"
   sodipodi:docname="xmpp_banner_newsletter.svg"
   xml:space="preserve"
   inkscape:version="1.2.2 (b0a8486541, 2022-12-01)"
   xmlns:inkscape="http://www.inkscape.org/namespaces/inkscape"
   xmlns:sodipodi="http://sodipodi.sourceforge.net/DTD/sodipodi-0.dtd"
   xmlns="http://www.w3.org/2000/svg"
   xmlns:svg="http://www.w3.org/2000/svg"><defs
     id="defs1"><rect
       x="604.52018"
       y="390.75785"
       width="334.05478"
       height="82.000163"
       id="rect4234" /><linearGradient
       id="SVGID_right_"
       y2="1.279e-13"
       gradientUnits="userSpaceOnUse"
       x2="-1073.2"
       gradientTransform="matrix(0.26458333,0,0,0.26458333,329.99318,33.639267)"
       y1="126.85"
       x1="-1073.2"><stop
         stop-color="#1b3967"
         offset=".011"
         id="stop10527" /><stop
         stop-color="#13b5ea"
         offset=".467"
         id="stop10529" /><stop
         stop-color="#002b5c"
         offset=".9945"
         id="stop10531" /></linearGradient><linearGradient
       id="SVGID_left_"
       y2="1.279e-13"
       gradientUnits="userSpaceOnUse"
       x2="-1073.2"
       gradientTransform="matrix(-0.26458333,0,0,0.26458333,-249.81261,33.639003)"
       y1="126.85"
       x1="-1073.2"><stop
         stop-color="#1b3967"
         offset=".011"
         id="stop10534" /><stop
         stop-color="#13b5ea"
         offset=".467"
         id="stop10536" /><stop
         stop-color="#002b5c"
         offset=".9945"
         id="stop10538" /></linearGradient><rect
       x="604.52018"
       y="390.75785"
       width="334.05478"
       height="82.000163"
       id="rect4476" /></defs><sodipodi:namedview
     id="namedview1"
     pagecolor="#ffffff"
     bordercolor="#000000"
     borderopacity="0.25"
     inkscape:showpageshadow="2"
     inkscape:pageopacity="0.0"
     inkscape:pagecheckerboard="0"
     inkscape:deskcolor="#d1d1d1"
     showgrid="false"
     inkscape:zoom="0.48400258"
     inkscape:cx="601.23646"
     inkscape:cy="273.75887"
     inkscape:window-width="1366"
     inkscape:window-height="700"
     inkscape:window-x="0"
     inkscape:window-y="0"
     inkscape:window-maximized="1"
     inkscape:current-layer="g1" /><g
     inkscape:groupmode="layer"
     inkscape:label="Image"
     id="g1"><rect
       style="fill:#ffffff;fill-opacity:1;stroke:none;stroke-width:3.77953;stroke-opacity:1"
       id="rect22"
       width="1199.3695"
       height="597.2851"
       x="0.31524658"
       y="1.9197469"
       ry="0.50904977"
       inkscape:label="Background" /><g
       id="g26"
       inkscape:label="BottomBar"><rect
         style="fill:#d2702f;fill-opacity:1;stroke:none;stroke-width:3.76129;stroke-opacity:1"
         id="rect23"
         width="300"
         height="35"
         x="0.22020364"
         y="565"
         ry="0.50166357"
         inkscape:label="orange" /><rect
         style="fill:#457faf;fill-opacity:1;stroke:none;stroke-width:3.76129;stroke-opacity:1"
         id="rect24"
         width="300"
         height="35"
         x="300.18814"
         y="565"
         ry="0.50166357"
         inkscape:label="dark blue" /><rect
         style="fill:#adcc6f;fill-opacity:1;stroke:none;stroke-width:3.76129;stroke-opacity:1"
         id="rect25"
         width="300"
         height="35"
         x="600.15607"
         y="565"
         ry="0.50166357"
         inkscape:label="green" /><rect
         style="fill:#58a0d2;fill-opacity:1;stroke:none;stroke-width:3.76129;stroke-opacity:1"
         id="rect26"
         width="300"
         height="35"
         x="900.12402"
         y="565"
         ry="0.50166357"
         inkscape:label="lighter blue" /></g><g
       id="g1722"
       inkscape:label="XMPP text"
       style="display:inline;fill:#688630;fill-opacity:1"
       transform="matrix(1.2652006,0,0,1.2652006,322.15896,194.12118)"><path
         d="m 25.988,172.07799 -13.388,-14.65 h 11.643 l 9.127,10.268 9.129,-10.268 h 11.643 l -13.387,14.646 14.401,14.728 h -12.09 l -9.697,-10.67 -9.693,10.67 H 11.584 l 14.404,-14.73 z"
         id="path1691"
         style="fill:#688630;fill-opacity:1"
         inkscape:label="X" /><path
         d="m 58.508,157.42799 h 13.836 l 10.183,18.905 10.183,-18.905 h 13.83199 v 29.374 h -8.761983 v -21.096 h -0.08 L 85.893,186.80199 H 79.16 l -11.807,-21.096 h -0.082 v 21.096 h -8.764 v -29.37 z"
         id="path1693"
         style="fill:#688630;fill-opacity:1"
         inkscape:label="M" /><path
         d="m 112.66199,157.42799 h 24.546 c 8.559,0 10.628,4.302 10.628,10.063 v 2.516 c 0,4.381 -1.908,9.41 -8.275,9.41 h -17.894 v 7.385 h -9.005 v -29.38 z m 9,14.69 h 13.997 c 2.10901,0 2.92401,-1.377 2.92401,-3.123 v -1.135 c 0,-1.99 -0.976,-3.127 -3.694,-3.127 h -13.227 v 7.38 z"
         id="path1695"
         style="fill:#688630;fill-opacity:1"
         inkscape:label="P the first" /><path
         d="m 152.72199,157.42799 h 24.546 c 8.561,0 10.63,4.302 10.63,10.063 v 2.516 c 0,4.381 -1.907,9.41 -8.275,9.41 h -17.893 v 7.385 h -9.008 v -29.38 z m 9.01,14.69 h 13.996 c 2.11,0 2.922,-1.377 2.922,-3.123 v -1.135 c 0,-1.99 -0.974,-3.127 -3.693,-3.127 h -13.225 v 7.38 z"
         id="path1697"
         style="fill:#688630;fill-opacity:1"
         inkscape:label="P the second" /></g><g
       id="g28"
       inkscape:label="Graphics"><g
         id="g3"
         inkscape:label="Envelope"><g
           id="g32"
           inkscape:label="Newsletter-DejavuSansUltraLight"
           style="display:none;fill:#688630;fill-opacity:1"
           transform="translate(0.09804095)"><path
             d="m 604.42214,390.75785 h 3.85416 l 18.85416,35.54685 v -35.54685 h 2.60416 v 38.88018 h -3.69791 L 607.07838,393.8568 v 35.78123 h -2.65624 z"
             id="text31"
             style="font-weight:200;font-size:53.3333px;font-family:'DejaVu Sans';-inkscape-font-specification:'DejaVu Sans Ultra-Light';display:inline;fill:#688630;fill-opacity:1;stroke:none;stroke-width:3.77953"
             inkscape:label="N"
             aria-label="Newsletter"
             sodipodi:nodetypes="ccccccccccc" /><path
             d="m 666.63564,413.85679 v 1.51042 h -22.1354 c 0,4.68749 0.91146,7.96874 2.73437,9.84374 2.01389,2.08333 5.00868,3.125 8.98437,3.125 1.04167,0 2.42187,-0.22569 4.14062,-0.67708 1.73611,-0.45139 3.45486,-1.12848 5.15625,-2.03125 v 2.52604 c -1.71875,0.72917 -3.4809,1.28472 -5.28646,1.66666 -1.80555,0.38195 -3.23784,0.57292 -4.29687,0.57292 -4.49653,0 -7.88194,-1.21528 -10.15624,-3.64583 -2.46528,-2.58681 -3.69792,-6.38021 -3.69792,-11.3802 0,-5.19097 1.12847,-9.0625 3.38542,-11.61458 2.30903,-2.65625 5.52083,-3.98437 9.63541,-3.98437 3.81944,0 6.70138,1.25868 8.64583,3.77604 1.92708,2.63889 2.89062,6.07638 2.89062,10.31249 z m -2.42187,-0.52083 c 0,-4.09722 -0.92014,-7.08333 -2.76042,-8.95833 -1.54514,-1.66667 -3.64583,-2.5 -6.30208,-2.5 -2.8993,0 -5.32985,0.86806 -7.29166,2.60417 -1.80555,1.61458 -2.89062,4.56597 -3.25521,8.85416 z"
             id="path32"
             style="font-weight:200;font-size:53.3333px;font-family:'DejaVu Sans';-inkscape-font-specification:'DejaVu Sans Ultra-Light';display:inline;fill:#688630;fill-opacity:1;stroke:none;stroke-width:3.77953"
             inkscape:label="e"
             aria-label="Newsletter"
             sodipodi:nodetypes="scccscccsscscscsccsccc" /><path
             d="m 674.05751,400.47138 h 2.47396 l 6.84895,25.98957 6.79687,-25.98957 h 3.04688 l 6.84895,26.11978 6.82291,-26.11978 h 2.47396 l -7.6302,29.16665 h -3.33334 l -6.71874,-25.5729 -6.69271,25.5729 h -3.28124 z"
             id="path33"
             style="font-weight:200;font-size:53.3333px;font-family:'DejaVu Sans';-inkscape-font-specification:'DejaVu Sans Ultra-Light';display:inline;fill:#688630;fill-opacity:1;stroke:none;stroke-width:3.77953"
             inkscape:label="w"
             aria-label="Newsletter"
             sodipodi:nodetypes="cccccccccccccc" /><path
             d="m 736.84393,401.33076 v 2.6302 c -1.68403,-0.9375 -2.73437,-1.45833 -3.15104,-1.5625 -1.21527,-0.29513 -2.72569,-0.46874 -4.53124,-0.52083 -2.74306,0 -4.89584,0.54687 -6.45833,1.64062 -1.19792,0.90278 -1.79688,2.44792 -1.79688,4.63542 0,1.47569 0.56424,2.63021 1.69271,3.46354 1.19791,0.90277 2.90798,1.59722 5.1302,2.08333 l 1.64063,0.36458 c 2.76041,0.60764 4.85243,1.46702 6.27604,2.57813 1.6493,1.26736 2.51735,2.91666 2.60416,4.94791 0,2.76041 -0.81597,4.92187 -2.44791,6.48437 -1.73611,1.54514 -4.53125,2.31771 -8.38542,2.31771 -2.15277,0 -3.78472,-0.14757 -4.89583,-0.44271 -1.3368,-0.38195 -2.74305,-0.84202 -4.21874,-1.38021 v -2.99479 c 2.11805,1.21528 3.48958,1.90973 4.11458,2.08334 1.71875,0.45139 3.42013,0.67708 5.10416,0.67708 2.8125,0 4.88715,-0.5816 6.22396,-1.74479 1.35416,-1.18055 2.03124,-2.72569 2.03124,-4.63542 0,-1.59722 -0.45139,-2.76041 -1.35416,-3.48958 -1.30209,-1.04167 -3.37674,-1.89236 -6.22396,-2.55208 l -1.66666,-0.39062 c -2.44791,-0.57292 -4.31423,-1.38021 -5.59896,-2.42188 -1.61458,-1.30208 -2.42187,-2.88194 -2.42187,-4.73958 0,-3.05555 0.97222,-5.25173 2.91666,-6.58854 1.94445,-1.3368 4.3316,-2.0052 7.16146,-2.0052 2.41319,0 4.07986,0.13021 5,0.39062 1.11111,0.3125 2.19617,0.70313 3.2552,1.17188 z"
             id="path34"
             style="font-weight:200;font-size:53.3333px;font-family:'DejaVu Sans';-inkscape-font-specification:'DejaVu Sans Ultra-Light';display:inline;fill:#688630;fill-opacity:1;stroke:none;stroke-width:3.77953"
             inkscape:label="s"
             aria-label="Newsletter"
             sodipodi:nodetypes="cccccsccccccsccccscsccccssscc" /><path
             d="m 748.11997,389.11722 h 2.39583 v 40.52081 h -2.39583 z"
             id="path35"
             style="font-weight:200;font-size:53.3333px;font-family:'DejaVu Sans';-inkscape-font-specification:'DejaVu Sans Ultra-Light';display:inline;fill:#688630;fill-opacity:1;stroke:none;stroke-width:3.77953"
             inkscape:label="l"
             aria-label="Newsletter"
             sodipodi:nodetypes="ccccc" /><path
             d="m 785.67202,413.85679 v 1.51042 h -22.1354 c 0,4.68749 0.91146,7.96874 2.73437,9.84374 2.01389,2.08333 5.00868,3.125 8.98437,3.125 1.04167,0 2.42187,-0.22569 4.14062,-0.67708 1.73611,-0.45139 3.45486,-1.12848 5.15625,-2.03125 v 2.52604 c -1.71875,0.72917 -3.4809,1.28472 -5.28646,1.66666 -1.80555,0.38195 -3.23784,0.57292 -4.29687,0.57292 -4.49653,0 -7.88194,-1.21528 -10.15624,-3.64583 -2.46528,-2.58681 -3.69792,-6.38021 -3.69792,-11.3802 0,-5.19097 1.12847,-9.0625 3.38542,-11.61458 2.30903,-2.65625 5.52083,-3.98437 9.63541,-3.98437 3.81944,0 6.70138,1.25868 8.64583,3.77604 1.92708,2.63889 2.89062,6.07638 2.89062,10.31249 z m -2.42187,-0.52083 c 0,-4.09722 -0.92014,-7.08333 -2.76042,-8.95833 -1.54513,-1.66667 -3.64583,-2.5 -6.30208,-2.5 -2.8993,0 -5.32985,0.86806 -7.29166,2.60417 -1.80555,1.61458 -2.89062,4.56597 -3.25521,8.85416 z"
             id="path36"
             style="font-weight:200;font-size:53.3333px;font-family:'DejaVu Sans';-inkscape-font-specification:'DejaVu Sans Ultra-Light';display:inline;fill:#688630;fill-opacity:1;stroke:none;stroke-width:3.77953"
             inkscape:label="e"
             aria-label="Newsletter"
             sodipodi:nodetypes="scccscccsscscscsccsccc" /><path
             d="m 798.27618,392.19014 v 8.28124 h 9.86979 v 2.03125 h -9.86979 v 17.52603 c 0,2.22222 0.28646,3.77604 0.85938,4.66146 1.18055,1.94444 2.8993,2.91666 5.15625,2.91666 h 3.85416 v 2.03125 h -3.72396 c -2.37847,0 -4.40103,-0.69444 -6.0677,-2.08333 -1.66667,-1.38889 -2.5,-3.89757 -2.5,-7.52604 v -17.52603 h -3.48958 v -2.03125 h 3.48958 v -8.28124 z"
             id="path37"
             style="font-weight:200;font-size:53.3333px;font-family:'DejaVu Sans';-inkscape-font-specification:'DejaVu Sans Ultra-Light';display:inline;fill:#688630;fill-opacity:1;stroke:none;stroke-width:3.77953"
             inkscape:label="t"
             aria-label="Newsletter"
             sodipodi:nodetypes="cccccscsccssscccccc" /><path
             d="m 819.18764,392.19014 v 8.28124 h 9.86978 v 2.03125 h -9.86978 v 17.52603 c 0,2.22222 0.28646,3.77604 0.85937,4.66146 1.18055,1.94444 2.8993,2.91666 5.15625,2.91666 h 3.85416 v 2.03125 h -3.72395 c -2.37847,0 -4.40104,-0.69444 -6.06771,-2.08333 -1.66667,-1.38889 -2.5,-3.89757 -2.5,-7.52604 v -17.52603 h -3.48958 v -2.03125 h 3.48958 v -8.28124 z"
             id="path38"
             style="font-weight:200;font-size:53.3333px;font-family:'DejaVu Sans';-inkscape-font-specification:'DejaVu Sans Ultra-Light';display:inline;fill:#688630;fill-opacity:1;stroke:none;stroke-width:3.77953"
             inkscape:label="t"
             aria-label="Newsletter"
             sodipodi:nodetypes="cccccscsccssscccccc" /><path
             d="m 860.3074,413.85679 v 1.51042 h -22.13541 c 0,4.68749 0.91146,7.96874 2.73438,9.84374 2.01389,2.08333 5.00868,3.125 8.98437,3.125 1.04167,0 2.42187,-0.22569 4.14062,-0.67708 1.73611,-0.45139 3.45486,-1.12848 5.15625,-2.03125 v 2.52604 c -1.71875,0.72917 -3.48091,1.28472 -5.28646,1.66666 -1.80555,0.38195 -3.23784,0.57292 -4.29687,0.57292 -4.49653,0 -7.88194,-1.21528 -10.15625,-3.64583 -2.46527,-2.58681 -3.69791,-6.38021 -3.69791,-11.3802 0,-5.19097 1.12847,-9.0625 3.38541,-11.61458 2.30903,-2.65625 5.52083,-3.98437 9.63542,-3.98437 3.81944,0 6.70138,1.25868 8.64582,3.77604 1.92709,2.63889 2.89063,6.07638 2.89063,10.31249 z m -2.42188,-0.52083 c 0,-4.09722 -0.92014,-7.08333 -2.76041,-8.95833 -1.54514,-1.66667 -3.64583,-2.5 -6.30208,-2.5 -2.89931,0 -5.32986,0.86806 -7.29166,2.60417 -1.80556,1.61458 -2.89063,4.56597 -3.25521,8.85416 z"
             id="path39"
             style="font-weight:200;font-size:53.3333px;font-family:'DejaVu Sans';-inkscape-font-specification:'DejaVu Sans Ultra-Light';display:inline;fill:#688630;fill-opacity:1;stroke:none;stroke-width:3.77953"
             inkscape:label="e"
             aria-label="Newsletter"
             sodipodi:nodetypes="scccscccsscscscsccsccc" /><path
             d="m 886.21886,402.52867 c -0.38195,-0.19097 -0.90278,-0.3559 -1.5625,-0.49479 -0.59028,-0.10417 -1.33681,-0.15625 -2.23958,-0.15625 -2.95139,0 -5.3993,1.09375 -7.34375,3.28125 -1.52777,1.77083 -2.29166,4.80903 -2.29166,9.11458 v 15.36457 h -2.34375 v -29.16665 h 2.34375 v 5.46875 c 0.78125,-1.5625 1.875,-2.88194 3.28125,-3.95833 1.94444,-1.47569 4.2361,-2.21354 6.87499,-2.21354 0.67709,0 1.26736,0.026 1.77083,0.0781 0.52083,0 1.02431,0.0608 1.51042,0.18229 z"
             id="path40"
             style="font-weight:200;font-size:53.3333px;font-family:'DejaVu Sans';-inkscape-font-specification:'DejaVu Sans Ultra-Light';display:inline;fill:#688630;fill-opacity:1;stroke:none;stroke-width:3.77953"
             inkscape:label="r"
             aria-label="Newsletter"
             sodipodi:nodetypes="ccscsccccccsccc" /></g><g
           id="g30"
           inkscape:label="Graphic"><rect
             style="fill:#688630;fill-opacity:1;stroke:none;stroke-width:3.77953;stroke-opacity:1"
             id="rect3"
             width="249.43437"
             height="176.4706"
             x="620.70135"
             y="137.10406"
             ry="12.895922" /><path
             style="fill:#ffffff;fill-opacity:1;stroke:none;stroke-width:3.77953;stroke-opacity:1"
             d="m 640.21493,149.32127 105.37331,70.24887 104.86425,-70.41856 c 0,0 3.63635,-2.0303 6.27828,2.0362 2.64193,4.0665 -0.33937,6.95702 -0.33937,6.95702 l -110.80316,74.32126 -111.4819,-74.49095 c 0,0 -2.33816,-3.67128 0,-6.95701 2.33816,-3.28573 6.10859,-1.69683 6.10859,-1.69683 z"
             id="path3"
             sodipodi:nodetypes="ccczccczc" /></g></g><g
         id="g1716"
         transform="matrix(1.2652006,0,0,1.2652006,322.15896,132.12118)"
         inkscape:label="XMPP logo"
         style="display:inline"><path
           d="m 151.80512,29.557978 c 0.077,1.313 -1.787,0.968 -1.787,2.293 0,38.551 -46.558,97.366012 -91.687985,108.730012 v 1.639 C 118.28313,136.69999 186.89012,74.419978 188.40012,15.369977 l -36.599,14.189001 z"
           style="fill:#447cab;fill-opacity:1"
           id="path1679"
           inkscape:label="right blue" /><path
           d="m 133.67312,34.300978 c 0.076,1.313 0.12,2.63 0.12,3.957 0,38.551 -30.69898,90.497012 -75.826985,101.860012 v 1.639 c 59.044005,-2.79 105.809995,-63.024012 105.809995,-109.200012 0,-2.375 -0.128,-4.729 -0.371,-7.056 l -29.73,8.798 z"
           style="display:inline;fill:#e96d1f"
           id="path1681"
           inkscape:label="orange" /><path
           d="m 163.69112,24.951978 -7.61699,2.722 c 0.041,0.962 0.066,2.254 0.066,3.225 0,41.219 -37.271,98.204012 -87.271995,107.120012 -3.24501,1.088 -7.53801,2.077 -10.932,2.931 v 1.638 C 123.19013,137.02799 169.03613,70.721978 163.69612,24.947978 Z"
           style="display:none;fill:#d9541e"
           id="path1683"
           inkscape:label="orange shade" /><path
           d="m 50.011,29.556978 c -0.077,1.313 1.787,0.968 1.787,2.293 0,38.551 46.558007,97.366012 91.68799,108.730012 v 1.639 C 83.533,136.69899 14.926,74.418978 13.416,15.368977 l 36.599,14.189001 z"
           style="display:inline;fill:#467ead;fill-opacity:1"
           id="path1685"
           inkscape:label="left blue" /><path
           d="m 68.143,34.299978 c -0.076,1.313 -0.12,2.63 -0.12,3.957 0,38.551 30.698995,90.497012 75.82699,101.860012 v 1.639 C 84.806,138.96599 38.04,78.731978 38.04,32.555978 c 0,-2.375 0.128,-4.729 0.371,-7.056 l 29.73,8.798 z"
           style="display:inline;fill:#a0ce67"
           id="path1687"
           inkscape:label="green" /><path
           d="m 38.125,24.950978 7.617,2.722 c -0.041,0.962 -0.066,2.254 -0.066,3.225 0,41.219 37.271,98.204012 87.27199,107.120012 3.245,1.088 7.538,2.077 10.932,2.931 v 1.638 C 78.626,137.02699 32.78,70.720978 38.12,24.946978 Z"
           style="display:none;fill:#439639"
           id="path1689"
           inkscape:label="green shade" /></g></g><g
       id="g4360"
       inkscape:label="Newsletter"><g
         aria-label="Newsletter"
         transform="matrix(1.2118111,0,0,0.96133503,-141.40384,6.3983242)"
         id="text4232"
         style="font-weight:bold;font-size:52.0188px;font-family:Archivo;-inkscape-font-specification:'Archivo Bold';white-space:pre;display:inline;opacity:0.989136;fill:#688630;fill-opacity:1;stroke-width:3.77953"
         inkscape:label="Text (stroked)"><path
           d="m 608.00479,401.94807 h 7.33465 l 13.73296,19.40301 q 0.41615,0.5722 1.14442,1.82066 0.72826,1.24845 0.93634,1.6646 l 0.26009,-0.15606 q 0,-0.41615 -0.10404,-1.35249 -0.052,-0.93634 -0.052,-1.6646 v -19.71512 h 7.33465 v 35.68489 h -7.33465 l -13.78498,-19.55907 q -0.62422,-0.88432 -1.24845,-1.97671 -0.62422,-1.14441 -0.78028,-1.45653 l -0.26009,0.15606 q 0,0.36413 0.052,1.30047 0.10404,0.93634 0.10404,1.82066 v 19.71512 h -7.33465 z"
           id="path4478"
           style="fill:#688630;fill-opacity:1" /><path
           d="m 657.05852,438.25719 q -6.60638,0 -9.88357,-3.48526 -3.22516,-3.48526 -3.22516,-10.81991 0,-7.33465 3.22516,-10.81991 3.27719,-3.48526 9.88357,-3.48526 6.0862,0 9.10329,3.53728 3.01709,3.48526 3.01709,10.76789 v 1.6646 h -17.9985 q 0.10404,3.64131 1.45653,5.40995 1.35249,1.71662 4.52563,1.71662 2.23681,0 3.5893,-1.24845 1.40451,-1.24845 1.40451,-3.53728 h 7.02253 q 0,5.14987 -3.3292,7.75081 -3.3292,2.54892 -8.79118,2.54892 z m 4.73372,-17.37428 q 0,-5.67005 -4.73372,-5.67005 -2.70497,0 -4.10948,1.40451 -1.35249,1.4045 -1.6646,4.26554 z"
           id="path4480"
           style="fill:#688630;fill-opacity:1" /><path
           d="m 671.20763,410.27107 h 7.33465 l 2.96507,11.23606 q 0.31211,1.19644 0.88432,4.05747 0.5722,2.86103 0.72826,3.79737 h 0.20808 q 0.15605,-0.88432 0.62422,-3.22516 0.52019,-2.39287 1.04038,-4.57766 l 2.80901,-11.28808 h 7.33465 l 2.96507,11.3401 q 0.41615,1.56057 0.98836,4.21352 0.57221,2.65296 0.72826,3.53728 h 0.20808 q 0.15606,-0.78028 0.67624,-3.3292 0.52019,-2.60094 0.98836,-4.4216 l 2.80902,-11.3401 h 6.76244 l -8.11493,27.36189 h -7.38667 l -3.12113,-13.05672 q -0.41615,-1.61258 -0.78028,-3.53728 -0.36413,-1.92469 -0.46817,-2.4969 h -0.26009 q -0.052,0.57221 -0.36414,2.44489 -0.31211,1.87267 -0.72826,3.53727 l -3.27718,13.10874 h -7.38667 z"
           id="path4482"
           style="fill:#688630;fill-opacity:1" /><path
           d="m 726.08745,438.25719 q -5.72207,0 -8.99925,-2.34085 -3.22517,-2.39286 -3.22517,-6.34629 l 0.052,-0.62423 h 6.9185 v 0.36413 q 0.052,1.82066 1.61259,2.65296 1.61258,0.78028 3.90141,0.78028 2.13277,0 3.64131,-0.5722 1.50855,-0.57221 1.50855,-1.87268 0,-1.45653 -1.56057,-2.18479 -1.50854,-0.72826 -4.78573,-1.45653 -3.38122,-0.78028 -5.51399,-1.56056 -2.13277,-0.8323 -3.69333,-2.54892 -1.56057,-1.71662 -1.56057,-4.57765 0,-4.00545 3.3292,-6.13822 3.38123,-2.18479 8.68714,-2.18479 4.94179,0 8.16696,2.02873 3.22516,1.97672 3.22516,5.40996 l -0.052,1.19643 h -6.9185 v -0.10404 q -0.052,-1.50854 -1.30047,-2.23681 -1.24845,-0.78028 -3.38122,-0.78028 -2.13277,0 -3.38122,0.57221 -1.24845,0.5722 -1.24845,1.61258 0,1.30047 1.4045,1.9247 1.45653,0.62422 4.62968,1.24845 3.48526,0.78028 5.67005,1.56056 2.18479,0.78028 3.79737,2.54892 1.61258,1.76864 1.61258,4.78573 0,8.8432 -12.53653,8.8432 z"
           id="path4484"
           style="fill:#688630;fill-opacity:1" /><path
           d="m 744.08594,400.02337 h 7.12658 v 37.60959 h -7.12658 z"
           id="path4486"
           style="fill:#688630;fill-opacity:1" /><path
           d="m 769.83523,438.25719 q -6.60638,0 -9.88357,-3.48526 -3.22516,-3.48526 -3.22516,-10.81991 0,-7.33465 3.22516,-10.81991 3.27719,-3.48526 9.88357,-3.48526 6.0862,0 9.10329,3.53728 3.01709,3.48526 3.01709,10.76789 v 1.6646 h -17.9985 q 0.10404,3.64131 1.45653,5.40995 1.35249,1.71662 4.52563,1.71662 2.23681,0 3.5893,-1.24845 1.40451,-1.24845 1.40451,-3.53728 h 7.02253 q 0,5.14987 -3.3292,7.75081 -3.3292,2.54892 -8.79118,2.54892 z m 4.73372,-17.37428 q 0,-5.67005 -4.73372,-5.67005 -2.70497,0 -4.10948,1.40451 -1.35249,1.4045 -1.6646,4.26554 z"
           id="path4488"
           style="fill:#688630;fill-opacity:1" /><path
           d="m 794.80426,438.25719 q -3.84939,0 -5.51399,-2.08075 -1.6646,-2.08076 -1.6646,-5.2539 v -14.82536 h -3.27719 v -5.82611 h 3.43324 l 1.19644,-7.69878 h 5.77408 v 7.69878 h 4.73371 v 5.82611 h -4.73371 v 14.09709 q 0,2.23681 2.23681,2.23681 h 2.4969 v 4.99381 q -0.88432,0.31211 -2.23681,0.5722 -1.30047,0.2601 -2.44488,0.2601 z"
           id="path4490"
           style="fill:#688630;fill-opacity:1" /><path
           d="m 812.12653,438.25719 q -3.84939,0 -5.514,-2.08075 -1.6646,-2.08076 -1.6646,-5.2539 v -14.82536 h -3.27718 v -5.82611 h 3.43324 l 1.19643,-7.69878 h 5.77409 v 7.69878 h 4.73371 v 5.82611 h -4.73371 v 14.09709 q 0,2.23681 2.23681,2.23681 h 2.4969 v 4.99381 q -0.88432,0.31211 -2.23681,0.5722 -1.30047,0.2601 -2.44488,0.2601 z"
           id="path4492"
           style="fill:#688630;fill-opacity:1" /><path
           d="m 833.40222,438.25719 q -6.60639,0 -9.88357,-3.48526 -3.22517,-3.48526 -3.22517,-10.81991 0,-7.33465 3.22517,-10.81991 3.27718,-3.48526 9.88357,-3.48526 6.0862,0 9.10329,3.53728 3.01709,3.48526 3.01709,10.76789 v 1.6646 h -17.9985 q 0.10403,3.64131 1.45652,5.40995 1.35249,1.71662 4.52564,1.71662 2.23681,0 3.5893,-1.24845 1.4045,-1.24845 1.4045,-3.53728 h 7.02254 q 0,5.14987 -3.3292,7.75081 -3.32921,2.54892 -8.79118,2.54892 z m 4.73371,-17.37428 q 0,-5.67005 -4.73371,-5.67005 -2.70498,0 -4.10948,1.40451 -1.35249,1.4045 -1.66461,4.26554 z"
           id="path4494"
           style="fill:#688630;fill-opacity:1" /><path
           d="m 851.03658,410.27107 h 6.0862 l 0.57221,4.4216 h 0.36413 q 0.88432,-2.34084 2.28883,-3.69333 1.4045,-1.35249 3.69333,-1.35249 0.98836,0 1.71662,0.20807 0.78028,0.15606 0.98836,0.2601 v 6.6584 h -1.97672 q -3.48526,0 -5.04582,1.9247 -1.56056,1.87268 -1.56056,5.72207 v 13.21277 h -7.12658 z"
           id="path4496"
           style="fill:#688630;fill-opacity:1" /></g><text
         xml:space="preserve"
         id="text4474"
         style="font-style:normal;font-variant:normal;font-weight:bold;font-stretch:normal;font-size:52.0188px;font-family:Archivo;-inkscape-font-specification:'Archivo Bold';white-space:pre;shape-inside:url(#rect4476);display:none;opacity:0.989136;fill:#688630;fill-opacity:1;stroke-width:3.77953;stop-color:#000000"
         transform="matrix(1.2118111,0,0,0.96133503,-141.40384,6.3983242)"
         inkscape:label="Text (Archivo)" /></g></g>
</svg>
