<?xml version="1.0" encoding="UTF-8" standalone="no"?>
<!-- Created with Inkscape (http://www.inkscape.org/) -->

<svg
   version="1.1"
   id="svg1"
   width="1200"
   height="600"
   viewBox="0 0 1200 600"
   sodipodi:docname="xmpp_community_banner_source.svg"
   xml:space="preserve"
   inkscape:version="1.4.2 (ebf0e940d0, 2025-05-08)"
   xmlns:inkscape="http://www.inkscape.org/namespaces/inkscape"
   xmlns:sodipodi="http://sodipodi.sourceforge.net/DTD/sodipodi-0.dtd"
   xmlns="http://www.w3.org/2000/svg"
   xmlns:svg="http://www.w3.org/2000/svg"><defs
   id="defs1"><rect
     x="604.52018"
     y="390.75785"
     width="334.05478"
     height="82.000163"
     id="rect4234" /><linearGradient
     id="SVGID_right_"
     y2="1.279e-13"
     gradientUnits="userSpaceOnUse"
     x2="-1073.2"
     gradientTransform="matrix(0.26458333,0,0,0.26458333,329.99318,33.639267)"
     y1="126.85"
     x1="-1073.2"><stop
       stop-color="#1b3967"
       offset=".011"
       id="stop10527" /><stop
       stop-color="#13b5ea"
       offset=".467"
       id="stop10529" /><stop
       stop-color="#002b5c"
       offset=".9945"
       id="stop10531" /></linearGradient><linearGradient
     id="SVGID_left_"
     y2="1.279e-13"
     gradientUnits="userSpaceOnUse"
     x2="-1073.2"
     gradientTransform="matrix(-0.26458333,0,0,0.26458333,-249.81261,33.639003)"
     y1="126.85"
     x1="-1073.2"><stop
       stop-color="#1b3967"
       offset=".011"
       id="stop10534" /><stop
       stop-color="#13b5ea"
       offset=".467"
       id="stop10536" /><stop
       stop-color="#002b5c"
       offset=".9945"
       id="stop10538" /></linearGradient><rect
     x="604.52018"
     y="390.75785"
     width="415.20748"
     height="77.827686"
     id="rect4476" /><rect
     x="604.52018"
     y="390.75785"
     width="415.20748"
     height="77.827686"
     id="rect5409" /><rect
     x="604.52018"
     y="390.75785"
     width="415.20748"
     height="77.827686"
     id="rect1" /></defs><sodipodi:namedview
   id="namedview1"
   pagecolor="#ffffff"
   bordercolor="#000000"
   borderopacity="0.25"
   inkscape:showpageshadow="2"
   inkscape:pageopacity="0.0"
   inkscape:pagecheckerboard="0"
   inkscape:deskcolor="#d1d1d1"
   showgrid="false"
   inkscape:zoom="0.39390576"
   inkscape:cx="742.5634"
   inkscape:cy="231.01972"
   inkscape:window-width="1596"
   inkscape:window-height="841"
   inkscape:window-x="0"
   inkscape:window-y="0"
   inkscape:window-maximized="0"
   inkscape:current-layer="g1" /><g
   inkscape:groupmode="layer"
   inkscape:label="Image"
   id="g1"><rect
     style="fill:#ffffff;fill-opacity:1;stroke:none;stroke-width:3.77953;stroke-opacity:1"
     id="rect22"
     width="1199.3695"
     height="597.2851"
     x="0.31524658"
     y="13.978469"
     ry="0.50904977"
     inkscape:label="Background" /><g
     id="g26"
     inkscape:label="BottomBar"><rect
       style="fill:#d2702f;fill-opacity:1;stroke:none;stroke-width:3.76129;stroke-opacity:1"
       id="rect23"
       width="300"
       height="35"
       x="0.22020364"
       y="565"
       ry="0.50166357"
       inkscape:label="orange" /><rect
       style="fill:#457faf;fill-opacity:1;stroke:none;stroke-width:3.76129;stroke-opacity:1"
       id="rect24"
       width="300"
       height="35"
       x="300.18814"
       y="565"
       ry="0.50166357"
       inkscape:label="dark blue" /><rect
       style="fill:#adcc6f;fill-opacity:1;stroke:none;stroke-width:3.76129;stroke-opacity:1"
       id="rect25"
       width="300"
       height="35"
       x="600.15607"
       y="565"
       ry="0.50166357"
       inkscape:label="green" /><rect
       style="fill:#58a0d2;fill-opacity:1;stroke:none;stroke-width:3.76129;stroke-opacity:1"
       id="rect26"
       width="300"
       height="35"
       x="900.12402"
       y="565"
       ry="0.50166357"
       inkscape:label="lighter blue" /></g><g
     id="g28"
     inkscape:label="Graphics"
     transform="translate(0.83571819)"><g
       id="g1716"
       transform="matrix(1.2652006,0,0,1.2652006,322.15896,133.11367)"
       inkscape:label="XMPP logo"
       style="display:inline"><path
         d="m 151.80512,29.557978 c 0.077,1.313 -1.787,0.968 -1.787,2.293 0,38.551 -46.558,97.366012 -91.687985,108.730012 v 1.639 C 118.28313,136.69999 186.89012,74.419978 188.40012,15.369977 l -36.599,14.189001 z"
         style="fill:#447cab;fill-opacity:1"
         id="path1679"
         inkscape:label="right blue" /><path
         d="m 133.67312,34.300978 c 0.076,1.313 0.12,2.63 0.12,3.957 0,38.551 -30.69898,90.497012 -75.826985,101.860012 v 1.639 c 59.044005,-2.79 105.809995,-63.024012 105.809995,-109.200012 0,-2.375 -0.128,-4.729 -0.371,-7.056 l -29.73,8.798 z"
         style="display:inline;fill:#e96d1f"
         id="path1681"
         inkscape:label="orange" /><path
         d="m 163.69112,24.951978 -7.61699,2.722 c 0.041,0.962 0.066,2.254 0.066,3.225 0,41.219 -37.271,98.204012 -87.271995,107.120012 -3.24501,1.088 -7.53801,2.077 -10.932,2.931 v 1.638 C 123.19013,137.02799 169.03613,70.721978 163.69612,24.947978 Z"
         style="display:none;fill:#d9541e"
         id="path1683"
         inkscape:label="orange shade" /><path
         d="m 50.011,29.556978 c -0.077,1.313 1.787,0.968 1.787,2.293 0,38.551 46.558007,97.366012 91.68799,108.730012 v 1.639 C 83.533,136.69899 14.926,74.418978 13.416,15.368977 l 36.599,14.189001 z"
         style="display:inline;fill:#467ead;fill-opacity:1"
         id="path1685"
         inkscape:label="left blue" /><path
         d="m 68.143,34.299978 c -0.076,1.313 -0.12,2.63 -0.12,3.957 0,38.551 30.698995,90.497012 75.82699,101.860012 v 1.639 C 84.806,138.96599 38.04,78.731978 38.04,32.555978 c 0,-2.375 0.128,-4.729 0.371,-7.056 l 29.73,8.798 z"
         style="display:inline;fill:#a0ce67"
         id="path1687"
         inkscape:label="green" /><path
         d="m 38.125,24.950978 7.617,2.722 c -0.041,0.962 -0.066,2.254 -0.066,3.225 0,41.219 37.271,98.204012 87.27199,107.120012 3.245,1.088 7.538,2.077 10.932,2.931 v 1.638 C 78.626,137.02699 32.78,70.720978 38.12,24.946978 Z"
         style="display:none;fill:#439639"
         id="path1689"
         inkscape:label="green shade" /></g><g
       id="g4"
       inkscape:label="Community"
       transform="matrix(0.95635361,0,0,0.95635361,34.111568,8.8680665)"><g
         id="g6"
         inkscape:label="person"
         transform="matrix(0.8,0,0,0.8,144.0761,184.22875)"
         style="fill:#d2702f;fill-opacity:1"><g
           id="g7"
           transform="matrix(0.7,0,0,0.7,211.19496,36.828337)"><path
             id="path5"
             style="fill:#d2702f;fill-opacity:1;fill-rule:evenodd;stroke-width:5.80536;stroke-linecap:round"
             d="m 684.74676,129.16877 c 0,0 11.97236,-9.216 19.23641,-9.216 7.26405,0 19.23642,9.216 19.23642,9.216 0.0638,0.0339 0.13736,0.029 0.18446,0.0762 0.0471,0.0471 0.0762,0.11227 0.0762,0.18447 v 23.87283 c 0,0.14438 -0.11624,0.26063 -0.26063,0.26063 h -38.47283 c -0.14439,0 -0.26063,-0.11625 -0.26063,-0.26063 V 129.4294 c 0,-0.0722 0.029,-0.13736 0.0762,-0.18447 0.0471,-0.0471 0.11227,-0.0762 0.18446,-0.0762 z"
             sodipodi:nodetypes="szsssssssssss" /><ellipse
             style="fill:#d2702f;fill-opacity:1;fill-rule:evenodd;stroke:none;stroke-width:9.07088;stroke-linecap:round;stroke-opacity:1"
             id="ellipse5"
             cx="704.33728"
             cy="105.16048"
             rx="14.724335"
             ry="13.201128" /></g><ellipse
           style="fill:none;fill-opacity:1;fill-rule:evenodd;stroke:#58a0d2;stroke-width:9.07088;stroke-linecap:round;stroke-opacity:1"
           id="path6"
           cx="703.32184"
           cy="126.48538"
           rx="41.126587"
           ry="41.634327" /></g><g
         id="g8"
         inkscape:label="person"
         transform="matrix(0.8,0,0,0.8,263.55248,184.26705)"
         style="fill:#d2702f;fill-opacity:1"><g
           id="g5"
           transform="matrix(0.7,0,0,0.7,211.19496,36.828337)"><path
             id="path7"
             style="fill:#adcc6f;fill-opacity:1;fill-rule:evenodd;stroke-width:5.80536;stroke-linecap:round"
             d="m 684.74676,129.16877 c 0,0 11.97236,-9.216 19.23641,-9.216 7.26405,0 19.23642,9.216 19.23642,9.216 0.0638,0.0339 0.13736,0.029 0.18446,0.0762 0.0471,0.0471 0.0762,0.11227 0.0762,0.18447 v 23.87283 c 0,0.14438 -0.11624,0.26063 -0.26063,0.26063 h -38.47283 c -0.14439,0 -0.26063,-0.11625 -0.26063,-0.26063 V 129.4294 c 0,-0.0722 0.029,-0.13736 0.0762,-0.18447 0.0471,-0.0471 0.11227,-0.0762 0.18446,-0.0762 z"
             sodipodi:nodetypes="szsssssssssss" /><ellipse
             style="fill:#adcc6f;fill-opacity:1;fill-rule:evenodd;stroke:none;stroke-width:9.07088;stroke-linecap:round;stroke-opacity:1"
             id="ellipse7"
             cx="704.33728"
             cy="105.16048"
             rx="14.724335"
             ry="13.201128" /></g><ellipse
           style="fill:none;fill-opacity:1;fill-rule:evenodd;stroke:#58a0d2;stroke-width:9.07088;stroke-linecap:round;stroke-opacity:1"
           id="ellipse8"
           cx="703.32184"
           cy="126.48538"
           rx="41.126587"
           ry="41.634327" /></g><g
         id="g10"
         inkscape:label="person"
         transform="matrix(0.8,0,0,0.8,203.64916,81.669371)"
         style="fill:#d2702f;fill-opacity:1"><g
           id="g3"
           transform="matrix(0.7,0,0,0.7,211.19496,36.828337)"><path
             id="path8"
             style="fill:#457faf;fill-opacity:1;fill-rule:evenodd;stroke-width:5.80536;stroke-linecap:round"
             d="m 684.74676,129.16877 c 0,0 11.97236,-9.216 19.23641,-9.216 7.26405,0 19.23642,9.216 19.23642,9.216 0.0638,0.0339 0.13736,0.029 0.18446,0.0762 0.0471,0.0471 0.0762,0.11227 0.0762,0.18447 v 23.87283 c 0,0.14438 -0.11624,0.26063 -0.26063,0.26063 h -38.47283 c -0.14439,0 -0.26063,-0.11625 -0.26063,-0.26063 V 129.4294 c 0,-0.0722 0.029,-0.13736 0.0762,-0.18447 0.0471,-0.0471 0.11227,-0.0762 0.18446,-0.0762 z"
             sodipodi:nodetypes="szsssssssssss" /><ellipse
             style="fill:#457faf;fill-opacity:1;fill-rule:evenodd;stroke:none;stroke-width:9.07088;stroke-linecap:round;stroke-opacity:1"
             id="ellipse9"
             cx="704.33728"
             cy="105.16048"
             rx="14.724335"
             ry="13.201128" /></g><ellipse
           style="fill:none;fill-opacity:1;fill-rule:evenodd;stroke:#58a0d2;stroke-width:9.07088;stroke-linecap:round;stroke-opacity:1"
           id="ellipse10"
           cx="703.32184"
           cy="126.48538"
           rx="41.126587"
           ry="41.634327" /></g><path
         style="fill:#58a0d2;fill-opacity:1;fill-rule:evenodd;stroke:#58a0d2;stroke-width:7.257;stroke-linecap:round;stroke-dasharray:none;stroke-opacity:1"
         d="m 739.63484,285.41706 53.67384,0.0383"
         id="path10"
         sodipodi:nodetypes="cc" /><path
         style="fill:#58a0d2;fill-opacity:1;fill-rule:evenodd;stroke:#58a0d2;stroke-width:7.257;stroke-linecap:round;stroke-dasharray:none;stroke-opacity:1"
         d="M 811.29567,254.13478 787.2032,212.37449"
         id="path11"
         sodipodi:nodetypes="cc" /><path
         style="fill:#58a0d2;fill-opacity:1;fill-rule:evenodd;stroke:#58a0d2;stroke-width:7.257;stroke-linecap:round;stroke-dasharray:none;stroke-opacity:1"
         d="m 721.84142,255.63247 24.661,-42.6825"
         id="path12"
         sodipodi:nodetypes="cc" /></g></g><g
     id="g2"
     inkscape:label="Text"
     transform="translate(59.196764)"
     style="fill:#58a0d2;fill-opacity:1"><g
       id="g1722"
       inkscape:label="XMPP text"
       style="display:inline;fill:#58a0d2;fill-opacity:1"
       transform="matrix(1.2652006,0,0,1.2652006,226.15896,194.12118)"><path
         d="m 25.988,172.07799 -13.388,-14.65 h 11.643 l 9.127,10.268 9.129,-10.268 h 11.643 l -13.387,14.646 14.401,14.728 h -12.09 l -9.697,-10.67 -9.693,10.67 H 11.584 l 14.404,-14.73 z"
         id="path1691"
         style="fill:#58a0d2;fill-opacity:1"
         inkscape:label="X" /><path
         d="m 58.508,157.42799 h 13.836 l 10.183,18.905 10.183,-18.905 h 13.83199 v 29.374 h -8.761983 v -21.096 h -0.08 L 85.893,186.80199 H 79.16 l -11.807,-21.096 h -0.082 v 21.096 h -8.764 v -29.37 z"
         id="path1693"
         style="fill:#58a0d2;fill-opacity:1"
         inkscape:label="M" /><path
         d="m 112.66199,157.42799 h 24.546 c 8.559,0 10.628,4.302 10.628,10.063 v 2.516 c 0,4.381 -1.908,9.41 -8.275,9.41 h -17.894 v 7.385 h -9.005 v -29.38 z m 9,14.69 h 13.997 c 2.10901,0 2.92401,-1.377 2.92401,-3.123 v -1.135 c 0,-1.99 -0.976,-3.127 -3.694,-3.127 h -13.227 v 7.38 z"
         id="path1695"
         style="fill:#58a0d2;fill-opacity:1"
         inkscape:label="P the first" /><path
         d="m 152.72199,157.42799 h 24.546 c 8.561,0 10.63,4.302 10.63,10.063 v 2.516 c 0,4.381 -1.907,9.41 -8.275,9.41 h -17.893 v 7.385 h -9.008 v -29.38 z m 9.01,14.69 h 13.996 c 2.11,0 2.922,-1.377 2.922,-3.123 v -1.135 c 0,-1.99 -0.974,-3.127 -3.693,-3.127 h -13.225 v 7.38 z"
         id="path1697"
         style="fill:#58a0d2;fill-opacity:1"
         inkscape:label="P the second" /></g><g
       id="g4360"
       inkscape:label="Community"
       style="fill:#58a0d2;fill-opacity:1"
       transform="translate(6)"><text
         xml:space="preserve"
         id="text1"
         style="font-style:normal;font-variant:normal;font-weight:bold;font-stretch:normal;font-size:52.0188px;font-family:Archivo;-inkscape-font-specification:'Archivo Bold';white-space:pre;shape-inside:url(#rect1);display:none;opacity:0.989136;fill:#58a0d2;fill-opacity:1;stroke-width:3.77953;stop-color:#000000"
         transform="matrix(1.2118111,0,0,0.96133503,-243.40384,6.3983242)"
         inkscape:label="Text (Archivo)"><tspan
           x="604.51953"
           y="439.23857"
           id="tspan2">Community</tspan></text><path
         d="m 624.44273,439.86279 q -5.56601,0 -9.51944,-1.92469 -3.95343,-1.97672 -6.03418,-6.0862 -2.02873,-4.10949 -2.02873,-10.45578 0,-9.36338 4.57765,-13.88902 4.62967,-4.57765 13.0047,-4.57765 4.57766,0 8.21897,1.56056 3.64132,1.56056 5.72207,4.68169 2.13277,3.12113 2.13277,7.85484 h -7.80282 q 0,-2.4969 -1.04038,-4.21352 -0.98835,-1.71662 -2.86103,-2.60094 -1.82066,-0.93634 -4.26554,-0.93634 -3.3292,0 -5.51399,1.30047 -2.13277,1.30047 -3.17315,3.84939 -0.98836,2.4969 -0.98836,6.13822 v 1.61258 q 0,3.74536 1.04038,6.29428 1.04037,2.4969 3.12113,3.79737 2.13277,1.24845 5.46197,1.24845 2.60094,0 4.52564,-0.88432 1.92469,-0.88432 2.96507,-2.60094 1.04037,-1.71662 1.04037,-4.21352 h 7.49071 q 0,4.73371 -2.08075,7.85484 -2.02874,3.12112 -5.67005,4.68169 -3.64132,1.50854 -8.32301,1.50854 z m 34.12432,0 q -4.47361,0 -7.59474,-1.50854 -3.12113,-1.56057 -4.73371,-4.73371 -1.61259,-3.22517 -1.61259,-8.06292 0,-4.94178 1.61259,-8.06291 1.61258,-3.17315 4.73371,-4.68169 3.12113,-1.56057 7.59474,-1.56057 4.57766,0 7.64677,1.56057 3.12112,1.50854 4.73371,4.68169 1.61258,3.12113 1.61258,8.06291 0,4.83775 -1.61258,8.06292 -1.61259,3.17314 -4.73371,4.73371 -3.06911,1.50854 -7.64677,1.50854 z m 0,-5.61803 q 2.39287,0 3.79737,-0.88432 1.45653,-0.88432 2.13278,-2.70497 0.67624,-1.82066 0.67624,-4.47362 v -1.24845 q 0,-2.65296 -0.67624,-4.47362 -0.67625,-1.82066 -2.13278,-2.70498 -1.4045,-0.93633 -3.79737,-0.93633 -2.34084,0 -3.79737,0.93633 -1.40451,0.88432 -2.08075,2.70498 -0.67625,1.82066 -0.67625,4.47362 v 1.24845 q 0,2.65296 0.67625,4.47362 0.67624,1.82065 2.08075,2.70497 1.45653,0.88432 3.79737,0.88432 z m 19.29902,4.99381 v -27.36189 h 5.98216 l 0.57221,3.74535 h 0.36413 q 0.88432,-1.35249 2.08075,-2.34084 1.24845,-0.98836 2.757,-1.50855 1.56056,-0.52019 3.3292,-0.52019 2.60094,0 4.47362,1.04038 1.92469,1.04038 2.96507,3.3292 h 0.36413 q 0.88432,-1.35249 2.13277,-2.34084 1.24845,-0.98836 2.86103,-1.50855 1.61259,-0.52019 3.43325,-0.52019 2.60094,0 4.47361,0.93634 1.9247,0.93634 3.01709,3.06911 1.0924,2.08075 1.0924,5.40996 v 18.57071 h -7.23062 v -17.27024 q 0,-1.30047 -0.31211,-2.18479 -0.26009,-0.93634 -0.78028,-1.45653 -0.52019,-0.57221 -1.30047,-0.8323 -0.78028,-0.26009 -1.6646,-0.26009 -1.45653,0 -2.60094,0.78028 -1.14442,0.78028 -1.82066,2.13277 -0.62423,1.35249 -0.62423,3.12113 v 15.96977 h -7.23061 v -17.27024 q 0,-1.30047 -0.31211,-2.18479 -0.2601,-0.93634 -0.78028,-1.45653 -0.52019,-0.57221 -1.30047,-0.8323 -0.72827,-0.26009 -1.66461,-0.26009 -1.4045,0 -2.60094,0.78028 -1.14441,0.78028 -1.82065,2.13277 -0.62423,1.35249 -0.62423,3.12113 v 15.96977 z m 46.34879,0 v -27.36189 h 5.98216 l 0.57221,3.74535 h 0.36413 q 0.88432,-1.35249 2.08075,-2.34084 1.24845,-0.98836 2.757,-1.50855 1.56056,-0.52019 3.3292,-0.52019 2.60094,0 4.47362,1.04038 1.9247,1.04038 2.96507,3.3292 h 0.36413 q 0.88432,-1.35249 2.13277,-2.34084 1.24845,-0.98836 2.86104,-1.50855 1.61258,-0.52019 3.43324,-0.52019 2.60094,0 4.47361,0.93634 1.9247,0.93634 3.0171,3.06911 1.09239,2.08075 1.09239,5.40996 v 18.57071 h -7.23061 v -17.27024 q 0,-1.30047 -0.31212,-2.18479 -0.26009,-0.93634 -0.78028,-1.45653 -0.52019,-0.57221 -1.30047,-0.8323 -0.78028,-0.26009 -1.6646,-0.26009 -1.45653,0 -2.60094,0.78028 -1.14441,0.78028 -1.82066,2.13277 -0.62422,1.35249 -0.62422,3.12113 v 15.96977 h -7.23062 v -17.27024 q 0,-1.30047 -0.31211,-2.18479 -0.26009,-0.93634 -0.78028,-1.45653 -0.52019,-0.57221 -1.30047,-0.8323 -0.72826,-0.26009 -1.6646,-0.26009 -1.40451,0 -2.60094,0.78028 -1.14442,0.78028 -1.82066,2.13277 -0.62423,1.35249 -0.62423,3.12113 v 15.96977 z m 55.19199,0.62422 q -4.1615,0 -6.60639,-2.28882 -2.44488,-2.28883 -2.44488,-7.38667 v -18.31062 h 7.23061 v 17.11418 q 0,1.35249 0.31212,2.28883 0.31211,0.88432 0.88431,1.45653 0.62423,0.5722 1.50855,0.8323 0.88432,0.26009 1.97671,0.26009 1.61259,0 2.91306,-0.78028 1.30047,-0.78028 2.02873,-2.13277 0.72826,-1.40451 0.72826,-3.12113 v -15.91775 h 7.23062 v 27.36189 h -5.93015 l -0.52018,-3.74536 h -0.36414 q -0.98835,1.30047 -2.34084,2.28883 -1.30047,0.98836 -2.96507,1.50855 -1.66461,0.5722 -3.64132,0.5722 z m 22.42009,-0.62422 v -27.36189 h 5.98217 l 0.5722,3.74535 h 0.36414 q 0.93633,-1.35249 2.2368,-2.34084 1.35249,-0.98836 3.01709,-1.50855 1.66461,-0.52019 3.64132,-0.52019 2.70498,0 4.73371,0.98836 2.02873,0.98836 3.12113,3.12113 1.14441,2.13277 1.14441,5.56601 v 18.31062 h -7.23061 v -17.16621 q 0,-1.30047 -0.31211,-2.18479 -0.31212,-0.93633 -0.93634,-1.50854 -0.57221,-0.62423 -1.45653,-0.88432 -0.88432,-0.26009 -1.97671,-0.26009 -1.61259,0 -2.91306,0.78028 -1.30047,0.78028 -2.02873,2.13277 -0.72826,1.35249 -0.72826,3.12113 v 15.96977 z m 31.31528,-31.36734 v -6.24225 h 7.23061 v 6.24225 z m 0,31.36734 v -27.36189 h 7.23061 v 27.36189 z m 22.05598,0.62422 q -2.60094,0 -4.21353,-0.93633 -1.61258,-0.93634 -2.34084,-2.49691 -0.72827,-1.61258 -0.72827,-3.53728 v -15.44958 h -3.38122 v -5.56601 h 3.64132 l 1.35249,-7.80282 h 5.61803 v 7.80282 h 4.9938 v 5.56601 h -4.9938 v 14.25315 q 0,1.24845 0.5722,1.9247 0.57221,0.62422 1.87268,0.62422 h 2.54892 v 4.78573 q -0.62422,0.20808 -1.45652,0.36413 -0.83231,0.20808 -1.76864,0.31212 -0.93634,0.15605 -1.71662,0.15605 z m 13.57696,9.15531 q -1.9247,0 -3.22517,-0.31211 -1.24845,-0.26009 -1.61258,-0.36413 v -4.88977 h 3.17314 q 1.30047,0 2.34085,-0.62422 1.04038,-0.57221 1.82066,-1.56057 0.78028,-0.93634 1.14441,-2.02873 L 861.7006,411.87668 h 7.64676 l 4.68169,12.64057 q 0.31212,0.88432 0.67625,2.23681 0.41615,1.30047 0.8323,2.75699 0.41615,1.40451 0.67624,2.4969 h 0.2601 q 0.20807,-0.72826 0.46817,-1.71662 0.26009,-0.98835 0.52018,-2.02873 0.31212,-1.04037 0.57221,-1.97671 0.31211,-0.98836 0.52019,-1.71662 l 3.90141,-12.69259 h 7.28263 l -9.31136,26.06142 q -0.78029,2.28883 -1.82066,4.26554 -0.98836,2.02873 -2.34085,3.53728 -1.35249,1.56056 -3.22516,2.39286 -1.82066,0.88432 -4.26554,0.88432 z"
         id="text5407"
         style="font-weight:bold;font-size:52.0188px;font-family:Archivo;-inkscape-font-specification:'Archivo Bold';white-space:pre;opacity:0.97839;fill:#58a0d2;fill-opacity:1;stroke-width:3.77953"
         inkscape:label="Text (Archivo)"
         transform="matrix(1.2118111,0,0,0.96133503,-243.40384,6.3983242)"
         aria-label="Community" /></g></g></g>
</svg>
