<?xml version="1.0" encoding="UTF-8" standalone="no"?>
<!-- Created with Inkscape (http://www.inkscape.org/) -->

<svg
   version="1.1"
   id="svg1"
   width="1200"
   height="600"
   viewBox="0 0 1200 600"
   sodipodi:docname="xmpp_announcements_banner_source.svg"
   xml:space="preserve"
   inkscape:version="1.4 (e7c3feb100, 2024-10-09)"
   xmlns:inkscape="http://www.inkscape.org/namespaces/inkscape"
   xmlns:sodipodi="http://sodipodi.sourceforge.net/DTD/sodipodi-0.dtd"
   xmlns="http://www.w3.org/2000/svg"
   xmlns:svg="http://www.w3.org/2000/svg"><defs
   id="defs1"><rect
     x="604.52018"
     y="390.75785"
     width="334.05478"
     height="82.000163"
     id="rect4234" /><linearGradient
     id="SVGID_right_"
     y2="1.279e-13"
     gradientUnits="userSpaceOnUse"
     x2="-1073.2"
     gradientTransform="matrix(0.26458333,0,0,0.26458333,329.99318,33.639267)"
     y1="126.85"
     x1="-1073.2"><stop
       stop-color="#1b3967"
       offset=".011"
       id="stop10527" /><stop
       stop-color="#13b5ea"
       offset=".467"
       id="stop10529" /><stop
       stop-color="#002b5c"
       offset=".9945"
       id="stop10531" /></linearGradient><linearGradient
     id="SVGID_left_"
     y2="1.279e-13"
     gradientUnits="userSpaceOnUse"
     x2="-1073.2"
     gradientTransform="matrix(-0.26458333,0,0,0.26458333,-249.81261,33.639003)"
     y1="126.85"
     x1="-1073.2"><stop
       stop-color="#1b3967"
       offset=".011"
       id="stop10534" /><stop
       stop-color="#13b5ea"
       offset=".467"
       id="stop10536" /><stop
       stop-color="#002b5c"
       offset=".9945"
       id="stop10538" /></linearGradient><rect
     x="604.52018"
     y="390.75785"
     width="415.20748"
     height="77.827686"
     id="rect4476" /><rect
     x="604.52018"
     y="390.75785"
     width="415.20748"
     height="77.827686"
     id="rect5409" /></defs><sodipodi:namedview
   id="namedview1"
   pagecolor="#ffffff"
   bordercolor="#000000"
   borderopacity="0.25"
   inkscape:showpageshadow="2"
   inkscape:pageopacity="0.0"
   inkscape:pagecheckerboard="0"
   inkscape:deskcolor="#d1d1d1"
   showgrid="false"
   inkscape:zoom="0.39390576"
   inkscape:cx="552.16253"
   inkscape:cy="383.34042"
   inkscape:window-width="1596"
   inkscape:window-height="841"
   inkscape:window-x="0"
   inkscape:window-y="0"
   inkscape:window-maximized="0"
   inkscape:current-layer="g4360" /><g
   inkscape:groupmode="layer"
   inkscape:label="Image"
   id="g1"><rect
     style="fill:#ffffff;fill-opacity:1;stroke:none;stroke-width:3.77953;stroke-opacity:1"
     id="rect22"
     width="1199.3695"
     height="597.2851"
     x="0.31524658"
     y="1.9197469"
     ry="0.50904977"
     inkscape:label="Background" /><g
     id="g26"
     inkscape:label="BottomBar"><rect
       style="fill:#d2702f;fill-opacity:1;stroke:none;stroke-width:3.76129;stroke-opacity:1"
       id="rect23"
       width="300"
       height="35"
       x="0.22020364"
       y="565"
       ry="0.50166357"
       inkscape:label="orange" /><rect
       style="fill:#457faf;fill-opacity:1;stroke:none;stroke-width:3.76129;stroke-opacity:1"
       id="rect24"
       width="300"
       height="35"
       x="300.18814"
       y="565"
       ry="0.50166357"
       inkscape:label="dark blue" /><rect
       style="fill:#adcc6f;fill-opacity:1;stroke:none;stroke-width:3.76129;stroke-opacity:1"
       id="rect25"
       width="300"
       height="35"
       x="600.15607"
       y="565"
       ry="0.50166357"
       inkscape:label="green" /><rect
       style="fill:#58a0d2;fill-opacity:1;stroke:none;stroke-width:3.76129;stroke-opacity:1"
       id="rect26"
       width="300"
       height="35"
       x="900.12402"
       y="565"
       ry="0.50166357"
       inkscape:label="lighter blue" /></g><g
     id="g1722"
     inkscape:label="XMPP text"
     style="display:inline;fill:#02ab89;fill-opacity:1"
     transform="matrix(1.2652006,0,0,1.2652006,226.15896,194.12118)"><path
       d="m 25.988,172.07799 -13.388,-14.65 h 11.643 l 9.127,10.268 9.129,-10.268 h 11.643 l -13.387,14.646 14.401,14.728 h -12.09 l -9.697,-10.67 -9.693,10.67 H 11.584 l 14.404,-14.73 z"
       id="path1691"
       style="fill:#02ab89;fill-opacity:1"
       inkscape:label="X" /><path
       d="m 58.508,157.42799 h 13.836 l 10.183,18.905 10.183,-18.905 h 13.83199 v 29.374 h -8.761983 v -21.096 h -0.08 L 85.893,186.80199 H 79.16 l -11.807,-21.096 h -0.082 v 21.096 h -8.764 v -29.37 z"
       id="path1693"
       style="fill:#02ab89;fill-opacity:1"
       inkscape:label="M" /><path
       d="m 112.66199,157.42799 h 24.546 c 8.559,0 10.628,4.302 10.628,10.063 v 2.516 c 0,4.381 -1.908,9.41 -8.275,9.41 h -17.894 v 7.385 h -9.005 v -29.38 z m 9,14.69 h 13.997 c 2.10901,0 2.92401,-1.377 2.92401,-3.123 v -1.135 c 0,-1.99 -0.976,-3.127 -3.694,-3.127 h -13.227 v 7.38 z"
       id="path1695"
       style="fill:#02ab89;fill-opacity:1"
       inkscape:label="P the first" /><path
       d="m 152.72199,157.42799 h 24.546 c 8.561,0 10.63,4.302 10.63,10.063 v 2.516 c 0,4.381 -1.907,9.41 -8.275,9.41 h -17.893 v 7.385 h -9.008 v -29.38 z m 9.01,14.69 h 13.996 c 2.11,0 2.922,-1.377 2.922,-3.123 v -1.135 c 0,-1.99 -0.974,-3.127 -3.693,-3.127 h -13.225 v 7.38 z"
       id="path1697"
       style="fill:#02ab89;fill-opacity:1"
       inkscape:label="P the second" /></g><g
     id="g28"
     inkscape:label="Graphics"><g
       id="g1716"
       transform="matrix(1.2652006,0,0,1.2652006,322.15896,132.12118)"
       inkscape:label="XMPP logo"
       style="display:inline"><path
         d="m 151.80512,29.557978 c 0.077,1.313 -1.787,0.968 -1.787,2.293 0,38.551 -46.558,97.366012 -91.687985,108.730012 v 1.639 C 118.28313,136.69999 186.89012,74.419978 188.40012,15.369977 l -36.599,14.189001 z"
         style="fill:#447cab;fill-opacity:1"
         id="path1679"
         inkscape:label="right blue" /><path
         d="m 133.67312,34.300978 c 0.076,1.313 0.12,2.63 0.12,3.957 0,38.551 -30.69898,90.497012 -75.826985,101.860012 v 1.639 c 59.044005,-2.79 105.809995,-63.024012 105.809995,-109.200012 0,-2.375 -0.128,-4.729 -0.371,-7.056 l -29.73,8.798 z"
         style="display:inline;fill:#e96d1f"
         id="path1681"
         inkscape:label="orange" /><path
         d="m 163.69112,24.951978 -7.61699,2.722 c 0.041,0.962 0.066,2.254 0.066,3.225 0,41.219 -37.271,98.204012 -87.271995,107.120012 -3.24501,1.088 -7.53801,2.077 -10.932,2.931 v 1.638 C 123.19013,137.02799 169.03613,70.721978 163.69612,24.947978 Z"
         style="display:none;fill:#d9541e"
         id="path1683"
         inkscape:label="orange shade" /><path
         d="m 50.011,29.556978 c -0.077,1.313 1.787,0.968 1.787,2.293 0,38.551 46.558007,97.366012 91.68799,108.730012 v 1.639 C 83.533,136.69899 14.926,74.418978 13.416,15.368977 l 36.599,14.189001 z"
         style="display:inline;fill:#467ead;fill-opacity:1"
         id="path1685"
         inkscape:label="left blue" /><path
         d="m 68.143,34.299978 c -0.076,1.313 -0.12,2.63 -0.12,3.957 0,38.551 30.698995,90.497012 75.82699,101.860012 v 1.639 C 84.806,138.96599 38.04,78.731978 38.04,32.555978 c 0,-2.375 0.128,-4.729 0.371,-7.056 l 29.73,8.798 z"
         style="display:inline;fill:#a0ce67"
         id="path1687"
         inkscape:label="green" /><path
         d="m 38.125,24.950978 7.617,2.722 c -0.041,0.962 -0.066,2.254 -0.066,3.225 0,41.219 37.271,98.204012 87.27199,107.120012 3.245,1.088 7.538,2.077 10.932,2.931 v 1.638 C 78.626,137.02699 32.78,70.720978 38.12,24.946978 Z"
         style="display:none;fill:#439639"
         id="path1689"
         inkscape:label="green shade" /></g><g
       id="g4857"
       transform="matrix(1.1457433,-0.52811828,0.41860966,0.90816626,-240.71918,445.01168)"
       style="fill:#00aa88;fill-opacity:1"><path
         id="rect4862"
         style="opacity:0.989136;fill:#00aa88;fill-opacity:1;stroke-width:3.77953;stop-color:#000000"
         d="m 704.39735,188.81148 c -4.3399,-4e-5 -12.58962,1.35895 -12.58962,16.31605 v 69.16252 c 0,15.45875 8.25546,16.31953 12.58962,16.31606 l 59.97893,-0.048 0.13272,-101.74603 z"
         sodipodi:nodetypes="ssssccs" /><path
         id="rect4867"
         style="opacity:0.989136;fill:#00aa88;fill-opacity:1;stroke-width:3.77953;stop-color:#000000"
         d="M 769.90639,188.81148 872.22948,129.066 V 350.35158 L 769.90639,290.60611 c -0.24354,-0.1422 -0.50905,-0.22704 -0.50905,-0.50905 V 189.32053 c 0,-0.28202 0.22704,-0.50975 0.50905,-0.50905 z"
         sodipodi:nodetypes="sccssss" /></g></g><g
     id="g4360"
     inkscape:label="Announcements"
     style="fill:#02ab89;fill-opacity:1"
     transform="translate(6)"><g
       aria-label="Announcements"
       transform="matrix(1.2118111,0,0,0.96133503,-243.40384,6.3983242)"
       id="text4474"
       style="font-weight:bold;font-size:52.0188px;font-family:Archivo;-inkscape-font-specification:'Archivo Bold';white-space:pre;opacity:0.989136;stroke-width:3.77953;fill:#02ab89;fill-opacity:1"
       inkscape:label="Text (stroked)"><path
         d="m 618.56461,401.94807 h 9.46742 l 13.94104,35.68489 h -8.21897 l -2.54892,-6.81446 h -16.22987 l -2.54892,6.81446 h -7.80282 z m 10.2477,22.57615 -3.38122,-9.05127 q -0.41615,-1.09239 -1.19643,-3.64131 -0.78029,-2.54892 -1.04038,-3.38122 h -0.26009 q -0.2601,0.8323 -1.04038,3.38122 -0.78028,2.54892 -1.19643,3.64131 l -3.38122,9.05127 z"
         id="path5411"
         style="fill:#02ab89;fill-opacity:1" /><path
         d="m 645.77045,410.27107 h 6.08619 l 0.52019,3.5893 h 0.36413 q 3.32921,-4.21352 8.53109,-4.21352 4.21352,0 6.60638,2.28882 2.44489,2.28883 2.44489,7.33466 v 18.36263 h -7.12658 v -16.85409 q 0,-2.54892 -1.19643,-3.69333 -1.19643,-1.14442 -3.53728,-1.14442 -2.39286,0 -4.00545,1.71662 -1.56056,1.6646 -1.56056,4.16151 v 15.81371 h -7.12657 z"
         id="path5413"
         style="fill:#02ab89;fill-opacity:1" /><path
         d="m 677.55393,410.27107 h 6.0862 l 0.52019,3.5893 h 0.36413 q 3.3292,-4.21352 8.53108,-4.21352 4.21353,0 6.60639,2.28882 2.44488,2.28883 2.44488,7.33466 v 18.36263 h -7.12657 v -16.85409 q 0,-2.54892 -1.19643,-3.69333 -1.19644,-1.14442 -3.53728,-1.14442 -2.39287,0 -4.00545,1.71662 -1.56056,1.6646 -1.56056,4.16151 v 15.81371 h -7.12658 z"
         id="path5415"
         style="fill:#02ab89;fill-opacity:1" /><path
         d="m 721.50982,438.25719 q -7.02254,0 -10.45578,-3.48526 -3.43324,-3.48526 -3.43324,-10.81991 0,-7.33465 3.43324,-10.81991 3.43324,-3.48526 10.45578,-3.48526 7.02254,0 10.45578,3.48526 3.48526,3.48526 3.48526,10.81991 0,7.33465 -3.48526,10.81991 -3.43324,3.48526 -10.45578,3.48526 z m 0,-5.82611 q 3.48526,0 5.04583,-1.97671 1.56056,-2.02874 1.56056,-6.0862 v -0.8323 q 0,-4.05747 -1.56056,-6.03418 -1.56057,-2.02874 -5.04583,-2.02874 -3.48526,0 -5.04582,2.02874 -1.50855,1.97671 -1.50855,6.03418 v 0.8323 q 0,4.05746 1.50855,6.0862 1.56056,1.97671 5.04582,1.97671 z"
         id="path5417"
         style="fill:#02ab89;fill-opacity:1" /><path
         d="m 750.01613,438.25719 q -4.21352,0 -6.65841,-2.28883 -2.39286,-2.28883 -2.39286,-7.33465 v -18.36264 h 7.12658 v 16.85409 q 0,2.54893 1.19643,3.69334 1.19643,1.14441 3.53728,1.14441 2.39286,0 3.95342,-1.6646 1.61259,-1.71662 1.61259,-4.21352 v -15.81372 h 7.12657 v 27.36189 h -6.0862 l -0.52018,-3.5893 h -0.36414 q -3.3292,4.21353 -8.53108,4.21353 z"
         id="path5419"
         style="fill:#02ab89;fill-opacity:1" /><path
         d="m 772.90439,410.27107 h 6.0862 l 0.52019,3.5893 h 0.36413 q 3.32921,-4.21352 8.53109,-4.21352 4.21352,0 6.60638,2.28882 2.44489,2.28883 2.44489,7.33466 v 18.36263 h -7.12658 v -16.85409 q 0,-2.54892 -1.19643,-3.69333 -1.19643,-1.14442 -3.53728,-1.14442 -2.39286,0 -4.00545,1.71662 -1.56056,1.6646 -1.56056,4.16151 v 15.81371 h -7.12658 z"
         id="path5421"
         style="fill:#02ab89;fill-opacity:1" /><path
         d="m 816.02799,438.25719 q -6.55437,0 -9.83156,-3.48526 -3.22516,-3.48526 -3.22516,-10.81991 0,-7.28263 3.22516,-10.76789 3.27719,-3.53728 9.83156,-3.53728 5.46197,0 8.68713,2.80901 3.27719,2.757 3.27719,8.11494 h -7.1786 q 0,-2.49691 -1.30047,-3.8494 -1.30046,-1.35248 -3.64131,-1.35248 -2.91305,0 -4.31756,2.08075 -1.35249,2.02873 -1.35249,6.0862 v 0.8323 q 0,4.05746 1.40451,6.13822 1.45652,2.02873 4.62967,2.02873 2.23681,0 3.53728,-1.35249 1.35249,-1.40451 1.35249,-3.84939 h 6.86648 q 0,5.35794 -3.22517,8.16695 -3.22516,2.757 -8.73915,2.757 z"
         id="path5423"
         style="fill:#02ab89;fill-opacity:1" /><path
         d="m 844.89841,438.25719 q -6.60639,0 -9.88358,-3.48526 -3.22516,-3.48526 -3.22516,-10.81991 0,-7.33465 3.22516,-10.81991 3.27719,-3.48526 9.88358,-3.48526 6.0862,0 9.10329,3.53728 3.01709,3.48526 3.01709,10.76789 v 1.6646 h -17.99851 q 0.10404,3.64131 1.45653,5.40995 1.35249,1.71662 4.52563,1.71662 2.23681,0 3.5893,-1.24845 1.40451,-1.24845 1.40451,-3.53728 h 7.02254 q 0,5.14987 -3.32921,7.75081 -3.3292,2.54892 -8.79117,2.54892 z m 4.73371,-17.37428 q 0,-5.67005 -4.73371,-5.67005 -2.70498,0 -4.10949,1.40451 -1.35249,1.4045 -1.6646,4.26554 z"
         id="path5425"
         style="fill:#02ab89;fill-opacity:1" /><path
         d="m 862.53277,410.27107 h 6.0862 l 0.52018,3.5893 h 0.36414 q 3.01709,-4.21352 7.80282,-4.21352 5.20188,0 7.17859,4.21352 h 0.41615 q 3.12113,-4.21352 8.11493,-4.21352 3.90141,0 6.19024,2.28882 2.34085,2.28883 2.34085,7.33466 v 18.36263 h -7.12658 v -16.85409 q 0,-4.83775 -4.00545,-4.83775 -2.08075,0 -3.43324,1.71662 -1.35249,1.6646 -1.35249,4.16151 v 15.81371 h -7.12657 v -16.85409 q 0,-4.83775 -4.00545,-4.83775 -2.08075,0 -3.48526,1.71662 -1.35249,1.6646 -1.35249,4.16151 v 15.81371 h -7.12657 z"
         id="path5427"
         style="fill:#02ab89;fill-opacity:1" /><path
         d="m 920.06555,438.25719 q -6.60639,0 -9.88357,-3.48526 -3.22517,-3.48526 -3.22517,-10.81991 0,-7.33465 3.22517,-10.81991 3.27718,-3.48526 9.88357,-3.48526 6.0862,0 9.10329,3.53728 3.01709,3.48526 3.01709,10.76789 v 1.6646 h -17.9985 q 0.10403,3.64131 1.45652,5.40995 1.35249,1.71662 4.52564,1.71662 2.23681,0 3.5893,-1.24845 1.4045,-1.24845 1.4045,-3.53728 h 7.02254 q 0,5.14987 -3.3292,7.75081 -3.32921,2.54892 -8.79118,2.54892 z m 4.73371,-17.37428 q 0,-5.67005 -4.73371,-5.67005 -2.70498,0 -4.10948,1.40451 -1.35249,1.4045 -1.66461,4.26554 z"
         id="path5429"
         style="fill:#02ab89;fill-opacity:1" /><path
         d="m 937.69993,410.27107 h 6.0862 l 0.52018,3.5893 h 0.36414 q 3.3292,-4.21352 8.53108,-4.21352 4.21352,0 6.60639,2.28882 2.44488,2.28883 2.44488,7.33466 v 18.36263 h -7.12658 v -16.85409 q 0,-2.54892 -1.19643,-3.69333 -1.19643,-1.14442 -3.53728,-1.14442 -2.39286,0 -4.00544,1.71662 -1.56057,1.6646 -1.56057,4.16151 v 15.81371 h -7.12657 z"
         id="path5431"
         style="fill:#02ab89;fill-opacity:1" /><path
         d="m 976.81805,438.25719 q -3.84939,0 -5.51399,-2.08075 -1.6646,-2.08076 -1.6646,-5.2539 v -14.82536 h -3.27718 v -5.82611 h 3.43324 l 1.19643,-7.69878 h 5.77409 v 7.69878 h 4.73371 v 5.82611 h -4.73371 v 14.09709 q 0,2.23681 2.2368,2.23681 h 2.49691 v 4.99381 q -0.88432,0.31211 -2.23681,0.5722 -1.30047,0.2601 -2.44489,0.2601 z"
         id="path5433"
         style="fill:#02ab89;fill-opacity:1" /><path
         d="m 997.72962,438.25719 q -5.72207,0 -8.99925,-2.34085 -3.22517,-2.39286 -3.22517,-6.34629 l 0.052,-0.62423 h 6.9185 v 0.36413 q 0.052,1.82066 1.61258,2.65296 1.61258,0.78028 3.90141,0.78028 2.13279,0 3.64129,-0.5722 1.5086,-0.57221 1.5086,-1.87268 0,-1.45653 -1.5606,-2.18479 -1.5085,-0.72826 -4.78572,-1.45653 -3.38122,-0.78028 -5.51399,-1.56056 -2.13277,-0.8323 -3.69334,-2.54892 -1.56056,-1.71662 -1.56056,-4.57765 0,-4.00545 3.3292,-6.13822 3.38122,-2.18479 8.68714,-2.18479 4.94177,0 8.16697,2.02873 3.2251,1.97672 3.2251,5.40996 l -0.052,1.19643 h -6.9185 v -0.10404 q -0.052,-1.50854 -1.3004,-2.23681 -1.24849,-0.78028 -3.38126,-0.78028 -2.13277,0 -3.38123,0.57221 -1.24845,0.5722 -1.24845,1.61258 0,1.30047 1.40451,1.9247 1.45653,0.62422 4.62967,1.24845 3.48526,0.78028 5.67006,1.56056 2.1848,0.78028 3.7974,2.54892 1.6125,1.76864 1.6125,4.78573 0,8.8432 -12.53648,8.8432 z"
         id="path5435"
         style="fill:#02ab89;fill-opacity:1" /></g><text
       xml:space="preserve"
       id="text5407"
       style="font-style:normal;font-variant:normal;font-weight:bold;font-stretch:normal;font-size:52.0188px;font-family:Archivo;-inkscape-font-specification:'Archivo Bold';white-space:pre;shape-inside:url(#rect5409);display:none;opacity:0.989136;fill:#02ab89;fill-opacity:1;stroke-width:3.77953;stop-color:#000000"
       transform="matrix(1.2118111,0,0,0.96133503,-243.40384,6.3983242)"
       inkscape:label="Text (Archivo)" /></g></g>
</svg>
