<?xml version="1.0" encoding="UTF-8" standalone="no"?>
<!-- Created with Inkscape (http://www.inkscape.org/) -->

<svg
   version="1.1"
   id="svg1"
   width="360"
   height="360"
   viewBox="0 0 360 360"
   sodipodi:docname="XMPP_announcement_sticker.svg"
   inkscape:version="1.4 (e7c3feb100, 2024-10-09)"
   xmlns:inkscape="http://www.inkscape.org/namespaces/inkscape"
   xmlns:sodipodi="http://sodipodi.sourceforge.net/DTD/sodipodi-0.dtd"
   xmlns="http://www.w3.org/2000/svg"
   xmlns:svg="http://www.w3.org/2000/svg">
  <defs
     id="defs1">
    <linearGradient
       id="SVGID_left_"
       y2="1.279e-13"
       gradientUnits="userSpaceOnUse"
       x2="-1073.2"
       gradientTransform="matrix(-1,0,0,1,-774.37201,-6.001)"
       y1="126.85"
       x1="-1073.2">
	<stop
   stop-color="#1b3967"
   offset=".011"
   id="stop4" />

	<stop
   stop-color="#13b5ea"
   offset=".467"
   id="stop5" />

	<stop
   stop-color="#002b5c"
   offset=".9945"
   id="stop6" />

</linearGradient>
    <linearGradient
       id="SVGID_right_"
       y2="1.279e-13"
       gradientUnits="userSpaceOnUse"
       x2="-1073.2"
       gradientTransform="translate(1417.02,-6)"
       y1="126.85"
       x1="-1073.2">
	<stop
   stop-color="#1b3967"
   offset=".011"
   id="stop1" />

	<stop
   stop-color="#13b5ea"
   offset=".467"
   id="stop2" />

	<stop
   stop-color="#002b5c"
   offset=".9945"
   id="stop3" />

</linearGradient>
  </defs>
  <sodipodi:namedview
     id="namedview1"
     pagecolor="#ffffff"
     bordercolor="#000000"
     borderopacity="0.25"
     inkscape:showpageshadow="2"
     inkscape:pageopacity="0.0"
     inkscape:pagecheckerboard="0"
     inkscape:deskcolor="#d1d1d1"
     showgrid="false"
     inkscape:zoom="1"
     inkscape:cx="165.5"
     inkscape:cy="129"
     inkscape:window-width="1596"
     inkscape:window-height="841"
     inkscape:window-x="0"
     inkscape:window-y="0"
     inkscape:window-maximized="0"
     inkscape:current-layer="g1" />
  <g
     inkscape:groupmode="layer"
     inkscape:label="Image"
     id="g1"
     transform="translate(-149.78768,-3.5856566)">
    <g
       id="g11"
       inkscape:label="megaphone">
      <path
         style="fill:#000000;fill-rule:evenodd;stroke:none;stroke-width:30.2362"
         d="m 173.98949,161.63993 21.09361,81.63414 c 0,0 -29.11348,-2.30631 -38.62118,-33.34778 -9.5077,-31.04147 17.52757,-48.28636 17.52757,-48.28636 z"
         id="path1"
         sodipodi:nodetypes="cczc" />
      <path
         style="fill:#000000;fill-rule:evenodd;stroke:none;stroke-width:30.2362"
         d="m 189.9446,145.78021 56.93501,-15.26424 25.94594,104.57003 -56.60933,14.93857 z"
         id="path2"
         sodipodi:nodetypes="ccccc" />
      <path
         style="fill:#000000;fill-opacity:1;fill-rule:evenodd;stroke:none;stroke-width:3.77953;stroke-linecap:round;stroke-dasharray:none;stroke-opacity:1"
         d="m 220.15866,269.63875 42.80862,61.43316 10.56317,0.27798 43.36458,-11.39711 c 0,0 5.53999,-5.22199 1.11192,-13.62092 -9.78766,-18.56469 -21.05387,-14.534 -27.24187,-24.74005 -3.20681,-5.28909 -2.39794,-13.57079 -5.0036,-19.18049 -3.32489,-7.15813 -10.0072,-6.67147 -10.0072,-6.67147 z"
         id="path7"
         sodipodi:nodetypes="ccccssscc" />
      <path
         id="path3"
         style="fill:#000000;fill-opacity:1;fill-rule:evenodd;stroke:none;stroke-width:3.77953;stroke-dasharray:none;stroke-opacity:1"
         d="m 374.92578,35.853516 c -4.53531,-0.317579 -7.96541,1.740982 -10.66211,5.324218 -8.30162,11.030789 -29.73713,37.829944 -37.36133,46.664063 -20.35916,23.590043 -59.48828,38.916013 -59.48828,38.916013 l 24.46289,102.85157 c 0,0 38.94113,-0.69727 57.82032,3.33593 21.03651,4.49407 39.90312,13.93704 60.32031,22.9336 5.7304,2.52503 12.98834,7.14126 18.06836,5.14257 5.08002,-1.9987 7.22851,-11.95312 7.22851,-11.95312 l -16.12304,-66.71484 c 0,0 14.38785,-28.83188 10.5625,-42.8086 -3.82535,-13.97672 -30.02149,-30.57812 -30.02149,-30.57812 l -15.0625,-65.179691 c -1.4695,-6.359262 -3.26033,-6.71688 -7.73242,-7.65039 -0.69406,-0.14488 -1.36382,-0.237835 -2.01172,-0.283203 z m -5.77148,38.08789 37.25,153.445314 c 0,0 -30.41653,-13.62018 -49.48047,-17.79102 -14.5743,-3.1886 -50.5918,-5.56054 -50.5918,-5.56054 l -15.01172,-61.1543 c 0,0 32.85412,-23.67009 47.8125,-37.25 10.77337,-9.780561 30.02149,-31.689454 30.02149,-31.689454 z" />
    </g>
    <g
       id="g10"
       style="stroke:#000000"
       inkscape:label="sound">
      <path
         style="fill:#000000;fill-opacity:1;fill-rule:evenodd;stroke:#000000;stroke-width:15.1181;stroke-linecap:round;stroke-dasharray:none;stroke-opacity:1"
         d="M 431.422,103.40785 457.55194,65.046874"
         id="path5"
         sodipodi:nodetypes="cc" />
      <path
         style="fill:#000000;fill-opacity:1;fill-rule:evenodd;stroke:#000000;stroke-width:15.1181;stroke-linecap:round;stroke-dasharray:none;stroke-opacity:1"
         d="m 450.32451,136.20927 47.25628,-12.23104"
         id="path4"
         sodipodi:nodetypes="cc" />
      <path
         style="fill:#000000;fill-opacity:1;fill-rule:evenodd;stroke:#000000;stroke-width:15.1181;stroke-linecap:round;stroke-dasharray:none;stroke-opacity:1"
         d="m 448.65665,176.79406 43.36458,18.34657"
         id="path6"
         sodipodi:nodetypes="cc" />
    </g>
    <g
       id="g7"
       inkscape:label="XMPP Logo"
       transform="matrix(0.34529239,-0.07971704,0.07971703,0.34529239,230.33758,162.68446)">
      <g
         id="g9"
         inkscape:label="Logo">
        <path
           d="m 372.22112,8.189001 c 0.077,1.313 -1.787,0.968 -1.787,2.293 0,38.551 -46.558,97.366009 -91.68799,108.730009 v 1.639 c 59.953,-5.52 128.55999,-67.800009 130.06999,-126.85001 l -36.599,14.189001 z"
           style="fill:url(#SVGID_right_)"
           id="path6-3" />
        <path
           d="m 354.08912,12.932001 c 0.076,1.313 0.12,2.63 0.12,3.957 0,38.551 -30.69898,90.497009 -75.82699,101.860009 v 1.639 c 59.04401,-2.79 105.81,-63.024009 105.81,-109.200009 0,-2.375 -0.128,-4.729 -0.371,-7.056 l -29.73,8.798 z"
           style="fill:#e96d1f"
           id="path7-5" />
        <path
           d="m 384.10712,3.583001 -7.61699,2.722 c 0.041,0.962 0.066,2.254 0.066,3.225 0,41.219 -37.271,98.204009 -87.272,107.120009 -3.245,1.088 -7.53801,2.077 -10.93199,2.931 v 1.638 c 65.25399,-5.56 111.09999,-71.866009 105.75998,-117.640009 z"
           style="fill:#d9541e"
           id="path8" />
        <path
           d="m 270.427,8.188001 c -0.077,1.313 1.787,0.968 1.787,2.293 0,38.551 46.55801,97.366009 91.68799,108.730009 v 1.639 C 303.949,115.33001 235.342,53.050001 233.832,-6 l 36.599,14.189001 z"
           style="fill:url(#SVGID_left_)"
           id="path9" />
        <path
           d="m 288.559,12.931001 c -0.076,1.313 -0.12,2.63 -0.12,3.957 0,38.551 30.69899,90.497009 75.82699,101.860009 v 1.639 C 305.222,117.59701 258.456,57.363001 258.456,11.187001 c 0,-2.375 0.128,-4.729 0.371,-7.056 l 29.73,8.798 z"
           style="fill:#a0ce67"
           id="path10" />
        <path
           d="m 258.541,3.582001 7.617,2.722 c -0.041,0.962 -0.066,2.254 -0.066,3.225 0,41.219 37.271,98.204009 87.27199,107.120009 3.245,1.088 7.538,2.077 10.932,2.931 v 1.638 C 299.042,115.65801 253.196,49.352001 258.536,3.578001 Z"
           style="fill:#439639"
           id="path11" />
      </g>
      <g
         id="g8"
         inkscape:label="XMPP">
        <path
           d="m 246.404,150.70901 -13.388,-14.65 h 11.643 l 9.127,10.268 9.129,-10.268 h 11.643 l -13.387,14.646 14.401,14.728 h -12.09 l -9.697,-10.67 -9.693,10.67 H 232 l 14.404,-14.73 z"
           id="path12"
           style="fill:#000000" />
        <path
           d="m 278.924,136.05901 h 13.836 l 10.183,18.905 10.183,-18.905 h 13.83199 v 29.374 h -8.76198 v -21.096 h -0.08 l -11.80701,21.096 h -6.733 l -11.807,-21.096 h -0.082 v 21.096 h -8.764 v -29.37 z"
           id="path13"
           style="fill:#000000" />
        <path
           d="m 333.07799,136.05901 h 24.546 c 8.559,0 10.628,4.302 10.628,10.063 v 2.516 c 0,4.381 -1.908,9.41 -8.275,9.41 h -17.894 v 7.385 h -9.005 v -29.38 z m 9,14.69 h 13.997 c 2.10901,0 2.92401,-1.377 2.92401,-3.123 v -1.135 c 0,-1.99 -0.976,-3.127 -3.694,-3.127 h -13.227 v 7.38 z"
           id="path14"
           style="fill:#000000" />
        <path
           d="m 373.13799,136.05901 h 24.546 c 8.561,0 10.63,4.302 10.63,10.063 v 2.516 c 0,4.381 -1.907,9.41 -8.275,9.41 h -17.893 v 7.385 h -9.008 v -29.38 z m 9.01,14.69 h 13.996 c 2.11,0 2.922,-1.377 2.922,-3.123 v -1.135 c 0,-1.99 -0.974,-3.127 -3.693,-3.127 h -13.225 v 7.38 z"
           id="path15"
           style="fill:#000000" />
      </g>
    </g>
  </g>
</svg>
