<?xml version="1.0" encoding="UTF-8" standalone="no"?>
<!-- Created with Inkscape (http://www.inkscape.org/) -->

<svg
   version="1.1"
   id="svg1"
   width="1200"
   height="600"
   viewBox="0 0 1200 600"
   sodipodi:docname="xmpp_banner_specs.svg"
   xml:space="preserve"
   inkscape:version="1.2.2 (b0a8486541, 2022-12-01)"
   xmlns:inkscape="http://www.inkscape.org/namespaces/inkscape"
   xmlns:sodipodi="http://sodipodi.sourceforge.net/DTD/sodipodi-0.dtd"
   xmlns="http://www.w3.org/2000/svg"
   xmlns:svg="http://www.w3.org/2000/svg"><defs
   id="defs1"><inkscape:path-effect
     effect="powermask"
     id="path-effect1073"
     is_visible="true"
     lpeversion="1"
     uri="#mask-powermask-path-effect1073"
     invert="false"
     hide_mask="false"
     background="true"
     background_color="#ffffffff" /><inkscape:path-effect
     effect="powerclip"
     id="path-effect6316"
     is_visible="true"
     lpeversion="1"
     inverse="true"
     flatten="false"
     hide_clip="false"
     message="Use fill-rule evenodd on &lt;b&gt;fill and stroke&lt;/b&gt; dialog if no flatten result after convert clip to paths." /><rect
     x="604.52018"
     y="390.75785"
     width="334.05478"
     height="82.000163"
     id="rect4234" /><linearGradient
     id="SVGID_right_"
     y2="1.279e-13"
     gradientUnits="userSpaceOnUse"
     x2="-1073.2"
     gradientTransform="matrix(0.26458333,0,0,0.26458333,329.99318,33.639267)"
     y1="126.85"
     x1="-1073.2"><stop
       stop-color="#1b3967"
       offset=".011"
       id="stop10527" /><stop
       stop-color="#13b5ea"
       offset=".467"
       id="stop10529" /><stop
       stop-color="#002b5c"
       offset=".9945"
       id="stop10531" /></linearGradient><linearGradient
     id="SVGID_left_"
     y2="1.279e-13"
     gradientUnits="userSpaceOnUse"
     x2="-1073.2"
     gradientTransform="matrix(-0.26458333,0,0,0.26458333,-249.81261,33.639003)"
     y1="126.85"
     x1="-1073.2"><stop
       stop-color="#1b3967"
       offset=".011"
       id="stop10534" /><stop
       stop-color="#13b5ea"
       offset=".467"
       id="stop10536" /><stop
       stop-color="#002b5c"
       offset=".9945"
       id="stop10538" /></linearGradient><rect
     x="604.52018"
     y="390.75785"
     width="415.20748"
     height="77.827686"
     id="rect4476" /><rect
     x="604.52018"
     y="390.75785"
     width="415.20748"
     height="77.827686"
     id="rect5409" /><filter
     id="mask-powermask-path-effect6244_inverse"
     inkscape:label="filtermask-powermask-path-effect6244"
     style="color-interpolation-filters:sRGB"
     height="100"
     width="100"
     x="-50"
     y="-50"><feColorMatrix
       id="mask-powermask-path-effect6244_primitive1"
       values="1"
       type="saturate"
       result="fbSourceGraphic" /><feColorMatrix
       id="mask-powermask-path-effect6244_primitive2"
       values="-1 0 0 0 1 0 -1 0 0 1 0 0 -1 0 1 0 0 0 1 0 "
       in="fbSourceGraphic" /></filter><rect
     x="604.52018"
     y="390.75785"
     width="415.20748"
     height="77.827686"
     id="rect6963" /><filter
     id="mask-powermask-path-effect1041_inverse"
     inkscape:label="filtermask-powermask-path-effect1041"
     style="color-interpolation-filters:sRGB"
     height="100"
     width="100"
     x="-50"
     y="-50"><feColorMatrix
       id="mask-powermask-path-effect1041_primitive1"
       values="1"
       type="saturate"
       result="fbSourceGraphic" /><feColorMatrix
       id="mask-powermask-path-effect1041_primitive2"
       values="-1 0 0 0 1 0 -1 0 0 1 0 0 -1 0 1 0 0 0 1 0 "
       in="fbSourceGraphic" /></filter><mask
     maskUnits="userSpaceOnUse"
     id="mask-powermask-path-effect1073"><path
       id="mask-powermask-path-effect1073_box"
       style="fill:#ffffff;fill-opacity:1"
       d="M 671.26379,150.56729 H 852.18111 V 355.55222 H 671.26379 Z" /><path
       id="path1071"
       d="m 708.38596,240.73685 12.86894,17.30971 -13.90746,19.3203 9.7206,-0.0704 9.38402,-13.84102 0.29564,-0.002 9.70101,13.70283 10.37244,-0.0751 -14.24532,-19.22331 12.67647,-17.38781 -9.7206,0.0704 -8.09246,11.90988 -0.29743,0.002 -8.32464,-11.791 z m 42.20039,-0.30557 0.26516,36.62057 32.30168,-0.2339 -0.0475,-6.56648 -23.70845,0.17167 -0.0642,-8.86039 20.7449,-0.15021 -0.0476,-6.56649 -20.74489,0.15022 -0.0584,-8.06073 23.35225,-0.16909 -0.0476,-6.56648 z m 39.53248,-0.28625 0.26517,36.62056 8.59501,-0.0622 -0.0912,-12.59867 10.19435,-0.0738 c 4.74154,-0.0343 8.28972,-1.10909 10.64529,-3.22602 2.39483,-2.15282 3.57842,-5.13372 3.55084,-8.94178 -0.0276,-3.80807 -1.19438,-6.73627 -3.50109,-8.78386 -2.30695,-2.08317 -5.73371,-3.10742 -10.27769,-3.07451 z m 8.64256,6.50425 10.01624,-0.0725 c 1.85712,-0.0135 3.2829,0.45616 4.27768,1.40992 0.99452,0.91818 1.498,2.23119 1.51037,3.93949 0.0126,1.74387 -0.47153,3.09973 -1.45239,4.06781 -0.98086,0.96806 -2.39969,1.45826 -4.25681,1.47171 l -10.01625,0.0725 z"
       inkscape:label="xep (stroked)"
       style="font-weight:bold;font-size:61.6867px;font-family:Archivo;-inkscape-font-specification:'Archivo Bold';display:inline;opacity:0.989136;fill:#ab4400;fill-opacity:1;stroke-width:3.98632" /></mask><filter
     id="mask-powermask-path-effect1073_inverse"
     inkscape:label="filtermask-powermask-path-effect1073"
     style="color-interpolation-filters:sRGB"
     height="100"
     width="100"
     x="-50"
     y="-50"><feColorMatrix
       id="mask-powermask-path-effect1073_primitive1"
       values="1"
       type="saturate"
       result="fbSourceGraphic" /><feColorMatrix
       id="mask-powermask-path-effect1073_primitive2"
       values="-1 0 0 0 1 0 -1 0 0 1 0 0 -1 0 1 0 0 0 1 0 "
       in="fbSourceGraphic" /></filter></defs><sodipodi:namedview
   id="namedview1"
   pagecolor="#ffffff"
   bordercolor="#000000"
   borderopacity="0.25"
   inkscape:showpageshadow="2"
   inkscape:pageopacity="0.0"
   inkscape:pagecheckerboard="0"
   inkscape:deskcolor="#d1d1d1"
   showgrid="false"
   inkscape:zoom="0.45911535"
   inkscape:cx="413.83935"
   inkscape:cy="386.61308"
   inkscape:window-width="1366"
   inkscape:window-height="700"
   inkscape:window-x="0"
   inkscape:window-y="0"
   inkscape:window-maximized="1"
   inkscape:current-layer="g6101" /><g
   inkscape:groupmode="layer"
   inkscape:label="Image"
   id="g1"><rect
     style="display:inline;fill:#ffffff;fill-opacity:1;stroke:none;stroke-width:3.77953;stroke-opacity:1"
     id="rect22"
     width="1199.3695"
     height="597.2851"
     x="0.31524658"
     y="1.9197469"
     ry="0.50904977"
     inkscape:label="Background" /><g
     id="g26"
     inkscape:label="BottomBar"><rect
       style="fill:#d2702f;fill-opacity:1;stroke:none;stroke-width:3.76129;stroke-opacity:1"
       id="rect23"
       width="300"
       height="35"
       x="0.22020364"
       y="565"
       ry="0.50166357"
       inkscape:label="orange" /><rect
       style="fill:#457faf;fill-opacity:1;stroke:none;stroke-width:3.76129;stroke-opacity:1"
       id="rect24"
       width="300"
       height="35"
       x="300.18814"
       y="565"
       ry="0.50166357"
       inkscape:label="dark blue" /><rect
       style="fill:#adcc6f;fill-opacity:1;stroke:none;stroke-width:3.76129;stroke-opacity:1"
       id="rect25"
       width="300"
       height="35"
       x="600.15607"
       y="565"
       ry="0.50166357"
       inkscape:label="green" /><rect
       style="fill:#58a0d2;fill-opacity:1;stroke:none;stroke-width:3.76129;stroke-opacity:1"
       id="rect26"
       width="300"
       height="35"
       x="900.12402"
       y="565"
       ry="0.50166357"
       inkscape:label="lighter blue" /></g><g
     id="g1722"
     inkscape:label="XMPP text"
     style="display:inline;fill:#d27131;fill-opacity:1"
     transform="matrix(1.2652006,0,0,1.2652006,376.15896,194.12118)"><path
       d="m 25.988,172.07799 -13.388,-14.65 h 11.643 l 9.127,10.268 9.129,-10.268 h 11.643 l -13.387,14.646 14.401,14.728 h -12.09 l -9.697,-10.67 -9.693,10.67 H 11.584 l 14.404,-14.73 z"
       id="path1691"
       style="fill:#d27131;fill-opacity:1"
       inkscape:label="X" /><path
       d="m 58.508,157.42799 h 13.836 l 10.183,18.905 10.183,-18.905 h 13.83199 v 29.374 h -8.761983 v -21.096 h -0.08 L 85.893,186.80199 H 79.16 l -11.807,-21.096 h -0.082 v 21.096 h -8.764 v -29.37 z"
       id="path1693"
       style="fill:#d27131;fill-opacity:1"
       inkscape:label="M" /><path
       d="m 112.66199,157.42799 h 24.546 c 8.559,0 10.628,4.302 10.628,10.063 v 2.516 c 0,4.381 -1.908,9.41 -8.275,9.41 h -17.894 v 7.385 h -9.005 v -29.38 z m 9,14.69 h 13.997 c 2.10901,0 2.92401,-1.377 2.92401,-3.123 v -1.135 c 0,-1.99 -0.976,-3.127 -3.694,-3.127 h -13.227 v 7.38 z"
       id="path1695"
       style="fill:#d27131;fill-opacity:1"
       inkscape:label="P the first" /><path
       d="m 152.72199,157.42799 h 24.546 c 8.561,0 10.63,4.302 10.63,10.063 v 2.516 c 0,4.381 -1.907,9.41 -8.275,9.41 h -17.893 v 7.385 h -9.008 v -29.38 z m 9.01,14.69 h 13.996 c 2.11,0 2.922,-1.377 2.922,-3.123 v -1.135 c 0,-1.99 -0.974,-3.127 -3.693,-3.127 h -13.225 v 7.38 z"
       id="path1697"
       style="fill:#d27131;fill-opacity:1"
       inkscape:label="P the second" /></g><g
     id="g28"
     inkscape:label="Graphics"><g
       id="g1716"
       transform="matrix(1.2652006,0,0,1.2652006,322.15896,132.12118)"
       inkscape:label="XMPP logo"
       style="display:inline"><path
         d="m 151.80512,29.557978 c 0.077,1.313 -1.787,0.968 -1.787,2.293 0,38.551 -46.558,97.366012 -91.687985,108.730012 v 1.639 C 118.28313,136.69999 186.89012,74.419978 188.40012,15.369977 l -36.599,14.189001 z"
         style="fill:#447cab;fill-opacity:1"
         id="path1679"
         inkscape:label="right blue" /><path
         d="m 133.67312,34.300978 c 0.076,1.313 0.12,2.63 0.12,3.957 0,38.551 -30.69898,90.497012 -75.826985,101.860012 v 1.639 c 59.044005,-2.79 105.809995,-63.024012 105.809995,-109.200012 0,-2.375 -0.128,-4.729 -0.371,-7.056 l -29.73,8.798 z"
         style="display:inline;fill:#e96d1f"
         id="path1681"
         inkscape:label="orange" /><path
         d="m 163.69112,24.951978 -7.61699,2.722 c 0.041,0.962 0.066,2.254 0.066,3.225 0,41.219 -37.271,98.204012 -87.271995,107.120012 -3.24501,1.088 -7.53801,2.077 -10.932,2.931 v 1.638 C 123.19013,137.02799 169.03613,70.721978 163.69612,24.947978 Z"
         style="display:none;fill:#d9541e"
         id="path1683"
         inkscape:label="orange shade" /><path
         d="m 50.011,29.556978 c -0.077,1.313 1.787,0.968 1.787,2.293 0,38.551 46.558007,97.366012 91.68799,108.730012 v 1.639 C 83.533,136.69899 14.926,74.418978 13.416,15.368977 l 36.599,14.189001 z"
         style="display:inline;fill:#467ead;fill-opacity:1"
         id="path1685"
         inkscape:label="left blue" /><path
         d="m 68.143,34.299978 c -0.076,1.313 -0.12,2.63 -0.12,3.957 0,38.551 30.698995,90.497012 75.82699,101.860012 v 1.639 C 84.806,138.96599 38.04,78.731978 38.04,32.555978 c 0,-2.375 0.128,-4.729 0.371,-7.056 l 29.73,8.798 z"
         style="display:inline;fill:#a0ce67"
         id="path1687"
         inkscape:label="green" /><path
         d="m 38.125,24.950978 7.617,2.722 c -0.041,0.962 -0.066,2.254 -0.066,3.225 0,41.219 37.271,98.204012 87.27199,107.120012 3.245,1.088 7.538,2.077 10.932,2.931 v 1.638 C 78.626,137.02699 32.78,70.720978 38.12,24.946978 Z"
         style="display:none;fill:#439639"
         id="path1689"
         inkscape:label="green shade" /></g><g
       id="g6101"
       inkscape:label="document"
       transform="matrix(1.0965982,0.00794039,-0.00794039,1.0965982,-96.467531,-69.877884)"
       style="fill:#d2702f;fill-opacity:1"><path
         id="rect6094"
         style="opacity:0.989136;fill:#d2702f;fill-opacity:1;stroke-width:3.77953;stop-color:#000000"
         d="m 683.7777,151.56729 h 115.8895 c 16.21295,0 51.51391,35.11266 51.51391,51.51391 v 133.95711 c 0,9.7027 -7.81121,17.51391 -17.51391,17.51391 H 689.7777 c -9.7027,0 -17.51391,-7.81121 -17.51391,-17.51391 V 169.0812 c 0,-9.7027 1.81121,-17.51391 11.51391,-17.51391 z"
         sodipodi:nodetypes="sssssssss"
         inkscape:label="rectangle"
         clip-path="none"
         transform="rotate(-13.223614,774.19358,223.15666)"
         mask="url(#mask-powermask-path-effect1073)"
         inkscape:path-effect="#path-effect1073"
         inkscape:original-d="m 683.7777,151.56729 h 115.8895 c 16.21295,0 51.51391,35.11266 51.51391,51.51391 v 133.95711 c 0,9.7027 -7.81121,17.51391 -17.51391,17.51391 H 689.7777 c -9.7027,0 -17.51391,-7.81121 -17.51391,-17.51391 V 169.0812 c 0,-9.7027 1.81121,-17.51391 11.51391,-17.51391 z" /><text
         xml:space="preserve"
         style="font-weight:bold;font-size:61.6867px;font-family:Archivo;-inkscape-font-specification:'Archivo Bold';display:none;opacity:0.989136;fill:#ab4400;fill-opacity:1;stroke-width:4.37151;stop-color:#000000"
         x="649.96149"
         y="255.25056"
         id="text620"
         transform="matrix(0.96081286,-0.00695718,0.00626635,0.86540739,88.426579,63.082123)"
         inkscape:label="xep"><tspan
           sodipodi:role="line"
           id="tspan618"
           x="649.96149"
           y="255.25056"
           style="fill:#ab4400;fill-opacity:1;stroke-width:4.37151">XEP</tspan></text><path
         id="path6314"
         style="display:none;fill:#ffffff;fill-opacity:1;stroke-width:0.613787"
         inkscape:label="white xmpp logo"
         d="m 715.19106,228.98711 c 0.65257,25.51932 21.7279,52.00433 46.98438,66.63672 -5.83241,4.60447 -12.43288,8.11676 -19.64063,9.93163 v 0.50587 c -0.005,10e-4 -0.0122,0.003 -0.0176,0.004 v 1.00586 c 7.65124,-0.65193 14.86199,-2.6718 21.50781,-5.69726 1.63104,-0.67268 3.25178,-1.41449 4.86523,-2.19141 1.59501,0.76812 3.19831,1.49778 4.81055,2.16406 6.6619,3.04025 13.89278,5.07078 21.56641,5.72461 v -1.00391 c -0.005,-10e-4 -0.0122,-0.003 -0.0176,-0.004 v -0.50782 c -7.20818,-1.81498 -13.80991,-5.32676 -19.64258,-9.93163 25.25733,-14.63217 46.33374,-41.11676 46.98633,-66.63672 l -15.24414,5.9082 -4.54883,1.625 -13.79688,4.08398 v 0.002 c 0.0466,0.8059 0.0723,1.61324 0.0723,2.42773 0,15.00192 -7.58045,33.30251 -20.18359,46.47071 -12.60298,-13.16818 -20.18555,-31.46694 -20.18555,-46.46875 0,-0.8145 0.0276,-1.62379 0.0742,-2.42969 l -13.79492,-4.08203 -4.62891,-1.65625 -0.004,-0.002 z" /><path
         id="path6097"
         style="opacity:0.989136;fill:#aa4400;fill-opacity:1;stroke-width:3.77953;stop-color:#000000"
         d="m 782.44323,147.62926 c 15.78306,-3.70875 58.1801,22.39772 61.93192,38.36409 l 0.11324,0.4819 c 0,0 -26.56117,2.0882 -41.04024,18.08795 -1.57645,-34.29929 -21.36265,-55.7678 -21.36265,-55.7678 0,0 -15.16065,2.48041 0.35773,-1.16614 z"
         sodipodi:nodetypes="cccccc"
         inkscape:label="corner" /></g></g><g
     id="g4360"
     inkscape:label="Newsletter"
     style="fill:#d27131;fill-opacity:1"
     transform="translate(156)"><g
       aria-label="Specs"
       transform="matrix(1.2118111,0,0,0.96133503,-243.40384,6.3983242)"
       id="text5407"
       style="font-weight:bold;font-size:52.0188px;font-family:Archivo;-inkscape-font-specification:'Archivo Bold';white-space:pre;opacity:0.989136;stroke-width:3.77953;fill:#d27131;fill-opacity:1"
       inkscape:label="Text (stroked)"><path
         d="m 621.68573,438.25719 q -4.10948,0 -7.54272,-1.24845 -3.38122,-1.30047 -5.40996,-3.79738 -2.02873,-2.4969 -2.02873,-6.03418 l 0.052,-1.14441 h 7.64676 l -0.052,0.8323 q 0,2.28883 2.02874,3.64132 2.02873,1.35248 5.67005,1.35248 3.84939,0 5.56601,-0.98835 1.71662,-1.04038 1.71662,-2.757 0,-1.50854 -1.14442,-2.4969 -1.09239,-1.04038 -2.80901,-1.61258 -1.6646,-0.62423 -4.62967,-1.45653 -4.21353,-1.19643 -6.81447,-2.28883 -2.60094,-1.09239 -4.47361,-3.22516 -1.87268,-2.18479 -1.87268,-5.72207 0,-4.88977 3.95343,-7.43869 3.95343,-2.54892 10.5078,-2.54892 6.19023,0 10.09164,2.65296 3.95343,2.60094 3.95343,7.85484 v 0.62422 h -7.4907 v -0.46817 q 0,-1.97671 -1.82066,-3.12112 -1.76864,-1.14442 -4.83775,-1.14442 -3.27719,0 -5.04582,0.88432 -1.71662,0.88432 -1.71662,2.44489 0,1.19643 1.04037,2.08075 1.04038,0.8323 2.60094,1.4045 1.56056,0.52019 4.4216,1.30047 4.26554,1.14442 6.97052,2.28883 2.75699,1.0924 4.73371,3.27719 1.97671,2.18479 1.97671,5.72206 0,5.72207 -4.10948,8.42705 -4.05747,2.70498 -11.13203,2.70498 z"
         id="path6965"
         style="fill:#d27131;fill-opacity:1" /><path
         d="m 642.9094,410.27107 h 6.08619 l 0.46817,3.5893 h 0.36414 q 1.30047,-2.08075 3.48526,-3.12113 2.18478,-1.09239 4.83774,-1.09239 5.20188,0 8.06292,3.58929 2.86103,3.53728 2.86103,10.7679 0,7.07455 -2.91305,10.66385 -2.86104,3.5893 -7.64676,3.5893 -2.757,0 -4.88977,-0.98836 -2.08075,-0.98836 -3.27719,-2.80902 h -0.31211 v 12.1724 h -7.12657 z m 12.95268,21.79588 q 3.17314,0 4.52563,-1.87268 1.35249,-1.92469 1.35249,-5.77408 v -0.93634 q 0,-3.84939 -1.35249,-5.72207 -1.35249,-1.9247 -4.52563,-1.9247 -5.82611,0 -5.82611,7.64677 v 0.8323 q 0,7.7508 5.82611,7.7508 z"
         id="path6967"
         style="fill:#d27131;fill-opacity:1" /><path
         d="m 685.98096,438.25719 q -6.60638,0 -9.88357,-3.48526 -3.22516,-3.48526 -3.22516,-10.81991 0,-7.33465 3.22516,-10.81991 3.27719,-3.48526 9.88357,-3.48526 6.0862,0 9.10329,3.53728 3.01709,3.48526 3.01709,10.76789 v 1.6646 h -17.9985 q 0.10404,3.64131 1.45653,5.40995 1.35248,1.71662 4.52563,1.71662 2.23681,0 3.5893,-1.24845 1.40451,-1.24845 1.40451,-3.53728 h 7.02253 q 0,5.14987 -3.3292,7.75081 -3.3292,2.54892 -8.79118,2.54892 z m 4.73371,-17.37428 q 0,-5.67005 -4.73371,-5.67005 -2.70497,0 -4.10948,1.40451 -1.35249,1.4045 -1.6646,4.26554 z"
         id="path6969"
         style="fill:#d27131;fill-opacity:1" /><path
         d="m 714.95542,438.25719 q -6.55437,0 -9.83155,-3.48526 -3.22517,-3.48526 -3.22517,-10.81991 0,-7.28263 3.22517,-10.76789 3.27718,-3.53728 9.83155,-3.53728 5.46198,0 8.68714,2.80901 3.27719,2.757 3.27719,8.11494 h -7.1786 q 0,-2.49691 -1.30047,-3.8494 -1.30047,-1.35248 -3.64131,-1.35248 -2.91306,0 -4.31756,2.08075 -1.35249,2.02873 -1.35249,6.0862 v 0.8323 q 0,4.05746 1.4045,6.13822 1.45653,2.02873 4.62968,2.02873 2.23681,0 3.53728,-1.35249 1.35248,-1.40451 1.35248,-3.84939 h 6.86649 q 0,5.35794 -3.22517,8.16695 -3.22517,2.757 -8.73916,2.757 z"
         id="path6971"
         style="fill:#d27131;fill-opacity:1" /><path
         d="m 743.46171,438.25719 q -5.72207,0 -8.99925,-2.34085 -3.22517,-2.39286 -3.22517,-6.34629 l 0.052,-0.62423 h 6.9185 v 0.36413 q 0.052,1.82066 1.61259,2.65296 1.61258,0.78028 3.90141,0.78028 2.13277,0 3.64131,-0.5722 1.50855,-0.57221 1.50855,-1.87268 0,-1.45653 -1.56057,-2.18479 -1.50854,-0.72826 -4.78573,-1.45653 -3.38122,-0.78028 -5.51399,-1.56056 -2.13277,-0.8323 -3.69333,-2.54892 -1.56057,-1.71662 -1.56057,-4.57765 0,-4.00545 3.3292,-6.13822 3.38123,-2.18479 8.68714,-2.18479 4.94179,0 8.16696,2.02873 3.22516,1.97672 3.22516,5.40996 l -0.052,1.19643 h -6.9185 v -0.10404 q -0.052,-1.50854 -1.30047,-2.23681 -1.24845,-0.78028 -3.38122,-0.78028 -2.13277,0 -3.38122,0.57221 -1.24845,0.5722 -1.24845,1.61258 0,1.30047 1.4045,1.9247 1.45653,0.62422 4.62968,1.24845 3.48526,0.78028 5.67005,1.56056 2.18479,0.78028 3.79737,2.54892 1.61258,1.76864 1.61258,4.78573 0,8.8432 -12.53653,8.8432 z"
         id="path6973"
         style="fill:#d27131;fill-opacity:1" /></g><text
       xml:space="preserve"
       id="text6961"
       style="font-style:normal;font-variant:normal;font-weight:bold;font-stretch:normal;font-size:52.0188px;font-family:Archivo;-inkscape-font-specification:'Archivo Bold';white-space:pre;shape-inside:url(#rect6963);display:none;opacity:0.989136;fill:#d27131;fill-opacity:1;stroke-width:3.77953;stop-color:#000000"
       transform="matrix(1.2118111,0,0,0.96133503,-243.40384,6.3983242)"
       inkscape:label="Text (Archivo)" /></g></g>
</svg>
