<svg height="600" viewBox="0 0 1200 600" width="1200" xmlns="http://www.w3.org/2000/svg"><rect fill="#fff" height="597.2851" ry=".50905" width="1199.3695" x=".315247" y="1.919747"/><rect fill="#d2702f" height="35" ry=".501664" width="300" x=".220204" y="565"/><rect fill="#457faf" height="35" ry=".501664" width="300" x="300.18814" y="565"/><rect fill="#adcc6f" height="35" ry=".501664" width="300" x="600.15607" y="565"/><rect fill="#58a0d2" height="35" ry=".501664" width="300" x="900.12402" y="565"/><g fill="#02ab89" transform="matrix(1.2652006 0 0 1.2652006 226.15896 194.12118)"><path d="m25.988 172.07799-13.388-14.65h11.643l9.127 10.268 9.129-10.268h11.643l-13.387 14.646 14.401 14.728h-12.09l-9.697-10.67-9.693 10.67h-12.092l14.404-14.73z"/><path d="m58.508 157.42799h13.836l10.183 18.905 10.183-18.905h13.83199v29.374h-8.761983v-21.096h-.08l-11.807007 21.096h-6.733l-11.807-21.096h-.082v21.096h-8.764v-29.37z"/><path d="m112.66199 157.42799h24.546c8.559 0 10.628 4.302 10.628 10.063v2.516c0 4.381-1.908 9.41-8.275 9.41h-17.894v7.385h-9.005v-29.38zm9 14.69h13.997c2.10901 0 2.92401-1.377 2.92401-3.123v-1.135c0-1.99-.976-3.127-3.694-3.127h-13.227v7.38z"/><path d="m152.72199 157.42799h24.546c8.561 0 10.63 4.302 10.63 10.063v2.516c0 4.381-1.907 9.41-8.275 9.41h-17.893v7.385h-9.008v-29.38zm9.01 14.69h13.996c2.11 0 2.922-1.377 2.922-3.123v-1.135c0-1.99-.974-3.127-3.693-3.127h-13.225v7.38z"/></g><g transform="matrix(1.2652006 0 0 1.2652006 322.15896 132.12118)"><path d="m151.80512 29.557978c.077 1.313-1.787.968-1.787 2.293 0 38.551-46.558 97.366012-91.687985 108.730012v1.639c59.952995-5.52 128.559985-67.800012 130.069985-126.850013l-36.599 14.189001z" fill="#447cab"/><path d="m133.67312 34.300978c.076 1.313.12 2.63.12 3.957 0 38.551-30.69898 90.497012-75.826985 101.860012v1.639c59.044005-2.79 105.809995-63.024012 105.809995-109.200012 0-2.375-.128-4.729-.371-7.056l-29.73 8.798z" fill="#e96d1f"/><path d="m50.011 29.556978c-.077 1.313 1.787.968 1.787 2.293 0 38.551 46.558007 97.366012 91.68799 108.730012v1.639c-59.95299-5.52-128.55999-67.800012-130.06999-126.850013l36.599 14.189001z" fill="#467ead"/><path d="m68.143 34.299978c-.076 1.313-.12 2.63-.12 3.957 0 38.551 30.698995 90.497012 75.82699 101.860012v1.639c-59.04399-2.79-105.80999-63.024012-105.80999-109.200012 0-2.375.128-4.729.371-7.056l29.73 8.798z" fill="#a0ce67"/></g><g stroke-width="3.77953"><g fill="#0a8" transform="matrix(1.1457433 -.52811828 .41860966 .90816626 -240.71918 445.01168)"><path d="m704.39735 188.81148c-4.3399-.00004-12.58962 1.35895-12.58962 16.31605v69.16252c0 15.45875 8.25546 16.31953 12.58962 16.31606l59.97893-.048.13272-101.74603z" opacity=".989136"/><path d="m769.90639 188.81148 102.32309-59.74548v221.28558l-102.32309-59.74547c-.24354-.1422-.50905-.22704-.50905-.50905v-100.77653c0-.28202.22704-.50975.50905-.50905z" opacity=".989136"/></g><g fill="#02ab89" opacity=".989136" transform="matrix(1.2118111 0 0 .96133503 -237.40384 6.398324)"><path d="m618.56461 401.94807h9.46742l13.94104 35.68489h-8.21897l-2.54892-6.81446h-16.22987l-2.54892 6.81446h-7.80282zm10.2477 22.57615-3.38122-9.05127q-.41615-1.09239-1.19643-3.64131-.78029-2.54892-1.04038-3.38122h-.26009q-.2601.8323-1.04038 3.38122-.78028 2.54892-1.19643 3.64131l-3.38122 9.05127z"/><path d="m645.77045 410.27107h6.08619l.52019 3.5893h.36413q3.32921-4.21352 8.53109-4.21352 4.21352 0 6.60638 2.28882 2.44489 2.28883 2.44489 7.33466v18.36263h-7.12658v-16.85409q0-2.54892-1.19643-3.69333-1.19643-1.14442-3.53728-1.14442-2.39286 0-4.00545 1.71662-1.56056 1.6646-1.56056 4.16151v15.81371h-7.12657z"/><path d="m677.55393 410.27107h6.0862l.52019 3.5893h.36413q3.3292-4.21352 8.53108-4.21352 4.21353 0 6.60639 2.28882 2.44488 2.28883 2.44488 7.33466v18.36263h-7.12657v-16.85409q0-2.54892-1.19643-3.69333-1.19644-1.14442-3.53728-1.14442-2.39287 0-4.00545 1.71662-1.56056 1.6646-1.56056 4.16151v15.81371h-7.12658z"/><path d="m721.50982 438.25719q-7.02254 0-10.45578-3.48526-3.43324-3.48526-3.43324-10.81991 0-7.33465 3.43324-10.81991 3.43324-3.48526 10.45578-3.48526 7.02254 0 10.45578 3.48526 3.48526 3.48526 3.48526 10.81991 0 7.33465-3.48526 10.81991-3.43324 3.48526-10.45578 3.48526zm0-5.82611q3.48526 0 5.04583-1.97671 1.56056-2.02874 1.56056-6.0862v-.8323q0-4.05747-1.56056-6.03418-1.56057-2.02874-5.04583-2.02874-3.48526 0-5.04582 2.02874-1.50855 1.97671-1.50855 6.03418v.8323q0 4.05746 1.50855 6.0862 1.56056 1.97671 5.04582 1.97671z"/><path d="m750.01613 438.25719q-4.21352 0-6.65841-2.28883-2.39286-2.28883-2.39286-7.33465v-18.36264h7.12658v16.85409q0 2.54893 1.19643 3.69334 1.19643 1.14441 3.53728 1.14441 2.39286 0 3.95342-1.6646 1.61259-1.71662 1.61259-4.21352v-15.81372h7.12657v27.36189h-6.0862l-.52018-3.5893h-.36414q-3.3292 4.21353-8.53108 4.21353z"/><path d="m772.90439 410.27107h6.0862l.52019 3.5893h.36413q3.32921-4.21352 8.53109-4.21352 4.21352 0 6.60638 2.28882 2.44489 2.28883 2.44489 7.33466v18.36263h-7.12658v-16.85409q0-2.54892-1.19643-3.69333-1.19643-1.14442-3.53728-1.14442-2.39286 0-4.00545 1.71662-1.56056 1.6646-1.56056 4.16151v15.81371h-7.12658z"/><path d="m816.02799 438.25719q-6.55437 0-9.83156-3.48526-3.22516-3.48526-3.22516-10.81991 0-7.28263 3.22516-10.76789 3.27719-3.53728 9.83156-3.53728 5.46197 0 8.68713 2.80901 3.27719 2.757 3.27719 8.11494h-7.1786q0-2.49691-1.30047-3.8494-1.30046-1.35248-3.64131-1.35248-2.91305 0-4.31756 2.08075-1.35249 2.02873-1.35249 6.0862v.8323q0 4.05746 1.40451 6.13822 1.45652 2.02873 4.62967 2.02873 2.23681 0 3.53728-1.35249 1.35249-1.40451 1.35249-3.84939h6.86648q0 5.35794-3.22517 8.16695-3.22516 2.757-8.73915 2.757z"/><path d="m844.89841 438.25719q-6.60639 0-9.88358-3.48526-3.22516-3.48526-3.22516-10.81991 0-7.33465 3.22516-10.81991 3.27719-3.48526 9.88358-3.48526 6.0862 0 9.10329 3.53728 3.01709 3.48526 3.01709 10.76789v1.6646h-17.99851q.10404 3.64131 1.45653 5.40995 1.35249 1.71662 4.52563 1.71662 2.23681 0 3.5893-1.24845 1.40451-1.24845 1.40451-3.53728h7.02254q0 5.14987-3.32921 7.75081-3.3292 2.54892-8.79117 2.54892zm4.73371-17.37428q0-5.67005-4.73371-5.67005-2.70498 0-4.10949 1.40451-1.35249 1.4045-1.6646 4.26554z"/><path d="m862.53277 410.27107h6.0862l.52018 3.5893h.36414q3.01709-4.21352 7.80282-4.21352 5.20188 0 7.17859 4.21352h.41615q3.12113-4.21352 8.11493-4.21352 3.90141 0 6.19024 2.28882 2.34085 2.28883 2.34085 7.33466v18.36263h-7.12658v-16.85409q0-4.83775-4.00545-4.83775-2.08075 0-3.43324 1.71662-1.35249 1.6646-1.35249 4.16151v15.81371h-7.12657v-16.85409q0-4.83775-4.00545-4.83775-2.08075 0-3.48526 1.71662-1.35249 1.6646-1.35249 4.16151v15.81371h-7.12657z"/><path d="m920.06555 438.25719q-6.60639 0-9.88357-3.48526-3.22517-3.48526-3.22517-10.81991 0-7.33465 3.22517-10.81991 3.27718-3.48526 9.88357-3.48526 6.0862 0 9.10329 3.53728 3.01709 3.48526 3.01709 10.76789v1.6646h-17.9985q.10403 3.64131 1.45652 5.40995 1.35249 1.71662 4.52564 1.71662 2.23681 0 3.5893-1.24845 1.4045-1.24845 1.4045-3.53728h7.02254q0 5.14987-3.3292 7.75081-3.32921 2.54892-8.79118 2.54892zm4.73371-17.37428q0-5.67005-4.73371-5.67005-2.70498 0-4.10948 1.40451-1.35249 1.4045-1.66461 4.26554z"/><path d="m937.69993 410.27107h6.0862l.52018 3.5893h.36414q3.3292-4.21352 8.53108-4.21352 4.21352 0 6.60639 2.28882 2.44488 2.28883 2.44488 7.33466v18.36263h-7.12658v-16.85409q0-2.54892-1.19643-3.69333-1.19643-1.14442-3.53728-1.14442-2.39286 0-4.00544 1.71662-1.56057 1.6646-1.56057 4.16151v15.81371h-7.12657z"/><path d="m976.81805 438.25719q-3.84939 0-5.51399-2.08075-1.6646-2.08076-1.6646-5.2539v-14.82536h-3.27718v-5.82611h3.43324l1.19643-7.69878h5.77409v7.69878h4.73371v5.82611h-4.73371v14.09709q0 2.23681 2.2368 2.23681h2.49691v4.99381q-.88432.31211-2.23681.5722-1.30047.2601-2.44489.2601z"/><path d="m997.72962 438.25719q-5.72207 0-8.99925-2.34085-3.22517-2.39286-3.22517-6.34629l.052-.62423h6.9185v.36413q.052 1.82066 1.61258 2.65296 1.61258.78028 3.90141.78028 2.13279 0 3.64129-.5722 1.5086-.57221 1.5086-1.87268 0-1.45653-1.5606-2.18479-1.5085-.72826-4.78572-1.45653-3.38122-.78028-5.51399-1.56056-2.13277-.8323-3.69334-2.54892-1.56056-1.71662-1.56056-4.57765 0-4.00545 3.3292-6.13822 3.38122-2.18479 8.68714-2.18479 4.94177 0 8.16697 2.02873 3.2251 1.97672 3.2251 5.40996l-.052 1.19643h-6.9185v-.10404q-.052-1.50854-1.3004-2.23681-1.24849-.78028-3.38126-.78028-2.13277 0-3.38123.57221-1.24845.5722-1.24845 1.61258 0 1.30047 1.40451 1.9247 1.45653.62422 4.62967 1.24845 3.48526.78028 5.67006 1.56056 2.1848.78028 3.7974 2.54892 1.6125 1.76864 1.6125 4.78573 0 8.8432-12.53648 8.8432z"/></g></g></svg>