<?xml version="1.0" encoding="UTF-8" standalone="no"?>
<!-- Created with Inkscape (http://www.inkscape.org/) -->

<svg
   version="1.1"
   id="svg1"
   width="1200"
   height="600"
   viewBox="0 0 1200 600"
   sodipodi:docname="xmpp_newsletter_banner.svg"
   xml:space="preserve"
   inkscape:version="1.4 (e7c3feb100, 2024-10-09)"
   xmlns:inkscape="http://www.inkscape.org/namespaces/inkscape"
   xmlns:sodipodi="http://sodipodi.sourceforge.net/DTD/sodipodi-0.dtd"
   xmlns="http://www.w3.org/2000/svg"
   xmlns:svg="http://www.w3.org/2000/svg"><defs
     id="defs1" /><sodipodi:namedview
     id="namedview1"
     pagecolor="#ffffff"
     bordercolor="#000000"
     borderopacity="0.25"
     inkscape:showpageshadow="2"
     inkscape:pageopacity="0.0"
     inkscape:pagecheckerboard="0"
     inkscape:deskcolor="#d1d1d1"
     showgrid="false"
     inkscape:zoom="0.520902"
     inkscape:cx="725.66433"
     inkscape:cy="351.31369"
     inkscape:window-width="1596"
     inkscape:window-height="841"
     inkscape:window-x="0"
     inkscape:window-y="0"
     inkscape:window-maximized="0"
     inkscape:current-layer="g1" /><g
     inkscape:groupmode="layer"
     inkscape:label="Image"
     id="g1"><rect
       style="fill:#ffffff;fill-opacity:1;stroke:none;stroke-width:3.77953;stroke-opacity:1"
       id="rect22"
       width="1199.3695"
       height="597.2851"
       x="0.31524658"
       y="1.9197469"
       ry="0.50904977"
       inkscape:label="Background" /><g
       id="g26"
       inkscape:label="BottomBar"><rect
         style="fill:#d2702f;fill-opacity:1;stroke:none;stroke-width:3.76129;stroke-opacity:1"
         id="rect23"
         width="300"
         height="35"
         x="0.22020364"
         y="565"
         ry="0.50166357" /><rect
         style="fill:#457faf;fill-opacity:1;stroke:none;stroke-width:3.76129;stroke-opacity:1"
         id="rect24"
         width="300"
         height="35"
         x="300.18814"
         y="565"
         ry="0.50166357" /><rect
         style="fill:#adcc6f;fill-opacity:1;stroke:none;stroke-width:3.76129;stroke-opacity:1"
         id="rect25"
         width="300"
         height="35"
         x="600.15607"
         y="565"
         ry="0.50166357" /><rect
         style="fill:#58a0d2;fill-opacity:1;stroke:none;stroke-width:3.76129;stroke-opacity:1"
         id="rect26"
         width="300"
         height="35"
         x="900.12402"
         y="565"
         ry="0.50166357" /></g><g
       id="g28"
       inkscape:label="Graphics"><g
         id="g2"
         transform="matrix(1.479076,0,0,1.479076,299.41828,104.6636)"
         inkscape:transform-center-x="3.8394938"
         inkscape:transform-center-y="25.916583"
         inkscape:label="Logo"><g
           id="g31"
           transform="matrix(0.85783543,0,0,0.85783543,15.346701,60.735459)"
           style="fill:#688630;fill-opacity:1"
           inkscape:label="XMPP"><path
             d="m 25.988,171.25212 -13.388,-14.65 h 11.643 l 9.127,10.268 9.129,-10.268 h 11.643 l -13.387,14.646 14.401,14.728 h -12.09 l -9.697,-10.67 -9.693,10.67 H 11.584 l 14.404,-14.73 z"
             id="path12-6"
             inkscape:label="X"
             style="fill:#688630;fill-opacity:1" /><path
             d="m 58.508,156.60212 h 13.836 l 10.183,18.905 10.183,-18.905 h 13.83199 v 29.374 h -8.761983 v -21.096 h -0.08 L 85.893,185.97612 H 79.16 l -11.807,-21.096 h -0.082 v 21.096 h -8.764 v -29.37 z"
             id="path13-2"
             inkscape:label="M"
             style="fill:#688630;fill-opacity:1" /><path
             d="m 112.66199,156.60212 h 24.546 c 8.559,0 10.628,4.302 10.628,10.063 v 2.516 c 0,4.381 -1.908,9.41 -8.275,9.41 h -17.894 v 7.385 h -9.005 v -29.38 z m 9,14.69 h 13.997 c 2.10901,0 2.92401,-1.377 2.92401,-3.123 v -1.135 c 0,-1.99 -0.976,-3.127 -3.694,-3.127 h -13.227 v 7.38 z"
             id="path14-9"
             inkscape:label="P"
             style="fill:#688630;fill-opacity:1" /><path
             d="m 152.72199,156.60212 h 24.546 c 8.561,0 10.63,4.302 10.63,10.063 v 2.516 c 0,4.381 -1.907,9.41 -8.275,9.41 h -17.893 v 7.385 h -9.008 v -29.38 z m 9.01,14.69 h 13.996 c 2.11,0 2.922,-1.377 2.922,-3.123 v -1.135 c 0,-1.99 -0.974,-3.127 -3.693,-3.127 h -13.225 v 7.38 z"
             id="path15-1"
             inkscape:label="P"
             style="fill:#688630;fill-opacity:1" /></g><g
           id="g29"
           inkscape:label="Graphic"><path
             d="m 133.67312,34.300978 c 0.076,1.313 0.12,2.63 0.12,3.957 0,38.551 -30.69898,90.497012 -75.826985,101.860012 v 1.639 c 59.044005,-2.79 105.809995,-63.024012 105.809995,-109.200012 0,-2.375 -0.128,-4.729 -0.371,-7.056 l -29.73,8.798 z"
             style="fill:#e96d1f"
             id="path7" /><path
             d="m 163.69112,24.951978 -7.61699,2.722 c 0.041,0.962 0.066,2.254 0.066,3.225 0,41.219 -37.271,98.204012 -87.271995,107.120012 -3.24501,1.088 -7.53801,2.077 -10.932,2.931 v 1.638 C 123.19013,137.02799 169.03613,70.721978 163.69612,24.947978 Z"
             style="fill:#447cab;fill-opacity:1"
             id="path8" /><path
             d="m 68.143,34.299978 c -0.076,1.313 -0.12,2.63 -0.12,3.957 0,38.551 30.698995,90.497012 75.82699,101.860012 v 1.639 C 84.806,138.96599 38.04,78.731978 38.04,32.555978 c 0,-2.375 0.128,-4.729 0.371,-7.056 l 29.73,8.798 z"
             style="fill:#a0ce67"
             id="path10" /><path
             d="m 38.125,24.950978 7.617,2.722 c -0.041,0.962 -0.066,2.254 -0.066,3.225 0,41.219 37.271,98.204012 87.27199,107.120012 3.245,1.088 7.538,2.077 10.932,2.931 v 1.638 C 78.626,137.02699 32.78,70.720978 38.12,24.946978 Z"
             style="fill:#467ead;fill-opacity:1"
             id="path11" /></g></g><g
         id="g3"
         inkscape:label="Envelope"><g
           id="g13"
           inkscape:label="Newsletter-Traced"
           transform="translate(19.004531)"
           style="display:none"><path
             style="fill:#688630;fill-opacity:1;stroke:none;stroke-width:3.77953;stroke-opacity:1"
             d="m 581.25,430.03896 -0.16968,-38.43326 5.93892,-0.16968 21.04072,32.57918 -0.33937,-32.49434 5.34502,-0.16968 -0.0848,39.11199 h -5.68439 l -21.54977,-31.73077 0.16968,31.56108 z"
             id="path13"
             sodipodi:nodetypes="ccccccccccc"
             inkscape:label="N" /><path
             style="fill:#688630;fill-opacity:1;stroke:none;stroke-width:3.77953;stroke-opacity:1"
             d="m 626.55544,413.83315 17.56221,-0.16968 c 0,0 -2.63298,-8.6256 -7.12669,-8.65384 -4.49372,-0.0282 -10.45507,5.10996 -10.43553,10.52036 0.0195,5.41041 4.13225,11.14441 8.73869,11.11426 4.60644,-0.0302 10.69005,-3.22399 10.69005,-3.22399 l 1.69683,3.30882 c 0,0 -5.0406,3.6286 -12.2172,3.73304 -7.1766,0.10444 -12.43508,-7.5518 -12.38688,-14.93213 0.0482,-7.38033 6.87112,-13.90622 13.74435,-13.82918 6.87323,0.077 9.06661,5.77599 10.94457,11.45362 -0.0715,3.565 -0.0848,3.56334 -0.0848,3.56334 l -21.21041,0.50905 z"
             id="path14"
             sodipodi:nodetypes="cczzzcczzzcccc"
             inkscape:label="e" /><path
             style="fill:#688630;fill-opacity:1;stroke:none;stroke-width:3.77953;stroke-opacity:1"
             d="m 653.02602,402.63508 h 5.09049 l 7.21154,22.14367 7.55091,-22.05883 5.0905,-0.0848 7.04186,22.39819 6.5328,-22.48303 5.42986,0.16968 -9.50226,27.74321 h -4.92081 l -7.29638,-21.63461 -7.89028,21.63461 h -4.75113 z"
             id="path15"
             sodipodi:nodetypes="cccccccccccccc"
             inkscape:label="w" /><path
             style="fill:#688630;fill-opacity:1;stroke:none;stroke-width:3.77953;stroke-opacity:1"
             d="m 703.08258,423.15568 -1.10294,3.81787 c 0,0 5.98266,3.7183 10.26584,3.47851 4.28318,-0.23979 10.42036,-2.87712 10.69004,-8.39932 0.26968,-5.52221 -10.01131,-8.73869 -10.01131,-8.73869 0,0 -6.2078,-1.76213 -6.19344,-4.75113 0.0144,-2.989 3.76113,-3.65558 6.02375,-3.64819 2.26262,0.007 6.53281,2.12104 6.53281,2.12104 l 1.61199,-2.96946 c 0,0 -4.17324,-2.93387 -8.39932,-2.96945 -4.22608,-0.0356 -11.1327,2.80771 -10.77488,8.31447 0.35782,5.50676 8.48416,7.38123 8.48416,7.38123 0,0 8.25055,2.19064 8.31448,5.17534 0.0639,2.9847 -3.80607,4.84199 -6.70249,4.58145 -2.89642,-0.26054 -8.73869,-3.39367 -8.73869,-3.39367 z"
             id="path16"
             sodipodi:nodetypes="cczzczzcczzczzc"
             inkscape:label="s" /><path
             style="fill:#688630;fill-opacity:1;stroke:none;stroke-width:3.77953;stroke-opacity:1"
             d="m 732.2681,390.50277 h 4.58145 l 0.0848,39.9604 h -4.75113 z"
             id="path17"
             sodipodi:nodetypes="ccccc"
             inkscape:label="l" /><path
             style="fill:#688630;fill-opacity:1;stroke:none;stroke-width:3.77953;stroke-opacity:1"
             d="m 750.90183,413.83315 17.56221,-0.16968 c 0,0 -2.63298,-8.6256 -7.12669,-8.65384 -4.49372,-0.0282 -10.45507,5.10996 -10.43553,10.52036 0.0195,5.41041 4.13225,11.14441 8.73869,11.11426 4.60644,-0.0302 10.69005,-3.22399 10.69005,-3.22399 l 1.69683,3.30882 c 0,0 -5.0406,3.6286 -12.2172,3.73304 -7.1766,0.10444 -12.43508,-7.5518 -12.38688,-14.93213 0.0482,-7.38033 6.87112,-13.90622 13.74435,-13.82918 6.87323,0.077 9.06661,5.77599 10.94457,11.45362 -0.0715,3.565 -0.0848,3.56334 -0.0848,3.56334 l -21.21041,0.50905 z"
             id="path18"
             sodipodi:nodetypes="cczzzcczzzcccc"
             inkscape:label="e" /><path
             style="fill:#688630;fill-opacity:1;stroke:none;stroke-width:3.77953;stroke-opacity:1"
             d="m 783.25792,394.87782 4.66629,-1.27263 -0.0848,7.89028 h 7.12671 l 0.0848,3.13913 -7.04185,0.42417 -0.33937,19.7681 c 0,0 1.60603,1.39831 2.88462,1.61199 1.2786,0.21368 4.32692,-1.0181 4.32692,-1.0181 l -0.25452,3.81788 c 0,0 -2.85842,1.82646 -6.1086,1.01809 -3.25017,-0.80836 -5.42986,-5.09049 -5.42986,-5.09049 l 0.0848,-20.10747 -5.17534,-0.33936 -0.0848,-3.13914 5.34502,-10e-6 z"
             id="path19"
             sodipodi:nodetypes="ccccccczcczcccccc"
             inkscape:label="t" /><path
             style="fill:#688630;fill-opacity:1;stroke:none;stroke-width:3.77953;stroke-opacity:1"
             d="m 804.80122,394.87782 4.66629,-1.27263 -0.0848,7.89028 h 7.12671 l 0.0848,3.13913 -7.04185,0.42417 -0.33937,19.7681 c 0,0 1.60603,1.39831 2.88462,1.61199 1.2786,0.21368 4.32692,-1.0181 4.32692,-1.0181 l -0.25452,3.81788 c 0,0 -2.85842,1.82646 -6.1086,1.01809 -3.25017,-0.80836 -5.42986,-5.09049 -5.42986,-5.09049 l 0.0848,-20.10747 -5.17534,-0.33936 -0.0848,-3.13914 5.34502,-10e-6 z"
             id="path20"
             sodipodi:nodetypes="ccccccczcczcccccc"
             inkscape:label="t" /><path
             style="fill:#688630;fill-opacity:1;stroke:none;stroke-width:3.77953;stroke-opacity:1"
             d="m 826.49234,413.83315 17.56221,-0.16968 c 0,0 -2.63298,-8.6256 -7.12669,-8.65384 -4.49372,-0.0282 -10.45507,5.10996 -10.43553,10.52036 0.0195,5.41041 4.13225,11.14441 8.73869,11.11426 4.60644,-0.0302 10.69005,-3.22399 10.69005,-3.22399 l 1.69683,3.30882 c 0,0 -5.0406,3.6286 -12.2172,3.73304 -7.1766,0.10444 -12.43508,-7.5518 -12.38688,-14.93213 0.0482,-7.38033 6.87112,-13.90622 13.74435,-13.82918 6.87323,0.077 9.06661,5.77599 10.94457,11.45362 -0.0715,3.565 -0.0848,3.56334 -0.0848,3.56334 l -21.21041,0.50905 z"
             id="path21"
             sodipodi:nodetypes="cczzzcczzzcccc"
             inkscape:label="e" /><path
             style="fill:#688630;fill-opacity:1;stroke:none;stroke-width:3.77953;stroke-opacity:1"
             d="m 857.49435,430.46317 -0.25453,-28.16742 4.0724,0.0848 0.25448,3.81788 c 0,0 2.04464,-2.71603 4.15725,-3.13914 2.79597,-0.55998 5.85407,0.0848 5.85407,0.0848 l 0.16968,3.81787 c 0,0 -3.26681,-1.22223 -5.5147,-0.0848 -1.84358,0.93282 -4.66629,4.0724 -4.66629,4.0724 l -0.0848,19.51357 z"
             id="path22"
             sodipodi:nodetypes="ccccsccsccc"
             inkscape:label="r" /></g><g
           id="g32"
           inkscape:label="Newsletter-DejavuSansUltraLight"
           style="fill:#688630;fill-opacity:1"
           transform="translate(0.09804095)"><path
             d="m 604.42214,390.75785 h 3.85416 l 18.85416,35.54685 v -35.54685 h 2.60416 v 38.88018 h -3.69791 L 607.07838,393.8568 v 35.78123 h -2.65624 z"
             id="text31"
             style="font-weight:200;font-size:53.3333px;font-family:'DejaVu Sans';-inkscape-font-specification:'DejaVu Sans Ultra-Light';display:inline;fill:#688630;fill-opacity:1;stroke:none;stroke-width:3.77953"
             inkscape:label="N"
             aria-label="Newsletter"
             sodipodi:nodetypes="ccccccccccc" /><path
             d="m 666.63564,413.85679 v 1.51042 h -22.1354 c 0,4.68749 0.91146,7.96874 2.73437,9.84374 2.01389,2.08333 5.00868,3.125 8.98437,3.125 1.04167,0 2.42187,-0.22569 4.14062,-0.67708 1.73611,-0.45139 3.45486,-1.12848 5.15625,-2.03125 v 2.52604 c -1.71875,0.72917 -3.4809,1.28472 -5.28646,1.66666 -1.80555,0.38195 -3.23784,0.57292 -4.29687,0.57292 -4.49653,0 -7.88194,-1.21528 -10.15624,-3.64583 -2.46528,-2.58681 -3.69792,-6.38021 -3.69792,-11.3802 0,-5.19097 1.12847,-9.0625 3.38542,-11.61458 2.30903,-2.65625 5.52083,-3.98437 9.63541,-3.98437 3.81944,0 6.70138,1.25868 8.64583,3.77604 1.92708,2.63889 2.89062,6.07638 2.89062,10.31249 z m -2.42187,-0.52083 c 0,-4.09722 -0.92014,-7.08333 -2.76042,-8.95833 -1.54514,-1.66667 -3.64583,-2.5 -6.30208,-2.5 -2.8993,0 -5.32985,0.86806 -7.29166,2.60417 -1.80555,1.61458 -2.89062,4.56597 -3.25521,8.85416 z"
             id="path32"
             style="font-weight:200;font-size:53.3333px;font-family:'DejaVu Sans';-inkscape-font-specification:'DejaVu Sans Ultra-Light';display:inline;fill:#688630;fill-opacity:1;stroke:none;stroke-width:3.77953"
             inkscape:label="e"
             aria-label="Newsletter"
             sodipodi:nodetypes="scccscccsscscscsccsccc" /><path
             d="m 674.05751,400.47138 h 2.47396 l 6.84895,25.98957 6.79687,-25.98957 h 3.04688 l 6.84895,26.11978 6.82291,-26.11978 h 2.47396 l -7.6302,29.16665 h -3.33334 l -6.71874,-25.5729 -6.69271,25.5729 h -3.28124 z"
             id="path33"
             style="font-weight:200;font-size:53.3333px;font-family:'DejaVu Sans';-inkscape-font-specification:'DejaVu Sans Ultra-Light';display:inline;fill:#688630;fill-opacity:1;stroke:none;stroke-width:3.77953"
             inkscape:label="w"
             aria-label="Newsletter"
             sodipodi:nodetypes="cccccccccccccc" /><path
             d="m 736.84393,401.33076 v 2.6302 c -1.68403,-0.9375 -2.73437,-1.45833 -3.15104,-1.5625 -1.21527,-0.29513 -2.72569,-0.46874 -4.53124,-0.52083 -2.74306,0 -4.89584,0.54687 -6.45833,1.64062 -1.19792,0.90278 -1.79688,2.44792 -1.79688,4.63542 0,1.47569 0.56424,2.63021 1.69271,3.46354 1.19791,0.90277 2.90798,1.59722 5.1302,2.08333 l 1.64063,0.36458 c 2.76041,0.60764 4.85243,1.46702 6.27604,2.57813 1.6493,1.26736 2.51735,2.91666 2.60416,4.94791 0,2.76041 -0.81597,4.92187 -2.44791,6.48437 -1.73611,1.54514 -4.53125,2.31771 -8.38542,2.31771 -2.15277,0 -3.78472,-0.14757 -4.89583,-0.44271 -1.3368,-0.38195 -2.74305,-0.84202 -4.21874,-1.38021 v -2.99479 c 2.11805,1.21528 3.48958,1.90973 4.11458,2.08334 1.71875,0.45139 3.42013,0.67708 5.10416,0.67708 2.8125,0 4.88715,-0.5816 6.22396,-1.74479 1.35416,-1.18055 2.03124,-2.72569 2.03124,-4.63542 0,-1.59722 -0.45139,-2.76041 -1.35416,-3.48958 -1.30209,-1.04167 -3.37674,-1.89236 -6.22396,-2.55208 l -1.66666,-0.39062 c -2.44791,-0.57292 -4.31423,-1.38021 -5.59896,-2.42188 -1.61458,-1.30208 -2.42187,-2.88194 -2.42187,-4.73958 0,-3.05555 0.97222,-5.25173 2.91666,-6.58854 1.94445,-1.3368 4.3316,-2.0052 7.16146,-2.0052 2.41319,0 4.07986,0.13021 5,0.39062 1.11111,0.3125 2.19617,0.70313 3.2552,1.17188 z"
             id="path34"
             style="font-weight:200;font-size:53.3333px;font-family:'DejaVu Sans';-inkscape-font-specification:'DejaVu Sans Ultra-Light';display:inline;fill:#688630;fill-opacity:1;stroke:none;stroke-width:3.77953"
             inkscape:label="s"
             aria-label="Newsletter"
             sodipodi:nodetypes="cccccsccccccsccccscsccccssscc" /><path
             d="m 748.11997,389.11722 h 2.39583 v 40.52081 h -2.39583 z"
             id="path35"
             style="font-weight:200;font-size:53.3333px;font-family:'DejaVu Sans';-inkscape-font-specification:'DejaVu Sans Ultra-Light';display:inline;fill:#688630;fill-opacity:1;stroke:none;stroke-width:3.77953"
             inkscape:label="l"
             aria-label="Newsletter"
             sodipodi:nodetypes="ccccc" /><path
             d="m 785.67202,413.85679 v 1.51042 h -22.1354 c 0,4.68749 0.91146,7.96874 2.73437,9.84374 2.01389,2.08333 5.00868,3.125 8.98437,3.125 1.04167,0 2.42187,-0.22569 4.14062,-0.67708 1.73611,-0.45139 3.45486,-1.12848 5.15625,-2.03125 v 2.52604 c -1.71875,0.72917 -3.4809,1.28472 -5.28646,1.66666 -1.80555,0.38195 -3.23784,0.57292 -4.29687,0.57292 -4.49653,0 -7.88194,-1.21528 -10.15624,-3.64583 -2.46528,-2.58681 -3.69792,-6.38021 -3.69792,-11.3802 0,-5.19097 1.12847,-9.0625 3.38542,-11.61458 2.30903,-2.65625 5.52083,-3.98437 9.63541,-3.98437 3.81944,0 6.70138,1.25868 8.64583,3.77604 1.92708,2.63889 2.89062,6.07638 2.89062,10.31249 z m -2.42187,-0.52083 c 0,-4.09722 -0.92014,-7.08333 -2.76042,-8.95833 -1.54513,-1.66667 -3.64583,-2.5 -6.30208,-2.5 -2.8993,0 -5.32985,0.86806 -7.29166,2.60417 -1.80555,1.61458 -2.89062,4.56597 -3.25521,8.85416 z"
             id="path36"
             style="font-weight:200;font-size:53.3333px;font-family:'DejaVu Sans';-inkscape-font-specification:'DejaVu Sans Ultra-Light';display:inline;fill:#688630;fill-opacity:1;stroke:none;stroke-width:3.77953"
             inkscape:label="e"
             aria-label="Newsletter"
             sodipodi:nodetypes="scccscccsscscscsccsccc" /><path
             d="m 798.27618,392.19014 v 8.28124 h 9.86979 v 2.03125 h -9.86979 v 17.52603 c 0,2.22222 0.28646,3.77604 0.85938,4.66146 1.18055,1.94444 2.8993,2.91666 5.15625,2.91666 h 3.85416 v 2.03125 h -3.72396 c -2.37847,0 -4.40103,-0.69444 -6.0677,-2.08333 -1.66667,-1.38889 -2.5,-3.89757 -2.5,-7.52604 v -17.52603 h -3.48958 v -2.03125 h 3.48958 v -8.28124 z"
             id="path37"
             style="font-weight:200;font-size:53.3333px;font-family:'DejaVu Sans';-inkscape-font-specification:'DejaVu Sans Ultra-Light';display:inline;fill:#688630;fill-opacity:1;stroke:none;stroke-width:3.77953"
             inkscape:label="t"
             aria-label="Newsletter"
             sodipodi:nodetypes="cccccscsccssscccccc" /><path
             d="m 819.18764,392.19014 v 8.28124 h 9.86978 v 2.03125 h -9.86978 v 17.52603 c 0,2.22222 0.28646,3.77604 0.85937,4.66146 1.18055,1.94444 2.8993,2.91666 5.15625,2.91666 h 3.85416 v 2.03125 h -3.72395 c -2.37847,0 -4.40104,-0.69444 -6.06771,-2.08333 -1.66667,-1.38889 -2.5,-3.89757 -2.5,-7.52604 v -17.52603 h -3.48958 v -2.03125 h 3.48958 v -8.28124 z"
             id="path38"
             style="font-weight:200;font-size:53.3333px;font-family:'DejaVu Sans';-inkscape-font-specification:'DejaVu Sans Ultra-Light';display:inline;fill:#688630;fill-opacity:1;stroke:none;stroke-width:3.77953"
             inkscape:label="t"
             aria-label="Newsletter"
             sodipodi:nodetypes="cccccscsccssscccccc" /><path
             d="m 860.3074,413.85679 v 1.51042 h -22.13541 c 0,4.68749 0.91146,7.96874 2.73438,9.84374 2.01389,2.08333 5.00868,3.125 8.98437,3.125 1.04167,0 2.42187,-0.22569 4.14062,-0.67708 1.73611,-0.45139 3.45486,-1.12848 5.15625,-2.03125 v 2.52604 c -1.71875,0.72917 -3.48091,1.28472 -5.28646,1.66666 -1.80555,0.38195 -3.23784,0.57292 -4.29687,0.57292 -4.49653,0 -7.88194,-1.21528 -10.15625,-3.64583 -2.46527,-2.58681 -3.69791,-6.38021 -3.69791,-11.3802 0,-5.19097 1.12847,-9.0625 3.38541,-11.61458 2.30903,-2.65625 5.52083,-3.98437 9.63542,-3.98437 3.81944,0 6.70138,1.25868 8.64582,3.77604 1.92709,2.63889 2.89063,6.07638 2.89063,10.31249 z m -2.42188,-0.52083 c 0,-4.09722 -0.92014,-7.08333 -2.76041,-8.95833 -1.54514,-1.66667 -3.64583,-2.5 -6.30208,-2.5 -2.89931,0 -5.32986,0.86806 -7.29166,2.60417 -1.80556,1.61458 -2.89063,4.56597 -3.25521,8.85416 z"
             id="path39"
             style="font-weight:200;font-size:53.3333px;font-family:'DejaVu Sans';-inkscape-font-specification:'DejaVu Sans Ultra-Light';display:inline;fill:#688630;fill-opacity:1;stroke:none;stroke-width:3.77953"
             inkscape:label="e"
             aria-label="Newsletter"
             sodipodi:nodetypes="scccscccsscscscsccsccc" /><path
             d="m 886.21886,402.52867 c -0.38195,-0.19097 -0.90278,-0.3559 -1.5625,-0.49479 -0.59028,-0.10417 -1.33681,-0.15625 -2.23958,-0.15625 -2.95139,0 -5.3993,1.09375 -7.34375,3.28125 -1.52777,1.77083 -2.29166,4.80903 -2.29166,9.11458 v 15.36457 h -2.34375 v -29.16665 h 2.34375 v 5.46875 c 0.78125,-1.5625 1.875,-2.88194 3.28125,-3.95833 1.94444,-1.47569 4.2361,-2.21354 6.87499,-2.21354 0.67709,0 1.26736,0.026 1.77083,0.0781 0.52083,0 1.02431,0.0608 1.51042,0.18229 z"
             id="path40"
             style="font-weight:200;font-size:53.3333px;font-family:'DejaVu Sans';-inkscape-font-specification:'DejaVu Sans Ultra-Light';display:inline;fill:#688630;fill-opacity:1;stroke:none;stroke-width:3.77953"
             inkscape:label="r"
             aria-label="Newsletter"
             sodipodi:nodetypes="ccscsccccccsccc" /></g><g
           id="g30"
           inkscape:label="Graphic"><rect
             style="fill:#688630;fill-opacity:1;stroke:none;stroke-width:3.77953;stroke-opacity:1"
             id="rect3"
             width="249.43437"
             height="176.4706"
             x="620.70135"
             y="137.10406"
             ry="12.895922" /><path
             style="fill:#ffffff;fill-opacity:1;stroke:none;stroke-width:3.77953;stroke-opacity:1"
             d="m 640.21493,149.32127 105.37331,70.24887 104.86425,-70.41856 c 0,0 3.63635,-2.0303 6.27828,2.0362 2.64193,4.0665 -0.33937,6.95702 -0.33937,6.95702 l -110.80316,74.32126 -111.4819,-74.49095 c 0,0 -2.33816,-3.67128 0,-6.95701 2.33816,-3.28573 6.10859,-1.69683 6.10859,-1.69683 z"
             id="path3"
             sodipodi:nodetypes="ccczccczc" /></g></g></g></g><style
     id="style1">
	path {
		fill: black;
	}
	@media (prefers-color-scheme: dark) {
		path {
			fill: white;
		}
	}
</style><style
     id="style1-3">
	path {
		fill: black;
	}
	@media (prefers-color-scheme: dark) {
		path {
			fill: white;
		}
	}
</style></svg>
