<svg height="600" viewBox="0 0 1200 600" width="1200" xmlns="http://www.w3.org/2000/svg" xmlns:xlink="http://www.w3.org/1999/xlink"><clipPath id="a"><path d="m667.26379 146.56729h188.91732v212.98493h-188.91732zm40.75769 80.33115c.65257 25.51932 21.7279 52.00433 46.98438 66.63672-5.83241 4.60447-12.43288 8.11676-19.64063 9.93163v.50587c-.005.001-.0122.003-.0176.004v1.00586c7.65124-.65193 14.86199-2.6718 21.50781-5.69726 1.63104-.67268 3.25178-1.41449 4.86523-2.19141 1.59501.76812 3.19831 1.49778 4.81055 2.16406 6.6619 3.04025 13.89278 5.07078 21.56641 5.72461v-1.00391c-.005-.001-.0122-.003-.0176-.004v-.50782c-7.20818-1.81498-13.80991-5.32676-19.64258-9.93163 25.25733-14.63217 46.33374-41.11676 46.98633-66.63672l-15.24414 5.9082-4.54883 1.625-13.79688 4.08398v.002c.0466.8059.0723 1.61324.0723 2.42773 0 15.00192-7.58045 33.30251-20.18359 46.47071-12.60298-13.16818-20.18555-31.46694-20.18555-46.46875 0-.8145.0276-1.62379.0742-2.42969l-13.79492-4.08203-4.62891-1.65625-.004-.002z"/></clipPath><rect fill="#fff" height="597.2851" ry=".50905" width="1199.3695" x=".315247" y="1.919747"/><rect fill="#d2702f" height="35" ry=".501664" width="300" x=".220204" y="565"/><rect fill="#457faf" height="35" ry=".501664" width="300" x="300.18814" y="565"/><rect fill="#adcc6f" height="35" ry=".501664" width="300" x="600.15607" y="565"/><rect fill="#58a0d2" height="35" ry=".501664" width="300" x="900.12402" y="565"/><g fill="#d27131" transform="matrix(1.2652006 0 0 1.2652006 376.15896 194.12118)"><path d="m25.988 172.07799-13.388-14.65h11.643l9.127 10.268 9.129-10.268h11.643l-13.387 14.646 14.401 14.728h-12.09l-9.697-10.67-9.693 10.67h-12.092l14.404-14.73z"/><path d="m58.508 157.42799h13.836l10.183 18.905 10.183-18.905h13.83199v29.374h-8.761983v-21.096h-.08l-11.807007 21.096h-6.733l-11.807-21.096h-.082v21.096h-8.764v-29.37z"/><path d="m112.66199 157.42799h24.546c8.559 0 10.628 4.302 10.628 10.063v2.516c0 4.381-1.908 9.41-8.275 9.41h-17.894v7.385h-9.005v-29.38zm9 14.69h13.997c2.10901 0 2.92401-1.377 2.92401-3.123v-1.135c0-1.99-.976-3.127-3.694-3.127h-13.227v7.38z"/><path d="m152.72199 157.42799h24.546c8.561 0 10.63 4.302 10.63 10.063v2.516c0 4.381-1.907 9.41-8.275 9.41h-17.893v7.385h-9.008v-29.38zm9.01 14.69h13.996c2.11 0 2.922-1.377 2.922-3.123v-1.135c0-1.99-.974-3.127-3.693-3.127h-13.225v7.38z"/></g><g transform="matrix(1.2652006 0 0 1.2652006 322.15896 132.12118)"><path d="m151.80512 29.557978c.077 1.313-1.787.968-1.787 2.293 0 38.551-46.558 97.366012-91.687985 108.730012v1.639c59.952995-5.52 128.559985-67.800012 130.069985-126.850013l-36.599 14.189001z" fill="#447cab"/><path d="m133.67312 34.300978c.076 1.313.12 2.63.12 3.957 0 38.551-30.69898 90.497012-75.826985 101.860012v1.639c59.044005-2.79 105.809995-63.024012 105.809995-109.200012 0-2.375-.128-4.729-.371-7.056l-29.73 8.798z" fill="#e96d1f"/><path d="m50.011 29.556978c-.077 1.313 1.787.968 1.787 2.293 0 38.551 46.558007 97.366012 91.68799 108.730012v1.639c-59.95299-5.52-128.55999-67.800012-130.06999-126.850013l36.599 14.189001z" fill="#467ead"/><path d="m68.143 34.299978c-.076 1.313-.12 2.63-.12 3.957 0 38.551 30.698995 90.497012 75.82699 101.860012v1.639c-59.04399-2.79-105.80999-63.024012-105.80999-109.200012 0-2.375.128-4.729.371-7.056l29.73 8.798z" fill="#a0ce67"/></g><g stroke-width="3.77953"><g fill="#d2702f" transform="matrix(1.0528587 -.30672345 .30672345 1.0528587 -144.61713 182.84657)"><path clip-path="url(#a)" d="m683.7777 151.56729h115.8895c16.21295 0 51.51391 35.11266 51.51391 51.51391v133.95711c0 9.7027-7.81121 17.51391-17.51391 17.51391h-143.8895c-9.7027 0-17.51391-7.81121-17.51391-17.51391v-167.95711c0-9.7027 1.81121-17.51391 11.51391-17.51391z" fill="#d2702f" opacity=".989136" transform="translate(7.169578 2.088673)"/><path d="m806.67112 153.60769c16.21295 0 51.51391 35.11266 51.51391 51.51391v.49503s-26.33457-4.04309-44.0897 8.2203c6.31138-33.75045-8.03921-59.17585-8.03921-59.17585s-15.32606-1.05339.615-1.05339z" fill="#a40" opacity=".989136"/></g><g fill="#d27131" opacity=".989136" transform="matrix(1.2118111 0 0 .96133503 -87.40384 6.398324)"><path d="m621.68573 438.25719q-4.10948 0-7.54272-1.24845-3.38122-1.30047-5.40996-3.79738-2.02873-2.4969-2.02873-6.03418l.052-1.14441h7.64676l-.052.8323q0 2.28883 2.02874 3.64132 2.02873 1.35248 5.67005 1.35248 3.84939 0 5.56601-.98835 1.71662-1.04038 1.71662-2.757 0-1.50854-1.14442-2.4969-1.09239-1.04038-2.80901-1.61258-1.6646-.62423-4.62967-1.45653-4.21353-1.19643-6.81447-2.28883-2.60094-1.09239-4.47361-3.22516-1.87268-2.18479-1.87268-5.72207 0-4.88977 3.95343-7.43869 3.95343-2.54892 10.5078-2.54892 6.19023 0 10.09164 2.65296 3.95343 2.60094 3.95343 7.85484v.62422h-7.4907v-.46817q0-1.97671-1.82066-3.12112-1.76864-1.14442-4.83775-1.14442-3.27719 0-5.04582.88432-1.71662.88432-1.71662 2.44489 0 1.19643 1.04037 2.08075 1.04038.8323 2.60094 1.4045 1.56056.52019 4.4216 1.30047 4.26554 1.14442 6.97052 2.28883 2.75699 1.0924 4.73371 3.27719 1.97671 2.18479 1.97671 5.72206 0 5.72207-4.10948 8.42705-4.05747 2.70498-11.13203 2.70498z"/><path d="m642.9094 410.27107h6.08619l.46817 3.5893h.36414q1.30047-2.08075 3.48526-3.12113 2.18478-1.09239 4.83774-1.09239 5.20188 0 8.06292 3.58929 2.86103 3.53728 2.86103 10.7679 0 7.07455-2.91305 10.66385-2.86104 3.5893-7.64676 3.5893-2.757 0-4.88977-.98836-2.08075-.98836-3.27719-2.80902h-.31211v12.1724h-7.12657zm12.95268 21.79588q3.17314 0 4.52563-1.87268 1.35249-1.92469 1.35249-5.77408v-.93634q0-3.84939-1.35249-5.72207-1.35249-1.9247-4.52563-1.9247-5.82611 0-5.82611 7.64677v.8323q0 7.7508 5.82611 7.7508z"/><path d="m685.98096 438.25719q-6.60638 0-9.88357-3.48526-3.22516-3.48526-3.22516-10.81991 0-7.33465 3.22516-10.81991 3.27719-3.48526 9.88357-3.48526 6.0862 0 9.10329 3.53728 3.01709 3.48526 3.01709 10.76789v1.6646h-17.9985q.10404 3.64131 1.45653 5.40995 1.35248 1.71662 4.52563 1.71662 2.23681 0 3.5893-1.24845 1.40451-1.24845 1.40451-3.53728h7.02253q0 5.14987-3.3292 7.75081-3.3292 2.54892-8.79118 2.54892zm4.73371-17.37428q0-5.67005-4.73371-5.67005-2.70497 0-4.10948 1.40451-1.35249 1.4045-1.6646 4.26554z"/><path d="m714.95542 438.25719q-6.55437 0-9.83155-3.48526-3.22517-3.48526-3.22517-10.81991 0-7.28263 3.22517-10.76789 3.27718-3.53728 9.83155-3.53728 5.46198 0 8.68714 2.80901 3.27719 2.757 3.27719 8.11494h-7.1786q0-2.49691-1.30047-3.8494-1.30047-1.35248-3.64131-1.35248-2.91306 0-4.31756 2.08075-1.35249 2.02873-1.35249 6.0862v.8323q0 4.05746 1.4045 6.13822 1.45653 2.02873 4.62968 2.02873 2.23681 0 3.53728-1.35249 1.35248-1.40451 1.35248-3.84939h6.86649q0 5.35794-3.22517 8.16695-3.22517 2.757-8.73916 2.757z"/><path d="m743.46171 438.25719q-5.72207 0-8.99925-2.34085-3.22517-2.39286-3.22517-6.34629l.052-.62423h6.9185v.36413q.052 1.82066 1.61259 2.65296 1.61258.78028 3.90141.78028 2.13277 0 3.64131-.5722 1.50855-.57221 1.50855-1.87268 0-1.45653-1.56057-2.18479-1.50854-.72826-4.78573-1.45653-3.38122-.78028-5.51399-1.56056-2.13277-.8323-3.69333-2.54892-1.56057-1.71662-1.56057-4.57765 0-4.00545 3.3292-6.13822 3.38123-2.18479 8.68714-2.18479 4.94179 0 8.16696 2.02873 3.22516 1.97672 3.22516 5.40996l-.052 1.19643h-6.9185v-.10404q-.052-1.50854-1.30047-2.23681-1.24845-.78028-3.38122-.78028-2.13277 0-3.38122.57221-1.24845.5722-1.24845 1.61258 0 1.30047 1.4045 1.9247 1.45653.62422 4.62968 1.24845 3.48526.78028 5.67005 1.56056 2.18479.78028 3.79737 2.54892 1.61258 1.76864 1.61258 4.78573 0 8.8432-12.53653 8.8432z"/></g></g></svg>