<svg height="600" viewBox="0 0 1200 600" width="1200" xmlns="http://www.w3.org/2000/svg" xmlns:xlink="http://www.w3.org/1999/xlink"><mask id="a" maskUnits="userSpaceOnUse"><path d="m671.26379 150.56729h180.91732v204.98493h-180.91732z" fill="#fff"/><path d="m708.38596 240.73685 12.86894 17.30971-13.90746 19.3203 9.7206-.0704 9.38402-13.84102.29564-.002 9.70101 13.70283 10.37244-.0751-14.24532-19.22331 12.67647-17.38781-9.7206.0704-8.09246 11.90988-.29743.002-8.32464-11.791zm42.20039-.30557.26516 36.62057 32.30168-.2339-.0475-6.56648-23.70845.17167-.0642-8.86039 20.7449-.15021-.0476-6.56649-20.74489.15022-.0584-8.06073 23.35225-.16909-.0476-6.56648zm39.53248-.28625.26517 36.62056 8.59501-.0622-.0912-12.59867 10.19435-.0738c4.74154-.0343 8.28972-1.10909 10.64529-3.22602 2.39483-2.15282 3.57842-5.13372 3.55084-8.94178-.0276-3.80807-1.19438-6.73627-3.50109-8.78386-2.30695-2.08317-5.73371-3.10742-10.27769-3.07451zm8.64256 6.50425 10.01624-.0725c1.85712-.0135 3.2829.45616 4.27768 1.40992.99452.91818 1.498 2.23119 1.51037 3.93949.0126 1.74387-.47153 3.09973-1.45239 4.06781-.98086.96806-2.39969 1.45826-4.25681 1.47171l-10.01625.0725z" fill="#ab4400" opacity=".989136" stroke-width="3.98632"/></mask><rect fill="#fff" height="597.2851" ry=".50905" width="1199.3695" x=".315247" y="1.919747"/><rect fill="#d2702f" height="35" ry=".501664" width="300" x=".220204" y="565"/><rect fill="#457faf" height="35" ry=".501664" width="300" x="300.18814" y="565"/><rect fill="#adcc6f" height="35" ry=".501664" width="300" x="600.15607" y="565"/><rect fill="#58a0d2" height="35" ry=".501664" width="300" x="900.12402" y="565"/><g fill="#d27131" transform="matrix(1.2652006 0 0 1.2652006 376.15896 194.12118)"><path d="m25.988 172.07799-13.388-14.65h11.643l9.127 10.268 9.129-10.268h11.643l-13.387 14.646 14.401 14.728h-12.09l-9.697-10.67-9.693 10.67h-12.092l14.404-14.73z"/><path d="m58.508 157.42799h13.836l10.183 18.905 10.183-18.905h13.83199v29.374h-8.761983v-21.096h-.08l-11.807007 21.096h-6.733l-11.807-21.096h-.082v21.096h-8.764v-29.37z"/><path d="m112.66199 157.42799h24.546c8.559 0 10.628 4.302 10.628 10.063v2.516c0 4.381-1.908 9.41-8.275 9.41h-17.894v7.385h-9.005v-29.38zm9 14.69h13.997c2.10901 0 2.92401-1.377 2.92401-3.123v-1.135c0-1.99-.976-3.127-3.694-3.127h-13.227v7.38z"/><path d="m152.72199 157.42799h24.546c8.561 0 10.63 4.302 10.63 10.063v2.516c0 4.381-1.907 9.41-8.275 9.41h-17.893v7.385h-9.008v-29.38zm9.01 14.69h13.996c2.11 0 2.922-1.377 2.922-3.123v-1.135c0-1.99-.974-3.127-3.693-3.127h-13.225v7.38z"/></g><g transform="matrix(1.2652006 0 0 1.2652006 322.15896 132.12118)"><path d="m151.80512 29.557978c.077 1.313-1.787.968-1.787 2.293 0 38.551-46.558 97.366012-91.687985 108.730012v1.639c59.952995-5.52 128.559985-67.800012 130.069985-126.850013l-36.599 14.189001z" fill="#447cab"/><path d="m133.67312 34.300978c.076 1.313.12 2.63.12 3.957 0 38.551-30.69898 90.497012-75.826985 101.860012v1.639c59.044005-2.79 105.809995-63.024012 105.809995-109.200012 0-2.375-.128-4.729-.371-7.056l-29.73 8.798z" fill="#e96d1f"/><path d="m50.011 29.556978c-.077 1.313 1.787.968 1.787 2.293 0 38.551 46.558007 97.366012 91.68799 108.730012v1.639c-59.95299-5.52-128.55999-67.800012-130.06999-126.850013l36.599 14.189001z" fill="#467ead"/><path d="m68.143 34.299978c-.076 1.313-.12 2.63-.12 3.957 0 38.551 30.698995 90.497012 75.82699 101.860012v1.639c-59.04399-2.79-105.80999-63.024012-105.80999-109.200012 0-2.375.128-4.729.371-7.056l29.73 8.798z" fill="#a0ce67"/></g><g stroke-width="3.77953"><g fill="#d2702f" transform="matrix(1.0965982 .00794039 -.00794039 1.0965982 -96.467531 -69.877884)"><path d="m683.7777 151.56729h115.8895c16.21295 0 51.51391 35.11266 51.51391 51.51391v133.95711c0 9.7027-7.81121 17.51391-17.51391 17.51391h-143.8895c-9.7027 0-17.51391-7.81121-17.51391-17.51391v-167.95711c0-9.7027 1.81121-17.51391 11.51391-17.51391z" fill="#d2702f" mask="url(#a)" opacity=".989136" transform="matrix(.97348471 -.2287521 .2287521 .97348471 -30.519586 183.015474)"/><path d="m782.44323 147.62926c15.78306-3.70875 58.1801 22.39772 61.93192 38.36409l.11324.4819s-26.56117 2.0882-41.04024 18.08795c-1.57645-34.29929-21.36265-55.7678-21.36265-55.7678s-15.16065 2.48041.35773-1.16614z" fill="#a40" opacity=".989136"/></g><g fill="#d27131" opacity=".989136" transform="matrix(1.2118111 0 0 .96133503 -87.40384 6.398324)"><path d="m621.68573 438.25719q-4.10948 0-7.54272-1.24845-3.38122-1.30047-5.40996-3.79738-2.02873-2.4969-2.02873-6.03418l.052-1.14441h7.64676l-.052.8323q0 2.28883 2.02874 3.64132 2.02873 1.35248 5.67005 1.35248 3.84939 0 5.56601-.98835 1.71662-1.04038 1.71662-2.757 0-1.50854-1.14442-2.4969-1.09239-1.04038-2.80901-1.61258-1.6646-.62423-4.62967-1.45653-4.21353-1.19643-6.81447-2.28883-2.60094-1.09239-4.47361-3.22516-1.87268-2.18479-1.87268-5.72207 0-4.88977 3.95343-7.43869 3.95343-2.54892 10.5078-2.54892 6.19023 0 10.09164 2.65296 3.95343 2.60094 3.95343 7.85484v.62422h-7.4907v-.46817q0-1.97671-1.82066-3.12112-1.76864-1.14442-4.83775-1.14442-3.27719 0-5.04582.88432-1.71662.88432-1.71662 2.44489 0 1.19643 1.04037 2.08075 1.04038.8323 2.60094 1.4045 1.56056.52019 4.4216 1.30047 4.26554 1.14442 6.97052 2.28883 2.75699 1.0924 4.73371 3.27719 1.97671 2.18479 1.97671 5.72206 0 5.72207-4.10948 8.42705-4.05747 2.70498-11.13203 2.70498z"/><path d="m642.9094 410.27107h6.08619l.46817 3.5893h.36414q1.30047-2.08075 3.48526-3.12113 2.18478-1.09239 4.83774-1.09239 5.20188 0 8.06292 3.58929 2.86103 3.53728 2.86103 10.7679 0 7.07455-2.91305 10.66385-2.86104 3.5893-7.64676 3.5893-2.757 0-4.88977-.98836-2.08075-.98836-3.27719-2.80902h-.31211v12.1724h-7.12657zm12.95268 21.79588q3.17314 0 4.52563-1.87268 1.35249-1.92469 1.35249-5.77408v-.93634q0-3.84939-1.35249-5.72207-1.35249-1.9247-4.52563-1.9247-5.82611 0-5.82611 7.64677v.8323q0 7.7508 5.82611 7.7508z"/><path d="m685.98096 438.25719q-6.60638 0-9.88357-3.48526-3.22516-3.48526-3.22516-10.81991 0-7.33465 3.22516-10.81991 3.27719-3.48526 9.88357-3.48526 6.0862 0 9.10329 3.53728 3.01709 3.48526 3.01709 10.76789v1.6646h-17.9985q.10404 3.64131 1.45653 5.40995 1.35248 1.71662 4.52563 1.71662 2.23681 0 3.5893-1.24845 1.40451-1.24845 1.40451-3.53728h7.02253q0 5.14987-3.3292 7.75081-3.3292 2.54892-8.79118 2.54892zm4.73371-17.37428q0-5.67005-4.73371-5.67005-2.70497 0-4.10948 1.40451-1.35249 1.4045-1.6646 4.26554z"/><path d="m714.95542 438.25719q-6.55437 0-9.83155-3.48526-3.22517-3.48526-3.22517-10.81991 0-7.28263 3.22517-10.76789 3.27718-3.53728 9.83155-3.53728 5.46198 0 8.68714 2.80901 3.27719 2.757 3.27719 8.11494h-7.1786q0-2.49691-1.30047-3.8494-1.30047-1.35248-3.64131-1.35248-2.91306 0-4.31756 2.08075-1.35249 2.02873-1.35249 6.0862v.8323q0 4.05746 1.4045 6.13822 1.45653 2.02873 4.62968 2.02873 2.23681 0 3.53728-1.35249 1.35248-1.40451 1.35248-3.84939h6.86649q0 5.35794-3.22517 8.16695-3.22517 2.757-8.73916 2.757z"/><path d="m743.46171 438.25719q-5.72207 0-8.99925-2.34085-3.22517-2.39286-3.22517-6.34629l.052-.62423h6.9185v.36413q.052 1.82066 1.61259 2.65296 1.61258.78028 3.90141.78028 2.13277 0 3.64131-.5722 1.50855-.57221 1.50855-1.87268 0-1.45653-1.56057-2.18479-1.50854-.72826-4.78573-1.45653-3.38122-.78028-5.51399-1.56056-2.13277-.8323-3.69333-2.54892-1.56057-1.71662-1.56057-4.57765 0-4.00545 3.3292-6.13822 3.38123-2.18479 8.68714-2.18479 4.94179 0 8.16696 2.02873 3.22516 1.97672 3.22516 5.40996l-.052 1.19643h-6.9185v-.10404q-.052-1.50854-1.30047-2.23681-1.24845-.78028-3.38122-.78028-2.13277 0-3.38122.57221-1.24845.5722-1.24845 1.61258 0 1.30047 1.4045 1.9247 1.45653.62422 4.62968 1.24845 3.48526.78028 5.67005 1.56056 2.18479.78028 3.79737 2.54892 1.61258 1.76864 1.61258 4.78573 0 8.8432-12.53653 8.8432z"/></g></g></svg>