<svg height="600" viewBox="0 0 1200 600" width="1200" xmlns="http://www.w3.org/2000/svg"><rect fill="#fff" height="597.2851" ry=".50905" width="1199.3695" x=".315247" y="1.919747"/><rect fill="#d2702f" height="35" ry=".501664" width="300" x=".220204" y="565"/><rect fill="#457faf" height="35" ry=".501664" width="300" x="300.18814" y="565"/><rect fill="#adcc6f" height="35" ry=".501664" width="300" x="600.15607" y="565"/><rect fill="#58a0d2" height="35" ry=".501664" width="300" x="900.12402" y="565"/><g fill="#688630" transform="matrix(1.2652006 0 0 1.2652006 322.15896 194.12118)"><path d="m25.988 172.07799-13.388-14.65h11.643l9.127 10.268 9.129-10.268h11.643l-13.387 14.646 14.401 14.728h-12.09l-9.697-10.67-9.693 10.67h-12.092l14.404-14.73z"/><path d="m58.508 157.42799h13.836l10.183 18.905 10.183-18.905h13.83199v29.374h-8.761983v-21.096h-.08l-11.807007 21.096h-6.733l-11.807-21.096h-.082v21.096h-8.764v-29.37z"/><path d="m112.66199 157.42799h24.546c8.559 0 10.628 4.302 10.628 10.063v2.516c0 4.381-1.908 9.41-8.275 9.41h-17.894v7.385h-9.005v-29.38zm9 14.69h13.997c2.10901 0 2.92401-1.377 2.92401-3.123v-1.135c0-1.99-.976-3.127-3.694-3.127h-13.227v7.38z"/><path d="m152.72199 157.42799h24.546c8.561 0 10.63 4.302 10.63 10.063v2.516c0 4.381-1.907 9.41-8.275 9.41h-17.893v7.385h-9.008v-29.38zm9.01 14.69h13.996c2.11 0 2.922-1.377 2.922-3.123v-1.135c0-1.99-.974-3.127-3.693-3.127h-13.225v7.38z"/></g><rect fill="#688630" height="176.4706" ry="12.895922" width="249.43437" x="620.70135" y="137.10406"/><path d="m640.21493 149.32127 105.37331 70.24887 104.86425-70.41856s3.63635-2.0303 6.27828 2.0362-.33937 6.95702-.33937 6.95702l-110.80316 74.32126-111.4819-74.49095s-2.33816-3.67128 0-6.95701 6.10859-1.69683 6.10859-1.69683z" fill="#fff"/><g transform="matrix(1.2652006 0 0 1.2652006 322.15896 132.12118)"><path d="m151.80512 29.557978c.077 1.313-1.787.968-1.787 2.293 0 38.551-46.558 97.366012-91.687985 108.730012v1.639c59.952995-5.52 128.559985-67.800012 130.069985-126.850013l-36.599 14.189001z" fill="#447cab"/><path d="m133.67312 34.300978c.076 1.313.12 2.63.12 3.957 0 38.551-30.69898 90.497012-75.826985 101.860012v1.639c59.044005-2.79 105.809995-63.024012 105.809995-109.200012 0-2.375-.128-4.729-.371-7.056l-29.73 8.798z" fill="#e96d1f"/><path d="m50.011 29.556978c-.077 1.313 1.787.968 1.787 2.293 0 38.551 46.558007 97.366012 91.68799 108.730012v1.639c-59.95299-5.52-128.55999-67.800012-130.06999-126.850013l36.599 14.189001z" fill="#467ead"/><path d="m68.143 34.299978c-.076 1.313-.12 2.63-.12 3.957 0 38.551 30.698995 90.497012 75.82699 101.860012v1.639c-59.04399-2.79-105.80999-63.024012-105.80999-109.200012 0-2.375.128-4.729.371-7.056l29.73 8.798z" fill="#a0ce67"/></g><g fill="#688630" opacity=".989136" stroke-width="3.77953" transform="matrix(1.2118111 0 0 .96133503 -141.40384 6.398324)"><path d="m608.00479 401.94807h7.33465l13.73296 19.40301q.41615.5722 1.14442 1.82066.72826 1.24845.93634 1.6646l.26009-.15606q0-.41615-.10404-1.35249-.052-.93634-.052-1.6646v-19.71512h7.33465v35.68489h-7.33465l-13.78498-19.55907q-.62422-.88432-1.24845-1.97671-.62422-1.14441-.78028-1.45653l-.26009.15606q0 .36413.052 1.30047.10404.93634.10404 1.82066v19.71512h-7.33465z"/><path d="m657.05852 438.25719q-6.60638 0-9.88357-3.48526-3.22516-3.48526-3.22516-10.81991 0-7.33465 3.22516-10.81991 3.27719-3.48526 9.88357-3.48526 6.0862 0 9.10329 3.53728 3.01709 3.48526 3.01709 10.76789v1.6646h-17.9985q.10404 3.64131 1.45653 5.40995 1.35249 1.71662 4.52563 1.71662 2.23681 0 3.5893-1.24845 1.40451-1.24845 1.40451-3.53728h7.02253q0 5.14987-3.3292 7.75081-3.3292 2.54892-8.79118 2.54892zm4.73372-17.37428q0-5.67005-4.73372-5.67005-2.70497 0-4.10948 1.40451-1.35249 1.4045-1.6646 4.26554z"/><path d="m671.20763 410.27107h7.33465l2.96507 11.23606q.31211 1.19644.88432 4.05747.5722 2.86103.72826 3.79737h.20808q.15605-.88432.62422-3.22516.52019-2.39287 1.04038-4.57766l2.80901-11.28808h7.33465l2.96507 11.3401q.41615 1.56057.98836 4.21352.57221 2.65296.72826 3.53728h.20808q.15606-.78028.67624-3.3292.52019-2.60094.98836-4.4216l2.80902-11.3401h6.76244l-8.11493 27.36189h-7.38667l-3.12113-13.05672q-.41615-1.61258-.78028-3.53728-.36413-1.92469-.46817-2.4969h-.26009q-.052.57221-.36414 2.44489-.31211 1.87267-.72826 3.53727l-3.27718 13.10874h-7.38667z"/><path d="m726.08745 438.25719q-5.72207 0-8.99925-2.34085-3.22517-2.39286-3.22517-6.34629l.052-.62423h6.9185v.36413q.052 1.82066 1.61259 2.65296 1.61258.78028 3.90141.78028 2.13277 0 3.64131-.5722 1.50855-.57221 1.50855-1.87268 0-1.45653-1.56057-2.18479-1.50854-.72826-4.78573-1.45653-3.38122-.78028-5.51399-1.56056-2.13277-.8323-3.69333-2.54892-1.56057-1.71662-1.56057-4.57765 0-4.00545 3.3292-6.13822 3.38123-2.18479 8.68714-2.18479 4.94179 0 8.16696 2.02873 3.22516 1.97672 3.22516 5.40996l-.052 1.19643h-6.9185v-.10404q-.052-1.50854-1.30047-2.23681-1.24845-.78028-3.38122-.78028-2.13277 0-3.38122.57221-1.24845.5722-1.24845 1.61258 0 1.30047 1.4045 1.9247 1.45653.62422 4.62968 1.24845 3.48526.78028 5.67005 1.56056 2.18479.78028 3.79737 2.54892 1.61258 1.76864 1.61258 4.78573 0 8.8432-12.53653 8.8432z"/><path d="m744.08594 400.02337h7.12658v37.60959h-7.12658z"/><path d="m769.83523 438.25719q-6.60638 0-9.88357-3.48526-3.22516-3.48526-3.22516-10.81991 0-7.33465 3.22516-10.81991 3.27719-3.48526 9.88357-3.48526 6.0862 0 9.10329 3.53728 3.01709 3.48526 3.01709 10.76789v1.6646h-17.9985q.10404 3.64131 1.45653 5.40995 1.35249 1.71662 4.52563 1.71662 2.23681 0 3.5893-1.24845 1.40451-1.24845 1.40451-3.53728h7.02253q0 5.14987-3.3292 7.75081-3.3292 2.54892-8.79118 2.54892zm4.73372-17.37428q0-5.67005-4.73372-5.67005-2.70497 0-4.10948 1.40451-1.35249 1.4045-1.6646 4.26554z"/><path d="m794.80426 438.25719q-3.84939 0-5.51399-2.08075-1.6646-2.08076-1.6646-5.2539v-14.82536h-3.27719v-5.82611h3.43324l1.19644-7.69878h5.77408v7.69878h4.73371v5.82611h-4.73371v14.09709q0 2.23681 2.23681 2.23681h2.4969v4.99381q-.88432.31211-2.23681.5722-1.30047.2601-2.44488.2601z"/><path d="m812.12653 438.25719q-3.84939 0-5.514-2.08075-1.6646-2.08076-1.6646-5.2539v-14.82536h-3.27718v-5.82611h3.43324l1.19643-7.69878h5.77409v7.69878h4.73371v5.82611h-4.73371v14.09709q0 2.23681 2.23681 2.23681h2.4969v4.99381q-.88432.31211-2.23681.5722-1.30047.2601-2.44488.2601z"/><path d="m833.40222 438.25719q-6.60639 0-9.88357-3.48526-3.22517-3.48526-3.22517-10.81991 0-7.33465 3.22517-10.81991 3.27718-3.48526 9.88357-3.48526 6.0862 0 9.10329 3.53728 3.01709 3.48526 3.01709 10.76789v1.6646h-17.9985q.10403 3.64131 1.45652 5.40995 1.35249 1.71662 4.52564 1.71662 2.23681 0 3.5893-1.24845 1.4045-1.24845 1.4045-3.53728h7.02254q0 5.14987-3.3292 7.75081-3.32921 2.54892-8.79118 2.54892zm4.73371-17.37428q0-5.67005-4.73371-5.67005-2.70498 0-4.10948 1.40451-1.35249 1.4045-1.66461 4.26554z"/><path d="m851.03658 410.27107h6.0862l.57221 4.4216h.36413q.88432-2.34084 2.28883-3.69333 1.4045-1.35249 3.69333-1.35249.98836 0 1.71662.20807.78028.15606.98836.2601v6.6584h-1.97672q-3.48526 0-5.04582 1.9247-1.56056 1.87268-1.56056 5.72207v13.21277h-7.12658z"/></g></svg>