<?xml version="1.0" encoding="UTF-8" standalone="no"?>
<!-- Created with Inkscape (http://www.inkscape.org/) -->

<svg
   width="109.02322mm"
   height="137.22656mm"
   viewBox="0 0 109.02322 137.22656"
   version="1.1"
   id="svg1"
   sodipodi:docname="xmpp_market_banner_source.svg"
   inkscape:version="1.4 (e7c3feb100, 2024-10-09)"
   xmlns:inkscape="http://www.inkscape.org/namespaces/inkscape"
   xmlns:sodipodi="http://sodipodi.sourceforge.net/DTD/sodipodi-0.dtd"
   xmlns="http://www.w3.org/2000/svg"
   xmlns:svg="http://www.w3.org/2000/svg">
  <sodipodi:namedview
     id="namedview1"
     pagecolor="#ffffff"
     bordercolor="#000000"
     borderopacity="0.25"
     inkscape:showpageshadow="2"
     inkscape:pageopacity="0.0"
     inkscape:pagecheckerboard="0"
     inkscape:deskcolor="#d1d1d1"
     inkscape:document-units="mm"
     inkscape:zoom="0.6788646"
     inkscape:cx="152.46045"
     inkscape:cy="350.58538"
     inkscape:window-width="1596"
     inkscape:window-height="841"
     inkscape:window-x="0"
     inkscape:window-y="0"
     inkscape:window-maximized="0"
     inkscape:current-layer="g11" />
  <defs
     id="defs1">
    <rect
       x="280.22263"
       y="112.41489"
       width="532.74884"
       height="162.10553"
       id="rect5" />
    <rect
       x="280.22263"
       y="112.41489"
       width="532.74884"
       height="162.10553"
       id="rect6" />
  </defs>
  <g
     inkscape:label="Layer 1"
     inkscape:groupmode="layer"
     id="layer1"
     transform="translate(-55.400127,-24.920754)">
    <g
       id="g10"
       inkscape:label="Stall">
      <g
         id="g7"
         inkscape:label="Stall Bottom"
         transform="translate(-0.22396023)">
        <rect
           style="fill:#59a1d2;fill-rule:evenodd;stroke:#59a1d2;stroke-width:1;stroke-linecap:round"
           id="rect1"
           width="89.229317"
           height="46.123367"
           x="65.521042"
           y="115.52395"
           ry="0.13468608" />
        <g
           id="g1716"
           transform="matrix(0.28032025,0,0,0.28032025,80.323865,117.98272)"
           inkscape:label="XMPP logo"
           style="display:inline">
          <path
             d="m 151.80512,29.557978 c 0.077,1.313 -1.787,0.968 -1.787,2.293 0,38.551 -46.558,97.366012 -91.687985,108.730012 v 1.639 C 118.28313,136.69999 186.89012,74.419978 188.40012,15.369977 l -36.599,14.189001 z"
             style="fill:#447cab;fill-opacity:1"
             id="path1679"
             inkscape:label="right blue" />
          <path
             d="m 133.67312,34.300978 c 0.076,1.313 0.12,2.63 0.12,3.957 0,38.551 -30.69898,90.497012 -75.826985,101.860012 v 1.639 c 59.044005,-2.79 105.809995,-63.024012 105.809995,-109.200012 0,-2.375 -0.128,-4.729 -0.371,-7.056 l -29.73,8.798 z"
             style="display:inline;fill:#e96d1f"
             id="path1681"
             inkscape:label="orange" />
          <path
             d="m 163.69112,24.951978 -7.61699,2.722 c 0.041,0.962 0.066,2.254 0.066,3.225 0,41.219 -37.271,98.204012 -87.271995,107.120012 -3.24501,1.088 -7.53801,2.077 -10.932,2.931 v 1.638 C 123.19013,137.02799 169.03613,70.721978 163.69612,24.947978 Z"
             style="display:none;fill:#d9541e"
             id="path1683"
             inkscape:label="orange shade" />
          <path
             d="m 50.011,29.556978 c -0.077,1.313 1.787,0.968 1.787,2.293 0,38.551 46.558007,97.366012 91.68799,108.730012 v 1.639 C 83.533,136.69899 14.926,74.418978 13.416,15.368977 l 36.599,14.189001 z"
             style="display:inline;fill:#467ead;fill-opacity:1"
             id="path1685"
             inkscape:label="left blue" />
          <path
             d="m 68.143,34.299978 c -0.076,1.313 -0.12,2.63 -0.12,3.957 0,38.551 30.698995,90.497012 75.82699,101.860012 v 1.639 C 84.806,138.96599 38.04,78.731978 38.04,32.555978 c 0,-2.375 0.128,-4.729 0.371,-7.056 l 29.73,8.798 z"
             style="display:inline;fill:#a0ce67"
             id="path1687"
             inkscape:label="green" />
          <path
             d="m 38.125,24.950978 7.617,2.722 c -0.041,0.962 -0.066,2.254 -0.066,3.225 0,41.219 37.271,98.204012 87.27199,107.120012 3.245,1.088 7.538,2.077 10.932,2.931 v 1.638 C 78.626,137.02699 32.78,70.720978 38.12,24.946978 Z"
             style="display:none;fill:#439639"
             id="path1689"
             inkscape:label="green shade" />
        </g>
      </g>
      <g
         id="g8"
         inkscape:label="Stall side bars">
        <path
           style="fill:#59a1d2;fill-rule:evenodd;stroke:#59a1d2;stroke-width:6;stroke-linecap:round;stroke-dasharray:none"
           d="M 68.1074,62.247936 V 111.3887"
           id="path1"
           inkscape:label="Left" />
        <path
           style="fill:#59a1d2;fill-rule:evenodd;stroke:#59a1d2;stroke-width:6;stroke-linecap:round;stroke-dasharray:none"
           d="M 151.71608,62.247936 V 111.3887"
           id="path2"
           inkscape:label="Right" />
      </g>
      <g
         id="g6"
         inkscape:label="Stall Roof"
         transform="translate(-0.06637509)">
        <rect
           style="fill:#59a1d2;fill-rule:evenodd;stroke:#59a1d2;stroke-width:6.00001;stroke-linecap:round;stroke-dasharray:none"
           id="rect2"
           width="103.02322"
           height="17.673441"
           x="58.466507"
           y="27.920759"
           ry="0.13468608" />
        <g
           id="g9">
          <path
             id="path5"
             style="fill:#59a1d2;fill-rule:evenodd;stroke:#59a1d2;stroke-width:6.00001;stroke-linecap:round;stroke-dasharray:none"
             d="m 58.769067,48.455799 a 6.2503629,5.4960084 0 0 0 -0.04702,0.577226 6.2503629,5.4960084 0 0 0 6.250264,5.495789 6.2503629,5.4960084 0 0 0 6.250781,-5.495789 6.2503629,5.4960084 0 0 0 -0.03566,-0.577226 z" />
          <path
             id="path5-2"
             style="fill:#59a1d2;fill-rule:evenodd;stroke:#59a1d2;stroke-width:6.00001;stroke-linecap:round;stroke-dasharray:none"
             d="m 76.803386,48.455799 a 6.2503629,5.4960084 0 0 0 -0.04702,0.577226 6.2503629,5.4960084 0 0 0 6.250264,5.495789 6.2503629,5.4960084 0 0 0 6.250781,-5.495789 6.2503629,5.4960084 0 0 0 -0.03566,-0.577226 z" />
          <path
             id="path5-7"
             style="fill:#59a1d2;fill-rule:evenodd;stroke:#59a1d2;stroke-width:6.00001;stroke-linecap:round;stroke-dasharray:none"
             d="m 94.837705,48.455799 a 6.2503629,5.4960084 0 0 0 -0.04702,0.577226 6.2503629,5.4960084 0 0 0 6.250265,5.495789 6.2503629,5.4960084 0 0 0 6.25078,-5.495789 6.2503629,5.4960084 0 0 0 -0.0357,-0.577226 z" />
          <path
             id="path5-9"
             style="fill:#59a1d2;fill-rule:evenodd;stroke:#59a1d2;stroke-width:6.00001;stroke-linecap:round;stroke-dasharray:none"
             d="m 130.90633,48.455799 a 6.2503629,5.4960084 0 0 0 -0.047,0.577226 6.2503629,5.4960084 0 0 0 6.25026,5.495789 6.2503629,5.4960084 0 0 0 6.25079,-5.495789 6.2503629,5.4960084 0 0 0 -0.0357,-0.577226 z" />
          <path
             id="path5-2-31"
             style="fill:#59a1d2;fill-rule:evenodd;stroke:#59a1d2;stroke-width:6.00001;stroke-linecap:round;stroke-dasharray:none"
             d="m 148.94065,48.455799 a 6.2503629,5.4960084 0 0 0 -0.047,0.577226 6.2503629,5.4960084 0 0 0 6.25026,5.495789 6.2503629,5.4960084 0 0 0 6.25078,-5.495789 6.2503629,5.4960084 0 0 0 -0.0357,-0.577226 z" />
          <path
             id="path5-2-3"
             style="fill:#59a1d2;fill-rule:evenodd;stroke:#59a1d2;stroke-width:6.00001;stroke-linecap:round;stroke-dasharray:none"
             d="m 112.872,48.455799 a 6.2503629,5.4960084 0 0 0 -0.047,0.577226 6.2503629,5.4960084 0 0 0 6.25027,5.495789 6.2503629,5.4960084 0 0 0 6.25078,-5.495789 6.2503629,5.4960084 0 0 0 -0.0357,-0.577226 z" />
        </g>
        <text
           xml:space="preserve"
           transform="matrix(0.26458333,0,0,0.26458333,-10.399181,-0.53308589)"
           id="text5"
           style="font-style:normal;font-variant:normal;font-weight:bold;font-stretch:normal;font-size:53.3333px;font-family:Monospace;-inkscape-font-specification:'Monospace Bold';text-align:start;writing-mode:lr-tb;direction:ltr;white-space:pre;shape-inside:url(#rect5);display:none;fill:#ffffff;fill-rule:evenodd;stroke:none;stroke-width:22.6772;stroke-linecap:round;stroke-dasharray:none"><tspan
             x="280.22266"
             y="160.94071"
             id="tspan1">XMPP Market</tspan></text>
        <path
           d="m 281.28932,160.94071 11.41333,-19.62665 -10.66666,-18.45333 h 7.89333 l 6.29333,12 6.18666,-12 h 7.99999 l -10.66666,18.39999 11.41333,19.67999 h -8.15999 l -6.82667,-13.22666 -6.98666,13.22666 z m 33.06667,0 v -38.07998 h 10.45333 l 3.25333,21.59999 h 0.21333 l 3.84,-21.59999 h 9.91999 v 38.07998 h -6.93333 v -8.69333 q 0,-1.70666 0.0533,-3.84 0.10666,-2.18666 0.21333,-4.47999 0.10667,-2.29334 0.21333,-4.53333 0.16,-2.24 0.26667,-4.16 0.16,-1.97333 0.26667,-3.36 0.10666,-1.38667 0.10666,-1.97333 h -0.32 l -3.89333,22.07999 h -7.51999 l -4.21334,-22.13332 h -0.32 q 0.0533,0.69333 0.16,2.13333 0.10667,1.38666 0.26667,3.36 0.16,1.91999 0.32,4.15999 0.16,2.24 0.26667,4.58667 0.16,2.29333 0.21333,4.53333 0.10667,2.18666 0.10667,4.05333 v 8.26666 z m 34.13333,0 v -38.07998 h 12.63999 q 6.56,0 9.76,3.09333 3.2,3.04 3.2,8.74667 0,3.78666 -1.38667,6.66666 -1.33333,2.82666 -4.32,4.42666 -2.93333,1.6 -7.73333,1.6 h -4.69333 v 13.54666 z m 11.35999,-20.10665 q 2.24,0 3.68,-0.64 1.44,-0.69334 2.13333,-1.97334 0.74667,-1.33333 0.74667,-3.19999 0,-2.82667 -1.33333,-4.21334 -1.33334,-1.38666 -4.21333,-1.38666 h -4.90667 v 11.41333 z m 20.64001,20.10665 v -38.07998 h 12.63999 q 6.56,0 9.76,3.09333 3.2,3.04 3.2,8.74667 0,3.78666 -1.38667,6.66666 -1.33333,2.82666 -4.32,4.42666 -2.93333,1.6 -7.73333,1.6 h -4.69333 v 13.54666 z m 11.35999,-20.10665 q 2.24,0 3.68,-0.64 1.44,-0.69334 2.13333,-1.97334 0.74667,-1.33333 0.74667,-3.19999 0,-2.82667 -1.33333,-4.21334 -1.33334,-1.38666 -4.21333,-1.38666 h -4.90667 v 11.41333 z m 50.50668,20.10665 v -38.07998 h 10.45333 l 3.25333,21.59999 h 0.21333 l 3.84,-21.59999 h 9.91999 v 38.07998 h -6.93333 v -8.69333 q 0,-1.70666 0.0533,-3.84 0.10666,-2.18666 0.21333,-4.47999 0.10667,-2.29334 0.21333,-4.53333 0.16,-2.24 0.26667,-4.16 0.16,-1.97333 0.26667,-3.36 0.10666,-1.38667 0.10666,-1.97333 h -0.32 l -3.89333,22.07999 h -7.51999 l -4.21334,-22.13332 h -0.32 q 0.0533,0.69333 0.16,2.13333 0.10667,1.38666 0.26667,3.36 0.16,1.91999 0.32,4.15999 0.16,2.24 0.26667,4.58667 0.16,2.29333 0.21333,4.53333 0.10667,2.18666 0.10667,4.05333 v 8.26666 z m 41.75999,0.53333 q -4.58666,0 -6.93333,-2.4 -2.29333,-2.45333 -2.29333,-6.55999 0,-3.25333 1.38667,-5.33333 1.38666,-2.08 4.10666,-3.09333 2.72,-1.01334 6.61333,-1.12 l 6.4,-0.16 v -1.28 q 0,-2.02667 -1.44,-3.04 -1.44,-1.01333 -4.37333,-1.01333 -1.86667,0 -4,0.42666 -2.08,0.42667 -4.42666,1.33334 l -2.50667,-5.38667 q 2.50667,-1.28 5.28,-1.92 2.82666,-0.64 5.91999,-0.64 6.18667,0 9.54666,2.56 3.36,2.50667 3.36,7.68 v 19.41332 h -5.86666 l -1.22667,-3.68 h -0.21333 q -1.33333,1.54667 -2.82666,2.50667 -1.49334,0.90666 -3.14667,1.28 -1.6,0.42666 -3.36,0.42666 z m 2.72,-6.07999 q 1.81333,0 3.30667,-0.64 1.49333,-0.69334 2.34666,-1.92 0.90667,-1.28 0.90667,-2.98667 v -2.4 l -4.42667,0.10667 q -2.13333,0.0533 -3.62666,0.53333 -1.44,0.48 -2.18667,1.38667 -0.74666,0.90667 -0.74666,2.34667 0,1.91999 1.28,2.77333 1.28,0.8 3.14666,0.8 z m 19.57334,5.54666 v -4.8 l 7.57333,-1.6 v -16.31999 l -6.13333,-0.90666 v -5.49333 h 11.99999 l 1.12,4.90666 h 0.37334 q 1.38666,-2.45333 3.51999,-3.94666 2.13334,-1.49334 5.38667,-1.49334 0.90666,0 2.29333,0.16 1.38667,0.16 2.77333,0.74667 l -2.08,7.2 q -0.74666,-0.26667 -1.86666,-0.48 -1.12,-0.21334 -2.34667,-0.21334 -2.45333,0 -4.10666,1.12 -1.6,1.06667 -2.4,2.93333 -0.8,1.86667 -0.8,4.21334 v 7.57332 l 7.62666,1.6 v 4.8 z m 33.01333,0 V 120.4074 h 7.73333 v 18.71999 q 0,1.06667 -0.0533,2.08 -0.0533,0.96 -0.16,1.92 -0.0533,0.96 -0.21333,2.08 h 0.10666 q 0.74667,-1.12 1.65334,-2.29334 0.90666,-1.17333 1.86666,-2.34666 l 7.41333,-8.74666 h 8.95999 l -10.66666,12.10666 11.36,17.01332 h -8.32 l -7.83999,-12.10666 -4.10667,3.14667 v 8.95999 z m 47.52,0.53333 q -5.12,0 -8.69333,-1.76 -3.57333,-1.75999 -5.49333,-5.17333 -1.86667,-3.41333 -1.86667,-8.31999 0,-4.53333 1.6,-7.89333 1.6,-3.36 4.69333,-5.17333 3.09333,-1.86667 7.46666,-1.86667 4.10667,0 6.98667,1.65334 2.87999,1.6 4.37333,4.63999 1.54666,2.98667 1.54666,7.2 v 3.84 h -19.14665 q 0.10666,2.13333 1.28,3.62666 1.22666,1.44 3.25333,2.18667 2.02666,0.69333 4.42666,0.69333 2.08,0 4.37333,-0.48 2.34667,-0.53333 4.96,-1.49333 v 6.23999 q -2.34667,1.17334 -4.85333,1.6 -2.45333,0.48 -4.90666,0.48 z m 3.67999,-18.13332 q 0,-1.92 -0.8,-3.25333 -0.74666,-1.38667 -2.02666,-2.13333 -1.28,-0.74667 -2.98667,-0.74667 -2.45333,0 -4.21333,1.6 -1.76,1.54667 -2.02666,4.53333 z m 30.45334,18.13332 q -3.73333,0 -6.29333,-1.06666 -2.50667,-1.12 -3.78667,-3.41333 -1.28,-2.34667 -1.28,-6.08 v -12.69333 h -6.66666 v -4.79999 l 7.25333,-1.6 1.28,-7.25333 h 5.86666 v 7.25333 h 10.93333 v 6.39999 h -10.93333 v 11.89333 q 0,2.08 0.69334,3.14666 0.69333,1.01334 1.86666,1.38667 1.17333,0.37333 2.56,0.37333 1.28,0 2.61333,-0.21333 1.33333,-0.21333 3.46667,-0.58667 v 6.08 q -1.97334,0.64 -3.89334,0.90667 -1.86666,0.26666 -3.67999,0.26666 z"
           id="text6"
           style="font-weight:bold;font-size:53.3333px;font-family:Monospace;-inkscape-font-specification:'Monospace Bold';white-space:pre;fill:#ffffff;fill-rule:evenodd;stroke-width:22.6772;stroke-linecap:round"
           transform="matrix(0.26458333,0,0,0.26458333,-10.399181,-0.53308589)"
           aria-label="XMPP Market"
           inkscape:label="XMPP Market" />
      </g>
      <rect
         style="fill:none;fill-opacity:1;fill-rule:evenodd;stroke:#59a1d2;stroke-width:3;stroke-linecap:round;stroke-dasharray:none;stroke-opacity:1"
         id="rect10"
         width="34.484764"
         height="37.933243"
         x="75.004356"
         y="72.84906"
         ry="7.4627008" />
    </g>
    <g
       id="g4"
       inkscape:label="Person"
       transform="translate(-0.33142206,-1.724238)">
      <ellipse
         style="fill:#59a1d2;fill-rule:evenodd;stroke:#59a1d2;stroke-width:6.00001;stroke-linecap:round;stroke-dasharray:none"
         id="path3"
         cx="131.68867"
         cy="93.75544"
         rx="5.1727138"
         ry="4.310595" />
      <path
         style="fill:#59a1d2;fill-rule:evenodd;stroke:#59a1d2;stroke-width:6.00001;stroke-linecap:round;stroke-dasharray:none"
         d="m 119.14932,111.4482 24.21659,-0.21553 c 0,0 -0.3856,-6.88662 -11.67723,-6.70074 -11.29163,0.18588 -12.53936,6.91627 -12.53936,6.91627 z"
         id="path4"
         sodipodi:nodetypes="cczc" />
    </g>
    <g
       id="g11"
       inkscape:label="Goods">
      <path
         id="rect11"
         style="fill:#59a1d2;fill-opacity:1;fill-rule:evenodd;stroke:none;stroke-linecap:round"
         d="m 102.46517,75.182864 -1.10926,2.844953 c 0,0 0.97139,4.667497 0.21575,5.976306 -0.75564,1.308809 -5.283506,2.801308 -5.283506,2.801308 l -1.909174,2.38313 2.960448,1.020434 c 0,0 4.209262,-3.026007 5.577932,-5.427929 1.39592,-2.449748 1.86246,-7.728574 1.86246,-7.728574 z"
         sodipodi:nodetypes="cczcccscc"
         inkscape:label="phone" />
      <path
         id="path11"
         style="fill:#59a1d2;fill-rule:evenodd;stroke:#59a1d2;stroke-width:0.531441;stroke-linecap:round"
         d="m 85.763891,76.350648 c -3.510898,0 -6.357128,2.000009 -6.357129,4.467127 0,2.467119 2.84623,4.467128 6.357129,4.467128 0.877726,0 2.557531,1.843618 3.318077,1.61757 0.760546,-0.226049 0.601864,-2.521712 1.177063,-2.925907 1.150399,-0.808388 1.86199,-1.925231 1.86199,-3.158791 0,-2.467118 -2.846231,-4.467127 -6.35713,-4.467127 z m -3.650927,3.099197 a 1.0260558,1.3680746 0 0 1 1.02629,1.36793 1.0260558,1.3680746 0 0 1 -1.02629,1.368205 1.0260558,1.3680746 0 0 1 -1.026017,-1.368205 1.0260558,1.3680746 0 0 1 1.026017,-1.36793 z m 3.650927,0 a 1.0260558,1.3680746 0 0 1 1.026017,1.36793 1.0260558,1.3680746 0 0 1 -1.026017,1.368205 1.0260558,1.3680746 0 0 1 -1.026016,-1.368205 1.0260558,1.3680746 0 0 1 1.026016,-1.36793 z m 3.650654,0 a 1.0260558,1.3680746 0 0 1 1.026291,1.36793 1.0260558,1.3680746 0 0 1 -1.026291,1.368205 1.0260558,1.3680746 0 0 1 -1.026016,-1.368205 1.0260558,1.3680746 0 0 1 1.026016,-1.36793 z"
         inkscape:label="messaging" />
      <g
         id="g18"
         inkscape:label="IoT"
         transform="matrix(0.30449011,0,0,0.30449011,90.825031,69.96245)">
        <path
           style="fill:#59a1d2;fill-opacity:1;fill-rule:evenodd;stroke:none;stroke-width:1;stroke-linecap:round"
           d="m 16.693375,102.9472 21.496062,0.27559 c 0,0 2.543271,-1.7548 2.06693,-4.685041 -0.476341,-2.930235 -3.444882,-2.755904 -3.444882,-2.755904 0,0 1.541342,-3.862602 -0.551182,-4.96063 -2.092524,-1.098029 -5.236221,0.551181 -5.236221,0.551181 0,0 -2.281169,-3.692898 -8.681102,-3.307086 -6.399932,0.385813 -8.173153,3.828903 -8.956692,7.992126 -0.783538,4.163224 3.307087,6.889764 3.307087,6.889764 z"
           id="path6"
           sodipodi:nodetypes="cczczczzc"
           inkscape:label="Cloud" />
        <ellipse
           style="fill:#59a1d2;fill-opacity:1;fill-rule:evenodd;stroke:none;stroke-width:1;stroke-linecap:round"
           id="path7"
           cx="21.855898"
           cy="74.019348"
           rx="1.6535432"
           ry="1.9291338" />
        <ellipse
           style="fill:#59a1d2;fill-opacity:1;fill-rule:evenodd;stroke:none;stroke-width:1;stroke-linecap:round"
           id="path7-5"
           cx="37.700474"
           cy="74.019348"
           rx="1.6535432"
           ry="1.9291338" />
        <ellipse
           style="fill:#59a1d2;fill-opacity:1;fill-rule:evenodd;stroke:none;stroke-width:1;stroke-linecap:round"
           id="path7-5-2"
           cx="50.536831"
           cy="92.076439"
           rx="1.6535432"
           ry="1.9291338" />
        <ellipse
           style="fill:#59a1d2;fill-opacity:1;fill-rule:evenodd;stroke:none;stroke-width:1;stroke-linecap:round"
           id="path7-5-2-7"
           cx="41.531193"
           cy="116.60832"
           rx="1.6535432"
           ry="1.9291338" />
        <ellipse
           style="fill:#59a1d2;fill-opacity:1;fill-rule:evenodd;stroke:none;stroke-width:1;stroke-linecap:round"
           id="path7-5-2-7-6"
           cx="24.355852"
           cy="116.60832"
           rx="1.6535432"
           ry="1.9291338" />
        <ellipse
           style="fill:#59a1d2;fill-opacity:1;fill-rule:evenodd;stroke:none;stroke-width:1;stroke-linecap:round"
           id="path7-5-2-7-6-6"
           cx="5.6053305"
           cy="105.64193"
           rx="1.6535432"
           ry="1.9291338" />
        <ellipse
           style="fill:#59a1d2;fill-opacity:1;fill-rule:evenodd;stroke:none;stroke-width:1;stroke-linecap:round"
           id="path7-5-2-7-6-6-9"
           cx="5.6053305"
           cy="87.936378"
           rx="1.6535432"
           ry="1.9291338" />
        <path
           style="fill:#59a1d2;fill-opacity:1;fill-rule:evenodd;stroke:#59a1d2;stroke-width:1;stroke-linecap:round;stroke-opacity:1"
           d="M 6.0629921,105.68898 28.385825,95.905512"
           id="path12" />
        <path
           style="fill:#59a1d2;fill-opacity:1;fill-rule:evenodd;stroke:#59a1d2;stroke-width:1;stroke-linecap:round;stroke-opacity:1"
           d="M 5.7874016,87.913384 28.24803,96.043307"
           id="path13" />
        <path
           style="fill:#59a1d2;fill-opacity:1;fill-rule:evenodd;stroke:#59a1d2;stroke-width:1;stroke-linecap:round;stroke-opacity:1"
           d="M 22.047244,74.547242 28.24803,95.629919"
           id="path14" />
        <path
           style="fill:#59a1d2;fill-opacity:1;fill-rule:evenodd;stroke:#59a1d2;stroke-width:1;stroke-linecap:round;stroke-opacity:1"
           d="M 37.755906,73.858267 27.97244,96.043307"
           id="path15" />
        <path
           style="fill:#59a1d2;fill-opacity:1;fill-rule:evenodd;stroke:#59a1d2;stroke-width:1;stroke-linecap:round;stroke-opacity:1"
           d="M 50.70866,92.185039 27.834645,95.492124"
           id="path16" />
        <path
           style="fill:#59a1d2;fill-opacity:1;fill-rule:evenodd;stroke:#59a1d2;stroke-width:1;stroke-linecap:round;stroke-opacity:1"
           d="M 41.200787,116.29921 27.97244,95.905512"
           id="path17" />
        <path
           style="fill:#59a1d2;fill-opacity:1;fill-rule:evenodd;stroke:#59a1d2;stroke-width:1;stroke-linecap:round;stroke-opacity:1"
           d="M 24.251968,116.7126 28.523623,95.767714"
           id="path18" />
      </g>
      <path
         id="rect18"
         style="fill:#59a1d2;fill-opacity:1;fill-rule:evenodd;stroke:#59a1d2;stroke-width:0.531441;stroke-linecap:round;stroke-opacity:1"
         d="m 83.745624,92.12673 c -1.130507,-0.0029 -2.044428,0.414278 -2.640567,1.065013 -0.59614,0.650737 -0.839443,1.434971 -0.827095,2.289136 l -0.01315,10.615441 h 7.087882 l 0.0185,-10.510905 c -0.009,-0.863251 -0.36078,-1.725083 -0.9685,-2.379117 -0.60771,-0.654033 -1.52591,-1.076607 -2.65704,-1.079568 z m -0.003,1.063091 c 0.8775,0.0023 1.47375,0.301547 1.88204,0.740951 0.40829,0.439406 0.62523,1.041843 0.63192,1.665903 l 0.0433,2.995525 c 0.002,0.04783 -4.978077,-0.04313 -4.978077,-0.04313 0.03266,-0.07122 -0.0173,-3.010353 -0.0173,-3.010353 -0.0088,-0.611475 0.191876,-1.201167 0.584413,-1.629655 0.392537,-0.428487 0.975625,-0.721562 1.853754,-0.719254 z m 0.0536,7.020359 c 0.57206,5e-5 1.03581,0.51237 1.0359,1.14439 -3.8e-4,0.3961 -0.18612,0.76383 -0.49104,0.97219 v 2.2201 c 0,0.0211 -0.0171,0.0379 -0.0382,0.0379 h -1.013677 c -0.02107,0 -0.03789,-0.0168 -0.03789,-0.0379 v -2.2201 c -0.305027,-0.20829 -0.49087,-0.57603 -0.491314,-0.97219 9e-5,-0.63214 0.464007,-1.14451 1.036181,-1.14439 z"
         sodipodi:nodetypes="csccccscccccccsccccssssccccsc"
         inkscape:label="security" />
    </g>
  </g>
</svg>
