<?xml version="1.0" encoding="UTF-8" standalone="no"?>
<svg viewBox="0 0 200 200" width="200" height="200" xmlns="http://www.w3.org/2000/svg">
  <path d="M13.416 36.576c1.065 41.652 35.566 84.622 76.824 108.375-9.565 7.604-20.422 13.387-32.273 16.371v1.639c17.14-.714 29.81-6.1 42.94-12.373 19.952 10.514 37.135 12.124 42.943 12.373v-1.639c-11.843-2.982-22.693-8.759-32.254-16.355 41.222-23.764 75.74-66.767 76.804-108.39-17.753 7.814-36.175 13.439-54.724 18.927l-.002.002c1.038 17.93-6.135 51.778-32.772 79.683-26.85-28.05-33.783-61.994-32.76-79.683l-.001-.002c-18.958-5.14-36.7-11.941-54.725-18.928ZM41.93 51.69l22.35 6.614c-.608 29.549 18.029 72.674 52.806 95.217C71.278 136.708 40.733 87.765 41.93 51.69Zm117.957 0c.998 30.089-19.917 68.257-52.158 90.045a107.393 107.393 0 0 1-4.178-3.869c23.382-24.377 34.4-56.61 33.986-79.562zm-66.125 95.235c.898.488 1.8.967 2.703 1.437a104.045 104.045 0 0 1-11.735 5.159 101.991 101.991 0 0 0 9.032-6.596z"/>
</svg>
