<?xml version="1.0" encoding="UTF-8" standalone="no"?>
<!-- Created with Inkscape (http://www.inkscape.org/) -->
<svg
   xmlns:dc="http://purl.org/dc/elements/1.1/"
   xmlns:cc="http://creativecommons.org/ns#"
   xmlns:rdf="http://www.w3.org/1999/02/22-rdf-syntax-ns#"
   xmlns:svg="http://www.w3.org/2000/svg"
   xmlns="http://www.w3.org/2000/svg"
   xmlns:sodipodi="http://sodipodi.sourceforge.net/DTD/sodipodi-0.dtd"
   xmlns:inkscape="http://www.inkscape.org/namespaces/inkscape"
   width="100"
   height="100"
   id="svg2"
   inkscape:label="Pozadí"
   sodipodi:version="0.32"
   inkscape:version="0.46"
   version="1.0"
   sodipodi:docname="c plus plus.svg"
   inkscape:output_extension="org.inkscape.output.svg.inkscape">
  <defs
     id="defs3">
    <inkscape:perspective
       sodipodi:type="inkscape:persp3d"
       inkscape:vp_x="0 : 526.18109 : 1"
       inkscape:vp_y="0 : 1000 : 0"
       inkscape:vp_z="744.09448 : 526.18109 : 1"
       inkscape:persp3d-origin="372.04724 : 350.78739 : 1"
       id="perspective9" />
  </defs>
  <sodipodi:namedview
     id="base"
     pagecolor="#ffffff"
     bordercolor="#666666"
     borderopacity="1.0"
     inkscape:pageopacity="0.0"
     inkscape:pageshadow="2"
     inkscape:zoom="3.959798"
     inkscape:cx="46.147409"
     inkscape:cy="55.528216"
     inkscape:document-units="px"
     inkscape:current-layer="layer1"
     showgrid="false"
     inkscape:window-width="820"
     inkscape:window-height="726"
     inkscape:window-x="253"
     inkscape:window-y="25" />
  <metadata
     id="metadata6">
    <rdf:RDF>
      <cc:Work
         rdf:about="">
        <dc:format>image/svg+xml</dc:format>
        <dc:type
           rdf:resource="http://purl.org/dc/dcmitype/StillImage" />
      </cc:Work>
    </rdf:RDF>
  </metadata>
  <g
     inkscape:label="Vrstva 1"
     inkscape:groupmode="layer"
     id="layer1">
    <g
       id="g2415">
      <path
         id="text2382"
         d="M 54.341278,23.416146 L 54.341278,32.368497 C 51.4832,29.706659 48.429036,27.71725 45.178782,26.400263 C 41.956453,25.083386 38.524021,24.42492 34.881478,24.424862 C 27.708364,24.42492 22.216474,26.624477 18.405794,31.023543 C 14.595077,35.394688 12.689727,41.727171 12.68974,50.021015 C 12.689727,58.286899 14.595077,64.619382 18.405794,69.018487 C 22.216474,73.389594 27.708364,75.575141 34.881478,75.575137 C 38.524021,75.575141 41.956453,74.916676 45.178782,73.599736 C 48.429036,72.282811 51.4832,70.293402 54.341278,67.631502 L 54.341278,76.499792 C 51.371119,78.517225 48.218887,80.030298 44.884573,81.039015 C 41.578185,82.047725 38.075704,82.552085 34.37712,82.552085 C 24.878359,82.552085 17.397061,79.65203 11.933205,73.851913 C 6.4693217,68.023794 3.7373877,60.08017 3.7373917,50.021015 C 3.7373877,39.933903 6.4693217,31.990276 11.933205,26.190115 C 17.397061,20.362043 24.878359,17.447977 34.37712,17.447915 C 38.131745,17.447977 41.662244,17.952335 44.968631,18.960988 C 48.302948,19.941746 51.427159,21.426796 54.341278,23.416146"
         style="font-size:40px;font-style:normal;font-weight:normal;fill:#000000;fill-opacity:1;stroke:none;stroke-width:1px;stroke-linecap:butt;stroke-linejoin:miter;stroke-opacity:1;font-family:Bitstream Vera Sans" />
      <text
         id="text2386"
         y="62.539062"
         x="25.666044"
         style="font-size:40px;font-style:normal;font-weight:normal;fill:#000000;fill-opacity:1;stroke:none;stroke-width:1px;stroke-linecap:butt;stroke-linejoin:miter;stroke-opacity:1;font-family:Bitstream Vera Sans"
         xml:space="preserve"><tspan
           y="62.539062"
           x="25.666044"
           id="tspan2388"
           sodipodi:role="line">+</tspan></text>
      <text
         xml:space="preserve"
         style="font-size:40px;font-style:normal;font-weight:normal;fill:#000000;fill-opacity:1;stroke:none;stroke-width:1px;stroke-linecap:butt;stroke-linejoin:miter;stroke-opacity:1;font-family:Bitstream Vera Sans"
         x="57.233311"
         y="62.539062"
         id="text2411"><tspan
           sodipodi:role="line"
           id="tspan2413"
           x="57.233311"
           y="62.539062">+</tspan></text>
    </g>
  </g>
</svg>
