<?xml version="1.0" encoding="UTF-8" standalone="no"?>
<svg
   width="550"
   height="180"
   version="1.1"
   id="svg24"
   sodipodi:docname="eml-logotype.svg"
   inkscape:version="1.4.2 (ebf0e940d0, 2025-05-08)"
   xmlns:inkscape="http://www.inkscape.org/namespaces/inkscape"
   xmlns:sodipodi="http://sodipodi.sourceforge.net/DTD/sodipodi-0.dtd"
   xmlns="http://www.w3.org/2000/svg"
   xmlns:svg="http://www.w3.org/2000/svg">
  <defs
     id="defs28" />
  <sodipodi:namedview
     id="namedview26"
     pagecolor="#ffffff"
     bordercolor="#000000"
     borderopacity="0.25"
     inkscape:showpageshadow="2"
     inkscape:pageopacity="0.0"
     inkscape:pagecheckerboard="0"
     inkscape:deskcolor="#d1d1d1"
     showgrid="true"
     inkscape:zoom="3.125"
     inkscape:cx="269.28"
     inkscape:cy="113.76"
     inkscape:window-width="3072"
     inkscape:window-height="1656"
     inkscape:window-x="0"
     inkscape:window-y="0"
     inkscape:window-maximized="1"
     inkscape:current-layer="svg24">
    <inkscape:grid
       type="xygrid"
       id="grid2360"
       originx="-4.5"
       originy="-4.5"
       spacingy="1"
       spacingx="1"
       units="px" />
  </sodipodi:namedview>
  <!-- Khaki speech bubble -->
  <path
     d="m 10.5,0.5 h 99.99999 A 9.9999995,10 0 0 1 120.5,10.5 v 40 a 9.9999995,10 0 0 1 -10.00001,10 H 50.499998 l -15.000001,15 v -15 H 10.5 a 9.9999995,10 0 0 1 -10,-10 v -40 a 9.9999995,10 0 0 1 10,-10 z"
     fill="#b5a27d"
     id="path2"
     style="stroke:#fffbfb;stroke-width:1;stroke-opacity:1" />
  <!-- Teal speech bubble overlapping -->
  <!-- Company name -->
  <path
     d="M 170.0897,50.992373 H 70.910313 a 9.917939,9.7774717 0 0 0 -9.917939,9.777472 V 99.87973 a 9.917939,9.7774717 0 0 0 9.917939,9.77747 h 59.507627 l 14.87692,14.66621 V 109.6572 h 24.79484 a 9.917939,9.7774717 0 0 0 9.91793,-9.77747 V 60.769845 a 9.917939,9.7774717 0 0 0 -9.91793,-9.777472 z"
     fill="#2bb3a3"
     id="path188"
     style="stroke:#fffbfb;stroke-width:0.984747;stroke-opacity:1" />
  <g
     id="g882"
     transform="translate(-14.343046,-20.975781)"
     inkscape:label="speech-khaki">
    <circle
       cx="40.308281"
       cy="51.503395"
       r="5"
       fill="#333333"
       id="circle12"
       style="fill:#ffffff;fill-opacity:1" />
    <circle
       cx="60.308281"
       cy="51.503395"
       r="5"
       fill="#333333"
       id="circle14"
       style="fill:#ffffff;fill-opacity:1" />
    <circle
       cx="80.308281"
       cy="51.503395"
       r="5"
       fill="#333333"
       id="circle16"
       style="fill:#ffffff;fill-opacity:1" />
    <circle
       cx="99.316093"
       cy="51.580074"
       r="5"
       fill="#333333"
       id="circle876"
       style="fill:#ffffff;fill-opacity:1" />
  </g>
  <g
     id="g902"
     transform="matrix(0.98980844,0,0,0.97774717,50.551566,30.031437)"
     inkscape:label="speech-med">
    <circle
       cx="40.308281"
       cy="51.503395"
       r="5"
       fill="#333333"
       id="circle894"
       style="fill:#ffffff;fill-opacity:1" />
    <circle
       cx="60.308281"
       cy="51.503395"
       r="5"
       fill="#333333"
       id="circle896"
       style="fill:#ffffff;fill-opacity:1" />
    <circle
       cx="80.308281"
       cy="51.503395"
       r="5"
       fill="#333333"
       id="circle898"
       style="fill:#ffffff;fill-opacity:1" />
    <circle
       cx="99.316093"
       cy="51.580074"
       r="5"
       fill="#333333"
       id="circle900"
       style="fill:#ffffff;fill-opacity:1" />
  </g>
  <path
     d="m 10.5,100.5 h 100 a 9.9999999,9.9999997 0 0 1 10,10 v 39.99999 a 9.9999999,9.9999997 0 0 1 -10,10 h -60 l -14.999999,15 v -15 H 10.5 a 9.9999999,9.9999997 0 0 1 -10,-10 V 110.5 a 9.9999999,9.9999997 0 0 1 10,-10 z"
     fill="#2bb3a3"
     id="path10"
     style="fill:#565656;fill-opacity:1;stroke:#fffbfb;stroke-width:1;stroke-opacity:1" />
  <g
     id="g892"
     transform="translate(-14.655312,79.023301)"
     inkscape:label="speech-grey">
    <circle
       cx="40.308281"
       cy="51.503395"
       r="5"
       fill="#333333"
       id="circle884"
       style="fill:#ffffff;fill-opacity:1" />
    <circle
       cx="60.308281"
       cy="51.503395"
       r="5"
       fill="#333333"
       id="circle886"
       style="fill:#ffffff;fill-opacity:1" />
    <circle
       cx="80.308281"
       cy="51.503395"
       r="5"
       fill="#333333"
       id="circle888"
       style="fill:#ffffff;fill-opacity:1" />
    <circle
       cx="99.316093"
       cy="51.580074"
       r="5"
       fill="#333333"
       id="circle890"
       style="fill:#ffffff;fill-opacity:1" />
  </g>
  <text
     xml:space="preserve"
     style="text-align:start;writing-mode:lr-tb;direction:ltr;text-anchor:start;fill:#000000;fill-opacity:1"
     x="189.75999"
     y="68.479996"
     id="text1"><tspan
       sodipodi:role="line"
       id="tspan1"
       x="189.75999"
       y="68.479996"
       style="font-style:oblique;font-variant:normal;font-weight:normal;font-stretch:normal;font-size:74.6667px;font-family:FreeSans;-inkscape-font-specification:'FreeSans, Oblique';font-variant-ligatures:normal;font-variant-caps:normal;font-variant-numeric:normal;font-variant-east-asian:normal;display:inline;fill:#000000;fill-opacity:1"
       inkscape:label="extensible">Extensible</tspan></text>
  <text
     xml:space="preserve"
     style="text-align:start;writing-mode:lr-tb;direction:ltr;text-anchor:start;fill:#000000;fill-opacity:1"
     x="189.54666"
     y="157.03189"
     id="text1-4"
     inkscape:label="messaging"><tspan
       sodipodi:role="line"
       x="189.54666"
       y="157.03189"
       style="font-style:oblique;font-variant:normal;font-weight:normal;font-stretch:normal;font-size:74.6667px;font-family:FreeSans;-inkscape-font-specification:'FreeSans, Oblique';font-variant-ligatures:normal;font-variant-caps:normal;font-variant-numeric:normal;font-variant-east-asian:normal;fill:#000000;fill-opacity:1"
       id="tspan2-0">Messaging</tspan></text>
</svg>
