<?xml version="1.0" encoding="UTF-8" standalone="no"?>
<!-- Created with Inkscape (http://www.inkscape.org/) -->

<svg
   width="1902"
   height="566"
   viewBox="0 0 1902 566"
   version="1.1"
   id="svg5"
   xml:space="preserve"
   sodipodi:docname="gsoc2023_work.svg"
   inkscape:export-filename="gsoc2023.svg"
   inkscape:export-xdpi="200"
   inkscape:export-ydpi="200"
   inkscape:version="1.2.1 (9c6d41e410, 2022-07-14)"
   xmlns:inkscape="http://www.inkscape.org/namespaces/inkscape"
   xmlns:sodipodi="http://sodipodi.sourceforge.net/DTD/sodipodi-0.dtd"
   xmlns="http://www.w3.org/2000/svg"
   xmlns:svg="http://www.w3.org/2000/svg"><sodipodi:namedview
     id="namedview7"
     pagecolor="#ffffff"
     bordercolor="#999999"
     borderopacity="1"
     inkscape:showpageshadow="0"
     inkscape:pageopacity="0"
     inkscape:pagecheckerboard="0"
     inkscape:deskcolor="#d1d1d1"
     inkscape:document-units="mm"
     showgrid="false"
     inkscape:zoom="0.52850974"
     inkscape:cx="691.5672"
     inkscape:cy="215.70085"
     inkscape:window-width="1920"
     inkscape:window-height="1011"
     inkscape:window-x="0"
     inkscape:window-y="32"
     inkscape:window-maximized="1"
     inkscape:current-layer="g4797" /><defs
     id="defs2"><linearGradient
       id="SVGID_left_"
       y2="1.279e-13"
       gradientUnits="userSpaceOnUse"
       x2="-1073.2"
       gradientTransform="matrix(-1,0,0,1,-708.78908,-93.285953)"
       y1="126.85"
       x1="-1073.2">
	<stop
   stop-color="#1b3967"
   offset=".011"
   id="stop4222" />
	<stop
   stop-color="#13b5ea"
   offset=".467"
   id="stop4224" />
	<stop
   stop-color="#002b5c"
   offset=".9945"
   id="stop4226" />
</linearGradient><linearGradient
       id="SVGID_right_"
       y2="1.279e-13"
       gradientUnits="userSpaceOnUse"
       x2="-1073.2"
       gradientTransform="translate(1482.6029,-93.284953)"
       y1="126.85"
       x1="-1073.2">
	<stop
   stop-color="#1b3967"
   offset=".011"
   id="stop4215" />
	<stop
   stop-color="#13b5ea"
   offset=".467"
   id="stop4217" />
	<stop
   stop-color="#002b5c"
   offset=".9945"
   id="stop4219" />
</linearGradient></defs><g
     inkscape:label="Calque 1"
     inkscape:groupmode="layer"
     id="layer1"
     style="display:inline"><g
       id="g4797"
       transform="matrix(2.5353674,0,0,2.5353674,-688.80521,302.18848)"><g
         id="g6278"><path
           d="m 437.80405,-79.095952 c 0.077,1.313 -1.787,0.968 -1.787,2.293 0,38.551 -46.558,97.366012 -91.68799,108.730012 v 1.639 c 59.953,-5.52 128.55999,-67.800012 130.06999,-126.850013 l -36.599,14.189001 z"
           style="fill:url(#SVGID_right_)"
           id="path4229" /><path
           d="m 419.67205,-74.352952 c 0.076,1.313 0.12,2.63 0.12,3.957 0,38.551 -30.69898,90.497012 -75.82699,101.860012 v 1.639 c 59.04401,-2.79 105.81,-63.024012 105.81,-109.200012 0,-2.375 -0.128,-4.729 -0.371,-7.056 l -29.73,8.798 z"
           style="fill:#e96d1f"
           id="path4231" /><path
           d="m 449.69005,-83.701952 -7.61699,2.722 c 0.041,0.962 0.066,2.254 0.066,3.225 0,41.219 -37.271,98.204012 -87.27199,107.120012 -3.24502,1.088 -7.53802,2.077 -10.93201,2.931 v 1.638 c 65.254,-5.56 111.1,-71.866012 105.75999,-117.640012 z"
           style="fill:#d9541e"
           id="path4233" /><path
           d="m 336.00993,-79.096952 c -0.077,1.313 1.787,0.968 1.787,2.293 0,38.551 46.55801,97.366012 91.68799,108.730012 v 1.639 c -59.95299,-5.52 -128.55999,-67.800012 -130.06999,-126.850013 l 36.599,14.189001 z"
           style="fill:url(#SVGID_left_)"
           id="path4235" /><path
           d="m 354.14193,-74.353952 c -0.076,1.313 -0.12,2.63 -0.12,3.957 0,38.551 30.69899,90.497012 75.82699,101.860012 v 1.639 c -59.04399,-2.79 -105.80999,-63.024012 -105.80999,-109.200012 0,-2.375 0.128,-4.729 0.371,-7.056 l 29.73,8.798 z"
           style="fill:#a0ce67"
           id="path4237" /><path
           d="m 324.12393,-83.702952 7.617,2.722 c -0.041,0.962 -0.066,2.254 -0.066,3.225 0,41.219 37.271,98.204012 87.27199,107.120012 3.245,1.088 7.538,2.077 10.932,2.931 v 1.638 c -65.25399,-5.56 -111.09999,-71.866012 -105.75999,-117.640012 z"
           style="fill:#439639"
           id="path4239" /><path
           d="m 311.98693,63.42406 -13.388,-14.65 h 11.643 l 9.127,10.268 9.129,-10.268 h 11.643 l -13.387,14.646 14.401,14.728 h -12.09 l -9.697,-10.67 -9.693,10.67 h -12.092 l 14.404,-14.73 z"
           id="path4241"
           style="fill:#0c83b6;fill-opacity:1" /><path
           d="m 344.50693,48.77406 h 13.836 l 10.183,18.905 10.183,-18.905 h 13.83199 v 29.374 h -8.76198 v -21.096 h -0.08 l -11.80701,21.096 h -6.733 l -11.807,-21.096 h -0.082 v 21.096 h -8.764 v -29.37 z"
           id="path4243"
           style="fill:#0c83b6;fill-opacity:1" /><path
           d="m 398.66092,48.77406 h 24.546 c 8.559,0 10.628,4.302 10.628,10.063 v 2.516 c 0,4.381 -1.908,9.41 -8.275,9.41 h -17.894 v 7.385 h -9.005 v -29.38 z m 9,14.69 h 13.997 c 2.10901,0 2.92401,-1.377 2.92401,-3.123 v -1.135 c 0,-1.99 -0.976,-3.127 -3.694,-3.127 h -13.227 v 7.38 z"
           id="path4245"
           style="fill:#0c83b6;fill-opacity:1" /><path
           d="m 438.72092,48.77406 h 24.546 c 8.561,0 10.63,4.302 10.63,10.063 v 2.516 c 0,4.381 -1.907,9.41 -8.275,9.41 h -17.893 v 7.385 h -9.008 v -29.38 z m 9.01,14.69 h 13.996 c 2.11,0 2.922,-1.377 2.922,-3.123 v -1.135 c 0,-1.99 -0.974,-3.127 -3.693,-3.127 h -13.225 v 7.38 z"
           id="path4247"
           style="fill:#0c83b6;fill-opacity:1" /></g></g><text
       xml:space="preserve"
       style="fill:#000000"
       x="854.51788"
       y="214.37981"
       id="text5649"><tspan
         sodipodi:role="line"
         id="tspan5647" /></text><text
       xml:space="preserve"
       style="font-size:233.333px;fill:#0c83b6;fill-opacity:1"
       x="564.45172"
       y="356.14441"
       id="text5653"><tspan
         sodipodi:role="line"
         id="tspan5651"
         x="564.45172"
         y="356.14441"
         style="font-style:normal;font-variant:normal;font-weight:bold;font-stretch:normal;font-size:233.333px;font-family:'DejaVu Sans';-inkscape-font-specification:'DejaVu Sans Bold';fill:#0c83b6;fill-opacity:1">+</tspan></text><g
       id="g7477"
       transform="translate(-63.175385)"><g
         id="g5543"
         transform="matrix(17.385827,0,0,17.385827,873.6157,65.677162)"><path
           fill="#f9ab00"
           d="m 8.8,21.3 3.7,3.7 3.7,-3.7 h 5.2 V 16.1 L 25.1,12.4 21.4,8.7 V 3.6 H 16.2 L 12.5,0 11.5,1 9.6,2.9 8.8,3.6 H 3.7 v 5.2 l -3.7,3.7 2.9,2.9 0.8,0.8 v 5.2 h 5.1 z"
           id="path5525" /><path
           fill="#e37400"
           d="m 19.7,12.5 c 0,4 -3.2,7.2 -7.2,7.2 -4,0 -7.2,-3.2 -7.2,-7.2 0,-4 3.2,-7.2 7.2,-7.2 4,0 7.2,3.2 7.2,7.2 0,0 0,0 0,0 z"
           id="path5527" /><path
           fill="#ffffff"
           d="M 11.2,15.5 13,8.9 14,9.2 12.2,15.8 Z"
           id="path5529" /><path
           fill="#ffffff"
           d="m 10,10 0.8,0.7 -1.5,1.7 1.5,1.7 L 10,14.7 7.9,12.4 C 7.9,12.3 10,10 10,10 Z m 5,0 2.1,2.3 -2.1,2.3 -0.7,-0.6 1.5,-1.7 -1.5,-1.7 c 0,0 0.7,-0.6 0.7,-0.6 z"
           id="path5531" /></g><text
         xml:space="preserve"
         style="font-style:normal;font-variant:normal;font-weight:bold;font-stretch:normal;font-size:66.6667px;font-family:'DejaVu Sans';-inkscape-font-specification:'DejaVu Sans Bold';fill:#e37400;fill-opacity:1"
         x="1339.4728"
         y="266.18683"
         id="text7070"><tspan
           sodipodi:role="line"
           id="tspan7068"
           x="1339.4728"
           y="266.18683"
           style="font-size:66.6667px;fill:#e37400;fill-opacity:1">Google Summer </tspan><tspan
           sodipodi:role="line"
           x="1339.4728"
           y="349.5202"
           style="font-size:66.6667px;fill:#e37400;fill-opacity:1"
           id="tspan7122">of Code 2023</tspan></text></g></g></svg>
