<?xml version="1.0" encoding="UTF-8" standalone="no"?>
<!DOCTYPE svg PUBLIC "-//W3C//DTD SVG 1.1//EN" "http://www.w3.org/Graphics/SVG/1.1/DTD/svg11.dtd">
<svg width="100%" height="100%" viewBox="0 0 2125 1130" version="1.1" xmlns="http://www.w3.org/2000/svg" xmlns:xlink="http://www.w3.org/1999/xlink" xml:space="preserve" xmlns:serif="http://www.serif.com/" style="fill-rule:evenodd;clip-rule:evenodd;stroke-miterlimit:2;">
    <g transform="matrix(4.16667,0,0,4.16667,0,0)">
        <path d="M43.127,41.404L8.519,76.012L43.127,110.62L77.735,76.012L43.127,41.404Z" style="fill:rgb(187,189,192);fill-rule:nonzero;"/>
        <path d="M451.192,41.404L416.584,76.012L451.192,110.62L485.799,76.012L451.192,41.404Z" style="fill:rgb(187,189,192);fill-rule:nonzero;"/>
        <path d="M124.644,41.404L90.035,76.012L124.644,110.62L159.252,76.012L124.644,41.404Z" style="fill:rgb(187,189,192);fill-rule:nonzero;"/>
        <path d="M206.144,41.404L171.536,76.012L206.144,110.62L240.752,76.012L206.144,41.404Z" style="fill:rgb(187,189,192);fill-rule:nonzero;"/>
        <path d="M287.644,41.404L253.036,76.012L287.644,110.62L322.252,76.012L287.644,41.404Z" style="fill:rgb(187,189,192);fill-rule:nonzero;"/>
        <path d="M369.144,41.404L334.536,76.012L369.144,110.62L403.752,76.012L369.144,41.404Z" style="fill:rgb(187,189,192);fill-rule:nonzero;"/>
        <path d="M165.685,82.316L131.077,116.923L165.685,151.531L200.293,116.923L165.685,82.316Z" style="fill:rgb(187,189,192);fill-rule:nonzero;"/>
        <path d="M247.185,82.316L212.577,116.923L247.185,151.531L281.793,116.923L247.185,82.316Z" style="fill:rgb(187,189,192);fill-rule:nonzero;"/>
        <path d="M328.685,82.316L294.077,116.923L328.685,151.531L363.293,116.923L328.685,82.316Z" style="fill:rgb(187,189,192);fill-rule:nonzero;"/>
        <path d="M165.685,0.904L131.077,35.512L165.685,70.12L200.293,35.512L165.685,0.904Z" style="fill:rgb(187,189,192);fill-rule:nonzero;"/>
        <path d="M247.185,0.904L212.577,35.512L247.185,70.12L281.793,35.512L247.185,0.904Z" style="fill:rgb(187,189,192);fill-rule:nonzero;"/>
        <path d="M328.685,0.904L294.077,35.512L328.685,70.12L363.293,35.512L328.685,0.904Z" style="fill:rgb(187,189,192);fill-rule:nonzero;"/>
        <path d="M14.488,71.978L85.723,71.978L124.932,111.186L165.425,70.693L206.144,111.412L287.979,29.576L328.897,70.494L369.39,30.001L411.792,72.402L481.331,72.402L481.331,80.458L408.4,80.458L369.178,41.236L328.473,81.942L287.768,41.236L206.356,122.648L165.651,81.942L125.157,122.436L82.542,79.822L14.064,79.822L14.488,71.978Z" style="fill:rgb(255,210,79);fill-rule:nonzero;"/>
        <path d="M14.488,71.978L85.723,71.978L124.932,111.186L165.425,70.693L206.144,111.412L287.979,29.576L328.897,70.494L369.39,30.001L411.792,72.402L481.331,72.402L481.331,80.458L408.4,80.458L369.178,41.236L328.473,81.942L287.768,41.236L206.356,122.648L165.651,81.942L125.157,122.436L82.542,79.822L14.064,79.822L14.488,71.978Z" style="fill:none;stroke:black;stroke-width:1.5px;"/>
        <rect x="0" y="68.69" width="16.536" height="15.265" style="fill:rgb(35,31,32);fill-rule:nonzero;"/>
        <rect x="476.49" y="68.69" width="16.536" height="15.265" style="fill:rgb(35,31,32);fill-rule:nonzero;"/>
        <rect x="14.517" y="213.327" width="20.211" height="57.673" style="fill:rgb(35,31,32);fill-rule:nonzero;"/>
        <path d="M139.924,213.327L183.137,213.327L183.137,225.505L160.135,225.505L160.135,235.652L181.192,235.652L181.192,247.829L160.135,247.829L160.135,258.822L183.475,258.822L183.475,271L139.924,271L139.924,213.327Z" style="fill:rgb(35,31,32);fill-rule:nonzero;"/>
        <path d="M282.751,227.788L282.751,213.327L338.987,213.327L338.987,227.788L320.974,227.788L320.974,271L300.763,271L300.763,227.788L282.751,227.788Z" style="fill:rgb(35,31,32);fill-rule:nonzero;"/>
        <path d="M440.208,213.327L482.321,213.327L482.321,225.505L460.418,225.505L460.418,235.99L480.967,235.99L480.967,248.168L460.418,248.168L460.418,271L440.208,271L440.208,213.327Z" style="fill:rgb(35,31,32);fill-rule:nonzero;"/>
        <path d="M499.743,221.404C501.047,221.404 501.698,220.877 501.698,220.024C501.698,219.146 501.022,218.67 499.618,218.67L497.786,218.67L497.786,221.404L499.743,221.404ZM501.924,227.073L501.096,225.467C500.194,223.712 499.491,222.984 498.463,222.984L497.786,222.984L497.786,227.073L495.754,227.073L495.754,217.114L500.77,217.114C502.803,217.114 503.831,218.393 503.831,219.898C503.831,221.428 502.803,222.482 501.147,222.683L501.147,222.733C502,223.034 502.2,223.285 503.254,225.066L504.432,227.073L501.924,227.073ZM499.993,229.632C504.157,229.632 507.543,226.27 507.543,222.106C507.543,217.917 504.157,214.555 499.993,214.555C495.829,214.555 492.442,217.917 492.442,222.106C492.442,226.27 495.829,229.632 499.993,229.632ZM499.993,212.75C505.161,212.75 509.35,216.938 509.35,222.106C509.35,227.248 505.161,231.437 499.993,231.437C494.827,231.437 490.637,227.248 490.637,222.106C490.637,216.938 494.827,212.75 499.993,212.75Z" style="fill:rgb(35,31,32);fill-rule:nonzero;"/>
    </g>
</svg>
