<?xml version="1.0" encoding="UTF-8"?>
<svg viewBox="0 0 505 505" xmlns="http://www.w3.org/2000/svg">
 <path fill="white" d="m189 48 118-4 104 406-347 6 127-279"/>
 <path fill="orange" d="m190 140 50-30 60 25-70 40m-185 215 50-20 30-30 80 120-30 30-125-20m280-110h90l20 50 20 25-110 60h-20"/>
 <path d="m456.698 412.044c-13.352-5.479-24.353-14.107-23.555-30.631.777-16.502-11.799-27.438-11.799-27.438s11.001-36.131.777-65.963c-10.203-29.876-43.961-77.741-69.868-113.851-25.863-36.131-3.904-77.763-27.438-131.129-23.577-53.366-84.795-50.238-117.776-27.46-33.003 22.736-22.8 79.251-21.247 105.999 1.575 26.661.712 45.665-2.33 52.568-3.106 6.903-24.332 32.227-38.482 53.409-14.129 21.183-24.332 65.165-34.578 83.22-10.203 18.055-3.128 34.535-3.128 34.535s-7.075 2.33-12.576 14.172c-5.501 11.734-16.48 17.235-36.109 21.118-19.629 3.926-19.629 16.545-14.927 30.674 4.724 14.107.022 22.002-5.479 40.014s21.981 23.555 48.664 26.64c26.705 3.171 56.537 20.449 81.689 23.577 25.087 3.149 32.96-17.257 32.96-17.257s28.258-6.32 58.069-7.054c29.854-.798 58.069 6.277 58.069 6.277s5.501 12.554 15.704 18.033c10.225 5.501 32.205 6.299 46.334-8.585 14.15-14.949 51.835-33.758 73.017-45.557 21.244-11.82 17.361-29.853 4.009-35.311zm-183.74-346.232c13.46 0 24.332 13.352 24.332 29.811 0 11.691-5.457 21.765-13.417 26.661-2.028-.884-4.163-1.79-6.428-2.761 4.789-2.373 8.197-8.477 8.197-15.596 0-9.275-5.738-16.804-12.835-16.804-7.01 0-12.77 7.55-12.77 16.804 0 3.43.82 6.73 2.222 9.426-4.185-1.661-8.046-3.214-11.066-4.357-1.639-4.012-2.567-8.542-2.567-13.374-0-16.458 10.872-29.81 24.332-29.81zm-1.747 62.857c6.73 2.33 14.215 6.709 13.439 11.044-.798 4.357-4.336 4.357-13.439 9.923-9.124 5.522-28.883 17.774-35.204 18.572-6.363.798-9.901-2.761-16.631-7.097-6.73-4.357-19.392-14.69-16.2-20.19 0 0 9.858-7.55 14.194-11.497 4.357-3.969 15.445-13.439 22.175-12.209 6.73 1.143 24.936 9.081 31.666 11.454zm-60.679-58.133c10.613 0 19.241 12.64 19.241 28.236 0 2.869-.28 5.522-.82 8.089-2.588.884-5.22 2.308-7.765 4.465-1.294 1.057-2.438 2.049-3.538 3.041 1.683-3.149 2.351-7.636 1.596-12.36-1.424-8.52-7.097-14.733-12.727-13.848-5.608.971-8.995 8.628-7.571 17.192 1.445 8.564 7.097 14.776 12.705 13.848.324-.065.626-.151.949-.259-2.739 2.632-5.263 4.897-7.83 6.816-7.765-3.602-13.46-14.323-13.46-27.007.001-15.594 8.607-28.213 19.22-28.213zm-20.729 396.708c-2.502 11.26-15.682 19.435-15.682 19.435-11.95 3.753-45.169-10.656-60.226-16.976-15.035-6.234-53.323-8.175-58.349-13.741-4.983-5.695 2.502-18.227 4.422-30.113 1.855-11.972-3.753-19.457-1.898-27.632 1.898-8.132 26.359-8.132 35.743-13.762 9.426-5.673 11.303-21.981 18.831-26.359 7.528-4.422 21.312 11.26 26.963 20.082 5.63 8.736 26.963 46.399 35.743 55.804 8.801 9.405 16.955 22.002 14.453 33.262zm138.851-109.407c-2.265 11.066-2.265 51.058-2.265 51.058s-24.332 33.715-62.059 39.237c-37.684 5.522-56.537 1.553-56.537 1.553l-21.183-24.31s16.458-2.394 14.129-18.874c-2.373-16.48-50.238-39.259-58.888-59.686-8.607-20.384-1.553-54.962 9.448-72.241 10.98-17.257 18.012-54.919 29.013-67.517 11.001-12.511 19.608-39.216 15.682-51.015 0 0 23.555 28.279 40.014 23.598 16.48-4.724 53.431-32.227 58.888-27.481 5.479 4.724 52.59 108.328 57.27 141.31 4.724 32.96-3.149 58.069-3.149 58.069s-18.034-4.702-20.363 6.299zm120.494 73.966c-7.334 6.73-48.146 23.21-60.377 36.066-12.166 12.748-28.064 23.124-37.792 20.104-9.793-3.085-18.314-16.48-14.043-36.023 4.249-19.478 7.938-40.833 7.334-53.043-.604-12.209-3.085-28.711 0-31.148 3.042-2.373 7.895-1.186 7.895-1.186s-2.394 23.145 11.605 29.293c13.999 6.04 34.147-2.438 40.251-8.585 6.126-6.061 10.397-15.207 10.397-15.207s6.083 3.085 5.479 12.813c-.604 9.75 4.249 23.814 13.439 28.668 9.125 4.81 23.146 11.561 15.812 18.248z"/>
</svg>
