<?xml version="1.0" encoding="UTF-8" standalone="no"?>
<svg version="1.1" xmlns="http://www.w3.org/2000/svg" viewBox="0 0 200 200">
  <style>
    path {
      fill: black;
    }
    @media (prefers-color-scheme: dark) {
      path {
        fill: white;
      }
    }
  </style>
  <path d="m 25.988,172.07799 -13.388,-14.65 h 11.643 l 9.127,10.268 9.129,-10.268 h 11.643 l -13.387,14.646 14.401,14.728 h -12.09 l -9.697,-10.67 -9.693,10.67 H 11.584 l 14.404,-14.73 z"/>
  <path d="m 58.508,157.42799 h 13.836 l 10.183,18.905 10.183,-18.905 h 13.83199 v 29.374 h -8.761983 v -21.096 h -0.08 L 85.893,186.80199 H 79.16 l -11.807,-21.096 h -0.082 v 21.096 h -8.764 v -29.37 z"/>
  <path d="m 112.66199,157.42799 h 24.546 c 8.559,0 10.628,4.302 10.628,10.063 v 2.516 c 0,4.381 -1.908,9.41 -8.275,9.41 h -17.894 v 7.385 h -9.005 v -29.38 z m 9,14.69 h 13.997 c 2.10901,0 2.92401,-1.377 2.92401,-3.123 v -1.135 c 0,-1.99 -0.976,-3.127 -3.694,-3.127 h -13.227 v 7.38 z"/>
  <path d="m 152.72199,157.42799 h 24.546 c 8.561,0 10.63,4.302 10.63,10.063 v 2.516 c 0,4.381 -1.907,9.41 -8.275,9.41 h -17.893 v 7.385 h -9.008 v -29.38 z m 9.01,14.69 h 13.996 c 2.11,0 2.922,-1.377 2.922,-3.123 v -1.135 c 0,-1.99 -0.974,-3.127 -3.693,-3.127 h -13.225 v 7.38 z"/>
  <path d="M 13.416016 15.369141 C 14.479259 56.948304 48.809273 100.12809 89.960938 123.9668 C 80.462604 131.46217 69.703135 137.16204 57.966797 140.11719 L 57.966797 140.94336 C 57.956789 140.94588 57.945539 140.9467 57.935547 140.94922 L 57.935547 142.58789 C 70.462208 141.52055 82.275063 138.21562 93.146484 133.24609 C 95.747082 132.16981 98.335183 131.00844 100.9082 129.76953 C 103.48054 131.00807 106.07002 132.16815 108.66992 133.24414 C 119.54134 138.21366 131.35421 141.52055 143.88086 142.58789 L 143.88086 140.94922 C 143.87087 140.9467 143.85962 140.94392 143.84961 140.94141 L 143.84961 140.11719 C 132.11388 137.16219 121.35344 131.4616 111.85547 123.9668 C 153.00648 100.12791 187.33716 56.947811 188.40039 15.369141 L 163.69531 24.947266 L 163.60742 24.980469 L 156.12109 27.658203 L 133.67578 34.298828 L 133.67383 34.300781 C 133.74983 35.613781 133.79297 36.930813 133.79297 38.257812 C 133.79297 62.703867 121.44837 92.537299 100.9082 113.99219 C 80.367456 92.537226 68.023438 62.704246 68.023438 38.257812 C 68.023438 36.930812 68.066578 35.613781 68.142578 34.300781 L 68.140625 34.298828 L 45.679688 27.650391 L 38.216797 24.984375 L 13.416016 15.369141 z "/>
</svg>
