<?xml version="1.0" encoding="UTF-8" standalone="no"?>
<svg version="1.1" xmlns="http://www.w3.org/2000/svg" viewBox="0 0 200 200">
  <style>
    path {
      fill: black;
    }
    @media (prefers-color-scheme: dark) {
      path {
        fill: white;
      }
    }
  </style>
  <path d="m 13.416016,36.390625 c 1.063243,41.579163 35.393257,84.758945 76.544922,108.597655 -9.498334,7.49537 -20.257803,13.19524 -31.994141,16.15039 v 0.82617 c -0.01001,0.003 -0.02126,0.003 -0.03125,0.006 v 1.63867 c 12.526661,-1.06734 24.339516,-4.37227 35.210937,-9.3418 2.600598,-1.07628 5.188699,-2.23765 7.761716,-3.47656 2.57234,1.23854 5.16182,2.39862 7.76172,3.47461 10.87142,4.96952 22.68429,8.27641 35.21094,9.34375 v -1.63867 c -0.01,-0.003 -0.0212,-0.005 -0.0312,-0.008 v -0.82422 c -11.73573,-2.955 -22.49617,-8.65559 -31.99414,-16.15039 41.15101,-23.83889 75.48169,-67.018985 76.54492,-108.597655 l -24.70508,9.578125 -0.0879,0.0332 -7.48633,2.677734 -22.44531,6.640625 -0.002,0.002 c 0.076,1.313001 0.11914,2.630032 0.11914,3.957031 0,24.446056 -12.3446,54.279484 -32.88477,75.734374 C 80.367456,113.55871 68.023438,83.72573 68.023438,59.279296 c 0,-1.326999 0.04314,-2.64403 0.11914,-3.957031 l -0.002,-0.002 -22.460937,-6.648437 -7.462891,-2.666016 z"/>
</svg>
