<?xml version="1.0" encoding="UTF-8" standalone="no"?>
<!-- Generator: Adobe Illustrator 13.0.2, SVG Export Plug-In . SVG Version: 6.00 Build 14948)  -->

<svg
   version="1.1"
   xml:space="preserve"
   viewBox="0 0 200 200"
   width="200px"
   height="200px"
   x="0px"
   y="0px"
   enable-background="new 0 0 200 200"
   id="svg15"
   sodipodi:docname="xsf-logo-text.svg"
   inkscape:version="1.4 (e7c3feb100, 2024-10-09)"
   xmlns:inkscape="http://www.inkscape.org/namespaces/inkscape"
   xmlns:sodipodi="http://sodipodi.sourceforge.net/DTD/sodipodi-0.dtd"
   xmlns="http://www.w3.org/2000/svg"
   xmlns:svg="http://www.w3.org/2000/svg"><defs
   id="defs15"><linearGradient
     id="SVGID_left_-3"
     y2="1.279e-13"
     gradientUnits="userSpaceOnUse"
     x2="-1073.2"
     gradientTransform="matrix(-1,0,0,1,-987.20401,109.999)"
     y1="126.85"
     x1="-1073.2">
	<stop
   stop-color="#1b3967"
   offset=".011"
   id="stop4-6" />
	<stop
   stop-color="#13b5ea"
   offset=".467"
   id="stop5-7" />
	<stop
   stop-color="#002b5c"
   offset=".9945"
   id="stop6-5" />
</linearGradient><linearGradient
     id="SVGID_right_-3"
     y2="1.279e-13"
     gradientUnits="userSpaceOnUse"
     x2="-1073.2"
     gradientTransform="translate(1204.188,110)"
     y1="126.85"
     x1="-1073.2">
	<stop
   stop-color="#1b3967"
   offset=".011"
   id="stop1-5" />
	<stop
   stop-color="#13b5ea"
   offset=".467"
   id="stop2-6" />
	<stop
   stop-color="#002b5c"
   offset=".9945"
   id="stop3-2" />
</linearGradient></defs><sodipodi:namedview
   id="namedview15"
   pagecolor="#ffffff"
   bordercolor="#000000"
   borderopacity="0.25"
   inkscape:showpageshadow="2"
   inkscape:pageopacity="0.0"
   inkscape:pagecheckerboard="0"
   inkscape:deskcolor="#d1d1d1"
   showgrid="false"
   showguides="false"
   inkscape:zoom="1.575"
   inkscape:cx="108.25397"
   inkscape:cy="66.031746"
   inkscape:window-width="1596"
   inkscape:window-height="841"
   inkscape:window-x="0"
   inkscape:window-y="0"
   inkscape:window-maximized="0"
   inkscape:current-layer="g16" />
<style
   id="style1">
	path {
		fill: black;
	}
	@media (prefers-color-scheme: dark) {
		path {
			fill: white;
		}
	}
</style>

<linearGradient
   id="SVGID_right_"
   y2="1.279e-13"
   gradientUnits="userSpaceOnUse"
   x2="-1073.2"
   gradientTransform="translate(1196.604,15.368977)"
   y1="126.85"
   x1="-1073.2">
	<stop
   stop-color="#1b3967"
   offset=".011"
   id="stop1" />
	<stop
   stop-color="#13b5ea"
   offset=".467"
   id="stop2" />
	<stop
   stop-color="#002b5c"
   offset=".9945"
   id="stop3" />
</linearGradient>

<linearGradient
   id="SVGID_left_"
   y2="1.279e-13"
   gradientUnits="userSpaceOnUse"
   x2="-1073.2"
   gradientTransform="matrix(-1,0,0,1,-994.78801,15.367977)"
   y1="126.85"
   x1="-1073.2">
	<stop
   stop-color="#1b3967"
   offset=".011"
   id="stop4" />
	<stop
   stop-color="#13b5ea"
   offset=".467"
   id="stop5" />
	<stop
   stop-color="#002b5c"
   offset=".9945"
   id="stop6" />
</linearGradient>











<g
   id="g15"
   inkscape:label="XSF"
   transform="translate(36.60303)"><path
     d="m 25.988,172.07799 -13.388,-14.65 h 11.643 l 9.127,10.268 9.129,-10.268 h 11.643 l -13.387,14.646 14.401,14.728 h -12.09 l -9.697,-10.67 -9.693,10.67 H 11.584 l 14.404,-14.73 z"
     id="path12"
     inkscape:label="X"
     style="display:inline" /><path
     d="m 75.6589,180.76513 -17.01991,-0.0345 0.0229,6.07141 24.52023,-0.0561 0.0196,-16.67323 -15.53981,0.0453 10e-6,-0.005 v -5.38 l 15.54794,0.0321 -0.002,-7.33713 -24.546,-0.003 -0.0485,18.01303 17.13141,-0.021 z"
     id="path14"
     inkscape:label="S"
     style="display:inline;fill:#000000;fill-opacity:1;stroke:none;stroke-opacity:1"
     sodipodi:nodetypes="cccccccccccccc" /><path
     d="m 99.662,164.73299 v 5.38 l -1e-5,0.005 14.13682,0.0669 -0.054,5.23211 H 99.66694 v 11.385 h -9.005 v -29.38 0.006 h 24.546 l 0.002,7.33713 z"
     id="path16"
     inkscape:label="F"
     style="display:inline;fill:#000000;fill-opacity:1;stroke:none;stroke-opacity:1"
     sodipodi:nodetypes="ccccccccccccc" /></g>

<g
   id="g16"
   inkscape:label="Logo"
   transform="matrix(0.56,0,0,0.56,40.513979,-4.2467386)"><path
     id="rect16"
     style="fill:#000000;fill-rule:evenodd;stroke:none;stroke-width:3.77953;stroke-linecap:round;fill-opacity:1"
     d="M 101.58789 17.777344 L 14.285156 61.904297 L 26.222656 61.904297 C 25.940643 61.904297 25.714844 62.13205 25.714844 62.414062 L 25.714844 140.125 C 25.714844 140.40701 25.940643 140.63477 26.222656 140.63477 L 173.45898 140.63477 C 173.741 140.63477 173.96875 140.40701 173.96875 140.125 L 173.96875 62.414062 C 173.96875 62.13205 173.741 61.904297 173.45898 61.904297 L 188.25391 61.904297 L 101.58789 17.777344 z M 52.277344 57.470703 L 66.111328 62.833984 L 66.113281 62.835938 L 70.351562 64.349609 L 82.921875 68.070312 L 82.923828 68.072266 C 82.881268 68.807546 82.855469 69.543989 82.855469 70.287109 C 82.855469 83.974393 89.772785 100.66933 101.27148 112.68359 C 112.76962 100.66941 119.6875 83.974009 119.6875 70.287109 C 119.6875 69.543989 119.66365 68.807546 119.62109 68.072266 L 119.62109 68.070312 L 132.19727 64.349609 L 136.41406 62.841797 L 136.43359 62.833984 L 150.26758 57.470703 C 149.67219 80.75376 130.44364 104.91744 107.40039 118.26758 C 112.72175 122.46863 118.74411 125.67227 125.32031 127.32812 L 125.32031 127.79102 C 125.32513 127.79214 125.3309 127.7938 125.33594 127.79492 L 125.33594 128.71289 C 118.34492 128.11722 111.75636 126.26906 105.68555 123.50195 C 104.20622 122.89125 102.73688 122.22032 101.27344 121.51562 C 99.8129 122.21899 98.345505 122.88634 96.869141 123.49609 C 90.795416 126.26588 84.202091 128.11687 77.207031 128.71289 L 77.207031 127.79492 C 77.212396 127.7938 77.219233 127.79214 77.224609 127.79102 L 77.224609 127.33008 C 83.801306 125.6741 89.824835 122.4691 95.146484 118.26758 C 72.102206 104.91772 52.872748 80.754538 52.277344 57.470703 z "
     transform="matrix(1.7857143,0,0,1.7857143,-72.346391,7.5834618)"
     inkscape:label="building" /><path
     d="m 159.38912,124.189 c 0.077,1.313 -1.787,0.968 -1.787,2.293 0,38.551 -46.558,97.36601 -91.687985,108.73001 v 1.639 C 125.86713,231.33101 194.47412,169.051 195.98412,110.001 l -36.599,14.189 z"
     style="fill:url(#SVGID_right_-3)"
     id="path6" /><path
     d="m 141.25712,128.932 c 0.076,1.313 0.12,2.63 0.12,3.957 0,38.551 -30.69898,90.49701 -75.826985,101.86001 v 1.639 C 124.59414,233.59801 171.36013,173.364 171.36013,127.188 c 0,-2.375 -0.128,-4.729 -0.371,-7.056 l -29.73,8.798 z"
     style="fill:#e96d1f"
     id="path7" /><path
     d="m 171.27512,119.583 -7.61699,2.722 c 0.041,0.962 0.066,2.254 0.066,3.225 0,41.219 -37.271,98.20401 -87.271995,107.12001 -3.24501,1.088 -7.53801,2.077 -10.932,2.931 v 1.638 C 130.77413,231.65901 176.62013,165.353 171.28012,119.579 Z"
     style="fill:#d9541e"
     id="path8" /><path
     d="m 57.595,124.188 c -0.077,1.313 1.787,0.968 1.787,2.293 0,38.551 46.55801,97.36601 91.68799,108.73001 v 1.639 C 91.117,231.33001 22.51,169.05 21,110 l 36.599,14.189 z"
     style="fill:url(#SVGID_left_-3)"
     id="path9" /><path
     d="m 75.727,128.931 c -0.076,1.313 -0.12,2.63 -0.12,3.957 0,38.551 30.69899,90.49701 75.82699,101.86001 v 1.639 C 92.39,233.59701 45.624,173.363 45.624,127.187 c 0,-2.375 0.128,-4.729 0.371,-7.056 l 29.73,8.798 z"
     style="fill:#a0ce67"
     id="path10" /><path
     d="m 45.709,119.582 7.617,2.722 c -0.041,0.962 -0.066,2.254 -0.066,3.225 0,41.219 37.271,98.20401 87.27199,107.12001 3.245,1.088 7.538,2.077 10.932,2.931 v 1.638 C 86.21,231.65801 40.364,165.352 45.704,119.578 Z"
     style="fill:#439639"
     id="path11" /></g></svg>
