<?xml version="1.0" encoding="UTF-8" standalone="no"?>
<!-- Generator: Adobe Illustrator 13.0.2, SVG Export Plug-In . SVG Version: 6.00 Build 14948)  -->

<svg
   version="1.1"
   xml:space="preserve"
   viewBox="0 0 200 200"
   width="200px"
   height="200px"
   x="0px"
   y="0px"
   enable-background="new 0 0 200 200"
   id="svg15"
   sodipodi:docname="xsf-logo-text.svg"
   inkscape:version="1.4 (e7c3feb100, 2024-10-09)"
   xmlns:inkscape="http://www.inkscape.org/namespaces/inkscape"
   xmlns:sodipodi="http://sodipodi.sourceforge.net/DTD/sodipodi-0.dtd"
   xmlns="http://www.w3.org/2000/svg"
   xmlns:svg="http://www.w3.org/2000/svg"><g
   id="g2"
   inkscape:label="XSF"><path
     d="m 24.612187,160.03448 16.165319,14.41066 -16.165319,14.37332 h 10.938657 l 10.677324,-9.51999 10.714658,9.51999 h 10.938657 l -16.16532,-14.37332 16.16532,-14.41066 H 56.942826 l -10.714658,9.52 -10.677324,-9.52 z m 50.399936,0.14934 q -3.583997,0 -6.122661,2.50133 -2.501332,2.50133 -2.501332,6.04799 0,3.54667 2.501332,6.048 2.538664,2.464 6.122661,2.464 h 16.949319 q 0.783999,0.18666 1.306665,0.85866 0.522667,0.63467 0.522667,1.456 v 0.224 q 0,0.97067 -0.709333,1.68 -0.672,0.672 -1.679999,0.672 H 77.998787 q -1.007999,0 -1.717332,-0.672 -0.671999,-0.70933 -0.671999,-1.68 v -0.224 q 0,-0.26133 0.07467,-0.56 H 66.50013 q -0.112,0.63467 -0.112,1.26933 0,3.54667 2.501332,6.048 2.538664,2.50133 6.122661,2.50133 h 19.22665 q 3.546664,0 6.047997,-2.50133 2.53866,-2.50133 2.53866,-6.048 0,-3.54666 -2.53866,-6.01066 -2.501333,-2.50133 -6.047997,-2.50133 H 77.252121 q -0.783999,-0.18667 -1.306666,-0.82133 -0.522666,-0.63467 -0.522666,-1.49333 v -0.18667 q 0,-1.008 0.672,-1.68 0.709332,-0.70933 1.717332,-0.70933 h 13.402655 q 1.007999,0 1.679998,0.70933 0.709333,0.672 0.709333,1.68 v 0.18667 q 0,0.26133 -0.03733,0.56 h 9.183996 q 0.0747,-0.63467 0.0747,-1.26934 0,-3.54666 -2.53866,-6.04799 -2.501333,-2.50133 -6.047997,-2.50133 z m 30.053277,-0.18667 v 28.82131 h 9.03466 v -10.30399 h 19.63732 v -6.496 h -19.63732 v -4.66666 h 22.51198 v -7.35466 h -22.51198 -6.12266 z"
     id="text2"
     style="font-size:37.3333px;font-family:'Librestile Extended Bold';-inkscape-font-specification:'Librestile Extended Bold, ';white-space:pre;fill-rule:evenodd;stroke-width:11.3386;stroke-linecap:round"
     transform="translate(19.387885,-3.1746031)"
     aria-label="XSF" /></g><defs
   id="defs15"><rect
     x="23.492063"
     y="154.28571"
     width="182.85714"
     height="111.74603"
     id="rect1" /><linearGradient
     id="SVGID_left_-3"
     y2="1.279e-13"
     gradientUnits="userSpaceOnUse"
     x2="-1073.2"
     gradientTransform="matrix(-1,0,0,1,-987.20401,109.999)"
     y1="126.85"
     x1="-1073.2">
	<stop
   stop-color="#1b3967"
   offset=".011"
   id="stop4-6" />
	<stop
   stop-color="#13b5ea"
   offset=".467"
   id="stop5-7" />
	<stop
   stop-color="#002b5c"
   offset=".9945"
   id="stop6-5" />
</linearGradient><linearGradient
     id="SVGID_right_-3"
     y2="1.279e-13"
     gradientUnits="userSpaceOnUse"
     x2="-1073.2"
     gradientTransform="translate(1204.188,110)"
     y1="126.85"
     x1="-1073.2">
	<stop
   stop-color="#1b3967"
   offset=".011"
   id="stop1-5" />
	<stop
   stop-color="#13b5ea"
   offset=".467"
   id="stop2-6" />
	<stop
   stop-color="#002b5c"
   offset=".9945"
   id="stop3-2" />
</linearGradient><rect
     x="23.492063"
     y="154.28571"
     width="182.85714"
     height="111.74603"
     id="rect2" /></defs><sodipodi:namedview
   id="namedview15"
   pagecolor="#ffffff"
   bordercolor="#000000"
   borderopacity="0.25"
   inkscape:showpageshadow="2"
   inkscape:pageopacity="0.0"
   inkscape:pagecheckerboard="0"
   inkscape:deskcolor="#d1d1d1"
   showgrid="false"
   showguides="false"
   inkscape:zoom="1.575"
   inkscape:cx="107.61905"
   inkscape:cy="142.22222"
   inkscape:window-width="1596"
   inkscape:window-height="841"
   inkscape:window-x="0"
   inkscape:window-y="0"
   inkscape:window-maximized="0"
   inkscape:current-layer="svg15" />
<style
   id="style1">
	path {
		fill: black;
	}
	@media (prefers-color-scheme: dark) {
		path {
			fill: white;
		}
	}
</style>

<linearGradient
   id="SVGID_right_"
   y2="1.279e-13"
   gradientUnits="userSpaceOnUse"
   x2="-1073.2"
   gradientTransform="translate(1196.604,15.368977)"
   y1="126.85"
   x1="-1073.2">
	<stop
   stop-color="#1b3967"
   offset=".011"
   id="stop1" />
	<stop
   stop-color="#13b5ea"
   offset=".467"
   id="stop2" />
	<stop
   stop-color="#002b5c"
   offset=".9945"
   id="stop3" />
</linearGradient>

<linearGradient
   id="SVGID_left_"
   y2="1.279e-13"
   gradientUnits="userSpaceOnUse"
   x2="-1073.2"
   gradientTransform="matrix(-1,0,0,1,-994.78801,15.367977)"
   y1="126.85"
   x1="-1073.2">
	<stop
   stop-color="#1b3967"
   offset=".011"
   id="stop4" />
	<stop
   stop-color="#13b5ea"
   offset=".467"
   id="stop5" />
	<stop
   stop-color="#002b5c"
   offset=".9945"
   id="stop6" />
</linearGradient>













<g
   id="g16"
   inkscape:label="Logo"
   transform="matrix(0.56,0,0,0.56,40.513979,-4.2467386)"><path
     id="rect16"
     style="fill:none;fill-opacity:1;fill-rule:evenodd;stroke:#000000;stroke-width:3.77953;stroke-linecap:round;stroke-opacity:1"
     d="M 101.58789,17.777344 14.285156,61.904297 h 11.9375 c -0.282013,0 -0.507812,0.227753 -0.507812,0.509765 V 140.125 c 0,0.28201 0.225799,0.50977 0.507812,0.50977 H 173.45898 c 0.28202,0 0.50977,-0.22776 0.50977,-0.50977 V 62.414062 c 0,-0.282012 -0.22775,-0.509765 -0.50977,-0.509765 h 14.79493 z"
     transform="matrix(1.7857143,0,0,1.7857143,-72.346391,7.5834618)"
     inkscape:label="building"
     sodipodi:nodetypes="cccssssssccc" /><path
     d="m 159.38912,124.189 c 0.077,1.313 -1.787,0.968 -1.787,2.293 0,38.551 -46.558,97.36601 -91.687985,108.73001 v 1.639 C 125.86713,231.33101 194.47412,169.051 195.98412,110.001 l -36.599,14.189 z"
     style="fill:url(#SVGID_right_-3)"
     id="path6" /><path
     d="m 141.25712,128.932 c 0.076,1.313 0.12,2.63 0.12,3.957 0,38.551 -30.69898,90.49701 -75.826985,101.86001 v 1.639 C 124.59414,233.59801 171.36013,173.364 171.36013,127.188 c 0,-2.375 -0.128,-4.729 -0.371,-7.056 l -29.73,8.798 z"
     style="fill:#e96d1f"
     id="path7" /><path
     d="m 171.27512,119.583 -7.61699,2.722 c 0.041,0.962 0.066,2.254 0.066,3.225 0,41.219 -37.271,98.20401 -87.271995,107.12001 -3.24501,1.088 -7.53801,2.077 -10.932,2.931 v 1.638 C 130.77413,231.65901 176.62013,165.353 171.28012,119.579 Z"
     style="fill:#d9541e"
     id="path8" /><path
     d="m 57.595,124.188 c -0.077,1.313 1.787,0.968 1.787,2.293 0,38.551 46.55801,97.36601 91.68799,108.73001 v 1.639 C 91.117,231.33001 22.51,169.05 21,110 l 36.599,14.189 z"
     style="fill:url(#SVGID_left_-3)"
     id="path9" /><path
     d="m 75.727,128.931 c -0.076,1.313 -0.12,2.63 -0.12,3.957 0,38.551 30.69899,90.49701 75.82699,101.86001 v 1.639 C 92.39,233.59701 45.624,173.363 45.624,127.187 c 0,-2.375 0.128,-4.729 0.371,-7.056 l 29.73,8.798 z"
     style="fill:#a0ce67"
     id="path10" /><path
     d="m 45.709,119.582 7.617,2.722 c -0.041,0.962 -0.066,2.254 -0.066,3.225 0,41.219 37.271,98.20401 87.27199,107.12001 3.245,1.088 7.538,2.077 10.932,2.931 v 1.638 C 86.21,231.65801 40.364,165.352 45.704,119.578 Z"
     style="fill:#439639"
     id="path11" /></g><text
   xml:space="preserve"
   id="text1"
   style="font-style:normal;font-variant:normal;font-weight:normal;font-stretch:normal;font-size:37.3333px;font-family:'Librestile Extended Bold';-inkscape-font-specification:'Librestile Extended Bold, ';text-align:start;writing-mode:lr-tb;direction:ltr;white-space:pre;shape-inside:url(#rect1);display:none;fill:#000000;fill-rule:evenodd;stroke-width:11.3386;stroke-linecap:round"
   transform="translate(19.387885,-3.1746031)"><tspan
     x="23.492188"
     y="188.81846"
     id="tspan1">XSF</tspan></text></svg>
