<?xml version="1.0" encoding="UTF-8" standalone="no"?>
<svg
   width="511.72333"
   height="96.604103"
   viewBox="0 0 406 76.645451"
   class="css-1j8o68f"
   version="1.1"
   id="svg53"
   xmlns:xlink="http://www.w3.org/1999/xlink"
   xmlns="http://www.w3.org/2000/svg"
   xmlns:svg="http://www.w3.org/2000/svg">
  <defs
     id="SvgjsDefs1046">
    <linearGradient
       id="SvgjsLinearGradient1053">
      <stop
         id="SvgjsStop1054"
         stop-color="#7f00ff"
         offset="0" />
      <stop
         id="SvgjsStop1055"
         stop-color="#e100ff"
         offset="1" />
    </linearGradient>
    <linearGradient
       xlink:href="#SvgjsLinearGradient1053"
       id="linearGradient180"
       gradientTransform="scale(0.65369376,1.5297683)"
       x1="950.48206"
       y1="106.7728"
       x2="1178.7445"
       y2="106.7728"
       gradientUnits="userSpaceOnUse" />
    <linearGradient
       xlink:href="#SvgjsLinearGradient1053"
       id="linearGradient182"
       gradientTransform="scale(0.65369376,1.5297683)"
       x1="950.48206"
       y1="106.7728"
       x2="1178.7445"
       y2="106.7728"
       gradientUnits="userSpaceOnUse" />
    <linearGradient
       xlink:href="#SvgjsLinearGradient1053"
       id="linearGradient184"
       gradientTransform="scale(1.3032523,0.76731112)"
       x1="432.20471"
       y1="586.14941"
       x2="678.18445"
       y2="586.14941"
       gradientUnits="userSpaceOnUse" />
    <linearGradient
       xlink:href="#SvgjsLinearGradient1053"
       id="linearGradient186"
       gradientTransform="scale(1.3032523,0.76731112)"
       x1="432.20471"
       y1="586.14941"
       x2="678.18445"
       y2="586.14941"
       gradientUnits="userSpaceOnUse" />
    <linearGradient
       xlink:href="#SvgjsLinearGradient1053"
       id="linearGradient188"
       gradientTransform="scale(1.1824858,0.84567609)"
       x1="350.86575"
       y1="729.24176"
       x2="610.79095"
       y2="729.24176"
       gradientUnits="userSpaceOnUse" />
    <linearGradient
       xlink:href="#SvgjsLinearGradient1053"
       id="linearGradient190"
       gradientTransform="scale(1.1824858,0.84567609)"
       x1="350.86575"
       y1="729.24176"
       x2="610.79095"
       y2="729.24176"
       gradientUnits="userSpaceOnUse" />
    <linearGradient
       xlink:href="#SvgjsLinearGradient1053"
       id="linearGradient192"
       gradientTransform="scale(0.64907604,1.5406515)"
       x1="357.41354"
       y1="317.35742"
       x2="584.27454"
       y2="317.35742"
       gradientUnits="userSpaceOnUse" />
    <linearGradient
       xlink:href="#SvgjsLinearGradient1053"
       id="linearGradient194"
       gradientTransform="scale(0.64907604,1.5406515)"
       x1="357.41354"
       y1="317.35742"
       x2="584.27454"
       y2="317.35742"
       gradientUnits="userSpaceOnUse" />
    <linearGradient
       xlink:href="#SvgjsLinearGradient1053"
       id="linearGradient196"
       gradientTransform="scale(1.2893824,0.77556508)"
       x1="90.10537"
       y1="466.99304"
       x2="337.51297"
       y2="466.99304"
       gradientUnits="userSpaceOnUse" />
    <linearGradient
       xlink:href="#SvgjsLinearGradient1053"
       id="linearGradient198"
       gradientTransform="scale(1.2893824,0.77556508)"
       x1="90.10537"
       y1="466.99304"
       x2="337.51297"
       y2="466.99304"
       gradientUnits="userSpaceOnUse" />
    <linearGradient
       xlink:href="#SvgjsLinearGradient1053"
       id="linearGradient200"
       gradientTransform="scale(1.1894334,0.84073641)"
       x1="230.56479"
       y1="194.90031"
       x2="490.57852"
       y2="194.90031"
       gradientUnits="userSpaceOnUse" />
    <linearGradient
       xlink:href="#SvgjsLinearGradient1053"
       id="linearGradient202"
       gradientTransform="scale(1.1894334,0.84073641)"
       x1="230.56479"
       y1="194.90031"
       x2="490.57852"
       y2="194.90031"
       gradientUnits="userSpaceOnUse" />
    <linearGradient
       xlink:href="#SvgjsLinearGradient1053"
       id="linearGradient204"
       gradientTransform="scale(1.5075003,0.6633498)"
       x1="121.79102"
       y1="374.76456"
       x2="282.49054"
       y2="374.76456"
       gradientUnits="userSpaceOnUse" />
    <linearGradient
       xlink:href="#SvgjsLinearGradient1053"
       id="linearGradient206"
       gradientTransform="scale(0.81394341,1.2285866)"
       x1="170.2821"
       y1="368.44788"
       x2="364.35052"
       y2="368.44788"
       gradientUnits="userSpaceOnUse" />
    <linearGradient
       xlink:href="#SvgjsLinearGradient1053"
       id="linearGradient208"
       gradientTransform="scale(0.87159791,1.147318)"
       x1="566.20148"
       y1="98.752045"
       x2="756.4726"
       y2="98.752045"
       gradientUnits="userSpaceOnUse" />
    <linearGradient
       xlink:href="#SvgjsLinearGradient1053"
       id="linearGradient210"
       gradientTransform="scale(0.83667967,1.1952005)"
       x1="840.69116"
       y1="265.56213"
       x2="1035.1632"
       y2="265.56213"
       gradientUnits="userSpaceOnUse" />
    <linearGradient
       xlink:href="#SvgjsLinearGradient1053"
       id="linearGradient212"
       gradientTransform="scale(1.5365713,0.65079963)"
       x1="371.92166"
       y1="998.31036"
       x2="535.41284"
       y2="998.31036"
       gradientUnits="userSpaceOnUse" />
    <linearGradient
       xlink:href="#SvgjsLinearGradient1053"
       id="linearGradient214"
       gradientTransform="scale(0.87917276,1.1374329)"
       x1="389.80676"
       y1="588.8493"
       x2="580.43201"
       y2="588.8493"
       gradientUnits="userSpaceOnUse" />
    <linearGradient
       xlink:href="#SvgjsLinearGradient1053"
       id="linearGradient216"
       gradientTransform="scale(0.99634997,1.0036634)"
       x1="116.6059"
       y1="112.88645"
       x2="887.08331"
       y2="112.88645"
       gradientUnits="userSpaceOnUse" />
    <linearGradient
       xlink:href="#SvgjsLinearGradient1053"
       id="linearGradient218"
       gradientTransform="scale(0.99634997,1.0036634)"
       x1="116.6059"
       y1="112.88645"
       x2="887.08331"
       y2="112.88645"
       gradientUnits="userSpaceOnUse" />
  </defs>
  <g
     id="SvgjsG1047"
     featurekey="Df7oLJ-0"
     transform="matrix(0.09911477,0,0,0.09911477,-11.515182,-11.229703)"
     fill="url(#SvgjsLinearGradient1053)"
     style="fill:url(#linearGradient218)">
    <g
       id="g42"
       style="fill:url(#linearGradient216)">
      <g
         id="g8"
         style="fill:url(#linearGradient182)">
        <path
           d="m 669.6,164.4 c 18.6,-4.6 30.4,6.1 40.4,25.1 16.9,32.3 36.1,63.5 54.9,94.9 7,11.6 7.8,21.6 0.6,33.8 -36,61.2 -71.4,122.6 -106.6,184.2 -7.9,13.9 -11.8,13 -21.7,0.3 -21.6,-27.7 -20.6,-51.5 -0.4,-80.5 23.7,-34 41.8,-71.8 63.1,-107.5 6,-10.1 5.4,-17.8 -0.4,-27.5 -19.5,-32.6 -38.5,-65.5 -57.1,-98.6 -12.5,-22.3 -11.3,-23.9 15.2,-24.1 2.7,-0.1 5.6,-0.1 12,-0.1 z"
           id="path6"
           style="fill:url(#linearGradient180)" />
      </g>
      <g
         id="g12"
         style="fill:url(#linearGradient186)">
        <path
           d="m 875.2,477.6 c 13.3,13.7 10,29.4 -1.4,47.5 -19.4,30.9 -36.7,63.2 -54.3,95.2 -6.5,11.8 -14.8,17.6 -28.9,17.6 -70.9,-0.3 -141.9,0 -212.8,0.6 -16,0.1 -17.2,-3.6 -11.2,-18.7 13.1,-32.6 34.2,-43.7 69.3,-40.9 41.3,3.4 83.1,-0.1 124.6,0.4 11.7,0.1 18.1,-4.2 23.6,-14.2 18.3,-33.3 37.2,-66.2 56.5,-99 13,-22.1 15,-21.8 28.5,1 1.5,2.5 2.9,4.9 6.1,10.5 z"
           id="path10"
           style="fill:url(#linearGradient184)" />
      </g>
      <g
         id="g16"
         style="fill:url(#linearGradient190)">
        <path
           d="m 708.1,812.8 c -5.1,18.4 -20.4,23.5 -41.7,22.7 -36.5,-1.2 -73.1,0.1 -109.6,1 -13.5,0.3 -22.6,-3.9 -29.7,-16.1 C 491.6,759 455.6,697.8 419.4,636.8 c -8.2,-13.8 -5.5,-16.7 10.5,-19 34.8,-5.1 55,7.5 70.2,39.3 17.9,37.4 41.9,71.8 62.4,107.9 5.8,10.2 12.8,13.5 24.2,13.2 38,-0.9 76,-1.2 113.9,-1 25.6,0.1 26.3,2 13.5,25.1 -1.4,2.5 -2.8,5 -6,10.5 z"
           id="path14"
           style="fill:url(#linearGradient188)" />
      </g>
      <g
         id="g20"
         style="fill:url(#linearGradient194)">
        <path
           d="m 334.4,837.3 c -18.5,4.8 -30.5,-5.8 -40.6,-24.6 -17.3,-32.1 -36.9,-63.1 -56,-94.2 -7.1,-11.5 -8,-21.5 -1,-33.8 35.2,-61.6 69.9,-123.5 104.4,-185.5 7.8,-14 11.6,-13.2 21.7,-0.5 21.9,27.5 21.2,51.3 1.4,80.5 -23.3,34.3 -40.9,72.3 -61.8,108.2 -5.9,10.2 -5.2,17.9 0.7,27.5 19.9,32.3 39.2,65 58.3,97.9 12.8,22.2 11.6,23.8 -14.9,24.3 -3,0.1 -5.9,0.1 -12.2,0.2 z"
           id="path18"
           style="fill:url(#linearGradient192)" />
      </g>
      <g
         id="g24"
         style="fill:url(#linearGradient198)">
        <path
           d="m 125.1,526.6 c -13.5,-13.6 -10.4,-29.3 0.8,-47.5 19.1,-31.1 36,-63.6 53.2,-95.9 6.4,-11.9 14.5,-17.8 28.7,-17.9 70.9,-0.5 141.9,-1.7 212.8,-3.1 16,-0.3 17.2,3.4 11.4,18.5 -12.7,32.8 -33.6,44.1 -68.8,41.7 -41.3,-2.9 -83.1,1 -124.6,1.1 -11.7,0 -18.1,4.5 -23.4,14.5 -17.9,33.5 -36.4,66.7 -55.3,99.6 -12.7,22.2 -14.7,21.9 -28.5,-0.6 -1.6,-2.4 -3.1,-4.9 -6.3,-10.4 z"
           id="path22"
           style="fill:url(#linearGradient196)" />
      </g>
      <g
         id="g28"
         style="fill:url(#linearGradient202)">
        <path
           d="m 288.1,189.4 c 4.9,-18.5 20.1,-23.7 41.4,-23.2 36.5,0.8 73.1,-1 109.6,-2.3 13.5,-0.5 22.7,3.6 29.9,15.8 36.2,61 72.9,121.7 109.9,182.3 8.3,13.7 5.7,16.6 -10.3,19.2 -34.7,5.5 -55.1,-6.9 -70.7,-38.5 -18.3,-37.1 -42.7,-71.2 -63.7,-107.1 -5.9,-10.1 -12.9,-13.4 -24.3,-13 -38,1.4 -75.9,2.1 -113.9,2.4 -25.6,0.2 -26.4,-1.7 -13.8,-24.9 1.4,-2.6 2.8,-5.1 5.9,-10.7 z"
           id="path26"
           style="fill:url(#linearGradient200)" />
      </g>
      <path
         d="m 406.4,273 c -41.2,0.2 -82.4,1.8 -123.6,1.9 -9.2,-15.7 -26.4,-26.3 -45.9,-26.3 -29.4,0 -53.3,23.9 -53.3,53.3 0,29.4 23.9,53.3 53.3,53.3 18.4,0 34.6,-9.3 44.2,-23.5 28,-1.1 56.1,-2.5 83.9,-0.4 29.3,2.2 42.8,-12.5 54.7,-34.2 10.5,-19.5 8.5,-24.2 -13.3,-24.1 z m -169.5,56.8 c -2.6,0 -5.2,-0.4 -7.6,-1 -11.7,-3.3 -20.3,-14.1 -20.3,-26.9 0,-15.4 12.5,-27.9 27.9,-27.9 4.6,0 9,1.1 12.9,3.1 8.9,4.7 15,14 15,24.8 0,15.4 -12.5,27.9 -27.9,27.9 z"
         id="path30"
         style="fill:url(#linearGradient204)" />
      <path
         d="m 284.3,467.2 c -11.4,-18.9 -16.6,-19.6 -27.4,-0.7 -22.2,38.5 -42.9,77.8 -65.4,116.1 -0.4,0.7 -0.8,1.4 -1.2,2 -28.6,0.8 -51.7,24.4 -51.7,53.2 0,29.4 23.9,53.3 53.3,53.3 29.4,0 53.3,-23.9 53.3,-53.3 0,-8.6 -2.1,-16.8 -5.7,-24 15,-27.8 29.1,-56.2 47,-82.1 16.5,-24.2 10.5,-43.3 -2.2,-64.5 z m -66,179.4 c -3.7,11.1 -14.2,19.2 -26.5,19.2 -15.4,0 -27.9,-12.5 -27.9,-27.9 0,-11.5 7,-21.5 17,-25.7 3.3,-1.4 7,-2.2 10.9,-2.2 15.4,0 27.9,12.5 27.9,27.9 0,3 -0.5,5.9 -1.4,8.7 z"
         id="path32"
         style="fill:url(#linearGradient206)" />
      <path
         d="m 653.5,308.4 c -20.7,-37.2 -42.8,-73.6 -63.3,-110.9 6.3,-8.7 9.9,-19.4 9.9,-30.9 0,-29.4 -23.9,-53.3 -53.3,-53.3 -29.4,0 -53.3,23.9 -53.3,53.3 0,25.9 18.6,47.6 43.2,52.3 16,26.8 32.8,53.1 45.6,81.3 12.2,26.8 31.6,31.5 56.4,31.4 22.2,-0.1 25.4,-4.2 14.8,-23.2 z M 574,173 c -2.9,12.3 -14,21.5 -27.2,21.5 -11.9,0 -22.2,-7.6 -26.1,-18.1 -1.1,-3 -1.8,-6.3 -1.8,-9.8 0,-15.4 12.5,-27.9 27.9,-27.9 15.4,0 27.9,12.5 27.9,27.9 0.1,2.2 -0.2,4.3 -0.7,6.4 z"
         id="path34"
         style="fill:url(#linearGradient208)" />
      <path
         d="m 812.9,317.4 c -29.4,0 -53.3,23.9 -53.3,53.3 0,6.1 1,11.9 2.9,17.3 v 0 c -15.6,28 -30.2,56.6 -48.5,82.6 -17,24 -11.3,43.2 1.2,64.5 11.2,19.1 16.4,19.8 27.4,1.1 22.1,-37.3 42.8,-75.4 65.1,-112.5 1.7,0.2 3.4,0.2 5.1,0.2 29.4,0 53.3,-23.9 53.3,-53.3 0,-29.4 -23.8,-53.2 -53.2,-53.2 z m 7.1,80.2 c -2.3,0.6 -4.6,0.9 -7.1,0.9 -15.4,0 -27.9,-12.5 -27.9,-27.9 0,-5.8 1.8,-11.2 4.9,-15.7 5,-7.4 13.5,-12.2 23,-12.2 15.4,0 27.9,12.5 27.9,27.9 0,13 -8.8,23.9 -20.8,27 z"
         id="path36"
         style="fill:url(#linearGradient210)" />
      <path
         d="m 769.4,649.7 c -17.1,0 -32.4,8.2 -42.2,20.8 -31.5,0.7 -63,2.4 -94.2,-0.4 -29.3,-2.6 -43,12 -55.1,33.5 -10.8,19.3 -8.9,24.1 12.9,24.2 43.8,0.3 87.6,-1 131.4,-0.4 8.9,17 26.7,28.7 47.2,28.7 29.4,0 53.3,-23.9 53.3,-53.3 0,-29.2 -23.9,-53.1 -53.3,-53.1 z m 0,81.1 c -6.9,0 -13.2,-2.5 -18.1,-6.7 -6,-5.1 -9.8,-12.7 -9.8,-21.2 0,-15.4 12.5,-27.9 27.9,-27.9 h 0.1 c 15.4,0 27.9,12.5 27.9,27.9 -0.1,15.4 -12.6,27.9 -28,27.9 z"
         id="path38"
         style="fill:url(#linearGradient212)" />
      <path
         d="m 466.3,780.9 c -16.2,-26.4 -33.3,-52.5 -46.4,-80.4 -12.5,-26.6 -32,-31.1 -56.7,-30.7 -22.1,0.3 -25.3,4.5 -14.5,23.3 21.1,36.9 43.6,73 64.5,109.9 -6,8.6 -9.5,19.1 -9.5,30.3 0,29.4 23.9,53.3 53.3,53.3 29.4,0 53.3,-23.9 53.3,-53.3 0,-26.1 -19.1,-47.9 -44,-52.4 z m -9.3,80.4 c -15.4,0 -27.9,-12.5 -27.9,-27.9 0,-2 0.2,-4 0.6,-5.9 2.7,-12.6 13.9,-22.1 27.3,-22.1 11.9,0 22.1,7.5 26.1,18 v 0 c 1.1,3.1 1.8,6.4 1.8,9.9 0,15.5 -12.5,28 -27.9,28 z"
         id="path40"
         style="fill:url(#linearGradient214)" />
    </g>
  </g>
  <g
     id="SvgjsG1048"
     featurekey="textGroupContainer"
     transform="translate(405,2.0000002)"
     fill="#111111">
    <rect
       y="0"
       height="1"
       width="1"
       opacity="0"
       id="rect45"
       x="0" />
    <rect
       y="0"
       x="-309"
       width="3"
       height="74"
       id="rect47" />
  </g>
  <g
     id="SvgjsG1049"
     featurekey="Ua4uQk-0"
     transform="matrix(2.5594566,0,0,2.5594566,111.69649,6.1551486)"
     fill="#111111">
    <path
       d="m 13.02,18.5 c -1.26,1.12 -2.9,1.7 -4.8,1.7 C 4.26,20.2 0.9,17.26 0.9,13 0.9,8.74 4.26,5.8 8.22,5.8 c 1.88,0 3.5,0.6 4.72,1.66 L 11,9.64 C 10.3,9.16 9.36,8.82 8.42,8.82 5.96,8.82 4.26,10.58 4.26,13 c 0,2.42 1.7,4.18 4.16,4.18 0.98,0 1.98,-0.38 2.68,-0.94 z M 19.9,9.42 c 2.36,0 5.66,1.78 5,6.48 h -7.26 c 0.36,1.08 1.3,1.64 2.56,1.64 1.28,0 1.68,-0.28 2.4,-0.58 l 1.74,1.68 c -0.92,0.9 -2.16,1.56 -4.26,1.56 -2.58,0 -5.66,-1.78 -5.66,-5.36 0,-3.64 3.12,-5.42 5.48,-5.42 z m 0,2.7 c -0.9,0 -1.82,0.52 -2.22,1.56 H 22.1 C 21.78,12.64 20.8,12.12 19.9,12.12 Z M 33.38,9.44 c 0.28,0 0.56,0 0.82,0.06 v 3.02 c -0.24,-0.06 -0.52,-0.06 -0.72,-0.06 -1.92,0 -3.46,1.38 -3.62,3.3 V 20 H 26.7 V 9.6 h 3.16 v 2.54 c 0.48,-1.56 1.68,-2.7 3.52,-2.7 z m 7.7,7.92 c 0.56,0 0.96,-0.08 1.4,-0.2 v 2.62 c -0.44,0.2 -1.16,0.34 -2.22,0.34 -1.74,0 -3.2,-0.58 -3.2,-3.78 V 12.2 H 35.6 V 9.6 h 1.46 V 7.16 h 3.16 V 9.6 h 2.22 v 2.6 h -2.22 v 4.14 c 0,0.46 0.12,1.02 0.86,1.02 z M 63.92,6 59.3,20 H 56.96 L 53.82,11.64 50.7,20 H 48.36 L 43.74,6 h 3.4 L 49.66,13.76 52.54,6 H 55.1 L 58,13.76 60.52,6 Z m 9.1,3.6 h 3.16 V 20 h -3.16 v -1.04 c -0.14,0.36 -1.08,1.24 -2.68,1.24 -2.38,0 -5.12,-1.7 -5.12,-5.42 0,-3.58 2.74,-5.36 5.12,-5.36 1.6,0 2.54,0.92 2.68,1.14 z m -2.22,7.82 c 1.3,0 2.36,-0.9 2.36,-2.64 0,-1.68 -1.06,-2.58 -2.36,-2.58 -1.36,0 -2.52,0.92 -2.52,2.58 0,1.72 1.16,2.64 2.52,2.64 z m 12.48,-0.06 c 0.56,0 0.96,-0.08 1.4,-0.2 v 2.62 c -0.44,0.2 -1.16,0.34 -2.22,0.34 -1.74,0 -3.2,-0.58 -3.2,-3.78 V 12.2 H 77.8 V 9.6 h 1.46 V 7.16 h 3.16 V 9.6 h 2.22 v 2.6 h -2.22 v 4.14 c 0,0.46 0.12,1.02 0.86,1.02 z m 8.2,-7.94 c 1.9,0 3.5,0.8 4.48,2.48 l -2.4,1.14 C 93.04,12.6 92.62,12.2 91.52,12.2 c -1.2,0 -2.42,0.92 -2.42,2.62 0,1.68 1.22,2.56 2.42,2.56 1.1,0 1.52,-0.36 2.04,-0.8 L 96,17.72 c -1.02,1.68 -2.58,2.44 -4.52,2.44 -2.32,0 -5.44,-1.66 -5.44,-5.34 0,-3.62 3.12,-5.4 5.44,-5.4 z M 104,9.44 c 1.94,0 3.92,1.3 3.92,4.6 V 20 h -3.16 v -5.74 c 0,-1.58 -0.54,-2.08 -1.54,-2.08 -1.42,0 -2.24,1.38 -2.44,1.98 V 20 H 97.62 V 5.86 h 3.16 v 5.54 c 0.2,-0.5 1.26,-1.96 3.22,-1.96 z"
       id="path50" />
  </g>
</svg>
